<?xml version="1.0" encoding="UTF-8" standalone="no"?>
<!DOCTYPE svg PUBLIC "-//W3C//DTD SVG 1.1//EN"
 "http://www.w3.org/Graphics/SVG/1.1/DTD/svg11.dtd">
<!-- Generated by graphviz version 2.43.0 (0)
 -->
<!-- Title: standalone/solver.pgesv.cpp Pages: 1 -->
<svg width="485pt" height="357pt"
 viewBox="0.00 0.00 484.50 357.00" xmlns="http://www.w3.org/2000/svg" xmlns:xlink="http://www.w3.org/1999/xlink">
<g id="graph0" class="graph" transform="scale(1 1) rotate(0) translate(4 353)">
<title>standalone/solver.pgesv.cpp</title>
<!-- Node1 -->
<g id="Node000001" class="node">
<title>Node1</title>
<g id="a_Node000001"><a xlink:title="Standalone pgesv solver.">
<polygon fill="#999999" stroke="#666666" points="357,-349 202,-349 202,-330 357,-330 357,-349"/>
<text text-anchor="middle" x="279.5" y="-337" font-family="Helvetica,sans-Serif" font-size="10.00">standalone/solver.pgesv.cpp</text>
</a>
</g>
</g>
<!-- Node2 -->
<g id="Node000002" class="node">
<title>Node2</title>
<g id="a_Node000002"><a xlink:href="../../d3/d6d/solver_8full_8hpp_source.html" target="_top" xlink:title=" ">
<polygon fill="white" stroke="#666666" points="322.5,-294 236.5,-294 236.5,-275 322.5,-275 322.5,-294"/>
<text text-anchor="middle" x="279.5" y="-282" font-family="Helvetica,sans-Serif" font-size="10.00">solver.full.hpp</text>
</a>
</g>
</g>
<!-- Node1&#45;&gt;Node2 -->
<g id="edge1_Node000001_Node000002" class="edge">
<title>Node1&#45;&gt;Node2</title>
<g id="a_edge1_Node000001_Node000002"><a xlink:title=" ">
<path fill="none" stroke="#63b8ff" d="M279.5,-329.75C279.5,-322.8 279.5,-312.85 279.5,-304.13"/>
<polygon fill="#63b8ff" stroke="#63b8ff" points="283,-304.09 279.5,-294.09 276,-304.09 283,-304.09"/>
</a>
</g>
</g>
<!-- Node3 -->
<g id="Node000003" class="node">
<title>Node3</title>
<g id="a_Node000003"><a xlink:href="../../df/d21/pgesv_8hpp.html" target="_top" xlink:title=" ">
<polygon fill="white" stroke="#666666" points="164.5,-239 78.5,-239 78.5,-220 164.5,-220 164.5,-239"/>
<text text-anchor="middle" x="121.5" y="-227" font-family="Helvetica,sans-Serif" font-size="10.00">ezp/pgesv.hpp</text>
</a>
</g>
</g>
<!-- Node2&#45;&gt;Node3 -->
<g id="edge2_Node000002_Node000003" class="edge">
<title>Node2&#45;&gt;Node3</title>
<g id="a_edge2_Node000002_Node000003"><a xlink:title=" ">
<path fill="none" stroke="#63b8ff" d="M254.11,-274.98C227.7,-266.13 186.15,-252.19 156.61,-242.28"/>
<polygon fill="#63b8ff" stroke="#63b8ff" points="157.68,-238.94 147.08,-239.08 155.45,-245.58 157.68,-238.94"/>
</a>
</g>
</g>
<!-- Node14 -->
<g id="Node000014" class="node">
<title>Node14</title>
<g id="a_Node000014"><a xlink:href="../../d8/d17/pgesvx_8hpp.html" target="_top" xlink:title=" ">
<polygon fill="white" stroke="#666666" points="380,-239 287,-239 287,-220 380,-220 380,-239"/>
<text text-anchor="middle" x="333.5" y="-227" font-family="Helvetica,sans-Serif" font-size="10.00">ezp/pgesvx.hpp</text>
</a>
</g>
</g>
<!-- Node2&#45;&gt;Node14 -->
<g id="edge13_Node000002_Node000014" class="edge">
<title>Node2&#45;&gt;Node14</title>
<g id="a_edge13_Node000002_Node000014"><a xlink:title=" ">
<path fill="none" stroke="#63b8ff" d="M288.42,-274.75C296.28,-267.03 307.93,-255.6 317.42,-246.28"/>
<polygon fill="#63b8ff" stroke="#63b8ff" points="320.06,-248.59 324.75,-239.09 315.16,-243.6 320.06,-248.59"/>
</a>
</g>
</g>
<!-- Node16 -->
<g id="Node000016" class="node">
<title>Node16</title>
<g id="a_Node000016"><a xlink:href="../../d4/d53/pposv_8hpp.html" target="_top" xlink:title=" ">
<polygon fill="white" stroke="#666666" points="268.5,-239 182.5,-239 182.5,-220 268.5,-220 268.5,-239"/>
<text text-anchor="middle" x="225.5" y="-227" font-family="Helvetica,sans-Serif" font-size="10.00">ezp/pposv.hpp</text>
</a>
</g>
</g>
<!-- Node2&#45;&gt;Node16 -->
<g id="edge16_Node000002_Node000016" class="edge">
<title>Node2&#45;&gt;Node16</title>
<g id="a_edge16_Node000002_Node000016"><a xlink:title=" ">
<path fill="none" stroke="#63b8ff" d="M270.58,-274.75C262.72,-267.03 251.07,-255.6 241.58,-246.28"/>
<polygon fill="#63b8ff" stroke="#63b8ff" points="243.84,-243.6 234.25,-239.09 238.94,-248.59 243.84,-243.6"/>
</a>
</g>
</g>
<!-- Node17 -->
<g id="Node000017" class="node">
<title>Node17</title>
<g id="a_Node000017"><a xlink:title=" ">
<polygon fill="#e0e0e0" stroke="#999999" points="476.5,-239 398.5,-239 398.5,-220 476.5,-220 476.5,-239"/>
<text text-anchor="middle" x="437.5" y="-227" font-family="Helvetica,sans-Serif" font-size="10.00">mpl/mpl.hpp</text>
</a>
</g>
</g>
<!-- Node2&#45;&gt;Node17 -->
<g id="edge18_Node000002_Node000017" class="edge">
<title>Node2&#45;&gt;Node17</title>
<g id="a_edge18_Node000002_Node000017"><a xlink:title=" ">
<path fill="none" stroke="#63b8ff" d="M304.89,-274.98C331.3,-266.13 372.85,-252.19 402.39,-242.28"/>
<polygon fill="#63b8ff" stroke="#63b8ff" points="403.55,-245.58 411.92,-239.08 401.32,-238.94 403.55,-245.58"/>
</a>
</g>
</g>
<!-- Node4 -->
<g id="Node000004" class="node">
<title>Node4</title>
<g id="a_Node000004"><a xlink:href="../../d0/dec/full__solver_8hpp_source.html" target="_top" xlink:title=" ">
<polygon fill="white" stroke="#666666" points="289,-184 158,-184 158,-165 289,-165 289,-184"/>
<text text-anchor="middle" x="223.5" y="-172" font-family="Helvetica,sans-Serif" font-size="10.00">abstract/full_solver.hpp</text>
</a>
</g>
</g>
<!-- Node3&#45;&gt;Node4 -->
<g id="edge3_Node000003_Node000004" class="edge">
<title>Node3&#45;&gt;Node4</title>
<g id="a_edge3_Node000003_Node000004"><a xlink:title=" ">
<path fill="none" stroke="#63b8ff" d="M137.89,-219.98C154.07,-211.57 179.07,-198.59 197.88,-188.81"/>
<polygon fill="#63b8ff" stroke="#63b8ff" points="199.55,-191.89 206.81,-184.17 196.33,-185.68 199.55,-191.89"/>
</a>
</g>
</g>
<!-- Node5 -->
<g id="Node000005" class="node">
<title>Node5</title>
<g id="a_Node000005"><a xlink:href="../../dc/ddc/abstract__solver_8hpp_source.html" target="_top" xlink:title=" ">
<polygon fill="white" stroke="#666666" points="279.5,-129 167.5,-129 167.5,-110 279.5,-110 279.5,-129"/>
<text text-anchor="middle" x="223.5" y="-117" font-family="Helvetica,sans-Serif" font-size="10.00">abstract_solver.hpp</text>
</a>
</g>
</g>
<!-- Node4&#45;&gt;Node5 -->
<g id="edge4_Node000004_Node000005" class="edge">
<title>Node4&#45;&gt;Node5</title>
<g id="a_edge4_Node000004_Node000005"><a xlink:title=" ">
<path fill="none" stroke="#63b8ff" d="M223.5,-164.75C223.5,-157.8 223.5,-147.85 223.5,-139.13"/>
<polygon fill="#63b8ff" stroke="#63b8ff" points="227,-139.09 223.5,-129.09 220,-139.09 227,-139.09"/>
</a>
</g>
</g>
<!-- Node6 -->
<g id="Node000006" class="node">
<title>Node6</title>
<g id="a_Node000006"><a xlink:href="../../d1/d4c/ezp_8h_source.html" target="_top" xlink:title=" ">
<polygon fill="white" stroke="#666666" points="87,-74 44,-74 44,-55 87,-55 87,-74"/>
<text text-anchor="middle" x="65.5" y="-62" font-family="Helvetica,sans-Serif" font-size="10.00">ezp.h</text>
</a>
</g>
</g>
<!-- Node5&#45;&gt;Node6 -->
<g id="edge5_Node000005_Node000006" class="edge">
<title>Node5&#45;&gt;Node6</title>
<g id="a_edge5_Node000005_Node000006"><a xlink:title=" ">
<path fill="none" stroke="#63b8ff" d="M198.11,-109.98C170.65,-100.77 126.81,-86.07 97.12,-76.11"/>
<polygon fill="#63b8ff" stroke="#63b8ff" points="97.86,-72.66 87.26,-72.8 95.63,-79.3 97.86,-72.66"/>
</a>
</g>
</g>
<!-- Node9 -->
<g id="Node000009" class="node">
<title>Node9</title>
<g id="a_Node000009"><a xlink:title=" ">
<polygon fill="#e0e0e0" stroke="#999999" points="147.5,-74 105.5,-74 105.5,-55 147.5,-55 147.5,-74"/>
<text text-anchor="middle" x="126.5" y="-62" font-family="Helvetica,sans-Serif" font-size="10.00">array</text>
</a>
</g>
</g>
<!-- Node5&#45;&gt;Node9 -->
<g id="edge8_Node000005_Node000009" class="edge">
<title>Node5&#45;&gt;Node9</title>
<g id="a_edge8_Node000005_Node000009"><a xlink:title=" ">
<path fill="none" stroke="#63b8ff" d="M207.92,-109.98C192.73,-101.69 169.4,-88.94 151.6,-79.22"/>
<polygon fill="#63b8ff" stroke="#63b8ff" points="152.82,-75.89 142.37,-74.17 149.47,-82.04 152.82,-75.89"/>
</a>
</g>
</g>
<!-- Node10 -->
<g id="Node000010" class="node">
<title>Node10</title>
<g id="a_Node000010"><a xlink:title=" ">
<polygon fill="#e0e0e0" stroke="#999999" points="215.5,-74 165.5,-74 165.5,-55 215.5,-55 215.5,-74"/>
<text text-anchor="middle" x="190.5" y="-62" font-family="Helvetica,sans-Serif" font-size="10.00">atomic</text>
</a>
</g>
</g>
<!-- Node5&#45;&gt;Node10 -->
<g id="edge9_Node000005_Node000010" class="edge">
<title>Node5&#45;&gt;Node10</title>
<g id="a_edge9_Node000005_Node000010"><a xlink:title=" ">
<path fill="none" stroke="#63b8ff" d="M218.05,-109.75C213.49,-102.42 206.83,-91.73 201.21,-82.7"/>
<polygon fill="#63b8ff" stroke="#63b8ff" points="204.1,-80.73 195.85,-74.09 198.16,-84.43 204.1,-80.73"/>
</a>
</g>
</g>
<!-- Node11 -->
<g id="Node000011" class="node">
<title>Node11</title>
<g id="a_Node000011"><a xlink:title=" ">
<polygon fill="#e0e0e0" stroke="#999999" points="281,-74 234,-74 234,-55 281,-55 281,-74"/>
<text text-anchor="middle" x="257.5" y="-62" font-family="Helvetica,sans-Serif" font-size="10.00">cmath</text>
</a>
</g>
</g>
<!-- Node5&#45;&gt;Node11 -->
<g id="edge10_Node000005_Node000011" class="edge">
<title>Node5&#45;&gt;Node11</title>
<g id="a_edge10_Node000005_Node000011"><a xlink:title=" ">
<path fill="none" stroke="#63b8ff" d="M229.11,-109.75C233.82,-102.42 240.67,-91.73 246.47,-82.7"/>
<polygon fill="#63b8ff" stroke="#63b8ff" points="249.54,-84.4 251.99,-74.09 243.64,-80.62 249.54,-84.4"/>
</a>
</g>
</g>
<!-- Node12 -->
<g id="Node000012" class="node">
<title>Node12</title>
<g id="a_Node000012"><a xlink:title=" ">
<polygon fill="#e0e0e0" stroke="#999999" points="349.5,-74 299.5,-74 299.5,-55 349.5,-55 349.5,-74"/>
<text text-anchor="middle" x="324.5" y="-62" font-family="Helvetica,sans-Serif" font-size="10.00">ranges</text>
</a>
</g>
</g>
<!-- Node5&#45;&gt;Node12 -->
<g id="edge11_Node000005_Node000012" class="edge">
<title>Node5&#45;&gt;Node12</title>
<g id="a_edge11_Node000005_Node000012"><a xlink:title=" ">
<path fill="none" stroke="#63b8ff" d="M239.73,-109.98C255.68,-101.61 280.28,-88.7 298.88,-78.95"/>
<polygon fill="#63b8ff" stroke="#63b8ff" points="300.75,-81.92 307.98,-74.17 297.5,-75.72 300.75,-81.92"/>
</a>
</g>
</g>
<!-- Node13 -->
<g id="Node000013" class="node">
<title>Node13</title>
<g id="a_Node000013"><a xlink:title=" ">
<polygon fill="#e0e0e0" stroke="#999999" points="415,-74 368,-74 368,-55 415,-55 415,-74"/>
<text text-anchor="middle" x="391.5" y="-62" font-family="Helvetica,sans-Serif" font-size="10.00">vector</text>
</a>
</g>
</g>
<!-- Node5&#45;&gt;Node13 -->
<g id="edge12_Node000005_Node000013" class="edge">
<title>Node5&#45;&gt;Node13</title>
<g id="a_edge12_Node000005_Node000013"><a xlink:title=" ">
<path fill="none" stroke="#63b8ff" d="M250.49,-109.98C279.79,-100.74 326.59,-85.98 358.16,-76.02"/>
<polygon fill="#63b8ff" stroke="#63b8ff" points="359.35,-79.31 367.83,-72.97 357.24,-72.64 359.35,-79.31"/>
</a>
</g>
</g>
<!-- Node7 -->
<g id="Node000007" class="node">
<title>Node7</title>
<g id="a_Node000007"><a xlink:title=" ">
<polygon fill="#e0e0e0" stroke="#999999" points="59,-19 0,-19 0,0 59,0 59,-19"/>
<text text-anchor="middle" x="29.5" y="-7" font-family="Helvetica,sans-Serif" font-size="10.00">complex</text>
</a>
</g>
</g>
<!-- Node6&#45;&gt;Node7 -->
<g id="edge6_Node000006_Node000007" class="edge">
<title>Node6&#45;&gt;Node7</title>
<g id="a_edge6_Node000006_Node000007"><a xlink:title=" ">
<path fill="none" stroke="#63b8ff" d="M59.56,-54.75C54.52,-47.34 47.16,-36.5 40.99,-27.41"/>
<polygon fill="#63b8ff" stroke="#63b8ff" points="43.85,-25.39 35.33,-19.09 38.06,-29.33 43.85,-25.39"/>
</a>
</g>
</g>
<!-- Node8 -->
<g id="Node000008" class="node">
<title>Node8</title>
<g id="a_Node000008"><a xlink:title=" ">
<polygon fill="#e0e0e0" stroke="#999999" points="127.5,-19 77.5,-19 77.5,0 127.5,0 127.5,-19"/>
<text text-anchor="middle" x="102.5" y="-7" font-family="Helvetica,sans-Serif" font-size="10.00">cstdint</text>
</a>
</g>
</g>
<!-- Node6&#45;&gt;Node8 -->
<g id="edge7_Node000006_Node000008" class="edge">
<title>Node6&#45;&gt;Node8</title>
<g id="a_edge7_Node000006_Node000008"><a xlink:title=" ">
<path fill="none" stroke="#63b8ff" d="M71.61,-54.75C76.78,-47.34 84.35,-36.5 90.69,-27.41"/>
<polygon fill="#63b8ff" stroke="#63b8ff" points="93.65,-29.29 96.5,-19.09 87.91,-25.29 93.65,-29.29"/>
</a>
</g>
</g>
<!-- Node14&#45;&gt;Node4 -->
<g id="edge14_Node000014_Node000004" class="edge">
<title>Node14&#45;&gt;Node4</title>
<g id="a_edge14_Node000014_Node000004"><a xlink:title=" ">
<path fill="none" stroke="#63b8ff" d="M315.83,-219.98C298.21,-211.5 270.92,-198.35 250.57,-188.54"/>
<polygon fill="#63b8ff" stroke="#63b8ff" points="252.02,-185.36 241.49,-184.17 248.98,-191.66 252.02,-185.36"/>
</a>
</g>
</g>
<!-- Node15 -->
<g id="Node000015" class="node">
<title>Node15</title>
<g id="a_Node000015"><a xlink:title=" ">
<polygon fill="#e0e0e0" stroke="#999999" points="363.5,-184 307.5,-184 307.5,-165 363.5,-165 363.5,-184"/>
<text text-anchor="middle" x="335.5" y="-172" font-family="Helvetica,sans-Serif" font-size="10.00">numeric</text>
</a>
</g>
</g>
<!-- Node14&#45;&gt;Node15 -->
<g id="edge15_Node000014_Node000015" class="edge">
<title>Node14&#45;&gt;Node15</title>
<g id="a_edge15_Node000014_Node000015"><a xlink:title=" ">
<path fill="none" stroke="#63b8ff" d="M333.83,-219.75C334.09,-212.8 334.47,-202.85 334.8,-194.13"/>
<polygon fill="#63b8ff" stroke="#63b8ff" points="338.3,-194.21 335.18,-184.09 331.3,-193.95 338.3,-194.21"/>
</a>
</g>
</g>
<!-- Node16&#45;&gt;Node4 -->
<g id="edge17_Node000016_Node000004" class="edge">
<title>Node16&#45;&gt;Node4</title>
<g id="a_edge17_Node000016_Node000004"><a xlink:title=" ">
<path fill="none" stroke="#63b8ff" d="M225.17,-219.75C224.91,-212.8 224.53,-202.85 224.2,-194.13"/>
<polygon fill="#63b8ff" stroke="#63b8ff" points="227.7,-193.95 223.82,-184.09 220.7,-194.21 227.7,-193.95"/>
</a>
</g>
</g>
</g>
</svg>
