<?xml version="1.0" encoding="UTF-8" standalone="no"?>
<!DOCTYPE svg PUBLIC "-//W3C//DTD SVG 1.1//EN"
 "http://www.w3.org/Graphics/SVG/1.1/DTD/svg11.dtd">
<!-- Generated by graphviz version 2.43.0 (0)
 -->
<!-- Title: LIS_PRECON_STRUCT Pages: 1 -->
<!--zoomable 281 -->

<svg id="main" version="1.1" xmlns="http://www.w3.org/2000/svg" xmlns:xlink="http://www.w3.org/1999/xlink" xml:space="preserve" onload="init(evt)">
<style type="text/css"><![CDATA[
.node, .edge {opacity: 0.7;}
.node.selected, .edge.selected {opacity: 1;}
.edge:hover path { stroke: red; }
.edge:hover polygon { stroke: red; fill: red; }
]]></style>

<defs>
  <circle id="rim" cx="0" cy="0" r="7"/>
  <circle id="rim2" cx="0" cy="0" r="3.5"/>
  <g id="zoomPlus">
    <use xlink:href="#rim" fill="#404040"><set attributeName="fill" to="#808080" begin="zoomplus.mouseover" end="zoomplus.mouseout"/></use>
    <path d="M-4,0h8M0,-4v8" fill="none" stroke="white" stroke-width="1.5" pointer-events="none"/>
  </g>
  <g id="zoomMin">
    <use xlink:href="#rim" fill="#404040"><set attributeName="fill" to="#808080" begin="zoomminus.mouseover" end="zoomminus.mouseout"/></use>
    <path d="M-4,0h8" fill="none" stroke="white" stroke-width="1.5" pointer-events="none"/>
  </g>
  <g id="arrowUp" transform="translate(30 24)">
    <use xlink:href="#rim"/>
    <path pointer-events="none" fill="none" stroke="white" stroke-width="1.5" d="M0,-3.0v7 M-2.5,-0.5L0,-3.0L2.5,-0.5"/>
  </g>
  <g id="arrowRight" transform="rotate(90) translate(36 -43)">
    <use xlink:href="#rim"/>
    <path pointer-events="none" fill="none" stroke="white" stroke-width="1.5" d="M0,-3.0v7 M-2.5,-0.5L0,-3.0L2.5,-0.5"/>
  </g>
  <g id="arrowDown" transform="rotate(180) translate(-30 -48)">
    <use xlink:href="#rim"/>
    <path pointer-events="none" fill="none" stroke="white" stroke-width="1.5" d="M0,-3.0v7 M-2.5,-0.5L0,-3.0L2.5,-0.5"/>
  </g>
  <g id="arrowLeft" transform="rotate(270) translate(-36 17)">
    <use xlink:href="#rim"/>
    <path pointer-events="none" fill="none" stroke="white" stroke-width="1.5" d="M0,-3.0v7 M-2.5,-0.5L0,-3.0L2.5,-0.5"/>
  </g>
  <g id="resetDef">
    <use xlink:href="#rim2" fill="#404040"><set attributeName="fill" to="#808080" begin="reset.mouseover" end="reset.mouseout"/></use>
  </g>
</defs>
<script type="application/ecmascript">
var viewWidth = 766;
var viewHeight = 281;
var sectionId = 'dynsection-0';
</script>
<script type="application/ecmascript" xlink:href="../../svg.min.js"/>
<svg id="graph" class="graph">
<g id="viewport">
<title>LIS_PRECON_STRUCT</title>
<!-- Node1 -->
<g id="Node000001" class="node">
<title>Node1</title>
<g id="a_Node000001"><a xlink:title=" ">
<polygon fill="#999999" stroke="#666666" points="567,-138.39 446,-138.39 446,-119.39 567,-119.39 567,-138.39"/>
<text text-anchor="middle" x="506.5" y="-126.39" font-family="Helvetica,sans-Serif" font-size="10.00">LIS_PRECON_STRUCT</text>
</a>
</g>
</g>
<!-- Node8 -->
<g id="Node000008" class="node">
<title>Node8</title>
<g id="a_Node000008"><a xlink:href="../../d4/d5d/structLIS__SOLVER__STRUCT.html" target="_top" xlink:title=" ">
<polygon fill="white" stroke="#bfbfbf" points="758,-104.39 640,-104.39 640,-85.39 758,-85.39 758,-104.39"/>
<text text-anchor="middle" x="699" y="-92.39" font-family="Helvetica,sans-Serif" font-size="10.00">LIS_SOLVER_STRUCT</text>
</a>
</g>
</g>
<!-- Node1&#45;&gt;Node8 -->
<g id="edge12_Node000008_Node000001" class="edge">
<title>Node1&#45;&gt;Node8</title>
<g id="a_edge12_Node000008_Node000001"><a xlink:title=" ">
<path fill="none" stroke="#9a32cd" stroke-dasharray="5,2" d="M570.87,-117.58C594.8,-113.31 621.77,-108.5 644.69,-104.41"/>
<polygon fill="#9a32cd" stroke="#9a32cd" points="570.05,-114.17 560.82,-119.38 571.28,-121.07 570.05,-114.17"/>
</a>
</g>
<text text-anchor="middle" x="603.5" y="-118.89" font-family="Helvetica,sans-Serif" font-size="10.00" fill="grey"> precon</text>
</g>
<!-- Node2 -->
<g id="Node000002" class="node">
<title>Node2</title>
<g id="a_Node000002"><a xlink:href="../../d0/d39/structLIS__MATRIX__STRUCT.html" target="_top" xlink:title=" ">
<polygon fill="white" stroke="#bfbfbf" points="373.5,-200.39 255.5,-200.39 255.5,-181.39 373.5,-181.39 373.5,-200.39"/>
<text text-anchor="middle" x="314.5" y="-188.39" font-family="Helvetica,sans-Serif" font-size="10.00">LIS_MATRIX_STRUCT</text>
</a>
</g>
</g>
<!-- Node2&#45;&gt;Node1 -->
<g id="edge1_Node000001_Node000002" class="edge">
<title>Node2&#45;&gt;Node1</title>
<g id="a_edge1_Node000001_Node000002"><a xlink:title=" ">
<path fill="none" stroke="#9a32cd" stroke-dasharray="5,2" d="M383.65,-179.98C398.47,-176.77 413.92,-172.78 428,-167.89 450.34,-160.14 474.43,-147.23 489.72,-138.4"/>
<polygon fill="#9a32cd" stroke="#9a32cd" points="382.61,-176.62 373.52,-182.07 384.02,-183.47 382.61,-176.62"/>
</a>
</g>
<text text-anchor="middle" x="415" y="-188.89" font-family="Helvetica,sans-Serif" font-size="10.00" fill="grey"> A</text>
<text text-anchor="middle" x="415" y="-177.89" font-family="Helvetica,sans-Serif" font-size="10.00" fill="grey">Ah</text>
</g>
<!-- Node2&#45;&gt;Node8 -->
<g id="edge9_Node000008_Node000002" class="edge">
<title>Node2&#45;&gt;Node8</title>
<g id="a_edge9_Node000008_Node000002"><a xlink:title=" ">
<path fill="none" stroke="#9a32cd" stroke-dasharray="5,2" d="M371.79,-201.65C389.83,-203.56 409.83,-204.07 428,-200.89 528.45,-183.32 638.93,-127.22 680.71,-104.54"/>
<polygon fill="#9a32cd" stroke="#9a32cd" points="372.06,-198.16 361.71,-200.42 371.21,-205.1 372.06,-198.16"/>
</a>
</g>
<text text-anchor="middle" x="506.5" y="-209.89" font-family="Helvetica,sans-Serif" font-size="10.00" fill="grey"> A</text>
<text text-anchor="middle" x="506.5" y="-198.89" font-family="Helvetica,sans-Serif" font-size="10.00" fill="grey">Ah</text>
</g>
<!-- Node3 -->
<g id="Node000003" class="node">
<title>Node3</title>
<g id="a_Node000003"><a xlink:href="../../dc/d56/structLIS__MATRIX__CORE__STRUCT.html" target="_top" xlink:title=" ">
<polygon fill="white" stroke="#bfbfbf" points="150,-200.39 0,-200.39 0,-181.39 150,-181.39 150,-200.39"/>
<text text-anchor="middle" x="75" y="-188.39" font-family="Helvetica,sans-Serif" font-size="10.00">LIS_MATRIX_CORE_STRUCT</text>
</a>
</g>
</g>
<!-- Node3&#45;&gt;Node2 -->
<g id="edge2_Node000002_Node000003" class="edge">
<title>Node3&#45;&gt;Node2</title>
<g id="a_edge2_Node000002_Node000003"><a xlink:title=" ">
<path fill="none" stroke="#9a32cd" stroke-dasharray="5,2" d="M160.25,-190.89C191.71,-190.89 226.71,-190.89 255.31,-190.89"/>
<polygon fill="#9a32cd" stroke="#9a32cd" points="160.17,-187.39 150.17,-190.89 160.17,-194.39 160.17,-187.39"/>
</a>
</g>
<text text-anchor="middle" x="197.5" y="-204.89" font-family="Helvetica,sans-Serif" font-size="10.00" fill="grey"> L</text>
<text text-anchor="middle" x="197.5" y="-193.89" font-family="Helvetica,sans-Serif" font-size="10.00" fill="grey">U</text>
</g>
<!-- Node4 -->
<g id="Node000004" class="node">
<title>Node4</title>
<g id="a_Node000004"><a xlink:href="../../dc/dff/structLIS__MATRIX__DIAG__STRUCT.html" target="_top" xlink:title=" ">
<polygon fill="white" stroke="#bfbfbf" points="149,-122.39 1,-122.39 1,-103.39 149,-103.39 149,-122.39"/>
<text text-anchor="middle" x="75" y="-110.39" font-family="Helvetica,sans-Serif" font-size="10.00">LIS_MATRIX_DIAG_STRUCT</text>
</a>
</g>
</g>
<!-- Node4&#45;&gt;Node1 -->
<g id="edge6_Node000001_Node000004" class="edge">
<title>Node4&#45;&gt;Node1</title>
<g id="a_edge6_Node000001_Node000004"><a xlink:title=" ">
<path fill="none" stroke="#9a32cd" stroke-dasharray="5,2" d="M159.26,-114.69C221.25,-116.18 307.93,-118.59 384,-121.89 404.16,-122.77 426.19,-123.96 445.88,-125.12"/>
<polygon fill="#9a32cd" stroke="#9a32cd" points="159.22,-111.19 149.14,-114.45 159.06,-118.18 159.22,-111.19"/>
</a>
</g>
<text text-anchor="middle" x="314.5" y="-124.89" font-family="Helvetica,sans-Serif" font-size="10.00" fill="grey"> WD</text>
</g>
<!-- Node4&#45;&gt;Node2 -->
<g id="edge3_Node000002_Node000004" class="edge">
<title>Node4&#45;&gt;Node2</title>
<g id="a_edge3_Node000002_Node000004"><a xlink:title=" ">
<path fill="none" stroke="#9a32cd" stroke-dasharray="5,2" d="M113.15,-125.74C158.9,-141.56 232.16,-166.82 245,-170.89 256.22,-174.45 268.54,-178.13 279.61,-181.34"/>
<polygon fill="#9a32cd" stroke="#9a32cd" points="114.15,-122.39 103.56,-122.43 111.86,-129 114.15,-122.39"/>
</a>
</g>
<text text-anchor="middle" x="197.5" y="-177.89" font-family="Helvetica,sans-Serif" font-size="10.00" fill="grey"> D</text>
<text text-anchor="middle" x="197.5" y="-166.89" font-family="Helvetica,sans-Serif" font-size="10.00" fill="grey">WD</text>
</g>
<!-- Node4&#45;&gt;Node8 -->
<g id="edge11_Node000008_Node000004" class="edge">
<title>Node4&#45;&gt;Node8</title>
<g id="a_edge11_Node000008_Node000004"><a xlink:title=" ">
<path fill="none" stroke="#9a32cd" stroke-dasharray="5,2" d="M95.78,-97.23C125.91,-74.48 186.03,-33.33 245,-17.89 383.71,18.42 426.84,-7.64 567,-37.89 610.64,-47.31 657.68,-71.67 681.76,-85.29"/>
<polygon fill="#9a32cd" stroke="#9a32cd" points="93.56,-94.52 87.77,-103.38 97.83,-100.07 93.56,-94.52"/>
</a>
</g>
<text text-anchor="middle" x="415" y="-9.89" font-family="Helvetica,sans-Serif" font-size="10.00" fill="grey"> WD</text>
</g>
<!-- Node5 -->
<g id="Node000005" class="node">
<title>Node5</title>
<g id="a_Node000005"><a xlink:href="../../d1/d04/structLIS__COMMTABLE__STRUCT.html" target="_top" xlink:title=" ">
<polygon fill="white" stroke="#bfbfbf" points="146.5,-258.39 3.5,-258.39 3.5,-239.39 146.5,-239.39 146.5,-258.39"/>
<text text-anchor="middle" x="75" y="-246.39" font-family="Helvetica,sans-Serif" font-size="10.00">LIS_COMMTABLE_STRUCT</text>
</a>
</g>
</g>
<!-- Node5&#45;&gt;Node1 -->
<g id="edge13_Node000001_Node000005" class="edge">
<title>Node5&#45;&gt;Node1</title>
<g id="a_edge13_Node000001_Node000005"><a xlink:title=" ">
<path fill="none" stroke="#9a32cd" stroke-dasharray="5,2" d="M144.23,-259.54C222.14,-267.64 349,-267.9 428,-200.89 445.06,-186.42 430.44,-169.96 446,-153.89 452.55,-147.13 461.2,-142.12 469.88,-138.43"/>
<polygon fill="#9a32cd" stroke="#9a32cd" points="144.37,-256.03 134.04,-258.41 143.59,-262.99 144.37,-256.03"/>
</a>
</g>
<text text-anchor="middle" x="314.5" y="-264.89" font-family="Helvetica,sans-Serif" font-size="10.00" fill="grey"> commtable</text>
</g>
<!-- Node5&#45;&gt;Node2 -->
<g id="edge4_Node000002_Node000005" class="edge">
<title>Node5&#45;&gt;Node2</title>
<g id="a_edge4_Node000002_Node000005"><a xlink:title=" ">
<path fill="none" stroke="#9a32cd" stroke-dasharray="5,2" d="M128.66,-237.12C157.72,-230.52 194.41,-222 227,-213.89 244.04,-209.65 262.89,-204.68 278.63,-200.44"/>
<polygon fill="#9a32cd" stroke="#9a32cd" points="127.7,-233.75 118.72,-239.38 129.25,-240.58 127.7,-233.75"/>
</a>
</g>
<text text-anchor="middle" x="197.5" y="-229.89" font-family="Helvetica,sans-Serif" font-size="10.00" fill="grey"> commtable</text>
</g>
<!-- Node6 -->
<g id="Node000006" class="node">
<title>Node6</title>
<g id="a_Node000006"><a xlink:href="../../de/dbe/structLIS__MATRIX__ILU__STRUCT.html" target="_top" xlink:title=" ">
<polygon fill="white" stroke="#bfbfbf" points="384,-161.39 245,-161.39 245,-142.39 384,-142.39 384,-161.39"/>
<text text-anchor="middle" x="314.5" y="-149.39" font-family="Helvetica,sans-Serif" font-size="10.00">LIS_MATRIX_ILU_STRUCT</text>
</a>
</g>
</g>
<!-- Node6&#45;&gt;Node1 -->
<g id="edge5_Node000001_Node000006" class="edge">
<title>Node6&#45;&gt;Node1</title>
<g id="a_edge5_Node000001_Node000006"><a xlink:title=" ">
<path fill="none" stroke="#9a32cd" stroke-dasharray="5,2" d="M394.16,-142.37C411.42,-140.28 429.43,-138.1 445.81,-136.12"/>
<polygon fill="#9a32cd" stroke="#9a32cd" points="393.6,-138.91 384.09,-143.59 394.44,-145.86 393.6,-138.91"/>
</a>
</g>
<text text-anchor="middle" x="415" y="-155.89" font-family="Helvetica,sans-Serif" font-size="10.00" fill="grey"> L</text>
<text text-anchor="middle" x="415" y="-144.89" font-family="Helvetica,sans-Serif" font-size="10.00" fill="grey">U</text>
</g>
<!-- Node7 -->
<g id="Node000007" class="node">
<title>Node7</title>
<g id="a_Node000007"><a xlink:href="../../d0/d77/structLIS__VECTOR__STRUCT.html" target="_top" xlink:title=" ">
<polygon fill="white" stroke="#bfbfbf" points="374.5,-46.39 254.5,-46.39 254.5,-27.39 374.5,-27.39 374.5,-46.39"/>
<text text-anchor="middle" x="314.5" y="-34.39" font-family="Helvetica,sans-Serif" font-size="10.00">LIS_VECTOR_STRUCT</text>
</a>
</g>
</g>
<!-- Node7&#45;&gt;Node1 -->
<g id="edge7_Node000001_Node000007" class="edge">
<title>Node7&#45;&gt;Node1</title>
<g id="a_edge7_Node000001_Node000007"><a xlink:title=" ">
<path fill="none" stroke="#9a32cd" stroke-dasharray="5,2" d="M384.51,-39.25C399.65,-42.07 415.02,-46.89 428,-54.89 439.65,-62.08 436.64,-69.9 446,-79.89 460.27,-95.13 479.25,-109.99 491.89,-119.28"/>
<polygon fill="#9a32cd" stroke="#9a32cd" points="385.05,-35.79 374.62,-37.67 383.95,-42.7 385.05,-35.79"/>
</a>
</g>
<text text-anchor="middle" x="415" y="-90.89" font-family="Helvetica,sans-Serif" font-size="10.00" fill="grey"> D</text>
<text text-anchor="middle" x="415" y="-79.89" font-family="Helvetica,sans-Serif" font-size="10.00" fill="grey">Pb</text>
<text text-anchor="middle" x="415" y="-68.89" font-family="Helvetica,sans-Serif" font-size="10.00" fill="grey">temp</text>
<text text-anchor="middle" x="415" y="-57.89" font-family="Helvetica,sans-Serif" font-size="10.00" fill="grey">work</text>
</g>
<!-- Node7&#45;&gt;Node8 -->
<g id="edge10_Node000008_Node000007" class="edge">
<title>Node7&#45;&gt;Node8</title>
<g id="a_edge10_Node000008_Node000007"><a xlink:title=" ">
<path fill="none" stroke="#9a32cd" stroke-dasharray="5,2" d="M384.79,-37.86C399.08,-38.31 414.04,-38.95 428,-39.89 490,-44.06 506.13,-42.43 567,-54.89 604.04,-62.48 645.6,-76.07 671.78,-85.28"/>
<polygon fill="#9a32cd" stroke="#9a32cd" points="384.61,-34.35 374.51,-37.57 384.41,-41.35 384.61,-34.35"/>
</a>
</g>
<text text-anchor="middle" x="506.5" y="-101.89" font-family="Helvetica,sans-Serif" font-size="10.00" fill="grey"> b</text>
<text text-anchor="middle" x="506.5" y="-90.89" font-family="Helvetica,sans-Serif" font-size="10.00" fill="grey">d</text>
<text text-anchor="middle" x="506.5" y="-79.89" font-family="Helvetica,sans-Serif" font-size="10.00" fill="grey">work</text>
<text text-anchor="middle" x="506.5" y="-68.89" font-family="Helvetica,sans-Serif" font-size="10.00" fill="grey">x</text>
<text text-anchor="middle" x="506.5" y="-57.89" font-family="Helvetica,sans-Serif" font-size="10.00" fill="grey">xx</text>
</g>
<!-- Node8&#45;&gt;Node1 -->
<g id="edge8_Node000001_Node000008" class="edge">
<title>Node8&#45;&gt;Node1</title>
<g id="a_edge8_Node000001_Node000008"><a xlink:title=" ">
<path fill="none" stroke="#9a32cd" stroke-dasharray="5,2" d="M629.62,-91.19C614.79,-91.58 599.28,-92.91 585,-95.89 563.1,-100.46 539.69,-111.36 524.4,-119.38"/>
<polygon fill="#9a32cd" stroke="#9a32cd" points="629.8,-94.69 639.76,-91.06 629.71,-87.69 629.8,-94.69"/>
</a>
</g>
<text text-anchor="middle" x="603.5" y="-98.89" font-family="Helvetica,sans-Serif" font-size="10.00" fill="grey"> solver</text>
</g>
</g>
</svg>

<g id="navigator" transform="translate(0 0)" fill="#404254">
  <rect fill="#f2f5e9" fill-opacity="0.5" stroke="#606060" stroke-width=".5" x="0" y="0" width="60" height="60"/>
  <use id="zoomplus" xlink:href="#zoomPlus" x="17" y="9" onmousedown="handleZoom(evt,'in')"/>
  <use id="zoomminus" xlink:href="#zoomMin" x="42" y="9" onmousedown="handleZoom(evt,'out')"/>
  <use id="reset" xlink:href="#resetDef" x="30" y="36" onmousedown="handleReset()"/>
   <use id="arrowup" xlink:href="#arrowUp" x="0" y="0" onmousedown="handlePan(0,-1)"/>
  <use id="arrowright" xlink:href="#arrowRight" x="0" y="0" onmousedown="handlePan(1,0)"/>
  <use id="arrowdown" xlink:href="#arrowDown" x="0" y="0" onmousedown="handlePan(0,1)"/>
  <use id="arrowleft" xlink:href="#arrowLeft" x="0" y="0" onmousedown="handlePan(-1,0)"/>
</g>
<svg viewBox="0 0 15 15" width="100%" height="30px" preserveAspectRatio="xMaxYMin meet">
 <g id="arrow_out" transform="scale(0.3 0.3)">
  <a xlink:href="structLIS__PRECON__STRUCT__coll__graph_org.svg" target="_base">
   <rect id="button" ry="5" rx="5" y="6" x="6" height="38" width="38"
        fill="#f2f5e9" fill-opacity="0.5" stroke="#606060" stroke-width="1.0"/>
   <path id="arrow"
     d="M 11.500037,31.436501 C 11.940474,20.09759 22.043105,11.32322 32.158766,21.979434 L 37.068811,17.246167 C 37.068811,17.246167 37.088388,32 37.088388,32 L 22.160133,31.978069 C 22.160133,31.978069 26.997745,27.140456 26.997745,27.140456 C 18.528582,18.264221 13.291696,25.230495 11.500037,31.436501 z"
     style="fill:#404040;"/>
  </a>
 </g>
</svg>

<style type='text/css'>
<![CDATA[
[data-mouse-over-selected='false'] { opacity: 0.7; }
[data-mouse-over-selected='true']  { opacity: 1.0; }
]]>
</style>
<script type="application/ecmascript"><![CDATA[
document.addEventListener('DOMContentLoaded', (event) => {
  highlightEdges();
  highlightAdjacentNodes();
});
]]></script>
</svg>
