<?xml version="1.0" encoding="UTF-8" standalone="no"?>
<!DOCTYPE svg PUBLIC "-//W3C//DTD SVG 1.1//EN"
 "http://www.w3.org/Graphics/SVG/1.1/DTD/svg11.dtd">
<!-- Generated by graphviz version 2.43.0 (0)
 -->
<!-- Title: LIS_PRECON_STRUCT Pages: 1 -->
<!--zoomable 287 -->
<svg id="main" version="1.1" xmlns="http://www.w3.org/2000/svg" xmlns:xlink="http://www.w3.org/1999/xlink" xml:space="preserve" onload="init(evt)">
<style type="text/css"><![CDATA[
.edge:hover path { stroke: red; }
.edge:hover polygon { stroke: red; fill: red; }
]]></style>
<script type="text/javascript"><![CDATA[
var edges = document.getElementsByTagName('g');
if (edges && edges.length) {
  for (var i=0;i<edges.length;i++) {
    if (edges[i].id.substr(0,4)=='edge') {
      edges[i].setAttribute('class','edge');
    }
  }
}
]]></script>
        <defs>
                <circle id="rim" cx="0" cy="0" r="7"/>
                <circle id="rim2" cx="0" cy="0" r="3.5"/>
                <g id="zoomPlus">
                        <use xlink:href="#rim" fill="#404040">
                                <set attributeName="fill" to="#808080" begin="zoomplus.mouseover" end="zoomplus.mouseout"/>
                        </use>
                        <path d="M-4,0h8M0,-4v8" fill="none" stroke="white" stroke-width="1.5" pointer-events="none"/>
                </g>
                <g id="zoomMin">
                        <use xlink:href="#rim" fill="#404040">
                                <set attributeName="fill" to="#808080" begin="zoomminus.mouseover" end="zoomminus.mouseout"/>
                        </use>
                        <path d="M-4,0h8" fill="none" stroke="white" stroke-width="1.5" pointer-events="none"/>
                </g>
                <g id="dirArrow">
                        <path fill="none" stroke="white" stroke-width="1.5" d="M0,-3.0v7 M-2.5,-0.5L0,-3.0L2.5,-0.5"/>
                </g>
               <g id="resetDef">
                       <use xlink:href="#rim2" fill="#404040">
                               <set attributeName="fill" to="#808080" begin="reset.mouseover" end="reset.mouseout"/>
                       </use>
               </g>
        </defs>

<script type="text/javascript">
var viewWidth = 766;
var viewHeight = 287;
var sectionId = 'dynsection-0';
</script>
<script xlink:href="../../svgpan.js"/>
<svg id="graph" class="graph">
<g id="viewport">
<title>LIS_PRECON_STRUCT</title>
<polygon fill="white" stroke="transparent" points="-4,4 -4,-283 762,-283 762,4 -4,4"/>
<!-- Node1 -->
<g id="node1" class="node">
<title>Node1</title>
<g id="a_node1"><a xlink:title=" ">
<polygon fill="#bfbfbf" stroke="black" points="446,-101.5 446,-120.5 567,-120.5 567,-101.5 446,-101.5"/>
<text text-anchor="middle" x="506.5" y="-108.5" font-family="Helvetica,sans-Serif" font-size="10.00">LIS_PRECON_STRUCT</text>
</a>
</g>
</g>
<!-- Node2 -->
<g id="node2" class="node">
<title>Node2</title>
<g id="a_node2"><a xlink:href="../../d4/d5d/structLIS__SOLVER__STRUCT.html" target="_top" xlink:title=" ">
<polygon fill="white" stroke="black" points="640,-67.5 640,-86.5 758,-86.5 758,-67.5 640,-67.5"/>
<text text-anchor="middle" x="699" y="-74.5" font-family="Helvetica,sans-Serif" font-size="10.00">LIS_SOLVER_STRUCT</text>
</a>
</g>
</g>
<!-- Node1&#45;&gt;Node2 -->
<g id="edge2" class="edge">
<title>Node1&#45;&gt;Node2</title>
<path fill="none" stroke="#9a32cd" stroke-dasharray="5,2" d="M532.41,-96.48C547.16,-88.72 566.53,-79.98 585,-76 602.55,-72.22 621.99,-71.27 639.73,-71.61"/>
<polygon fill="#9a32cd" stroke="#9a32cd" points="530.54,-93.51 523.43,-101.37 533.89,-99.66 530.54,-93.51"/>
<text text-anchor="middle" x="603.5" y="-79" font-family="Helvetica,sans-Serif" font-size="10.00"> precon</text>
</g>
<!-- Node2&#45;&gt;Node1 -->
<g id="edge1" class="edge">
<title>Node2&#45;&gt;Node1</title>
<path fill="none" stroke="#9a32cd" stroke-dasharray="5,2" d="M634.64,-88.31C610.71,-92.58 583.74,-97.39 560.82,-101.48"/>
<polygon fill="#9a32cd" stroke="#9a32cd" points="635.47,-91.72 644.69,-86.51 634.24,-84.83 635.47,-91.72"/>
<text text-anchor="middle" x="603.5" y="-100" font-family="Helvetica,sans-Serif" font-size="10.00"> solver</text>
</g>
<!-- Node3 -->
<g id="node3" class="node">
<title>Node3</title>
<g id="a_node3"><a xlink:href="../../dc/dff/structLIS__MATRIX__DIAG__STRUCT.html" target="_top" xlink:title=" ">
<polygon fill="white" stroke="black" points="1,-0.5 1,-19.5 149,-19.5 149,-0.5 1,-0.5"/>
<text text-anchor="middle" x="75" y="-7.5" font-family="Helvetica,sans-Serif" font-size="10.00">LIS_MATRIX_DIAG_STRUCT</text>
</a>
</g>
</g>
<!-- Node3&#45;&gt;Node1 -->
<g id="edge11" class="edge">
<title>Node3&#45;&gt;Node1</title>
<path fill="none" stroke="#9a32cd" stroke-dasharray="5,2" d="M159,-6.5C222.73,-6.64 311.75,-13.08 384,-42 406.94,-51.18 408.73,-60.53 428,-76 436.12,-82.52 436.91,-85.92 446,-91 453.42,-95.15 461.84,-98.62 469.97,-101.45"/>
<polygon fill="#9a32cd" stroke="#9a32cd" points="158.99,-3 149,-6.52 159.01,-10 158.99,-3"/>
<text text-anchor="middle" x="314.5" y="-45" font-family="Helvetica,sans-Serif" font-size="10.00"> WD</text>
</g>
<!-- Node3&#45;&gt;Node2 -->
<g id="edge3" class="edge">
<title>Node3&#45;&gt;Node2</title>
<path fill="none" stroke="#9a32cd" stroke-dasharray="5,2" d="M159.32,-2.43C162.25,-2.27 165.15,-2.12 168,-2 194.2,-0.86 200.78,-1.67 227,-2 296.79,-2.89 314.73,2.63 384,-6 488.27,-18.99 608.73,-51.19 665.38,-67.38"/>
<polygon fill="#9a32cd" stroke="#9a32cd" points="159.04,1.06 149.28,-3.05 159.48,-5.93 159.04,1.06"/>
<text text-anchor="middle" x="415" y="-15" font-family="Helvetica,sans-Serif" font-size="10.00"> WD</text>
</g>
<!-- Node5 -->
<g id="node5" class="node">
<title>Node5</title>
<g id="a_node5"><a xlink:href="../../d0/d39/structLIS__MATRIX__STRUCT.html" target="_top" xlink:title=" ">
<polygon fill="white" stroke="black" points="255.5,-62.5 255.5,-81.5 373.5,-81.5 373.5,-62.5 255.5,-62.5"/>
<text text-anchor="middle" x="314.5" y="-69.5" font-family="Helvetica,sans-Serif" font-size="10.00">LIS_MATRIX_STRUCT</text>
</a>
</g>
</g>
<!-- Node3&#45;&gt;Node5 -->
<g id="edge7" class="edge">
<title>Node3&#45;&gt;Node5</title>
<path fill="none" stroke="#9a32cd" stroke-dasharray="5,2" d="M122.43,-22.12C167.62,-33.92 235.36,-51.6 276.87,-62.44"/>
<polygon fill="#9a32cd" stroke="#9a32cd" points="123.15,-18.69 112.59,-19.55 121.38,-25.46 123.15,-18.69"/>
<text text-anchor="middle" x="197.5" y="-62" font-family="Helvetica,sans-Serif" font-size="10.00"> D</text>
<text text-anchor="middle" x="197.5" y="-51" font-family="Helvetica,sans-Serif" font-size="10.00">WD</text>
</g>
<!-- Node4 -->
<g id="node4" class="node">
<title>Node4</title>
<g id="a_node4"><a xlink:href="../../d0/d77/structLIS__VECTOR__STRUCT.html" target="_top" xlink:title=" ">
<polygon fill="white" stroke="black" points="254.5,-214.5 254.5,-233.5 374.5,-233.5 374.5,-214.5 254.5,-214.5"/>
<text text-anchor="middle" x="314.5" y="-221.5" font-family="Helvetica,sans-Serif" font-size="10.00">LIS_VECTOR_STRUCT</text>
</a>
</g>
</g>
<!-- Node4&#45;&gt;Node1 -->
<g id="edge10" class="edge">
<title>Node4&#45;&gt;Node1</title>
<path fill="none" stroke="#9a32cd" stroke-dasharray="5,2" d="M348.36,-210.35C371.3,-200.31 402.29,-185.73 428,-170 453.1,-154.64 479.88,-132.91 494.46,-120.56"/>
<polygon fill="#9a32cd" stroke="#9a32cd" points="346.85,-207.18 339.06,-214.36 349.63,-213.61 346.85,-207.18"/>
<text text-anchor="middle" x="415" y="-219" font-family="Helvetica,sans-Serif" font-size="10.00"> D</text>
<text text-anchor="middle" x="415" y="-208" font-family="Helvetica,sans-Serif" font-size="10.00">Pb</text>
<text text-anchor="middle" x="415" y="-197" font-family="Helvetica,sans-Serif" font-size="10.00">temp</text>
<text text-anchor="middle" x="415" y="-186" font-family="Helvetica,sans-Serif" font-size="10.00">work</text>
</g>
<!-- Node4&#45;&gt;Node2 -->
<g id="edge4" class="edge">
<title>Node4&#45;&gt;Node2</title>
<path fill="none" stroke="#9a32cd" stroke-dasharray="5,2" d="M372.48,-234.54C390.48,-236.02 410.29,-235.7 428,-231 538.32,-201.75 650.65,-115.72 686.36,-86.69"/>
<polygon fill="#9a32cd" stroke="#9a32cd" points="372.71,-231.05 362.41,-233.52 372,-238.01 372.71,-231.05"/>
<text text-anchor="middle" x="506.5" y="-271" font-family="Helvetica,sans-Serif" font-size="10.00"> b</text>
<text text-anchor="middle" x="506.5" y="-260" font-family="Helvetica,sans-Serif" font-size="10.00">d</text>
<text text-anchor="middle" x="506.5" y="-249" font-family="Helvetica,sans-Serif" font-size="10.00">work</text>
<text text-anchor="middle" x="506.5" y="-238" font-family="Helvetica,sans-Serif" font-size="10.00">x</text>
<text text-anchor="middle" x="506.5" y="-227" font-family="Helvetica,sans-Serif" font-size="10.00">xx</text>
</g>
<!-- Node5&#45;&gt;Node1 -->
<g id="edge12" class="edge">
<title>Node5&#45;&gt;Node1</title>
<path fill="none" stroke="#9a32cd" stroke-dasharray="5,2" d="M383.74,-77.57C398.43,-79.42 413.81,-81.84 428,-85 446.28,-89.08 466.32,-95.86 481.44,-101.48"/>
<polygon fill="#9a32cd" stroke="#9a32cd" points="384.04,-74.08 373.7,-76.39 383.22,-81.04 384.04,-74.08"/>
<text text-anchor="middle" x="415" y="-99" font-family="Helvetica,sans-Serif" font-size="10.00"> A</text>
<text text-anchor="middle" x="415" y="-88" font-family="Helvetica,sans-Serif" font-size="10.00">Ah</text>
</g>
<!-- Node5&#45;&gt;Node2 -->
<g id="edge5" class="edge">
<title>Node5&#45;&gt;Node2</title>
<path fill="none" stroke="#9a32cd" stroke-dasharray="5,2" d="M383.83,-67.7C446,-64.54 540.26,-61.65 622,-67 627.84,-67.38 633.92,-67.93 639.98,-68.57"/>
<polygon fill="#9a32cd" stroke="#9a32cd" points="383.56,-64.2 373.76,-68.22 383.93,-71.2 383.56,-64.2"/>
<text text-anchor="middle" x="506.5" y="-79" font-family="Helvetica,sans-Serif" font-size="10.00"> A</text>
<text text-anchor="middle" x="506.5" y="-68" font-family="Helvetica,sans-Serif" font-size="10.00">Ah</text>
</g>
<!-- Node6 -->
<g id="node6" class="node">
<title>Node6</title>
<g id="a_node6"><a xlink:href="../../d1/d04/structLIS__COMMTABLE__STRUCT.html" target="_top" xlink:title=" ">
<polygon fill="white" stroke="black" points="3.5,-136.5 3.5,-155.5 146.5,-155.5 146.5,-136.5 3.5,-136.5"/>
<text text-anchor="middle" x="75" y="-143.5" font-family="Helvetica,sans-Serif" font-size="10.00">LIS_COMMTABLE_STRUCT</text>
</a>
</g>
</g>
<!-- Node6&#45;&gt;Node1 -->
<g id="edge9" class="edge">
<title>Node6&#45;&gt;Node1</title>
<path fill="none" stroke="#9a32cd" stroke-dasharray="5,2" d="M157.1,-151.27C228.92,-154.26 336.27,-154.6 428,-138 447.49,-134.47 468.66,-126.82 483.94,-120.55"/>
<polygon fill="#9a32cd" stroke="#9a32cd" points="156.92,-147.76 146.77,-150.81 156.61,-154.75 156.92,-147.76"/>
<text text-anchor="middle" x="314.5" y="-155" font-family="Helvetica,sans-Serif" font-size="10.00"> commtable</text>
</g>
<!-- Node6&#45;&gt;Node5 -->
<g id="edge6" class="edge">
<title>Node6&#45;&gt;Node5</title>
<path fill="none" stroke="#9a32cd" stroke-dasharray="5,2" d="M143.38,-134.24C170.18,-128.13 200.81,-119.3 227,-107 235.93,-102.8 236.19,-98.45 245,-94 254.81,-89.04 265.97,-84.89 276.39,-81.58"/>
<polygon fill="#9a32cd" stroke="#9a32cd" points="142.33,-130.88 133.31,-136.45 143.83,-137.72 142.33,-130.88"/>
<text text-anchor="middle" x="197.5" y="-130" font-family="Helvetica,sans-Serif" font-size="10.00"> commtable</text>
</g>
<!-- Node7 -->
<g id="node7" class="node">
<title>Node7</title>
<g id="a_node7"><a xlink:href="../../dc/d56/structLIS__MATRIX__CORE__STRUCT.html" target="_top" xlink:title=" ">
<polygon fill="white" stroke="black" points="0,-78.5 0,-97.5 150,-97.5 150,-78.5 0,-78.5"/>
<text text-anchor="middle" x="75" y="-85.5" font-family="Helvetica,sans-Serif" font-size="10.00">LIS_MATRIX_CORE_STRUCT</text>
</a>
</g>
</g>
<!-- Node7&#45;&gt;Node5 -->
<g id="edge8" class="edge">
<title>Node7&#45;&gt;Node5</title>
<path fill="none" stroke="#9a32cd" stroke-dasharray="5,2" d="M160.25,-82.32C191.71,-80.2 226.71,-77.85 255.31,-75.92"/>
<polygon fill="#9a32cd" stroke="#9a32cd" points="159.91,-78.84 150.17,-83 160.38,-85.82 159.91,-78.84"/>
<text text-anchor="middle" x="197.5" y="-95" font-family="Helvetica,sans-Serif" font-size="10.00"> L</text>
<text text-anchor="middle" x="197.5" y="-84" font-family="Helvetica,sans-Serif" font-size="10.00">U</text>
</g>
<!-- Node8 -->
<g id="node8" class="node">
<title>Node8</title>
<g id="a_node8"><a xlink:href="../../de/dbe/structLIS__MATRIX__ILU__STRUCT.html" target="_top" xlink:title=" ">
<polygon fill="white" stroke="black" points="245,-103.5 245,-122.5 384,-122.5 384,-103.5 245,-103.5"/>
<text text-anchor="middle" x="314.5" y="-110.5" font-family="Helvetica,sans-Serif" font-size="10.00">LIS_MATRIX_ILU_STRUCT</text>
</a>
</g>
</g>
<!-- Node8&#45;&gt;Node1 -->
<g id="edge13" class="edge">
<title>Node8&#45;&gt;Node1</title>
<path fill="none" stroke="#9a32cd" stroke-dasharray="5,2" d="M394.16,-112.17C411.42,-111.99 429.43,-111.8 445.81,-111.63"/>
<polygon fill="#9a32cd" stroke="#9a32cd" points="394.06,-108.67 384.09,-112.28 394.13,-115.67 394.06,-108.67"/>
<text text-anchor="middle" x="415" y="-126" font-family="Helvetica,sans-Serif" font-size="10.00"> L</text>
<text text-anchor="middle" x="415" y="-115" font-family="Helvetica,sans-Serif" font-size="10.00">U</text>
</g>
</g>
</svg>
        <g id="navigator" transform="translate(0 0)" fill="#404254">
                <rect fill="#f2f5e9" fill-opacity="0.5" stroke="#606060" stroke-width=".5" x="0" y="0" width="60" height="60"/>
                <use id="zoomplus" xlink:href="#zoomPlus" x="17" y="9" onmousedown="handleZoom(evt,'in')"/>
                <use id="zoomminus" xlink:href="#zoomMin" x="42" y="9" onmousedown="handleZoom(evt,'out')"/>
                <use id="reset" xlink:href="#resetDef" x="30" y="36" onmousedown="handleReset()"/>
                <g id="arrowUp" xlink:href="#dirArrow" transform="translate(30 24)" onmousedown="handlePan(0,-1)">
                  <use xlink:href="#rim" fill="#404040">
                        <set attributeName="fill" to="#808080" begin="arrowUp.mouseover" end="arrowUp.mouseout"/>
                  </use>
                  <path fill="none" stroke="white" stroke-width="1.5" d="M0,-3.0v7 M-2.5,-0.5L0,-3.0L2.5,-0.5"/>
                </g>
                <g id="arrowRight" xlink:href="#dirArrow" transform="rotate(90) translate(36 -43)" onmousedown="handlePan(1,0)">
                  <use xlink:href="#rim" fill="#404040">
                        <set attributeName="fill" to="#808080" begin="arrowRight.mouseover" end="arrowRight.mouseout"/>
                  </use>
                  <path fill="none" stroke="white" stroke-width="1.5" d="M0,-3.0v7 M-2.5,-0.5L0,-3.0L2.5,-0.5"/>
                </g>
                <g id="arrowDown" xlink:href="#dirArrow" transform="rotate(180) translate(-30 -48)" onmousedown="handlePan(0,1)">
                  <use xlink:href="#rim" fill="#404040">
                        <set attributeName="fill" to="#808080" begin="arrowDown.mouseover" end="arrowDown.mouseout"/>
                  </use>
                  <path fill="none" stroke="white" stroke-width="1.5" d="M0,-3.0v7 M-2.5,-0.5L0,-3.0L2.5,-0.5"/>
                </g>
                <g id="arrowLeft" xlink:href="#dirArrow" transform="rotate(270) translate(-36 17)" onmousedown="handlePan(-1,0)">
                  <use xlink:href="#rim" fill="#404040">
                        <set attributeName="fill" to="#808080" begin="arrowLeft.mouseover" end="arrowLeft.mouseout"/>
                  </use>
                  <path fill="none" stroke="white" stroke-width="1.5" d="M0,-3.0v7 M-2.5,-0.5L0,-3.0L2.5,-0.5"/>
                </g>
        </g>
        <svg viewBox="0 0 15 15" width="100%" height="30px" preserveAspectRatio="xMaxYMin meet">
         <g id="arrow_out" transform="scale(0.3 0.3)">
          <a xlink:href="structLIS__PRECON__STRUCT__coll__graph_org.svg" target="_base">
           <rect id="button" ry="5" rx="5" y="6" x="6" height="38" width="38"
                fill="#f2f5e9" fill-opacity="0.5" stroke="#606060" stroke-width="1.0"/>
           <path id="arrow"
             d="M 11.500037,31.436501 C 11.940474,20.09759 22.043105,11.32322 32.158766,21.979434 L 37.068811,17.246167 C 37.068811,17.246167 37.088388,32 37.088388,32 L 22.160133,31.978069 C 22.160133,31.978069 26.997745,27.140456 26.997745,27.140456 C 18.528582,18.264221 13.291696,25.230495 11.500037,31.436501 z"
             style="fill:#404040;"/>
          </a>
         </g>
        </svg>
</svg>
