<?xml version="1.0" encoding="UTF-8" standalone="no"?>
<!DOCTYPE svg PUBLIC "-//W3C//DTD SVG 1.1//EN"
 "http://www.w3.org/Graphics/SVG/1.1/DTD/svg11.dtd">
<!-- Generated by graphviz version 2.43.0 (0)
 -->
<!-- Title: ezp::band_symm_mat&lt; DT, IT &gt; Pages: 1 -->
<svg width="214pt" height="171pt"
 viewBox="0.00 0.00 214.00 171.00" xmlns="http://www.w3.org/2000/svg" xmlns:xlink="http://www.w3.org/1999/xlink">

<svg id="main" version="1.1" xmlns="http://www.w3.org/2000/svg" xmlns:xlink="http://www.w3.org/1999/xlink" xml:space="preserve" onload="init(evt)">
<style type="text/css"><![CDATA[
.node, .edge {opacity: 0.7;}
.node.selected, .edge.selected {opacity: 1;}
.edge:hover path { stroke: red; }
.edge:hover polygon { stroke: red; fill: red; }
]]></style>
<script type="application/ecmascript" xlink:href="../../svg.min.js"/>
<svg id="graph" class="graph">
<g id="graph0" class="graph" transform="scale(1 1) rotate(0) translate(4 167)">
<title>ezp::band_symm_mat&lt; DT, IT &gt;</title>
<!-- Node1 -->
<g id="Node000001" class="node">
<title>Node1</title>
<g id="a_Node000001"><a xlink:title=" ">
<polygon fill="#999999" stroke="#666666" points="125,-30 0,-30 0,0 125,0 125,-30"/>
<text text-anchor="start" x="8" y="-18" font-family="Helvetica,sans-Serif" font-size="10.00">ezp::band_symm_mat</text>
<text text-anchor="middle" x="62.5" y="-7" font-family="Helvetica,sans-Serif" font-size="10.00">&lt; DT, IT &gt;</text>
</a>
</g>
</g>
<!-- Node2 -->
<g id="Node000002" class="node">
<title>Node2</title>
<g id="a_Node000002"><a xlink:href="../../d3/d46/structezp_1_1base__mat.html" target="_top" xlink:title=" ">
<polygon fill="white" stroke="#bfbfbf" points="206,-86 67,-86 67,-67 206,-67 206,-86"/>
<text text-anchor="middle" x="136.5" y="-74" font-family="Helvetica,sans-Serif" font-size="10.00">ezp::base_mat&lt; DT, IT &gt;</text>
</a>
</g>
</g>
<!-- Node2&#45;&gt;Node1 -->
<g id="edge1_Node000001_Node000002" class="edge">
<title>Node2&#45;&gt;Node1</title>
<g id="a_edge1_Node000001_Node000002"><a xlink:title=" ">
<path fill="none" stroke="#63b8ff" d="M118.09,-60.7C106.42,-51.31 91.42,-39.25 79.94,-30.02"/>
<polygon fill="#63b8ff" stroke="#63b8ff" points="115.91,-63.44 125.9,-66.98 120.3,-57.98 115.91,-63.44"/>
</a>
</g>
</g>
<!-- Node3 -->
<g id="Node000003" class="node">
<title>Node3</title>
<g id="a_Node000003"><a xlink:title=" ">
<polygon fill="white" stroke="#bfbfbf" points="61,-163 32,-163 32,-144 61,-144 61,-163"/>
<text text-anchor="middle" x="46.5" y="-151" font-family="Helvetica,sans-Serif" font-size="10.00">IT</text>
</a>
</g>
</g>
<!-- Node3&#45;&gt;Node1 -->
<g id="edge4_Node000001_Node000003" class="edge">
<title>Node3&#45;&gt;Node1</title>
<g id="a_edge4_Node000001_Node000003"><a xlink:title=" ">
<path fill="none" stroke="#9a32cd" stroke-dasharray="5,2" d="M41.46,-133.9C37.5,-116.43 33.43,-89.68 38.5,-67 41.45,-53.82 48.19,-40.03 53.78,-30.12"/>
<polygon fill="#9a32cd" stroke="#9a32cd" points="38.13,-135.04 43.95,-143.89 44.93,-133.34 38.13,-135.04"/>
</a>
</g>
<text text-anchor="middle" x="48" y="-74" font-family="Helvetica,sans-Serif" font-size="10.00" fill="grey"> klu</text>
</g>
<!-- Node3&#45;&gt;Node2 -->
<g id="edge2_Node000002_Node000003" class="edge">
<title>Node3&#45;&gt;Node2</title>
<g id="a_edge2_Node000002_Node000003"><a xlink:title=" ">
<path fill="none" stroke="#9a32cd" stroke-dasharray="5,2" d="M61.84,-136.64C71.66,-126.81 84.89,-114.17 97.5,-104 105.53,-97.53 115.1,-91.01 122.75,-86.05"/>
<polygon fill="#9a32cd" stroke="#9a32cd" points="59.3,-134.23 54.77,-143.81 64.28,-139.15 59.3,-134.23"/>
</a>
</g>
<text text-anchor="middle" x="115" y="-118" font-family="Helvetica,sans-Serif" font-size="10.00" fill="grey"> n_cols</text>
<text text-anchor="middle" x="115" y="-107" font-family="Helvetica,sans-Serif" font-size="10.00" fill="grey">n_rows</text>
</g>
<!-- Node4 -->
<g id="Node000004" class="node">
<title>Node4</title>
<g id="a_Node000004"><a xlink:title=" ">
<polygon fill="white" stroke="#bfbfbf" points="151.5,-163 121.5,-163 121.5,-144 151.5,-144 151.5,-163"/>
<text text-anchor="middle" x="136.5" y="-151" font-family="Helvetica,sans-Serif" font-size="10.00">DT</text>
</a>
</g>
</g>
<!-- Node4&#45;&gt;Node2 -->
<g id="edge3_Node000002_Node000004" class="edge">
<title>Node4&#45;&gt;Node2</title>
<g id="a_edge3_Node000002_Node000004"><a xlink:title=" ">
<path fill="none" stroke="#9a32cd" stroke-dasharray="5,2" d="M136.5,-133.52C136.5,-118.24 136.5,-97.48 136.5,-86"/>
<polygon fill="#9a32cd" stroke="#9a32cd" points="133,-133.9 136.5,-143.9 140,-133.9 133,-133.9"/>
</a>
</g>
<text text-anchor="middle" x="149" y="-112.5" font-family="Helvetica,sans-Serif" font-size="10.00" fill="grey"> data</text>
</g>
</g>
</svg>
</svg>

<style type='text/css'>
<![CDATA[
[data-mouse-over-selected='false'] { opacity: 0.7; }
[data-mouse-over-selected='true']  { opacity: 1.0; }
]]>
</style>
<script type="application/ecmascript"><![CDATA[
document.addEventListener('DOMContentLoaded', (event) => {
  highlightEdges();
  highlightAdjacentNodes();
});
]]></script>
</svg>
