<?xml version="1.0" encoding="UTF-8" standalone="no"?>
<!DOCTYPE svg PUBLIC "-//W3C//DTD SVG 1.1//EN"
 "http://www.w3.org/Graphics/SVG/1.1/DTD/svg11.dtd">
<!-- Generated by graphviz version 2.43.0 (0)
 -->
<!-- Title: ezp::band_symm_mat&lt; DT, IT &gt; Pages: 1 -->
<svg width="214pt" height="174pt"
 viewBox="0.00 0.00 214.00 174.00" xmlns="http://www.w3.org/2000/svg" xmlns:xlink="http://www.w3.org/1999/xlink">
<g id="graph0" class="graph" transform="scale(1 1) rotate(0) translate(4 170)">
<title>ezp::band_symm_mat&lt; DT, IT &gt;</title>
<polygon fill="white" stroke="transparent" points="-4,4 -4,-170 210,-170 210,4 -4,4"/>
<!-- Node1 -->
<g id="node1" class="node">
<title>Node1</title>
<g id="a_node1"><a xlink:title=" ">
<polygon fill="#bfbfbf" stroke="black" points="0,-0.5 0,-30.5 125,-30.5 125,-0.5 0,-0.5"/>
<text text-anchor="start" x="8" y="-18.5" font-family="Helvetica,sans-Serif" font-size="10.00">ezp::band_symm_mat</text>
<text text-anchor="middle" x="62.5" y="-7.5" font-family="Helvetica,sans-Serif" font-size="10.00">&lt; DT, IT &gt;</text>
</a>
</g>
</g>
<!-- Node2 -->
<g id="node2" class="node">
<title>Node2</title>
<g id="a_node2"><a xlink:href="../../d3/d46/structezp_1_1base__mat.html" target="_top" xlink:title=" ">
<polygon fill="white" stroke="black" points="67,-68.5 67,-87.5 206,-87.5 206,-68.5 67,-68.5"/>
<text text-anchor="middle" x="136.5" y="-75.5" font-family="Helvetica,sans-Serif" font-size="10.00">ezp::base_mat&lt; DT, IT &gt;</text>
</a>
</g>
</g>
<!-- Node2&#45;&gt;Node1 -->
<g id="edge1" class="edge">
<title>Node2&#45;&gt;Node1</title>
<path fill="none" stroke="midnightblue" d="M118.03,-61.9C106.27,-52.29 91.15,-39.92 79.66,-30.53"/>
<polygon fill="midnightblue" stroke="midnightblue" points="115.94,-64.71 125.9,-68.33 120.37,-59.29 115.94,-64.71"/>
</g>
<!-- Node3 -->
<g id="node3" class="node">
<title>Node3</title>
<g id="a_node3"><a xlink:title=" ">
<polygon fill="white" stroke="#bfbfbf" points="32,-146.5 32,-165.5 61,-165.5 61,-146.5 32,-146.5"/>
<text text-anchor="middle" x="46.5" y="-153.5" font-family="Helvetica,sans-Serif" font-size="10.00">IT</text>
</a>
</g>
</g>
<!-- Node3&#45;&gt;Node1 -->
<g id="edge4" class="edge">
<title>Node3&#45;&gt;Node1</title>
<path fill="none" stroke="#9a32cd" stroke-dasharray="5,2" d="M41.56,-136.61C37.55,-118.85 33.33,-91.31 38.5,-68 41.44,-54.71 48.19,-40.78 53.78,-30.77"/>
<polygon fill="#9a32cd" stroke="#9a32cd" points="38.2,-137.63 44,-146.49 45,-135.94 38.2,-137.63"/>
<text text-anchor="middle" x="48" y="-75.5" font-family="Helvetica,sans-Serif" font-size="10.00"> klu</text>
</g>
<!-- Node3&#45;&gt;Node2 -->
<g id="edge2" class="edge">
<title>Node3&#45;&gt;Node2</title>
<path fill="none" stroke="#9a32cd" stroke-dasharray="5,2" d="M61.85,-139C71.67,-129.08 84.9,-116.3 97.5,-106 105.53,-99.43 115.11,-92.79 122.76,-87.73"/>
<polygon fill="#9a32cd" stroke="#9a32cd" points="59.26,-136.64 54.78,-146.24 64.27,-141.53 59.26,-136.64"/>
<text text-anchor="middle" x="115" y="-120" font-family="Helvetica,sans-Serif" font-size="10.00"> n_cols</text>
<text text-anchor="middle" x="115" y="-109" font-family="Helvetica,sans-Serif" font-size="10.00">n_rows</text>
</g>
<!-- Node4 -->
<g id="node4" class="node">
<title>Node4</title>
<g id="a_node4"><a xlink:title=" ">
<polygon fill="white" stroke="#bfbfbf" points="121.5,-146.5 121.5,-165.5 151.5,-165.5 151.5,-146.5 121.5,-146.5"/>
<text text-anchor="middle" x="136.5" y="-153.5" font-family="Helvetica,sans-Serif" font-size="10.00">DT</text>
</a>
</g>
</g>
<!-- Node4&#45;&gt;Node2 -->
<g id="edge3" class="edge">
<title>Node4&#45;&gt;Node2</title>
<path fill="none" stroke="#9a32cd" stroke-dasharray="5,2" d="M136.5,-136.22C136.5,-120.7 136.5,-99.36 136.5,-87.62"/>
<polygon fill="#9a32cd" stroke="#9a32cd" points="133,-136.28 136.5,-146.28 140,-136.28 133,-136.28"/>
<text text-anchor="middle" x="149" y="-114.5" font-family="Helvetica,sans-Serif" font-size="10.00"> data</text>
</g>
</g>
</svg>
