<?xml version="1.0" encoding="UTF-8" standalone="no"?>
<!DOCTYPE svg PUBLIC "-//W3C//DTD SVG 1.1//EN"
 "http://www.w3.org/Graphics/SVG/1.1/DTD/svg11.dtd">
<!-- Generated by graphviz version 2.43.0 (0)
 -->
<!-- Title: ezp::base_mat&lt; DT, IT &gt; Pages: 1 -->
<svg width="441pt" height="95pt"
 viewBox="0.00 0.00 440.50 95.00" xmlns="http://www.w3.org/2000/svg" xmlns:xlink="http://www.w3.org/1999/xlink">
<g id="graph0" class="graph" transform="scale(1 1) rotate(0) translate(4 91)">
<title>ezp::base_mat&lt; DT, IT &gt;</title>
<polygon fill="white" stroke="transparent" points="-4,4 -4,-91 436.5,-91 436.5,4 -4,4"/>
<!-- Node1 -->
<g id="node1" class="node">
<title>Node1</title>
<g id="a_node1"><a xlink:title=" ">
<polygon fill="#bfbfbf" stroke="black" points="151.5,-67.5 151.5,-86.5 290.5,-86.5 290.5,-67.5 151.5,-67.5"/>
<text text-anchor="middle" x="221" y="-74.5" font-family="Helvetica,sans-Serif" font-size="10.00">ezp::base_mat&lt; DT, IT &gt;</text>
</a>
</g>
</g>
<!-- Node2 -->
<g id="node2" class="node">
<title>Node2</title>
<g id="a_node2"><a xlink:href="../../d9/d24/structezp_1_1band__mat.html" target="_top" xlink:title=" ">
<polygon fill="white" stroke="black" points="0,-6 0,-25 140,-25 140,-6 0,-6"/>
<text text-anchor="middle" x="70" y="-13" font-family="Helvetica,sans-Serif" font-size="10.00">ezp::band_mat&lt; DT, IT &gt;</text>
</a>
</g>
</g>
<!-- Node1&#45;&gt;Node2 -->
<g id="edge1" class="edge">
<title>Node1&#45;&gt;Node2</title>
<path fill="none" stroke="midnightblue" d="M189.99,-63.78C160.65,-52.22 117.37,-35.16 91.59,-25.01"/>
<polygon fill="midnightblue" stroke="midnightblue" points="188.78,-67.07 199.37,-67.48 191.34,-60.55 188.78,-67.07"/>
</g>
<!-- Node3 -->
<g id="node3" class="node">
<title>Node3</title>
<g id="a_node3"><a xlink:href="../../d8/d3f/structezp_1_1band__symm__mat.html" target="_top" xlink:title=" ">
<polygon fill="white" stroke="black" points="158.5,-0.5 158.5,-30.5 283.5,-30.5 283.5,-0.5 158.5,-0.5"/>
<text text-anchor="start" x="166.5" y="-18.5" font-family="Helvetica,sans-Serif" font-size="10.00">ezp::band_symm_mat</text>
<text text-anchor="middle" x="221" y="-7.5" font-family="Helvetica,sans-Serif" font-size="10.00">&lt; DT, IT &gt;</text>
</a>
</g>
</g>
<!-- Node1&#45;&gt;Node3 -->
<g id="edge2" class="edge">
<title>Node1&#45;&gt;Node3</title>
<path fill="none" stroke="midnightblue" d="M221,-57.23C221,-48.59 221,-38.5 221,-30.52"/>
<polygon fill="midnightblue" stroke="midnightblue" points="217.5,-57.48 221,-67.48 224.5,-57.48 217.5,-57.48"/>
</g>
<!-- Node4 -->
<g id="node4" class="node">
<title>Node4</title>
<g id="a_node4"><a xlink:href="../../d0/d58/structezp_1_1full__mat.html" target="_top" xlink:title=" ">
<polygon fill="white" stroke="black" points="301.5,-6 301.5,-25 432.5,-25 432.5,-6 301.5,-6"/>
<text text-anchor="middle" x="367" y="-13" font-family="Helvetica,sans-Serif" font-size="10.00">ezp::full_mat&lt; DT, IT &gt;</text>
</a>
</g>
</g>
<!-- Node1&#45;&gt;Node4 -->
<g id="edge3" class="edge">
<title>Node1&#45;&gt;Node4</title>
<path fill="none" stroke="midnightblue" d="M251.35,-63.63C279.71,-52.07 321.31,-35.12 346.12,-25.01"/>
<polygon fill="midnightblue" stroke="midnightblue" points="249.86,-60.46 241.92,-67.48 252.5,-66.94 249.86,-60.46"/>
</g>
</g>
</svg>
