<?xml version="1.0" encoding="UTF-8" standalone="no"?>
<!DOCTYPE svg PUBLIC "-//W3C//DTD SVG 1.1//EN"
 "http://www.w3.org/Graphics/SVG/1.1/DTD/svg11.dtd">
<!-- Generated by graphviz version 2.43.0 (0)
 -->
<!-- Title: ezp::base_mat&lt; DT, IT &gt; Pages: 1 -->
<svg width="441pt" height="93pt"
 viewBox="0.00 0.00 440.50 93.00" xmlns="http://www.w3.org/2000/svg" xmlns:xlink="http://www.w3.org/1999/xlink">
<g id="graph0" class="graph" transform="scale(1 1) rotate(0) translate(4 89)">
<title>ezp::base_mat&lt; DT, IT &gt;</title>
<!-- Node1 -->
<g id="Node000001" class="node">
<title>Node1</title>
<g id="a_Node000001"><a xlink:title=" ">
<polygon fill="#999999" stroke="#666666" points="290.5,-85 151.5,-85 151.5,-66 290.5,-66 290.5,-85"/>
<text text-anchor="middle" x="221" y="-73" font-family="Helvetica,sans-Serif" font-size="10.00">ezp::base_mat&lt; DT, IT &gt;</text>
</a>
</g>
</g>
<!-- Node2 -->
<g id="Node000002" class="node">
<title>Node2</title>
<g id="a_Node000002"><a xlink:href="../../d9/d24/structezp_1_1band__mat.html" target="_top" xlink:title=" ">
<polygon fill="white" stroke="#bfbfbf" points="140,-24.5 0,-24.5 0,-5.5 140,-5.5 140,-24.5"/>
<text text-anchor="middle" x="70" y="-12.5" font-family="Helvetica,sans-Serif" font-size="10.00">ezp::band_mat&lt; DT, IT &gt;</text>
</a>
</g>
</g>
<!-- Node1&#45;&gt;Node2 -->
<g id="edge1_Node000001_Node000002" class="edge">
<title>Node1&#45;&gt;Node2</title>
<g id="a_edge1_Node000001_Node000002"><a xlink:title=" ">
<path fill="none" stroke="#63b8ff" d="M189.71,-62.38C160.52,-51.07 117.72,-34.49 91.98,-24.52"/>
<polygon fill="#63b8ff" stroke="#63b8ff" points="188.45,-65.64 199.04,-65.99 190.98,-59.12 188.45,-65.64"/>
</a>
</g>
</g>
<!-- Node3 -->
<g id="Node000003" class="node">
<title>Node3</title>
<g id="a_Node000003"><a xlink:href="../../d8/d3f/structezp_1_1band__symm__mat.html" target="_top" xlink:title=" ">
<polygon fill="white" stroke="#bfbfbf" points="283.5,-30 158.5,-30 158.5,0 283.5,0 283.5,-30"/>
<text text-anchor="start" x="166.5" y="-18" font-family="Helvetica,sans-Serif" font-size="10.00">ezp::band_symm_mat</text>
<text text-anchor="middle" x="221" y="-7" font-family="Helvetica,sans-Serif" font-size="10.00">&lt; DT, IT &gt;</text>
</a>
</g>
</g>
<!-- Node1&#45;&gt;Node3 -->
<g id="edge2_Node000001_Node000003" class="edge">
<title>Node1&#45;&gt;Node3</title>
<g id="a_edge2_Node000001_Node000003"><a xlink:title=" ">
<path fill="none" stroke="#63b8ff" d="M221,-55.65C221,-47.36 221,-37.78 221,-30.11"/>
<polygon fill="#63b8ff" stroke="#63b8ff" points="217.5,-55.87 221,-65.87 224.5,-55.87 217.5,-55.87"/>
</a>
</g>
</g>
<!-- Node4 -->
<g id="Node000004" class="node">
<title>Node4</title>
<g id="a_Node000004"><a xlink:href="../../d0/d58/structezp_1_1full__mat.html" target="_top" xlink:title=" ">
<polygon fill="white" stroke="#bfbfbf" points="432.5,-24.5 301.5,-24.5 301.5,-5.5 432.5,-5.5 432.5,-24.5"/>
<text text-anchor="middle" x="367" y="-12.5" font-family="Helvetica,sans-Serif" font-size="10.00">ezp::full_mat&lt; DT, IT &gt;</text>
</a>
</g>
</g>
<!-- Node1&#45;&gt;Node4 -->
<g id="edge3_Node000001_Node000004" class="edge">
<title>Node1&#45;&gt;Node4</title>
<g id="a_edge3_Node000001_Node000004"><a xlink:title=" ">
<path fill="none" stroke="#63b8ff" d="M251.62,-62.23C279.84,-50.92 320.97,-34.44 345.74,-24.52"/>
<polygon fill="#63b8ff" stroke="#63b8ff" points="250.21,-59.03 242.23,-65.99 252.81,-65.52 250.21,-59.03"/>
</a>
</g>
</g>
</g>
</svg>
