<?xml version="1.0" encoding="UTF-8" standalone="no"?>
<!DOCTYPE svg PUBLIC "-//W3C//DTD SVG 1.1//EN"
 "http://www.w3.org/Graphics/SVG/1.1/DTD/svg11.dtd">
<!-- Generated by graphviz version 2.43.0 (0)
 -->
<!-- Title: standalone/solver.mumps.cpp Pages: 1 -->
<svg width="980pt" height="247pt"
 viewBox="0.00 0.00 980.00 247.00" xmlns="http://www.w3.org/2000/svg" xmlns:xlink="http://www.w3.org/1999/xlink">
<g id="graph0" class="graph" transform="scale(1 1) rotate(0) translate(4 243)">
<title>standalone/solver.mumps.cpp</title>
<!-- Node1 -->
<g id="Node000001" class="node">
<title>Node1</title>
<g id="a_Node000001"><a xlink:title="Standalone mumps solver.">
<polygon fill="#999999" stroke="#666666" points="739,-239 576,-239 576,-220 739,-220 739,-239"/>
<text text-anchor="middle" x="657.5" y="-227" font-family="Helvetica,sans-Serif" font-size="10.00">standalone/solver.mumps.cpp</text>
</a>
</g>
</g>
<!-- Node2 -->
<g id="Node000002" class="node">
<title>Node2</title>
<g id="a_Node000002"><a xlink:href="../../d9/d07/mumps_8hpp.html" target="_top" xlink:title=" ">
<polygon fill="white" stroke="#666666" points="667,-184 572,-184 572,-165 667,-165 667,-184"/>
<text text-anchor="middle" x="619.5" y="-172" font-family="Helvetica,sans-Serif" font-size="10.00">ezp/mumps.hpp</text>
</a>
</g>
</g>
<!-- Node1&#45;&gt;Node2 -->
<g id="edge1_Node000001_Node000002" class="edge">
<title>Node1&#45;&gt;Node2</title>
<g id="a_edge1_Node000001_Node000002"><a xlink:title=" ">
<path fill="none" stroke="#63b8ff" d="M651.23,-219.75C645.91,-212.34 638.14,-201.5 631.62,-192.41"/>
<polygon fill="#63b8ff" stroke="#63b8ff" points="634.33,-190.18 625.66,-184.09 628.64,-194.26 634.33,-190.18"/>
</a>
</g>
</g>
<!-- Node16 -->
<g id="Node000016" class="node">
<title>Node16</title>
<g id="a_Node000016"><a xlink:title=" ">
<polygon fill="#e0e0e0" stroke="#999999" points="940.5,-129 862.5,-129 862.5,-110 940.5,-110 940.5,-129"/>
<text text-anchor="middle" x="901.5" y="-117" font-family="Helvetica,sans-Serif" font-size="10.00">mpl/mpl.hpp</text>
</a>
</g>
</g>
<!-- Node1&#45;&gt;Node16 -->
<g id="edge16_Node000001_Node000016" class="edge">
<title>Node1&#45;&gt;Node16</title>
<g id="a_edge16_Node000001_Node000016"><a xlink:title=" ">
<path fill="none" stroke="#63b8ff" d="M677.06,-219.84C719.99,-200.84 822.68,-155.39 872.88,-133.17"/>
<polygon fill="#63b8ff" stroke="#63b8ff" points="874.46,-136.29 882.19,-129.05 871.63,-129.89 874.46,-136.29"/>
</a>
</g>
</g>
<!-- Node3 -->
<g id="Node000003" class="node">
<title>Node3</title>
<g id="a_Node000003"><a xlink:title=" ">
<polygon fill="#e0e0e0" stroke="#999999" points="161,-129 0,-129 0,-110 161,-110 161,-129"/>
<text text-anchor="middle" x="80.5" y="-117" font-family="Helvetica,sans-Serif" font-size="10.00">external/mumps/cmumps_c.h</text>
</a>
</g>
</g>
<!-- Node2&#45;&gt;Node3 -->
<g id="edge2_Node000002_Node000003" class="edge">
<title>Node2&#45;&gt;Node3</title>
<g id="a_edge2_Node000002_Node000003"><a xlink:title=" ">
<path fill="none" stroke="#63b8ff" d="M571.67,-168.8C481.88,-159.97 286.78,-140.78 171.32,-129.43"/>
<polygon fill="#63b8ff" stroke="#63b8ff" points="171.38,-125.92 161.09,-128.42 170.7,-132.89 171.38,-125.92"/>
</a>
</g>
</g>
<!-- Node4 -->
<g id="Node000004" class="node">
<title>Node4</title>
<g id="a_Node000004"><a xlink:title=" ">
<polygon fill="#e0e0e0" stroke="#999999" points="341.5,-129 179.5,-129 179.5,-110 341.5,-110 341.5,-129"/>
<text text-anchor="middle" x="260.5" y="-117" font-family="Helvetica,sans-Serif" font-size="10.00">external/mumps/dmumps_c.h</text>
</a>
</g>
</g>
<!-- Node2&#45;&gt;Node4 -->
<g id="edge3_Node000002_Node000004" class="edge">
<title>Node2&#45;&gt;Node4</title>
<g id="a_edge3_Node000002_Node000004"><a xlink:title=" ">
<path fill="none" stroke="#63b8ff" d="M571.83,-166.46C509.38,-157.24 399.5,-141.02 328.38,-130.52"/>
<polygon fill="#63b8ff" stroke="#63b8ff" points="328.58,-127.01 318.18,-129.01 327.56,-133.94 328.58,-127.01"/>
</a>
</g>
</g>
<!-- Node5 -->
<g id="Node000005" class="node">
<title>Node5</title>
<g id="a_Node000005"><a xlink:title=" ">
<polygon fill="#e0e0e0" stroke="#999999" points="521,-129 360,-129 360,-110 521,-110 521,-129"/>
<text text-anchor="middle" x="440.5" y="-117" font-family="Helvetica,sans-Serif" font-size="10.00">external/mumps/smumps_c.h</text>
</a>
</g>
</g>
<!-- Node2&#45;&gt;Node5 -->
<g id="edge4_Node000002_Node000005" class="edge">
<title>Node2&#45;&gt;Node5</title>
<g id="a_edge4_Node000002_Node000005"><a xlink:title=" ">
<path fill="none" stroke="#63b8ff" d="M590.74,-164.98C560.56,-156.05 512.93,-141.94 479.4,-132.02"/>
<polygon fill="#63b8ff" stroke="#63b8ff" points="480.07,-128.57 469.48,-129.08 478.08,-135.28 480.07,-128.57"/>
</a>
</g>
</g>
<!-- Node6 -->
<g id="Node000006" class="node">
<title>Node6</title>
<g id="a_Node000006"><a xlink:title=" ">
<polygon fill="#e0e0e0" stroke="#999999" points="700,-129 539,-129 539,-110 700,-110 700,-129"/>
<text text-anchor="middle" x="619.5" y="-117" font-family="Helvetica,sans-Serif" font-size="10.00">external/mumps/zmumps_c.h</text>
</a>
</g>
</g>
<!-- Node2&#45;&gt;Node6 -->
<g id="edge5_Node000002_Node000006" class="edge">
<title>Node2&#45;&gt;Node6</title>
<g id="a_edge5_Node000002_Node000006"><a xlink:title=" ">
<path fill="none" stroke="#63b8ff" d="M619.5,-164.75C619.5,-157.8 619.5,-147.85 619.5,-139.13"/>
<polygon fill="#63b8ff" stroke="#63b8ff" points="623,-139.09 619.5,-129.09 616,-139.09 623,-139.09"/>
</a>
</g>
</g>
<!-- Node7 -->
<g id="Node000007" class="node">
<title>Node7</title>
<g id="a_Node000007"><a xlink:href="../../df/d73/traits_8hpp_source.html" target="_top" xlink:title=" ">
<polygon fill="white" stroke="#666666" points="844.5,-129 718.5,-129 718.5,-110 844.5,-110 844.5,-129"/>
<text text-anchor="middle" x="781.5" y="-117" font-family="Helvetica,sans-Serif" font-size="10.00">ezp/abstract/traits.hpp</text>
</a>
</g>
</g>
<!-- Node2&#45;&gt;Node7 -->
<g id="edge6_Node000002_Node000007" class="edge">
<title>Node2&#45;&gt;Node7</title>
<g id="a_edge6_Node000002_Node000007"><a xlink:title=" ">
<path fill="none" stroke="#63b8ff" d="M645.53,-164.98C672.61,-156.13 715.21,-142.19 745.51,-132.28"/>
<polygon fill="#63b8ff" stroke="#63b8ff" points="746.85,-135.52 755.27,-129.08 744.68,-128.87 746.85,-135.52"/>
</a>
</g>
</g>
<!-- Node2&#45;&gt;Node16 -->
<g id="edge15_Node000002_Node000016" class="edge">
<title>Node2&#45;&gt;Node16</title>
<g id="a_edge15_Node000002_Node000016"><a xlink:title=" ">
<path fill="none" stroke="#63b8ff" d="M664.81,-164.98C716.04,-155.36 799.19,-139.73 852.06,-129.79"/>
<polygon fill="#63b8ff" stroke="#63b8ff" points="853.04,-133.17 862.22,-127.88 851.74,-126.29 853.04,-133.17"/>
</a>
</g>
</g>
<!-- Node8 -->
<g id="Node000008" class="node">
<title>Node8</title>
<g id="a_Node000008"><a xlink:href="../../d1/d4c/ezp_8h_source.html" target="_top" xlink:title=" ">
<polygon fill="white" stroke="#666666" points="644,-74 601,-74 601,-55 644,-55 644,-74"/>
<text text-anchor="middle" x="622.5" y="-62" font-family="Helvetica,sans-Serif" font-size="10.00">ezp.h</text>
</a>
</g>
</g>
<!-- Node7&#45;&gt;Node8 -->
<g id="edge7_Node000007_Node000008" class="edge">
<title>Node7&#45;&gt;Node8</title>
<g id="a_edge7_Node000007_Node000008"><a xlink:title=" ">
<path fill="none" stroke="#63b8ff" d="M755.95,-109.98C728.19,-100.73 683.81,-85.94 653.93,-75.98"/>
<polygon fill="#63b8ff" stroke="#63b8ff" points="654.99,-72.64 644.4,-72.8 652.78,-79.28 654.99,-72.64"/>
</a>
</g>
</g>
<!-- Node11 -->
<g id="Node000011" class="node">
<title>Node11</title>
<g id="a_Node000011"><a xlink:title=" ">
<polygon fill="#e0e0e0" stroke="#999999" points="704.5,-74 662.5,-74 662.5,-55 704.5,-55 704.5,-74"/>
<text text-anchor="middle" x="683.5" y="-62" font-family="Helvetica,sans-Serif" font-size="10.00">array</text>
</a>
</g>
</g>
<!-- Node7&#45;&gt;Node11 -->
<g id="edge10_Node000007_Node000011" class="edge">
<title>Node7&#45;&gt;Node11</title>
<g id="a_edge10_Node000007_Node000011"><a xlink:title=" ">
<path fill="none" stroke="#63b8ff" d="M765.75,-109.98C750.27,-101.61 726.41,-88.7 708.36,-78.95"/>
<polygon fill="#63b8ff" stroke="#63b8ff" points="709.99,-75.85 699.53,-74.17 706.66,-82.01 709.99,-75.85"/>
</a>
</g>
</g>
<!-- Node12 -->
<g id="Node000012" class="node">
<title>Node12</title>
<g id="a_Node000012"><a xlink:title=" ">
<polygon fill="#e0e0e0" stroke="#999999" points="772.5,-74 722.5,-74 722.5,-55 772.5,-55 772.5,-74"/>
<text text-anchor="middle" x="747.5" y="-62" font-family="Helvetica,sans-Serif" font-size="10.00">atomic</text>
</a>
</g>
</g>
<!-- Node7&#45;&gt;Node12 -->
<g id="edge11_Node000007_Node000012" class="edge">
<title>Node7&#45;&gt;Node12</title>
<g id="a_edge11_Node000007_Node000012"><a xlink:title=" ">
<path fill="none" stroke="#63b8ff" d="M775.89,-109.75C771.18,-102.42 764.33,-91.73 758.53,-82.7"/>
<polygon fill="#63b8ff" stroke="#63b8ff" points="761.36,-80.62 753.01,-74.09 755.46,-84.4 761.36,-80.62"/>
</a>
</g>
</g>
<!-- Node13 -->
<g id="Node000013" class="node">
<title>Node13</title>
<g id="a_Node000013"><a xlink:title=" ">
<polygon fill="#e0e0e0" stroke="#999999" points="838,-74 791,-74 791,-55 838,-55 838,-74"/>
<text text-anchor="middle" x="814.5" y="-62" font-family="Helvetica,sans-Serif" font-size="10.00">cmath</text>
</a>
</g>
</g>
<!-- Node7&#45;&gt;Node13 -->
<g id="edge12_Node000007_Node000013" class="edge">
<title>Node7&#45;&gt;Node13</title>
<g id="a_edge12_Node000007_Node000013"><a xlink:title=" ">
<path fill="none" stroke="#63b8ff" d="M786.95,-109.75C791.51,-102.42 798.17,-91.73 803.79,-82.7"/>
<polygon fill="#63b8ff" stroke="#63b8ff" points="806.84,-84.43 809.15,-74.09 800.9,-80.73 806.84,-84.43"/>
</a>
</g>
</g>
<!-- Node14 -->
<g id="Node000014" class="node">
<title>Node14</title>
<g id="a_Node000014"><a xlink:title=" ">
<polygon fill="#e0e0e0" stroke="#999999" points="906.5,-74 856.5,-74 856.5,-55 906.5,-55 906.5,-74"/>
<text text-anchor="middle" x="881.5" y="-62" font-family="Helvetica,sans-Serif" font-size="10.00">ranges</text>
</a>
</g>
</g>
<!-- Node7&#45;&gt;Node14 -->
<g id="edge13_Node000007_Node000014" class="edge">
<title>Node7&#45;&gt;Node14</title>
<g id="a_edge13_Node000007_Node000014"><a xlink:title=" ">
<path fill="none" stroke="#63b8ff" d="M797.57,-109.98C813.36,-101.61 837.72,-88.7 856.13,-78.95"/>
<polygon fill="#63b8ff" stroke="#63b8ff" points="857.94,-81.95 865.14,-74.17 854.67,-75.76 857.94,-81.95"/>
</a>
</g>
</g>
<!-- Node15 -->
<g id="Node000015" class="node">
<title>Node15</title>
<g id="a_Node000015"><a xlink:title=" ">
<polygon fill="#e0e0e0" stroke="#999999" points="972,-74 925,-74 925,-55 972,-55 972,-74"/>
<text text-anchor="middle" x="948.5" y="-62" font-family="Helvetica,sans-Serif" font-size="10.00">vector</text>
</a>
</g>
</g>
<!-- Node7&#45;&gt;Node15 -->
<g id="edge14_Node000007_Node000015" class="edge">
<title>Node7&#45;&gt;Node15</title>
<g id="a_edge14_Node000007_Node000015"><a xlink:title=" ">
<path fill="none" stroke="#63b8ff" d="M808.33,-109.98C837.45,-100.74 883.98,-85.98 915.36,-76.02"/>
<polygon fill="#63b8ff" stroke="#63b8ff" points="916.5,-79.33 924.97,-72.97 914.38,-72.66 916.5,-79.33"/>
</a>
</g>
</g>
<!-- Node9 -->
<g id="Node000009" class="node">
<title>Node9</title>
<g id="a_Node000009"><a xlink:title=" ">
<polygon fill="#e0e0e0" stroke="#999999" points="616,-19 557,-19 557,0 616,0 616,-19"/>
<text text-anchor="middle" x="586.5" y="-7" font-family="Helvetica,sans-Serif" font-size="10.00">complex</text>
</a>
</g>
</g>
<!-- Node8&#45;&gt;Node9 -->
<g id="edge8_Node000008_Node000009" class="edge">
<title>Node8&#45;&gt;Node9</title>
<g id="a_edge8_Node000008_Node000009"><a xlink:title=" ">
<path fill="none" stroke="#63b8ff" d="M616.56,-54.75C611.52,-47.34 604.16,-36.5 597.99,-27.41"/>
<polygon fill="#63b8ff" stroke="#63b8ff" points="600.85,-25.39 592.33,-19.09 595.06,-29.33 600.85,-25.39"/>
</a>
</g>
</g>
<!-- Node10 -->
<g id="Node000010" class="node">
<title>Node10</title>
<g id="a_Node000010"><a xlink:title=" ">
<polygon fill="#e0e0e0" stroke="#999999" points="684.5,-19 634.5,-19 634.5,0 684.5,0 684.5,-19"/>
<text text-anchor="middle" x="659.5" y="-7" font-family="Helvetica,sans-Serif" font-size="10.00">cstdint</text>
</a>
</g>
</g>
<!-- Node8&#45;&gt;Node10 -->
<g id="edge9_Node000008_Node000010" class="edge">
<title>Node8&#45;&gt;Node10</title>
<g id="a_edge9_Node000008_Node000010"><a xlink:title=" ">
<path fill="none" stroke="#63b8ff" d="M628.61,-54.75C633.78,-47.34 641.35,-36.5 647.69,-27.41"/>
<polygon fill="#63b8ff" stroke="#63b8ff" points="650.65,-29.29 653.5,-19.09 644.91,-25.29 650.65,-29.29"/>
</a>
</g>
</g>
</g>
</svg>
