<?xml version="1.0" encoding="UTF-8" standalone="no"?>
<!DOCTYPE svg PUBLIC "-//W3C//DTD SVG 1.1//EN"
 "http://www.w3.org/Graphics/SVG/1.1/DTD/svg11.dtd">
<!-- Generated by graphviz version 2.43.0 (0)
 -->
<!-- Title: standalone/solver.mumps.cpp Pages: 1 -->
<svg width="1006pt" height="247pt"
 viewBox="0.00 0.00 1005.50 247.00" xmlns="http://www.w3.org/2000/svg" xmlns:xlink="http://www.w3.org/1999/xlink">
<g id="graph0" class="graph" transform="scale(1 1) rotate(0) translate(4 243)">
<title>standalone/solver.mumps.cpp</title>
<!-- Node1 -->
<g id="Node000001" class="node">
<title>Node1</title>
<g id="a_Node000001"><a xlink:title="Standalone mumps solver.">
<polygon fill="#999999" stroke="#666666" points="770.5,-239 607.5,-239 607.5,-220 770.5,-220 770.5,-239"/>
<text text-anchor="middle" x="689" y="-227" font-family="Helvetica,sans-Serif" font-size="10.00">standalone/solver.mumps.cpp</text>
</a>
</g>
</g>
<!-- Node2 -->
<g id="Node000002" class="node">
<title>Node2</title>
<g id="a_Node000002"><a xlink:href="../../d9/d07/mumps_8hpp.html" target="_top" xlink:title=" ">
<polygon fill="white" stroke="#666666" points="698.5,-184 603.5,-184 603.5,-165 698.5,-165 698.5,-184"/>
<text text-anchor="middle" x="651" y="-172" font-family="Helvetica,sans-Serif" font-size="10.00">ezp/mumps.hpp</text>
</a>
</g>
</g>
<!-- Node1&#45;&gt;Node2 -->
<g id="edge1_Node000001_Node000002" class="edge">
<title>Node1&#45;&gt;Node2</title>
<g id="a_edge1_Node000001_Node000002"><a xlink:title=" ">
<path fill="none" stroke="#63b8ff" d="M682.73,-219.75C677.41,-212.34 669.64,-201.5 663.12,-192.41"/>
<polygon fill="#63b8ff" stroke="#63b8ff" points="665.83,-190.18 657.16,-184.09 660.14,-194.26 665.83,-190.18"/>
</a>
</g>
</g>
<!-- Node16 -->
<g id="Node000016" class="node">
<title>Node16</title>
<g id="a_Node000016"><a xlink:title=" ">
<polygon fill="#e0e0e0" stroke="#999999" points="956,-129 878,-129 878,-110 956,-110 956,-129"/>
<text text-anchor="middle" x="917" y="-117" font-family="Helvetica,sans-Serif" font-size="10.00">mpl/mpl.hpp</text>
</a>
</g>
</g>
<!-- Node1&#45;&gt;Node16 -->
<g id="edge16_Node000001_Node000016" class="edge">
<title>Node1&#45;&gt;Node16</title>
<g id="a_edge16_Node000001_Node000016"><a xlink:title=" ">
<path fill="none" stroke="#63b8ff" d="M707.27,-219.84C747.23,-200.92 842.55,-155.77 889.67,-133.45"/>
<polygon fill="#63b8ff" stroke="#63b8ff" points="891.42,-136.49 898.96,-129.05 888.42,-130.16 891.42,-136.49"/>
</a>
</g>
</g>
<!-- Node3 -->
<g id="Node000003" class="node">
<title>Node3</title>
<g id="a_Node000003"><a xlink:title=" ">
<polygon fill="#e0e0e0" stroke="#999999" points="170,-129 0,-129 0,-110 170,-110 170,-129"/>
<text text-anchor="middle" x="85" y="-117" font-family="Helvetica,sans-Serif" font-size="10.00">../external/mumps/cmumps_c.h</text>
</a>
</g>
</g>
<!-- Node2&#45;&gt;Node3 -->
<g id="edge2_Node000002_Node000003" class="edge">
<title>Node2&#45;&gt;Node3</title>
<g id="a_edge2_Node000002_Node000003"><a xlink:title=" ">
<path fill="none" stroke="#63b8ff" d="M603.23,-169.03C510.04,-160.3 302.42,-140.86 180.14,-129.41"/>
<polygon fill="#63b8ff" stroke="#63b8ff" points="180.32,-125.91 170.04,-128.46 179.67,-132.88 180.32,-125.91"/>
</a>
</g>
</g>
<!-- Node4 -->
<g id="Node000004" class="node">
<title>Node4</title>
<g id="a_Node000004"><a xlink:title=" ">
<polygon fill="#e0e0e0" stroke="#999999" points="359.5,-129 188.5,-129 188.5,-110 359.5,-110 359.5,-129"/>
<text text-anchor="middle" x="274" y="-117" font-family="Helvetica,sans-Serif" font-size="10.00">../external/mumps/dmumps_c.h</text>
</a>
</g>
</g>
<!-- Node2&#45;&gt;Node4 -->
<g id="edge3_Node000002_Node000004" class="edge">
<title>Node2&#45;&gt;Node4</title>
<g id="a_edge3_Node000002_Node000004"><a xlink:title=" ">
<path fill="none" stroke="#63b8ff" d="M603.25,-166.79C537.93,-157.6 420.21,-141.05 344.66,-130.43"/>
<polygon fill="#63b8ff" stroke="#63b8ff" points="345.13,-126.97 334.74,-129.04 344.16,-133.9 345.13,-126.97"/>
</a>
</g>
</g>
<!-- Node5 -->
<g id="Node000005" class="node">
<title>Node5</title>
<g id="a_Node000005"><a xlink:title=" ">
<polygon fill="#e0e0e0" stroke="#999999" points="548,-129 378,-129 378,-110 548,-110 548,-129"/>
<text text-anchor="middle" x="463" y="-117" font-family="Helvetica,sans-Serif" font-size="10.00">../external/mumps/smumps_c.h</text>
</a>
</g>
</g>
<!-- Node2&#45;&gt;Node5 -->
<g id="edge4_Node000002_Node000005" class="edge">
<title>Node2&#45;&gt;Node5</title>
<g id="a_edge4_Node000002_Node000005"><a xlink:title=" ">
<path fill="none" stroke="#63b8ff" d="M620.79,-164.98C588.96,-156.01 538.64,-141.82 503.4,-131.89"/>
<polygon fill="#63b8ff" stroke="#63b8ff" points="504.02,-128.43 493.44,-129.08 502.12,-135.16 504.02,-128.43"/>
</a>
</g>
</g>
<!-- Node6 -->
<g id="Node000006" class="node">
<title>Node6</title>
<g id="a_Node000006"><a xlink:title=" ">
<polygon fill="#e0e0e0" stroke="#999999" points="736,-129 566,-129 566,-110 736,-110 736,-129"/>
<text text-anchor="middle" x="651" y="-117" font-family="Helvetica,sans-Serif" font-size="10.00">../external/mumps/zmumps_c.h</text>
</a>
</g>
</g>
<!-- Node2&#45;&gt;Node6 -->
<g id="edge5_Node000002_Node000006" class="edge">
<title>Node2&#45;&gt;Node6</title>
<g id="a_edge5_Node000002_Node000006"><a xlink:title=" ">
<path fill="none" stroke="#63b8ff" d="M651,-164.75C651,-157.8 651,-147.85 651,-139.13"/>
<polygon fill="#63b8ff" stroke="#63b8ff" points="654.5,-139.09 651,-129.09 647.5,-139.09 654.5,-139.09"/>
</a>
</g>
</g>
<!-- Node7 -->
<g id="Node000007" class="node">
<title>Node7</title>
<g id="a_Node000007"><a xlink:href="../../df/d73/traits_8hpp_source.html" target="_top" xlink:title=" ">
<polygon fill="white" stroke="#666666" points="860,-129 754,-129 754,-110 860,-110 860,-129"/>
<text text-anchor="middle" x="807" y="-117" font-family="Helvetica,sans-Serif" font-size="10.00">abstract/traits.hpp</text>
</a>
</g>
</g>
<!-- Node2&#45;&gt;Node7 -->
<g id="edge6_Node000002_Node000007" class="edge">
<title>Node2&#45;&gt;Node7</title>
<g id="a_edge6_Node000002_Node000007"><a xlink:title=" ">
<path fill="none" stroke="#63b8ff" d="M676.06,-164.98C702.03,-156.16 742.81,-142.31 771.96,-132.41"/>
<polygon fill="#63b8ff" stroke="#63b8ff" points="773.4,-135.61 781.74,-129.08 771.15,-128.99 773.4,-135.61"/>
</a>
</g>
</g>
<!-- Node2&#45;&gt;Node16 -->
<g id="edge15_Node000002_Node000016" class="edge">
<title>Node2&#45;&gt;Node16</title>
<g id="a_edge15_Node000002_Node000016"><a xlink:title=" ">
<path fill="none" stroke="#63b8ff" d="M693.74,-164.98C741.28,-155.51 817.94,-140.24 867.91,-130.28"/>
<polygon fill="#63b8ff" stroke="#63b8ff" points="868.71,-133.69 877.84,-128.3 867.34,-126.83 868.71,-133.69"/>
</a>
</g>
</g>
<!-- Node8 -->
<g id="Node000008" class="node">
<title>Node8</title>
<g id="a_Node000008"><a xlink:href="../../d1/d4c/ezp_8h_source.html" target="_top" xlink:title=" ">
<polygon fill="white" stroke="#666666" points="669.5,-74 626.5,-74 626.5,-55 669.5,-55 669.5,-74"/>
<text text-anchor="middle" x="648" y="-62" font-family="Helvetica,sans-Serif" font-size="10.00">ezp.h</text>
</a>
</g>
</g>
<!-- Node7&#45;&gt;Node8 -->
<g id="edge7_Node000007_Node000008" class="edge">
<title>Node7&#45;&gt;Node8</title>
<g id="a_edge7_Node000007_Node000008"><a xlink:title=" ">
<path fill="none" stroke="#63b8ff" d="M781.45,-109.98C753.69,-100.73 709.31,-85.94 679.43,-75.98"/>
<polygon fill="#63b8ff" stroke="#63b8ff" points="680.49,-72.64 669.9,-72.8 678.28,-79.28 680.49,-72.64"/>
</a>
</g>
</g>
<!-- Node11 -->
<g id="Node000011" class="node">
<title>Node11</title>
<g id="a_Node000011"><a xlink:title=" ">
<polygon fill="#e0e0e0" stroke="#999999" points="730,-74 688,-74 688,-55 730,-55 730,-74"/>
<text text-anchor="middle" x="709" y="-62" font-family="Helvetica,sans-Serif" font-size="10.00">array</text>
</a>
</g>
</g>
<!-- Node7&#45;&gt;Node11 -->
<g id="edge10_Node000007_Node000011" class="edge">
<title>Node7&#45;&gt;Node11</title>
<g id="a_edge10_Node000007_Node000011"><a xlink:title=" ">
<path fill="none" stroke="#63b8ff" d="M791.25,-109.98C775.77,-101.61 751.91,-88.7 733.86,-78.95"/>
<polygon fill="#63b8ff" stroke="#63b8ff" points="735.49,-75.85 725.03,-74.17 732.16,-82.01 735.49,-75.85"/>
</a>
</g>
</g>
<!-- Node12 -->
<g id="Node000012" class="node">
<title>Node12</title>
<g id="a_Node000012"><a xlink:title=" ">
<polygon fill="#e0e0e0" stroke="#999999" points="798,-74 748,-74 748,-55 798,-55 798,-74"/>
<text text-anchor="middle" x="773" y="-62" font-family="Helvetica,sans-Serif" font-size="10.00">atomic</text>
</a>
</g>
</g>
<!-- Node7&#45;&gt;Node12 -->
<g id="edge11_Node000007_Node000012" class="edge">
<title>Node7&#45;&gt;Node12</title>
<g id="a_edge11_Node000007_Node000012"><a xlink:title=" ">
<path fill="none" stroke="#63b8ff" d="M801.39,-109.75C796.68,-102.42 789.83,-91.73 784.03,-82.7"/>
<polygon fill="#63b8ff" stroke="#63b8ff" points="786.86,-80.62 778.51,-74.09 780.96,-84.4 786.86,-80.62"/>
</a>
</g>
</g>
<!-- Node13 -->
<g id="Node000013" class="node">
<title>Node13</title>
<g id="a_Node000013"><a xlink:title=" ">
<polygon fill="#e0e0e0" stroke="#999999" points="863.5,-74 816.5,-74 816.5,-55 863.5,-55 863.5,-74"/>
<text text-anchor="middle" x="840" y="-62" font-family="Helvetica,sans-Serif" font-size="10.00">cmath</text>
</a>
</g>
</g>
<!-- Node7&#45;&gt;Node13 -->
<g id="edge12_Node000007_Node000013" class="edge">
<title>Node7&#45;&gt;Node13</title>
<g id="a_edge12_Node000007_Node000013"><a xlink:title=" ">
<path fill="none" stroke="#63b8ff" d="M812.45,-109.75C817.01,-102.42 823.67,-91.73 829.29,-82.7"/>
<polygon fill="#63b8ff" stroke="#63b8ff" points="832.34,-84.43 834.65,-74.09 826.4,-80.73 832.34,-84.43"/>
</a>
</g>
</g>
<!-- Node14 -->
<g id="Node000014" class="node">
<title>Node14</title>
<g id="a_Node000014"><a xlink:title=" ">
<polygon fill="#e0e0e0" stroke="#999999" points="932,-74 882,-74 882,-55 932,-55 932,-74"/>
<text text-anchor="middle" x="907" y="-62" font-family="Helvetica,sans-Serif" font-size="10.00">ranges</text>
</a>
</g>
</g>
<!-- Node7&#45;&gt;Node14 -->
<g id="edge13_Node000007_Node000014" class="edge">
<title>Node7&#45;&gt;Node14</title>
<g id="a_edge13_Node000007_Node000014"><a xlink:title=" ">
<path fill="none" stroke="#63b8ff" d="M823.07,-109.98C838.86,-101.61 863.22,-88.7 881.63,-78.95"/>
<polygon fill="#63b8ff" stroke="#63b8ff" points="883.44,-81.95 890.64,-74.17 880.17,-75.76 883.44,-81.95"/>
</a>
</g>
</g>
<!-- Node15 -->
<g id="Node000015" class="node">
<title>Node15</title>
<g id="a_Node000015"><a xlink:title=" ">
<polygon fill="#e0e0e0" stroke="#999999" points="997.5,-74 950.5,-74 950.5,-55 997.5,-55 997.5,-74"/>
<text text-anchor="middle" x="974" y="-62" font-family="Helvetica,sans-Serif" font-size="10.00">vector</text>
</a>
</g>
</g>
<!-- Node7&#45;&gt;Node15 -->
<g id="edge14_Node000007_Node000015" class="edge">
<title>Node7&#45;&gt;Node15</title>
<g id="a_edge14_Node000007_Node000015"><a xlink:title=" ">
<path fill="none" stroke="#63b8ff" d="M833.83,-109.98C862.95,-100.74 909.48,-85.98 940.86,-76.02"/>
<polygon fill="#63b8ff" stroke="#63b8ff" points="942,-79.33 950.47,-72.97 939.88,-72.66 942,-79.33"/>
</a>
</g>
</g>
<!-- Node9 -->
<g id="Node000009" class="node">
<title>Node9</title>
<g id="a_Node000009"><a xlink:title=" ">
<polygon fill="#e0e0e0" stroke="#999999" points="641.5,-19 582.5,-19 582.5,0 641.5,0 641.5,-19"/>
<text text-anchor="middle" x="612" y="-7" font-family="Helvetica,sans-Serif" font-size="10.00">complex</text>
</a>
</g>
</g>
<!-- Node8&#45;&gt;Node9 -->
<g id="edge8_Node000008_Node000009" class="edge">
<title>Node8&#45;&gt;Node9</title>
<g id="a_edge8_Node000008_Node000009"><a xlink:title=" ">
<path fill="none" stroke="#63b8ff" d="M642.06,-54.75C637.02,-47.34 629.66,-36.5 623.49,-27.41"/>
<polygon fill="#63b8ff" stroke="#63b8ff" points="626.35,-25.39 617.83,-19.09 620.56,-29.33 626.35,-25.39"/>
</a>
</g>
</g>
<!-- Node10 -->
<g id="Node000010" class="node">
<title>Node10</title>
<g id="a_Node000010"><a xlink:title=" ">
<polygon fill="#e0e0e0" stroke="#999999" points="710,-19 660,-19 660,0 710,0 710,-19"/>
<text text-anchor="middle" x="685" y="-7" font-family="Helvetica,sans-Serif" font-size="10.00">cstdint</text>
</a>
</g>
</g>
<!-- Node8&#45;&gt;Node10 -->
<g id="edge9_Node000008_Node000010" class="edge">
<title>Node8&#45;&gt;Node10</title>
<g id="a_edge9_Node000008_Node000010"><a xlink:title=" ">
<path fill="none" stroke="#63b8ff" d="M654.11,-54.75C659.28,-47.34 666.85,-36.5 673.19,-27.41"/>
<polygon fill="#63b8ff" stroke="#63b8ff" points="676.15,-29.29 679,-19.09 670.41,-25.29 676.15,-29.29"/>
</a>
</g>
</g>
</g>
</svg>
