<?xml version="1.0" encoding="UTF-8" standalone="no"?>
<!DOCTYPE svg PUBLIC "-//W3C//DTD SVG 1.1//EN"
 "http://www.w3.org/Graphics/SVG/1.1/DTD/svg11.dtd">
<!-- Generated by graphviz version 2.43.0 (0)
 -->
<!-- Title: ezp::pgbsv&lt; DT, IT &gt; Pages: 1 -->
<svg width="147pt" height="173pt"
 viewBox="0.00 0.00 147.00 173.00" xmlns="http://www.w3.org/2000/svg" xmlns:xlink="http://www.w3.org/1999/xlink">
<g id="graph0" class="graph" transform="scale(1 1) rotate(0) translate(4 169)">
<title>ezp::pgbsv&lt; DT, IT &gt;</title>
<polygon fill="white" stroke="transparent" points="-4,4 -4,-169 143,-169 143,4 -4,4"/>
<!-- Node1 -->
<g id="node1" class="node">
<title>Node1</title>
<g id="a_node1"><a xlink:title=" ">
<polygon fill="#bfbfbf" stroke="black" points="9.5,-0.5 9.5,-19.5 129.5,-19.5 129.5,-0.5 9.5,-0.5"/>
<text text-anchor="middle" x="69.5" y="-7.5" font-family="Helvetica,sans-Serif" font-size="10.00">ezp::pgbsv&lt; DT, IT &gt;</text>
</a>
</g>
</g>
<!-- Node2 -->
<g id="node2" class="node">
<title>Node2</title>
<g id="a_node2"><a xlink:href="../../d0/db0/classezp_1_1detail_1_1band__solver.html" target="_top" xlink:title=" ">
<polygon fill="white" stroke="black" points="0,-56.5 0,-97.5 139,-97.5 139,-56.5 0,-56.5"/>
<text text-anchor="start" x="8" y="-85.5" font-family="Helvetica,sans-Serif" font-size="10.00">ezp::detail::band_solver</text>
<text text-anchor="start" x="8" y="-74.5" font-family="Helvetica,sans-Serif" font-size="10.00">&lt; DT, IT, band_mat&lt; DT,</text>
<text text-anchor="middle" x="69.5" y="-63.5" font-family="Helvetica,sans-Serif" font-size="10.00"> IT &gt; &gt;</text>
</a>
</g>
</g>
<!-- Node2&#45;&gt;Node1 -->
<g id="edge1" class="edge">
<title>Node2&#45;&gt;Node1</title>
<path fill="none" stroke="midnightblue" d="M69.5,-46.26C69.5,-36.56 69.5,-26.52 69.5,-19.65"/>
<polygon fill="midnightblue" stroke="midnightblue" points="66,-46.5 69.5,-56.5 73,-46.5 66,-46.5"/>
</g>
<!-- Node3 -->
<g id="node3" class="node">
<title>Node3</title>
<g id="a_node3"><a xlink:href="../../d0/df0/classezp_1_1detail_1_1abstract__solver.html" target="_top" xlink:title=" ">
<polygon fill="white" stroke="black" points="7,-134.5 7,-164.5 132,-164.5 132,-134.5 7,-134.5"/>
<text text-anchor="start" x="15" y="-152.5" font-family="Helvetica,sans-Serif" font-size="10.00">ezp::detail::abstract</text>
<text text-anchor="middle" x="69.5" y="-141.5" font-family="Helvetica,sans-Serif" font-size="10.00">_solver&lt; DT, IT, WT &gt;</text>
</a>
</g>
</g>
<!-- Node3&#45;&gt;Node2 -->
<g id="edge2" class="edge">
<title>Node3&#45;&gt;Node2</title>
<path fill="none" stroke="midnightblue" d="M69.5,-123.98C69.5,-115.35 69.5,-105.76 69.5,-97.59"/>
<polygon fill="midnightblue" stroke="midnightblue" points="66,-124.23 69.5,-134.23 73,-124.23 66,-124.23"/>
</g>
</g>
</svg>
