<?xml version="1.0" encoding="UTF-8" standalone="no"?>
<!DOCTYPE svg PUBLIC "-//W3C//DTD SVG 1.1//EN"
 "http://www.w3.org/Graphics/SVG/1.1/DTD/svg11.dtd">
<!-- Generated by graphviz version 2.43.0 (0)
 -->
<!-- Title: ezp::pgbsv&lt; DT, IT &gt; Pages: 1 -->
<svg width="141pt" height="159pt"
 viewBox="0.00 0.00 141.00 159.00" xmlns="http://www.w3.org/2000/svg" xmlns:xlink="http://www.w3.org/1999/xlink">
<g id="graph0" class="graph" transform="scale(1 1) rotate(0) translate(4 155)">
<title>ezp::pgbsv&lt; DT, IT &gt;</title>
<!-- Node1 -->
<g id="Node000001" class="node">
<title>Node1</title>
<g id="a_Node000001"><a xlink:title=" ">
<polygon fill="#999999" stroke="#666666" points="126.5,-19 6.5,-19 6.5,0 126.5,0 126.5,-19"/>
<text text-anchor="middle" x="66.5" y="-7" font-family="Helvetica,sans-Serif" font-size="10.00">ezp::pgbsv&lt; DT, IT &gt;</text>
</a>
</g>
</g>
<!-- Node2 -->
<g id="Node000002" class="node">
<title>Node2</title>
<g id="a_Node000002"><a xlink:href="../../d0/db0/classezp_1_1detail_1_1band__solver.html" target="_top" xlink:title=" ">
<polygon fill="white" stroke="#bfbfbf" points="133,-85 0,-85 0,-55 133,-55 133,-85"/>
<text text-anchor="start" x="8" y="-73" font-family="Helvetica,sans-Serif" font-size="10.00">ezp::detail::band_solver</text>
<text text-anchor="middle" x="66.5" y="-62" font-family="Helvetica,sans-Serif" font-size="10.00">&lt; IT &gt;</text>
</a>
</g>
</g>
<!-- Node2&#45;&gt;Node1 -->
<g id="edge1_Node000001_Node000002" class="edge">
<title>Node2&#45;&gt;Node1</title>
<g id="a_edge1_Node000001_Node000002"><a xlink:title=" ">
<path fill="none" stroke="#63b8ff" d="M66.5,-44.75C66.5,-35.72 66.5,-26.03 66.5,-19.27"/>
<polygon fill="#63b8ff" stroke="#63b8ff" points="63,-44.84 66.5,-54.84 70,-44.84 63,-44.84"/>
</a>
</g>
</g>
<!-- Node3 -->
<g id="Node000003" class="node">
<title>Node3</title>
<g id="a_Node000003"><a xlink:href="../../d0/df0/classezp_1_1detail_1_1abstract__solver.html" target="_top" xlink:title=" ">
<polygon fill="white" stroke="#bfbfbf" points="123,-151 10,-151 10,-121 123,-121 123,-151"/>
<text text-anchor="start" x="18" y="-139" font-family="Helvetica,sans-Serif" font-size="10.00">ezp::detail::abstract</text>
<text text-anchor="middle" x="66.5" y="-128" font-family="Helvetica,sans-Serif" font-size="10.00">_solver&lt; IT &gt;</text>
</a>
</g>
</g>
<!-- Node3&#45;&gt;Node2 -->
<g id="edge2_Node000002_Node000003" class="edge">
<title>Node3&#45;&gt;Node2</title>
<g id="a_edge2_Node000002_Node000003"><a xlink:title=" ">
<path fill="none" stroke="#63b8ff" d="M66.5,-110.54C66.5,-101.96 66.5,-92.61 66.5,-85.16"/>
<polygon fill="#63b8ff" stroke="#63b8ff" points="63,-110.8 66.5,-120.8 70,-110.8 63,-110.8"/>
</a>
</g>
</g>
</g>
</svg>
