<?xml version="1.0" encoding="UTF-8" standalone="no"?>
<!DOCTYPE svg PUBLIC "-//W3C//DTD SVG 1.1//EN"
 "http://www.w3.org/Graphics/SVG/1.1/DTD/svg11.dtd">
<!-- Generated by graphviz version 2.43.0 (0)
 -->
<!-- Title: ezp::full_mat&lt; DT, IT &gt; Pages: 1 -->
<svg width="147pt" height="160pt"
 viewBox="0.00 0.00 147.00 160.00" xmlns="http://www.w3.org/2000/svg" xmlns:xlink="http://www.w3.org/1999/xlink">
<g id="graph0" class="graph" transform="scale(1 1) rotate(0) translate(4 156)">
<title>ezp::full_mat&lt; DT, IT &gt;</title>
<!-- Node1 -->
<g id="Node000001" class="node">
<title>Node1</title>
<g id="a_Node000001"><a xlink:title=" ">
<polygon fill="#999999" stroke="#666666" points="135,-19 4,-19 4,0 135,0 135,-19"/>
<text text-anchor="middle" x="69.5" y="-7" font-family="Helvetica,sans-Serif" font-size="10.00">ezp::full_mat&lt; DT, IT &gt;</text>
</a>
</g>
</g>
<!-- Node2 -->
<g id="Node000002" class="node">
<title>Node2</title>
<g id="a_Node000002"><a xlink:href="../../d3/d46/structezp_1_1base__mat.html" target="_top" xlink:title=" ">
<polygon fill="white" stroke="#bfbfbf" points="139,-75 0,-75 0,-56 139,-56 139,-75"/>
<text text-anchor="middle" x="69.5" y="-63" font-family="Helvetica,sans-Serif" font-size="10.00">ezp::base_mat&lt; DT, IT &gt;</text>
</a>
</g>
</g>
<!-- Node2&#45;&gt;Node1 -->
<g id="edge1_Node000001_Node000002" class="edge">
<title>Node2&#45;&gt;Node1</title>
<g id="a_edge1_Node000001_Node000002"><a xlink:title=" ">
<path fill="none" stroke="#63b8ff" d="M69.5,-45.3C69.5,-36.41 69.5,-26.28 69.5,-19.25"/>
<polygon fill="#63b8ff" stroke="#63b8ff" points="66,-45.58 69.5,-55.58 73,-45.58 66,-45.58"/>
</a>
</g>
</g>
<!-- Node3 -->
<g id="Node000003" class="node">
<title>Node3</title>
<g id="a_Node000003"><a xlink:title=" ">
<polygon fill="white" stroke="#bfbfbf" points="55,-152 26,-152 26,-133 55,-133 55,-152"/>
<text text-anchor="middle" x="40.5" y="-140" font-family="Helvetica,sans-Serif" font-size="10.00">IT</text>
</a>
</g>
</g>
<!-- Node3&#45;&gt;Node2 -->
<g id="edge2_Node000002_Node000003" class="edge">
<title>Node3&#45;&gt;Node2</title>
<g id="a_edge2_Node000002_Node000003"><a xlink:title=" ">
<path fill="none" stroke="#9a32cd" stroke-dasharray="5,2" d="M37.57,-122.67C36.94,-113.37 37.43,-102.2 41.5,-93 44.7,-85.78 50.9,-79.58 56.65,-75"/>
<polygon fill="#9a32cd" stroke="#9a32cd" points="34.12,-123.3 38.74,-132.83 41.08,-122.5 34.12,-123.3"/>
</a>
</g>
<text text-anchor="middle" x="59" y="-107" font-family="Helvetica,sans-Serif" font-size="10.00" fill="grey"> n_cols</text>
<text text-anchor="middle" x="59" y="-96" font-family="Helvetica,sans-Serif" font-size="10.00" fill="grey">n_rows</text>
</g>
<!-- Node4 -->
<g id="Node000004" class="node">
<title>Node4</title>
<g id="a_Node000004"><a xlink:title=" ">
<polygon fill="white" stroke="#bfbfbf" points="113.5,-152 83.5,-152 83.5,-133 113.5,-133 113.5,-152"/>
<text text-anchor="middle" x="98.5" y="-140" font-family="Helvetica,sans-Serif" font-size="10.00">DT</text>
</a>
</g>
</g>
<!-- Node4&#45;&gt;Node2 -->
<g id="edge3_Node000002_Node000004" class="edge">
<title>Node4&#45;&gt;Node2</title>
<g id="a_edge3_Node000002_Node000004"><a xlink:title=" ">
<path fill="none" stroke="#9a32cd" stroke-dasharray="5,2" d="M91.51,-123.42C85.57,-108.06 77.31,-86.7 72.79,-75"/>
<polygon fill="#9a32cd" stroke="#9a32cd" points="88.3,-124.83 95.17,-132.9 94.83,-122.31 88.3,-124.83"/>
</a>
</g>
<text text-anchor="middle" x="99" y="-101.5" font-family="Helvetica,sans-Serif" font-size="10.00" fill="grey"> data</text>
</g>
</g>
</svg>
