<?xml version="1.0" encoding="UTF-8" standalone="no"?>
<!DOCTYPE svg PUBLIC "-//W3C//DTD SVG 1.1//EN"
 "http://www.w3.org/Graphics/SVG/1.1/DTD/svg11.dtd">
<!-- Generated by graphviz version 2.43.0 (0)
 -->
<!-- Title: ezp::full_mat&lt; DT, IT &gt; Pages: 1 -->
<svg width="147pt" height="163pt"
 viewBox="0.00 0.00 147.00 163.00" xmlns="http://www.w3.org/2000/svg" xmlns:xlink="http://www.w3.org/1999/xlink">
<g id="graph0" class="graph" transform="scale(1 1) rotate(0) translate(4 159)">
<title>ezp::full_mat&lt; DT, IT &gt;</title>
<polygon fill="white" stroke="transparent" points="-4,4 -4,-159 143,-159 143,4 -4,4"/>
<!-- Node1 -->
<g id="node1" class="node">
<title>Node1</title>
<g id="a_node1"><a xlink:title=" ">
<polygon fill="#bfbfbf" stroke="black" points="4,-0.5 4,-19.5 135,-19.5 135,-0.5 4,-0.5"/>
<text text-anchor="middle" x="69.5" y="-7.5" font-family="Helvetica,sans-Serif" font-size="10.00">ezp::full_mat&lt; DT, IT &gt;</text>
</a>
</g>
</g>
<!-- Node2 -->
<g id="node2" class="node">
<title>Node2</title>
<g id="a_node2"><a xlink:href="../../d3/d46/structezp_1_1base__mat.html" target="_top" xlink:title=" ">
<polygon fill="white" stroke="black" points="0,-57.5 0,-76.5 139,-76.5 139,-57.5 0,-57.5"/>
<text text-anchor="middle" x="69.5" y="-64.5" font-family="Helvetica,sans-Serif" font-size="10.00">ezp::base_mat&lt; DT, IT &gt;</text>
</a>
</g>
</g>
<!-- Node2&#45;&gt;Node1 -->
<g id="edge1" class="edge">
<title>Node2&#45;&gt;Node1</title>
<path fill="none" stroke="midnightblue" d="M69.5,-47.12C69.5,-37.82 69.5,-27.06 69.5,-19.71"/>
<polygon fill="midnightblue" stroke="midnightblue" points="66,-47.41 69.5,-57.41 73,-47.41 66,-47.41"/>
</g>
<!-- Node3 -->
<g id="node3" class="node">
<title>Node3</title>
<g id="a_node3"><a xlink:title=" ">
<polygon fill="white" stroke="#bfbfbf" points="26,-135.5 26,-154.5 55,-154.5 55,-135.5 26,-135.5"/>
<text text-anchor="middle" x="40.5" y="-142.5" font-family="Helvetica,sans-Serif" font-size="10.00">IT</text>
</a>
</g>
</g>
<!-- Node3&#45;&gt;Node2 -->
<g id="edge2" class="edge">
<title>Node3&#45;&gt;Node2</title>
<path fill="none" stroke="#9a32cd" stroke-dasharray="5,2" d="M37.6,-125.3C36.93,-115.85 37.39,-104.41 41.5,-95 44.69,-87.7 50.89,-81.39 56.64,-76.71"/>
<polygon fill="#9a32cd" stroke="#9a32cd" points="34.12,-125.72 38.74,-135.25 41.08,-124.92 34.12,-125.72"/>
<text text-anchor="middle" x="59" y="-109" font-family="Helvetica,sans-Serif" font-size="10.00"> n_cols</text>
<text text-anchor="middle" x="59" y="-98" font-family="Helvetica,sans-Serif" font-size="10.00">n_rows</text>
</g>
<!-- Node4 -->
<g id="node4" class="node">
<title>Node4</title>
<g id="a_node4"><a xlink:title=" ">
<polygon fill="white" stroke="#bfbfbf" points="83.5,-135.5 83.5,-154.5 113.5,-154.5 113.5,-135.5 83.5,-135.5"/>
<text text-anchor="middle" x="98.5" y="-142.5" font-family="Helvetica,sans-Serif" font-size="10.00">DT</text>
</a>
</g>
</g>
<!-- Node4&#45;&gt;Node2 -->
<g id="edge3" class="edge">
<title>Node4&#45;&gt;Node2</title>
<path fill="none" stroke="#9a32cd" stroke-dasharray="5,2" d="M91.51,-125.67C85.57,-110.11 77.31,-88.47 72.79,-76.62"/>
<polygon fill="#9a32cd" stroke="#9a32cd" points="88.34,-127.19 95.17,-135.28 94.88,-124.69 88.34,-127.19"/>
<text text-anchor="middle" x="99" y="-103.5" font-family="Helvetica,sans-Serif" font-size="10.00"> data</text>
</g>
</g>
</svg>
