<?xml version="1.0" encoding="UTF-8" standalone="no"?>
<!DOCTYPE svg PUBLIC "-//W3C//DTD SVG 1.1//EN"
 "http://www.w3.org/Graphics/SVG/1.1/DTD/svg11.dtd">
<!-- Generated by graphviz version 2.43.0 (0)
 -->
<!-- Title: ezp::blacs_context&lt; IT &gt; Pages: 1 -->
<svg width="115pt" height="172pt"
 viewBox="0.00 0.00 115.00 172.00" xmlns="http://www.w3.org/2000/svg" xmlns:xlink="http://www.w3.org/1999/xlink">
<g id="graph0" class="graph" transform="scale(1 1) rotate(0) translate(4 168)">
<title>ezp::blacs_context&lt; IT &gt;</title>
<polygon fill="white" stroke="transparent" points="-4,4 -4,-168 111,-168 111,4 -4,4"/>
<!-- Node1 -->
<g id="node1" class="node">
<title>Node1</title>
<g id="a_node1"><a xlink:title=" ">
<polygon fill="#bfbfbf" stroke="black" points="0,-0.5 0,-30.5 107,-30.5 107,-0.5 0,-0.5"/>
<text text-anchor="start" x="8" y="-18.5" font-family="Helvetica,sans-Serif" font-size="10.00">ezp::blacs_context</text>
<text text-anchor="middle" x="53.5" y="-7.5" font-family="Helvetica,sans-Serif" font-size="10.00">&lt; IT &gt;</text>
</a>
</g>
</g>
<!-- Node2 -->
<g id="node2" class="node">
<title>Node2</title>
<g id="a_node2"><a xlink:title=" ">
<polygon fill="white" stroke="#bfbfbf" points="39,-144.5 39,-163.5 68,-163.5 68,-144.5 39,-144.5"/>
<text text-anchor="middle" x="53.5" y="-151.5" font-family="Helvetica,sans-Serif" font-size="10.00">IT</text>
</a>
</g>
</g>
<!-- Node2&#45;&gt;Node1 -->
<g id="edge1" class="edge">
<title>Node2&#45;&gt;Node1</title>
<path fill="none" stroke="#9a32cd" stroke-dasharray="5,2" d="M53.5,-134.15C53.5,-106.41 53.5,-55.2 53.5,-30.52"/>
<polygon fill="#9a32cd" stroke="#9a32cd" points="50,-134.46 53.5,-144.46 57,-134.46 50,-134.46"/>
<text text-anchor="middle" x="73.5" y="-118" font-family="Helvetica,sans-Serif" font-size="10.00"> context</text>
<text text-anchor="middle" x="73.5" y="-107" font-family="Helvetica,sans-Serif" font-size="10.00">my_col</text>
<text text-anchor="middle" x="73.5" y="-96" font-family="Helvetica,sans-Serif" font-size="10.00">my_row</text>
<text text-anchor="middle" x="73.5" y="-85" font-family="Helvetica,sans-Serif" font-size="10.00">n_cols</text>
<text text-anchor="middle" x="73.5" y="-74" font-family="Helvetica,sans-Serif" font-size="10.00">n_rows</text>
<text text-anchor="middle" x="73.5" y="-63" font-family="Helvetica,sans-Serif" font-size="10.00">rank</text>
<text text-anchor="middle" x="73.5" y="-52" font-family="Helvetica,sans-Serif" font-size="10.00">size</text>
</g>
</g>
</svg>
