<?xml version="1.0" encoding="UTF-8" standalone="no"?>
<!DOCTYPE svg PUBLIC "-//W3C//DTD SVG 1.1//EN"
 "http://www.w3.org/Graphics/SVG/1.1/DTD/svg11.dtd">
<!-- Generated by graphviz version 2.43.0 (0)
 -->
<!-- Title: ezp::detail::full_solver&lt; DT, IT, ODER &gt; Pages: 1 -->
<svg width="436pt" height="182pt"
 viewBox="0.00 0.00 436.00 182.00" xmlns="http://www.w3.org/2000/svg" xmlns:xlink="http://www.w3.org/1999/xlink">
<g id="graph0" class="graph" transform="scale(1 1) rotate(0) translate(4 178)">
<title>ezp::detail::full_solver&lt; DT, IT, ODER &gt;</title>
<!-- Node1 -->
<g id="Node000001" class="node">
<title>Node1</title>
<g id="a_Node000001"><a xlink:title=" ">
<polygon fill="#999999" stroke="#666666" points="274,-102 149,-102 149,-72 274,-72 274,-102"/>
<text text-anchor="start" x="157" y="-90" font-family="Helvetica,sans-Serif" font-size="10.00">ezp::detail::full_solver</text>
<text text-anchor="middle" x="211.5" y="-79" font-family="Helvetica,sans-Serif" font-size="10.00">&lt; DT, IT, ODER &gt;</text>
</a>
</g>
</g>
<!-- Node3 -->
<g id="Node000003" class="node">
<title>Node3</title>
<g id="a_Node000003"><a xlink:href="../../d5/d48/classezp_1_1pgesv.html" target="_top" xlink:title=" ">
<polygon fill="white" stroke="#bfbfbf" points="425,-174 313,-174 313,-144 425,-144 425,-174"/>
<text text-anchor="start" x="321" y="-162" font-family="Helvetica,sans-Serif" font-size="10.00">ezp::pgesv&lt; DT, IT,</text>
<text text-anchor="middle" x="369" y="-151" font-family="Helvetica,sans-Serif" font-size="10.00"> ODER &gt;</text>
</a>
</g>
</g>
<!-- Node1&#45;&gt;Node3 -->
<g id="edge2_Node000001_Node000003" class="edge">
<title>Node1&#45;&gt;Node3</title>
<g id="a_edge2_Node000001_Node000003"><a xlink:title=" ">
<path fill="none" stroke="#63b8ff" d="M251.08,-106.71C268.88,-115.62 290.39,-126.12 310,-135 316.65,-138.01 323.79,-141.09 330.72,-143.99"/>
<polygon fill="#63b8ff" stroke="#63b8ff" points="252.64,-103.58 242.13,-102.21 249.49,-109.83 252.64,-103.58"/>
</a>
</g>
</g>
<!-- Node4 -->
<g id="Node000004" class="node">
<title>Node4</title>
<g id="a_Node000004"><a xlink:href="../../d5/d6a/classezp_1_1pgesvx.html" target="_top" xlink:title=" ">
<polygon fill="white" stroke="#bfbfbf" points="428,-126 310,-126 310,-96 428,-96 428,-126"/>
<text text-anchor="start" x="318" y="-114" font-family="Helvetica,sans-Serif" font-size="10.00">ezp::pgesvx&lt; DT, IT,</text>
<text text-anchor="middle" x="369" y="-103" font-family="Helvetica,sans-Serif" font-size="10.00"> ODER &gt;</text>
</a>
</g>
</g>
<!-- Node1&#45;&gt;Node4 -->
<g id="edge3_Node000001_Node000004" class="edge">
<title>Node1&#45;&gt;Node4</title>
<g id="a_edge3_Node000001_Node000004"><a xlink:title=" ">
<path fill="none" stroke="#63b8ff" d="M284.36,-98.09C292.9,-99.41 301.53,-100.74 309.85,-102.02"/>
<polygon fill="#63b8ff" stroke="#63b8ff" points="284.82,-94.62 274.4,-96.55 283.75,-101.54 284.82,-94.62"/>
</a>
</g>
</g>
<!-- Node5 -->
<g id="Node000005" class="node">
<title>Node5</title>
<g id="a_Node000005"><a xlink:href="../../de/d12/classezp_1_1pposv.html" target="_top" xlink:title=" ">
<polygon fill="white" stroke="#bfbfbf" points="425,-78 313,-78 313,-48 425,-48 425,-78"/>
<text text-anchor="start" x="321" y="-66" font-family="Helvetica,sans-Serif" font-size="10.00">ezp::pposv&lt; DT, IT,</text>
<text text-anchor="middle" x="369" y="-55" font-family="Helvetica,sans-Serif" font-size="10.00"> UL, ODER &gt;</text>
</a>
</g>
</g>
<!-- Node1&#45;&gt;Node5 -->
<g id="edge4_Node000001_Node000005" class="edge">
<title>Node1&#45;&gt;Node5</title>
<g id="a_edge4_Node000001_Node000005"><a xlink:title=" ">
<path fill="none" stroke="#63b8ff" d="M284.32,-75.91C293.91,-74.44 303.61,-72.94 312.85,-71.51"/>
<polygon fill="#63b8ff" stroke="#63b8ff" points="283.75,-72.46 274.4,-77.45 284.82,-79.38 283.75,-72.46"/>
</a>
</g>
</g>
<!-- Node6 -->
<g id="Node000006" class="node">
<title>Node6</title>
<g id="a_Node000006"><a xlink:href="../../d0/d05/classezp_1_1pposvx.html" target="_top" xlink:title=" ">
<polygon fill="white" stroke="#bfbfbf" points="428,-30 310,-30 310,0 428,0 428,-30"/>
<text text-anchor="start" x="318" y="-18" font-family="Helvetica,sans-Serif" font-size="10.00">ezp::pposvx&lt; DT, IT,</text>
<text text-anchor="middle" x="369" y="-7" font-family="Helvetica,sans-Serif" font-size="10.00"> UL, ODER &gt;</text>
</a>
</g>
</g>
<!-- Node1&#45;&gt;Node6 -->
<g id="edge5_Node000001_Node000006" class="edge">
<title>Node1&#45;&gt;Node6</title>
<g id="a_edge5_Node000001_Node000006"><a xlink:title=" ">
<path fill="none" stroke="#63b8ff" d="M251.08,-67.29C268.88,-58.38 290.39,-47.88 310,-39 316.65,-35.99 323.79,-32.91 330.72,-30.01"/>
<polygon fill="#63b8ff" stroke="#63b8ff" points="249.49,-64.17 242.13,-71.79 252.64,-70.42 249.49,-64.17"/>
</a>
</g>
</g>
<!-- Node2 -->
<g id="Node000002" class="node">
<title>Node2</title>
<g id="a_Node000002"><a xlink:href="../../d0/df0/classezp_1_1detail_1_1abstract__solver.html" target="_top" xlink:title=" ">
<polygon fill="white" stroke="#bfbfbf" points="113,-107.5 0,-107.5 0,-66.5 113,-66.5 113,-107.5"/>
<text text-anchor="start" x="8" y="-95.5" font-family="Helvetica,sans-Serif" font-size="10.00">ezp::detail::abstract</text>
<text text-anchor="start" x="8" y="-84.5" font-family="Helvetica,sans-Serif" font-size="10.00">_solver&lt; DT, IT, full</text>
<text text-anchor="middle" x="56.5" y="-73.5" font-family="Helvetica,sans-Serif" font-size="10.00">_mat&lt; DT, IT &gt; &gt;</text>
</a>
</g>
</g>
<!-- Node2&#45;&gt;Node1 -->
<g id="edge1_Node000001_Node000002" class="edge">
<title>Node2&#45;&gt;Node1</title>
<g id="a_edge1_Node000001_Node000002"><a xlink:title=" ">
<path fill="none" stroke="#63b8ff" d="M123.39,-87C131.87,-87 140.52,-87 148.92,-87"/>
<polygon fill="#63b8ff" stroke="#63b8ff" points="123.17,-83.5 113.17,-87 123.17,-90.5 123.17,-83.5"/>
</a>
</g>
</g>
</g>
</svg>
