<?xml version="1.0" encoding="UTF-8" standalone="no"?>
<!DOCTYPE svg PUBLIC "-//W3C//DTD SVG 1.1//EN"
 "http://www.w3.org/Graphics/SVG/1.1/DTD/svg11.dtd">
<!-- Generated by graphviz version 2.43.0 (0)
 -->
<!-- Title: ezp::sparse_csr_mat&lt; DT, IT &gt; Pages: 1 -->
<svg width="124pt" height="139pt"
 viewBox="0.00 0.00 124.00 139.00" xmlns="http://www.w3.org/2000/svg" xmlns:xlink="http://www.w3.org/1999/xlink">
<g id="graph0" class="graph" transform="scale(1 1) rotate(0) translate(4 135)">
<title>ezp::sparse_csr_mat&lt; DT, IT &gt;</title>
<polygon fill="white" stroke="transparent" points="-4,4 -4,-135 120,-135 120,4 -4,4"/>
<!-- Node1 -->
<g id="node1" class="node">
<title>Node1</title>
<g id="a_node1"><a xlink:title=" ">
<polygon fill="#bfbfbf" stroke="black" points="0,-0.5 0,-30.5 116,-30.5 116,-0.5 0,-0.5"/>
<text text-anchor="start" x="8" y="-18.5" font-family="Helvetica,sans-Serif" font-size="10.00">ezp::sparse_csr_mat</text>
<text text-anchor="middle" x="58" y="-7.5" font-family="Helvetica,sans-Serif" font-size="10.00">&lt; DT, IT &gt;</text>
</a>
</g>
</g>
<!-- Node2 -->
<g id="node2" class="node">
<title>Node2</title>
<g id="a_node2"><a xlink:title=" ">
<polygon fill="white" stroke="#bfbfbf" points="13.5,-111.5 13.5,-130.5 42.5,-130.5 42.5,-111.5 13.5,-111.5"/>
<text text-anchor="middle" x="28" y="-118.5" font-family="Helvetica,sans-Serif" font-size="10.00">IT</text>
</a>
</g>
</g>
<!-- Node2&#45;&gt;Node1 -->
<g id="edge1" class="edge">
<title>Node2&#45;&gt;Node1</title>
<path fill="none" stroke="#9a32cd" stroke-dasharray="5,2" d="M24.8,-101.42C23.07,-86.68 22.44,-65.84 29,-49 31.63,-42.24 36.37,-35.97 41.26,-30.79"/>
<polygon fill="#9a32cd" stroke="#9a32cd" points="21.34,-101.93 26.24,-111.33 28.27,-100.93 21.34,-101.93"/>
<text text-anchor="middle" x="48" y="-85" font-family="Helvetica,sans-Serif" font-size="10.00"> col_idx</text>
<text text-anchor="middle" x="48" y="-74" font-family="Helvetica,sans-Serif" font-size="10.00">n</text>
<text text-anchor="middle" x="48" y="-63" font-family="Helvetica,sans-Serif" font-size="10.00">nnz</text>
<text text-anchor="middle" x="48" y="-52" font-family="Helvetica,sans-Serif" font-size="10.00">row_ptr</text>
</g>
<!-- Node3 -->
<g id="node3" class="node">
<title>Node3</title>
<g id="a_node3"><a xlink:title=" ">
<polygon fill="white" stroke="#bfbfbf" points="74,-111.5 74,-130.5 104,-130.5 104,-111.5 74,-111.5"/>
<text text-anchor="middle" x="89" y="-118.5" font-family="Helvetica,sans-Serif" font-size="10.00">DT</text>
</a>
</g>
</g>
<!-- Node3&#45;&gt;Node1 -->
<g id="edge2" class="edge">
<title>Node3&#45;&gt;Node1</title>
<path fill="none" stroke="#9a32cd" stroke-dasharray="5,2" d="M83.48,-101.56C77.42,-81.33 67.82,-49.28 62.3,-30.84"/>
<polygon fill="#9a32cd" stroke="#9a32cd" points="80.13,-102.6 86.36,-111.18 86.84,-100.59 80.13,-102.6"/>
<text text-anchor="middle" x="92.5" y="-68.5" font-family="Helvetica,sans-Serif" font-size="10.00"> data</text>
</g>
</g>
</svg>
