<?xml version="1.0" encoding="UTF-8" standalone="no"?>
<!DOCTYPE svg PUBLIC "-//W3C//DTD SVG 1.1//EN"
 "http://www.w3.org/Graphics/SVG/1.1/DTD/svg11.dtd">
<!-- Generated by graphviz version 2.43.0 (0)
 -->
<!-- Title: ezp/pgesv.hpp Pages: 1 -->
<svg width="517pt" height="137pt"
 viewBox="0.00 0.00 516.50 137.00" xmlns="http://www.w3.org/2000/svg" xmlns:xlink="http://www.w3.org/1999/xlink">
<g id="graph0" class="graph" transform="scale(1 1) rotate(0) translate(4 133)">
<title>ezp/pgesv.hpp</title>
<!-- Node1 -->
<g id="Node000001" class="node">
<title>Node1</title>
<g id="a_Node000001"><a xlink:title=" ">
<polygon fill="#999999" stroke="#666666" points="209,-129 123,-129 123,-110 209,-110 209,-129"/>
<text text-anchor="middle" x="166" y="-117" font-family="Helvetica,sans-Serif" font-size="10.00">ezp/pgesv.hpp</text>
</a>
</g>
</g>
<!-- Node2 -->
<g id="Node000002" class="node">
<title>Node2</title>
<g id="a_Node000002"><a xlink:href="../../d2/dde/example_8pgesv_8cpp.html" target="_top" xlink:title="Example caller to the pgesv solver.">
<polygon fill="white" stroke="#666666" points="162,-74 0,-74 0,-55 162,-55 162,-74"/>
<text text-anchor="middle" x="81" y="-62" font-family="Helvetica,sans-Serif" font-size="10.00">examples/example.pgesv.cpp</text>
</a>
</g>
</g>
<!-- Node1&#45;&gt;Node2 -->
<g id="edge1_Node000001_Node000002" class="edge">
<title>Node1&#45;&gt;Node2</title>
<g id="a_edge1_Node000001_Node000002"><a xlink:title=" ">
<path fill="none" stroke="#63b8ff" d="M143.43,-104.42C128,-94.81 108.05,-82.37 94.91,-74.17"/>
<polygon fill="#63b8ff" stroke="#63b8ff" points="142.01,-107.66 152.34,-109.98 145.71,-101.72 142.01,-107.66"/>
</a>
</g>
</g>
<!-- Node3 -->
<g id="Node000003" class="node">
<title>Node3</title>
<g id="a_Node000003"><a xlink:href="../../d3/d6d/solver_8full_8hpp_source.html" target="_top" xlink:title=" ">
<polygon fill="white" stroke="#666666" points="323.5,-74 180.5,-74 180.5,-55 323.5,-55 323.5,-74"/>
<text text-anchor="middle" x="252" y="-62" font-family="Helvetica,sans-Serif" font-size="10.00">standalone/solver.full.hpp</text>
</a>
</g>
</g>
<!-- Node1&#45;&gt;Node3 -->
<g id="edge2_Node000001_Node000003" class="edge">
<title>Node1&#45;&gt;Node3</title>
<g id="a_edge2_Node000001_Node000003"><a xlink:title=" ">
<path fill="none" stroke="#63b8ff" d="M188.4,-104.7C204.07,-95.04 224.51,-82.44 237.93,-74.17"/>
<polygon fill="#63b8ff" stroke="#63b8ff" points="186.49,-101.76 179.82,-109.98 190.17,-107.72 186.49,-101.76"/>
</a>
</g>
</g>
<!-- Node4 -->
<g id="Node000004" class="node">
<title>Node4</title>
<g id="a_Node000004"><a xlink:href="../../d3/db5/solver_8pgesv_8cpp.html" target="_top" xlink:title="Standalone pgesv solver.">
<polygon fill="white" stroke="#666666" points="156.5,-19 1.5,-19 1.5,0 156.5,0 156.5,-19"/>
<text text-anchor="middle" x="79" y="-7" font-family="Helvetica,sans-Serif" font-size="10.00">standalone/solver.pgesv.cpp</text>
</a>
</g>
</g>
<!-- Node3&#45;&gt;Node4 -->
<g id="edge3_Node000003_Node000004" class="edge">
<title>Node3&#45;&gt;Node4</title>
<g id="a_edge3_Node000003_Node000004"><a xlink:title=" ">
<path fill="none" stroke="#63b8ff" d="M214.23,-51.93C181.91,-42.03 136.14,-28.01 107.01,-19.08"/>
<polygon fill="#63b8ff" stroke="#63b8ff" points="213.62,-55.4 224.2,-54.98 215.67,-48.71 213.62,-55.4"/>
</a>
</g>
</g>
<!-- Node5 -->
<g id="Node000005" class="node">
<title>Node5</title>
<g id="a_Node000005"><a xlink:href="../../d2/d91/solver_8pposv_8cpp.html" target="_top" xlink:title="Standalone pposv solver.">
<polygon fill="white" stroke="#666666" points="329.5,-19 174.5,-19 174.5,0 329.5,0 329.5,-19"/>
<text text-anchor="middle" x="252" y="-7" font-family="Helvetica,sans-Serif" font-size="10.00">standalone/solver.pposv.cpp</text>
</a>
</g>
</g>
<!-- Node3&#45;&gt;Node5 -->
<g id="edge4_Node000003_Node000005" class="edge">
<title>Node3&#45;&gt;Node5</title>
<g id="a_edge4_Node000003_Node000005"><a xlink:title=" ">
<path fill="none" stroke="#63b8ff" d="M252,-44.66C252,-35.93 252,-25.99 252,-19.09"/>
<polygon fill="#63b8ff" stroke="#63b8ff" points="248.5,-44.75 252,-54.75 255.5,-44.75 248.5,-44.75"/>
</a>
</g>
</g>
<!-- Node6 -->
<g id="Node000006" class="node">
<title>Node6</title>
<g id="a_Node000006"><a xlink:href="../../d9/d45/solver_8pposvx_8cpp.html" target="_top" xlink:title="Standalone pposvx solver.">
<polygon fill="white" stroke="#666666" points="508.5,-19 347.5,-19 347.5,0 508.5,0 508.5,-19"/>
<text text-anchor="middle" x="428" y="-7" font-family="Helvetica,sans-Serif" font-size="10.00">standalone/solver.pposvx.cpp</text>
</a>
</g>
</g>
<!-- Node3&#45;&gt;Node6 -->
<g id="edge5_Node000003_Node000006" class="edge">
<title>Node3&#45;&gt;Node6</title>
<g id="a_edge5_Node000003_Node000006"><a xlink:title=" ">
<path fill="none" stroke="#63b8ff" d="M290,-52.06C322.9,-42.15 369.74,-28.04 399.5,-19.08"/>
<polygon fill="#63b8ff" stroke="#63b8ff" points="288.84,-48.75 280.28,-54.98 290.86,-55.45 288.84,-48.75"/>
</a>
</g>
</g>
</g>
</svg>
