<?xml version="1.0" encoding="UTF-8" standalone="no"?>
<!DOCTYPE svg PUBLIC "-//W3C//DTD SVG 1.1//EN"
 "http://www.w3.org/Graphics/SVG/1.1/DTD/svg11.dtd">
<!-- Generated by graphviz version 2.43.0 (0)
 -->
<!-- Title: ezp/pgesv.hpp Pages: 1 -->
<svg width="515pt" height="137pt"
 viewBox="0.00 0.00 515.00 137.00" xmlns="http://www.w3.org/2000/svg" xmlns:xlink="http://www.w3.org/1999/xlink">
<g id="graph0" class="graph" transform="scale(1 1) rotate(0) translate(4 133)">
<title>ezp/pgesv.hpp</title>
<!-- Node1 -->
<g id="Node000001" class="node">
<title>Node1</title>
<g id="a_Node000001"><a xlink:title=" ">
<polygon fill="#999999" stroke="#666666" points="210.5,-129 124.5,-129 124.5,-110 210.5,-110 210.5,-129"/>
<text text-anchor="middle" x="167.5" y="-117" font-family="Helvetica,sans-Serif" font-size="10.00">ezp/pgesv.hpp</text>
</a>
</g>
</g>
<!-- Node2 -->
<g id="Node000002" class="node">
<title>Node2</title>
<g id="a_Node000002"><a xlink:href="../../d2/dde/example_8pgesv_8cpp.html" target="_top" xlink:title="Example caller to the pgesv solver.">
<polygon fill="white" stroke="#666666" points="163.5,-74 1.5,-74 1.5,-55 163.5,-55 163.5,-74"/>
<text text-anchor="middle" x="82.5" y="-62" font-family="Helvetica,sans-Serif" font-size="10.00">examples/example.pgesv.cpp</text>
</a>
</g>
</g>
<!-- Node1&#45;&gt;Node2 -->
<g id="edge1_Node000001_Node000002" class="edge">
<title>Node1&#45;&gt;Node2</title>
<g id="a_edge1_Node000001_Node000002"><a xlink:title=" ">
<path fill="none" stroke="#63b8ff" d="M144.93,-104.42C129.5,-94.81 109.55,-82.37 96.41,-74.17"/>
<polygon fill="#63b8ff" stroke="#63b8ff" points="143.51,-107.66 153.84,-109.98 147.21,-101.72 143.51,-107.66"/>
</a>
</g>
</g>
<!-- Node3 -->
<g id="Node000003" class="node">
<title>Node3</title>
<g id="a_Node000003"><a xlink:href="../../d3/d6d/solver_8full_8hpp_source.html" target="_top" xlink:title=" ">
<polygon fill="white" stroke="#666666" points="325,-74 182,-74 182,-55 325,-55 325,-74"/>
<text text-anchor="middle" x="253.5" y="-62" font-family="Helvetica,sans-Serif" font-size="10.00">standalone/solver.full.hpp</text>
</a>
</g>
</g>
<!-- Node1&#45;&gt;Node3 -->
<g id="edge2_Node000001_Node000003" class="edge">
<title>Node1&#45;&gt;Node3</title>
<g id="a_edge2_Node000001_Node000003"><a xlink:title=" ">
<path fill="none" stroke="#63b8ff" d="M189.9,-104.7C205.57,-95.04 226.01,-82.44 239.43,-74.17"/>
<polygon fill="#63b8ff" stroke="#63b8ff" points="187.99,-101.76 181.32,-109.98 191.67,-107.72 187.99,-101.76"/>
</a>
</g>
</g>
<!-- Node4 -->
<g id="Node000004" class="node">
<title>Node4</title>
<g id="a_Node000004"><a xlink:href="../../d3/db5/solver_8pgesv_8cpp.html" target="_top" xlink:title="Standalone pgesv solver.">
<polygon fill="white" stroke="#666666" points="155,-19 0,-19 0,0 155,0 155,-19"/>
<text text-anchor="middle" x="77.5" y="-7" font-family="Helvetica,sans-Serif" font-size="10.00">standalone/solver.pgesv.cpp</text>
</a>
</g>
</g>
<!-- Node3&#45;&gt;Node4 -->
<g id="edge3_Node000003_Node000004" class="edge">
<title>Node3&#45;&gt;Node4</title>
<g id="a_edge3_Node000003_Node000004"><a xlink:title=" ">
<path fill="none" stroke="#63b8ff" d="M215.5,-52.06C182.6,-42.15 135.76,-28.04 106,-19.08"/>
<polygon fill="#63b8ff" stroke="#63b8ff" points="214.64,-55.45 225.22,-54.98 216.66,-48.75 214.64,-55.45"/>
</a>
</g>
</g>
<!-- Node5 -->
<g id="Node000005" class="node">
<title>Node5</title>
<g id="a_Node000005"><a xlink:href="../../d6/d84/solver_8pgesvx_8cpp.html" target="_top" xlink:title="Standalone pgesvx solver.">
<polygon fill="white" stroke="#666666" points="334,-19 173,-19 173,0 334,0 334,-19"/>
<text text-anchor="middle" x="253.5" y="-7" font-family="Helvetica,sans-Serif" font-size="10.00">standalone/solver.pgesvx.cpp</text>
</a>
</g>
</g>
<!-- Node3&#45;&gt;Node5 -->
<g id="edge4_Node000003_Node000005" class="edge">
<title>Node3&#45;&gt;Node5</title>
<g id="a_edge4_Node000003_Node000005"><a xlink:title=" ">
<path fill="none" stroke="#63b8ff" d="M253.5,-44.66C253.5,-35.93 253.5,-25.99 253.5,-19.09"/>
<polygon fill="#63b8ff" stroke="#63b8ff" points="250,-44.75 253.5,-54.75 257,-44.75 250,-44.75"/>
</a>
</g>
</g>
<!-- Node6 -->
<g id="Node000006" class="node">
<title>Node6</title>
<g id="a_Node000006"><a xlink:href="../../d2/d91/solver_8pposv_8cpp.html" target="_top" xlink:title="Standalone pposv solver.">
<polygon fill="white" stroke="#666666" points="507,-19 352,-19 352,0 507,0 507,-19"/>
<text text-anchor="middle" x="429.5" y="-7" font-family="Helvetica,sans-Serif" font-size="10.00">standalone/solver.pposv.cpp</text>
</a>
</g>
</g>
<!-- Node3&#45;&gt;Node6 -->
<g id="edge5_Node000003_Node000006" class="edge">
<title>Node3&#45;&gt;Node6</title>
<g id="a_edge5_Node000003_Node000006"><a xlink:title=" ">
<path fill="none" stroke="#63b8ff" d="M291.5,-52.06C324.4,-42.15 371.24,-28.04 401,-19.08"/>
<polygon fill="#63b8ff" stroke="#63b8ff" points="290.34,-48.75 281.78,-54.98 292.36,-55.45 290.34,-48.75"/>
</a>
</g>
</g>
</g>
</svg>
