<?xml version="1.0" encoding="UTF-8" standalone="no"?>
<!DOCTYPE svg PUBLIC "-//W3C//DTD SVG 1.1//EN"
 "http://www.w3.org/Graphics/SVG/1.1/DTD/svg11.dtd">
<!-- Generated by graphviz version 2.43.0 (0)
 -->
<!-- Title: ezp::sparse_coo_mat&lt; DT, IT &gt; Pages: 1 -->
<svg width="127pt" height="139pt"
 viewBox="0.00 0.00 127.00 139.00" xmlns="http://www.w3.org/2000/svg" xmlns:xlink="http://www.w3.org/1999/xlink">
<g id="graph0" class="graph" transform="scale(1 1) rotate(0) translate(4 135)">
<title>ezp::sparse_coo_mat&lt; DT, IT &gt;</title>
<polygon fill="white" stroke="transparent" points="-4,4 -4,-135 123,-135 123,4 -4,4"/>
<!-- Node1 -->
<g id="node1" class="node">
<title>Node1</title>
<g id="a_node1"><a xlink:title=" ">
<polygon fill="#bfbfbf" stroke="black" points="0,-0.5 0,-30.5 119,-30.5 119,-0.5 0,-0.5"/>
<text text-anchor="start" x="8" y="-18.5" font-family="Helvetica,sans-Serif" font-size="10.00">ezp::sparse_coo_mat</text>
<text text-anchor="middle" x="59.5" y="-7.5" font-family="Helvetica,sans-Serif" font-size="10.00">&lt; DT, IT &gt;</text>
</a>
</g>
</g>
<!-- Node2 -->
<g id="node2" class="node">
<title>Node2</title>
<g id="a_node2"><a xlink:title=" ">
<polygon fill="white" stroke="#bfbfbf" points="21,-111.5 21,-130.5 50,-130.5 50,-111.5 21,-111.5"/>
<text text-anchor="middle" x="35.5" y="-118.5" font-family="Helvetica,sans-Serif" font-size="10.00">IT</text>
</a>
</g>
</g>
<!-- Node2&#45;&gt;Node1 -->
<g id="edge1" class="edge">
<title>Node2&#45;&gt;Node1</title>
<path fill="none" stroke="#9a32cd" stroke-dasharray="5,2" d="M35.41,-101.29C35.8,-86.75 37.36,-66.23 42.5,-49 44.39,-42.65 47.56,-36.1 50.64,-30.56"/>
<polygon fill="#9a32cd" stroke="#9a32cd" points="31.91,-101.46 35.3,-111.49 38.91,-101.53 31.91,-101.46"/>
<text text-anchor="middle" x="52" y="-85" font-family="Helvetica,sans-Serif" font-size="10.00"> col</text>
<text text-anchor="middle" x="52" y="-74" font-family="Helvetica,sans-Serif" font-size="10.00">n</text>
<text text-anchor="middle" x="52" y="-63" font-family="Helvetica,sans-Serif" font-size="10.00">nnz</text>
<text text-anchor="middle" x="52" y="-52" font-family="Helvetica,sans-Serif" font-size="10.00">row</text>
</g>
<!-- Node3 -->
<g id="node3" class="node">
<title>Node3</title>
<g id="a_node3"><a xlink:title=" ">
<polygon fill="white" stroke="#bfbfbf" points="68.5,-111.5 68.5,-130.5 98.5,-130.5 98.5,-111.5 68.5,-111.5"/>
<text text-anchor="middle" x="83.5" y="-118.5" font-family="Helvetica,sans-Serif" font-size="10.00">DT</text>
</a>
</g>
</g>
<!-- Node3&#45;&gt;Node1 -->
<g id="edge2" class="edge">
<title>Node3&#45;&gt;Node1</title>
<path fill="none" stroke="#9a32cd" stroke-dasharray="5,2" d="M79.16,-101.28C74.46,-81.03 67.08,-49.19 62.83,-30.84"/>
<polygon fill="#9a32cd" stroke="#9a32cd" points="75.79,-102.22 81.45,-111.18 82.6,-100.64 75.79,-102.22"/>
<text text-anchor="middle" x="89" y="-68.5" font-family="Helvetica,sans-Serif" font-size="10.00"> data</text>
</g>
</g>
</svg>
