<?xml version="1.0" encoding="UTF-8" standalone="no"?>
<!DOCTYPE svg PUBLIC "-//W3C//DTD SVG 1.1//EN"
 "http://www.w3.org/Graphics/SVG/1.1/DTD/svg11.dtd">
<!-- Generated by graphviz version 2.43.0 (0)
 -->
<!-- Title: ezp::ppbsv&lt; DT, IT, UL &gt; Pages: 1 -->
<svg width="155pt" height="264pt"
 viewBox="0.00 0.00 155.00 264.00" xmlns="http://www.w3.org/2000/svg" xmlns:xlink="http://www.w3.org/1999/xlink">
<g id="graph0" class="graph" transform="scale(1 1) rotate(0) translate(4 260)">
<title>ezp::ppbsv&lt; DT, IT, UL &gt;</title>
<polygon fill="white" stroke="transparent" points="-4,4 -4,-260 151,-260 151,4 -4,4"/>
<!-- Node1 -->
<g id="node1" class="node">
<title>Node1</title>
<g id="a_node1"><a xlink:title=" ">
<polygon fill="#bfbfbf" stroke="black" points="17.5,-0.5 17.5,-30.5 129.5,-30.5 129.5,-0.5 17.5,-0.5"/>
<text text-anchor="start" x="25.5" y="-18.5" font-family="Helvetica,sans-Serif" font-size="10.00">ezp::ppbsv&lt; DT, IT,</text>
<text text-anchor="middle" x="73.5" y="-7.5" font-family="Helvetica,sans-Serif" font-size="10.00"> UL &gt;</text>
</a>
</g>
</g>
<!-- Node2 -->
<g id="node2" class="node">
<title>Node2</title>
<g id="a_node2"><a xlink:href="../../d0/db0/classezp_1_1detail_1_1band__solver.html" target="_top" xlink:title=" ">
<polygon fill="white" stroke="black" points="0,-68.5 0,-109.5 147,-109.5 147,-68.5 0,-68.5"/>
<text text-anchor="start" x="8" y="-97.5" font-family="Helvetica,sans-Serif" font-size="10.00">ezp::detail::band_solver</text>
<text text-anchor="start" x="8" y="-86.5" font-family="Helvetica,sans-Serif" font-size="10.00">&lt; DT, IT, band_symm_mat</text>
<text text-anchor="middle" x="73.5" y="-75.5" font-family="Helvetica,sans-Serif" font-size="10.00">&lt; DT, IT &gt; &gt;</text>
</a>
</g>
</g>
<!-- Node2&#45;&gt;Node1 -->
<g id="edge1" class="edge">
<title>Node2&#45;&gt;Node1</title>
<path fill="none" stroke="midnightblue" d="M73.5,-58.16C73.5,-48.69 73.5,-38.65 73.5,-30.8"/>
<polygon fill="midnightblue" stroke="midnightblue" points="70,-58.46 73.5,-68.46 77,-58.46 70,-58.46"/>
</g>
<!-- Node3 -->
<g id="node3" class="node">
<title>Node3</title>
<g id="a_node3"><a xlink:href="../../d0/df0/classezp_1_1detail_1_1abstract__solver.html" target="_top" xlink:title=" ">
<polygon fill="white" stroke="black" points="11,-147.5 11,-177.5 136,-177.5 136,-147.5 11,-147.5"/>
<text text-anchor="start" x="19" y="-165.5" font-family="Helvetica,sans-Serif" font-size="10.00">ezp::detail::abstract</text>
<text text-anchor="middle" x="73.5" y="-154.5" font-family="Helvetica,sans-Serif" font-size="10.00">_solver&lt; DT, IT, WT &gt;</text>
</a>
</g>
</g>
<!-- Node3&#45;&gt;Node2 -->
<g id="edge2" class="edge">
<title>Node3&#45;&gt;Node2</title>
<path fill="none" stroke="midnightblue" d="M73.5,-137.1C73.5,-128.1 73.5,-118.02 73.5,-109.51"/>
<polygon fill="midnightblue" stroke="midnightblue" points="70,-137.37 73.5,-147.37 77,-137.37 70,-137.37"/>
</g>
<!-- Node4 -->
<g id="node4" class="node">
<title>Node4</title>
<g id="a_node4"><a xlink:title=" ">
<polygon fill="white" stroke="#bfbfbf" points="59,-236.5 59,-255.5 88,-255.5 88,-236.5 59,-236.5"/>
<text text-anchor="middle" x="73.5" y="-243.5" font-family="Helvetica,sans-Serif" font-size="10.00">IT</text>
</a>
</g>
</g>
<!-- Node4&#45;&gt;Node3 -->
<g id="edge3" class="edge">
<title>Node4&#45;&gt;Node3</title>
<path fill="none" stroke="#9a32cd" stroke-dasharray="5,2" d="M73.5,-226.23C73.5,-211.41 73.5,-191.05 73.5,-177.6"/>
<polygon fill="#9a32cd" stroke="#9a32cd" points="70,-226.28 73.5,-236.28 77,-226.28 70,-226.28"/>
<text text-anchor="middle" x="87.5" y="-210" font-family="Helvetica,sans-Serif" font-size="10.00"> ONE</text>
<text text-anchor="middle" x="87.5" y="-199" font-family="Helvetica,sans-Serif" font-size="10.00">ZERO</text>
</g>
</g>
</svg>
