<?xml version="1.0" encoding="UTF-8" standalone="no"?>
<!DOCTYPE svg PUBLIC "-//W3C//DTD SVG 1.1//EN"
 "http://www.w3.org/Graphics/SVG/1.1/DTD/svg11.dtd">
<!-- Generated by graphviz version 2.43.0 (0)
 -->
<!-- Title: examples/example.lis.cpp Pages: 1 -->
<!--zoomable 308 -->
<svg id="main" version="1.1" xmlns="http://www.w3.org/2000/svg" xmlns:xlink="http://www.w3.org/1999/xlink" xml:space="preserve" onload="init(evt)">
<style type="text/css"><![CDATA[
.edge:hover path { stroke: red; }
.edge:hover polygon { stroke: red; fill: red; }
]]></style>
<script type="text/javascript"><![CDATA[
var edges = document.getElementsByTagName('g');
if (edges && edges.length) {
  for (var i=0;i<edges.length;i++) {
    if (edges[i].id.substr(0,4)=='edge') {
      edges[i].setAttribute('class','edge');
    }
  }
}
]]></script>
        <defs>
                <circle id="rim" cx="0" cy="0" r="7"/>
                <circle id="rim2" cx="0" cy="0" r="3.5"/>
                <g id="zoomPlus">
                        <use xlink:href="#rim" fill="#404040">
                                <set attributeName="fill" to="#808080" begin="zoomplus.mouseover" end="zoomplus.mouseout"/>
                        </use>
                        <path d="M-4,0h8M0,-4v8" fill="none" stroke="white" stroke-width="1.5" pointer-events="none"/>
                </g>
                <g id="zoomMin">
                        <use xlink:href="#rim" fill="#404040">
                                <set attributeName="fill" to="#808080" begin="zoomminus.mouseover" end="zoomminus.mouseout"/>
                        </use>
                        <path d="M-4,0h8" fill="none" stroke="white" stroke-width="1.5" pointer-events="none"/>
                </g>
                <g id="dirArrow">
                        <path fill="none" stroke="white" stroke-width="1.5" d="M0,-3.0v7 M-2.5,-0.5L0,-3.0L2.5,-0.5"/>
                </g>
               <g id="resetDef">
                       <use xlink:href="#rim2" fill="#404040">
                               <set attributeName="fill" to="#808080" begin="reset.mouseover" end="reset.mouseout"/>
                       </use>
               </g>
        </defs>

<script type="text/javascript">
var viewWidth = 566;
var viewHeight = 308;
var sectionId = 'dynsection-0';
</script>
<script xlink:href="../../svgpan.js"/>
<svg id="graph" class="graph">
<g id="viewport">
<title>examples/example.lis.cpp</title>
<polygon fill="white" stroke="transparent" points="-4,4 -4,-304 561.5,-304 561.5,4 -4,4"/>
<!-- Node1 -->
<g id="node1" class="node">
<title>Node1</title>
<g id="a_node1"><a xlink:title="Example caller to the lis solver.">
<polygon fill="#bfbfbf" stroke="black" points="379,-280.5 379,-299.5 524,-299.5 524,-280.5 379,-280.5"/>
<text text-anchor="middle" x="451.5" y="-287.5" font-family="Helvetica,sans-Serif" font-size="10.00">examples/example.lis.cpp</text>
</a>
</g>
</g>
<!-- Node2 -->
<g id="node2" class="node">
<title>Node2</title>
<g id="a_node2"><a xlink:href="../../dd/dd1/lis_8hpp.html" target="_top" xlink:title=" ">
<polygon fill="white" stroke="black" points="336,-224.5 336,-243.5 405,-243.5 405,-224.5 336,-224.5"/>
<text text-anchor="middle" x="370.5" y="-231.5" font-family="Helvetica,sans-Serif" font-size="10.00">ezp/lis.hpp</text>
</a>
</g>
</g>
<!-- Node1&#45;&gt;Node2 -->
<g id="edge1" class="edge">
<title>Node1&#45;&gt;Node2</title>
<path fill="none" stroke="midnightblue" d="M438.49,-280.32C425.97,-271.98 406.82,-259.21 392.03,-249.35"/>
<polygon fill="midnightblue" stroke="midnightblue" points="393.74,-246.29 383.48,-243.65 389.86,-252.11 393.74,-246.29"/>
</g>
<!-- Node16 -->
<g id="node16" class="node">
<title>Node16</title>
<g id="a_node16"><a xlink:title=" ">
<polygon fill="white" stroke="#bfbfbf" points="423.5,-224.5 423.5,-243.5 479.5,-243.5 479.5,-224.5 423.5,-224.5"/>
<text text-anchor="middle" x="451.5" y="-231.5" font-family="Helvetica,sans-Serif" font-size="10.00">iomanip</text>
</a>
</g>
</g>
<!-- Node1&#45;&gt;Node16 -->
<g id="edge15" class="edge">
<title>Node1&#45;&gt;Node16</title>
<path fill="none" stroke="midnightblue" d="M451.5,-280.08C451.5,-273.01 451.5,-262.86 451.5,-253.99"/>
<polygon fill="midnightblue" stroke="midnightblue" points="455,-253.75 451.5,-243.75 448,-253.75 455,-253.75"/>
</g>
<!-- Node17 -->
<g id="node17" class="node">
<title>Node17</title>
<g id="a_node17"><a xlink:title=" ">
<polygon fill="white" stroke="#bfbfbf" points="497.5,-224.5 497.5,-243.5 557.5,-243.5 557.5,-224.5 497.5,-224.5"/>
<text text-anchor="middle" x="527.5" y="-231.5" font-family="Helvetica,sans-Serif" font-size="10.00">iostream</text>
</a>
</g>
</g>
<!-- Node1&#45;&gt;Node17 -->
<g id="edge16" class="edge">
<title>Node1&#45;&gt;Node17</title>
<path fill="none" stroke="midnightblue" d="M463.71,-280.32C475.28,-272.11 492.88,-259.6 506.66,-249.81"/>
<polygon fill="midnightblue" stroke="midnightblue" points="508.94,-252.48 515.07,-243.83 504.89,-246.77 508.94,-252.48"/>
</g>
<!-- Node3 -->
<g id="node3" class="node">
<title>Node3</title>
<g id="a_node3"><a xlink:href="../../db/d17/sparse__solver_8hpp_source.html" target="_top" xlink:title=" ">
<polygon fill="white" stroke="black" points="232,-168.5 232,-187.5 379,-187.5 379,-168.5 232,-168.5"/>
<text text-anchor="middle" x="305.5" y="-175.5" font-family="Helvetica,sans-Serif" font-size="10.00">abstract/sparse_solver.hpp</text>
</a>
</g>
</g>
<!-- Node2&#45;&gt;Node3 -->
<g id="edge2" class="edge">
<title>Node2&#45;&gt;Node3</title>
<path fill="none" stroke="midnightblue" d="M360.06,-224.32C350.35,-216.26 335.68,-204.08 324,-194.37"/>
<polygon fill="midnightblue" stroke="midnightblue" points="326.06,-191.53 316.13,-187.83 321.59,-196.92 326.06,-191.53"/>
</g>
<!-- Node15 -->
<g id="node15" class="node">
<title>Node15</title>
<g id="a_node15"><a xlink:title=" ">
<polygon fill="white" stroke="#bfbfbf" points="397.5,-168.5 397.5,-187.5 475.5,-187.5 475.5,-168.5 397.5,-168.5"/>
<text text-anchor="middle" x="436.5" y="-175.5" font-family="Helvetica,sans-Serif" font-size="10.00">mpl/mpl.hpp</text>
</a>
</g>
</g>
<!-- Node2&#45;&gt;Node15 -->
<g id="edge14" class="edge">
<title>Node2&#45;&gt;Node15</title>
<path fill="none" stroke="midnightblue" d="M381.1,-224.32C390.96,-216.26 405.85,-204.08 417.72,-194.37"/>
<polygon fill="midnightblue" stroke="midnightblue" points="420.18,-196.88 425.7,-187.83 415.75,-191.46 420.18,-196.88"/>
</g>
<!-- Node4 -->
<g id="node4" class="node">
<title>Node4</title>
<g id="a_node4"><a xlink:href="../../df/d73/traits_8hpp_source.html" target="_top" xlink:title=" ">
<polygon fill="white" stroke="black" points="192,-112.5 192,-131.5 255,-131.5 255,-112.5 192,-112.5"/>
<text text-anchor="middle" x="223.5" y="-119.5" font-family="Helvetica,sans-Serif" font-size="10.00">traits.hpp</text>
</a>
</g>
</g>
<!-- Node3&#45;&gt;Node4 -->
<g id="edge3" class="edge">
<title>Node3&#45;&gt;Node4</title>
<path fill="none" stroke="midnightblue" d="M292.33,-168.32C279.65,-159.98 260.27,-147.21 245.29,-137.35"/>
<polygon fill="midnightblue" stroke="midnightblue" points="246.92,-134.23 236.64,-131.65 243.07,-140.08 246.92,-134.23"/>
</g>
<!-- Node13 -->
<g id="node13" class="node">
<title>Node13</title>
<g id="a_node13"><a xlink:title=" ">
<polygon fill="white" stroke="#bfbfbf" points="273.5,-112.5 273.5,-131.5 337.5,-131.5 337.5,-112.5 273.5,-112.5"/>
<text text-anchor="middle" x="305.5" y="-119.5" font-family="Helvetica,sans-Serif" font-size="10.00">algorithm</text>
</a>
</g>
</g>
<!-- Node3&#45;&gt;Node13 -->
<g id="edge12" class="edge">
<title>Node3&#45;&gt;Node13</title>
<path fill="none" stroke="midnightblue" d="M305.5,-168.08C305.5,-161.01 305.5,-150.86 305.5,-141.99"/>
<polygon fill="midnightblue" stroke="midnightblue" points="309,-141.75 305.5,-131.75 302,-141.75 309,-141.75"/>
</g>
<!-- Node14 -->
<g id="node14" class="node">
<title>Node14</title>
<g id="a_node14"><a xlink:title=" ">
<polygon fill="white" stroke="#bfbfbf" points="355.5,-112.5 355.5,-131.5 411.5,-131.5 411.5,-112.5 355.5,-112.5"/>
<text text-anchor="middle" x="383.5" y="-119.5" font-family="Helvetica,sans-Serif" font-size="10.00">numeric</text>
</a>
</g>
</g>
<!-- Node3&#45;&gt;Node14 -->
<g id="edge13" class="edge">
<title>Node3&#45;&gt;Node14</title>
<path fill="none" stroke="midnightblue" d="M318.03,-168.32C330.09,-159.98 348.53,-147.21 362.77,-137.35"/>
<polygon fill="midnightblue" stroke="midnightblue" points="364.77,-140.22 371,-131.65 360.78,-134.47 364.77,-140.22"/>
</g>
<!-- Node5 -->
<g id="node5" class="node">
<title>Node5</title>
<g id="a_node5"><a xlink:href="../../d1/d4c/ezp_8h_source.html" target="_top" xlink:title=" ">
<polygon fill="white" stroke="black" points="44,-56.5 44,-75.5 87,-75.5 87,-56.5 44,-56.5"/>
<text text-anchor="middle" x="65.5" y="-63.5" font-family="Helvetica,sans-Serif" font-size="10.00">ezp.h</text>
</a>
</g>
</g>
<!-- Node4&#45;&gt;Node5 -->
<g id="edge4" class="edge">
<title>Node4&#45;&gt;Node5</title>
<path fill="none" stroke="midnightblue" d="M198.46,-112.44C170.95,-103.04 126.69,-87.91 96.88,-77.72"/>
<polygon fill="midnightblue" stroke="midnightblue" points="97.96,-74.4 87.37,-74.47 95.7,-81.02 97.96,-74.4"/>
</g>
<!-- Node8 -->
<g id="node8" class="node">
<title>Node8</title>
<g id="a_node8"><a xlink:title=" ">
<polygon fill="white" stroke="#bfbfbf" points="105.5,-56.5 105.5,-75.5 147.5,-75.5 147.5,-56.5 105.5,-56.5"/>
<text text-anchor="middle" x="126.5" y="-63.5" font-family="Helvetica,sans-Serif" font-size="10.00">array</text>
</a>
</g>
</g>
<!-- Node4&#45;&gt;Node8 -->
<g id="edge7" class="edge">
<title>Node4&#45;&gt;Node8</title>
<path fill="none" stroke="midnightblue" d="M207.92,-112.32C192.5,-103.74 168.69,-90.49 150.79,-80.52"/>
<polygon fill="midnightblue" stroke="midnightblue" points="152.49,-77.46 142.05,-75.65 149.08,-83.58 152.49,-77.46"/>
</g>
<!-- Node9 -->
<g id="node9" class="node">
<title>Node9</title>
<g id="a_node9"><a xlink:title=" ">
<polygon fill="white" stroke="#bfbfbf" points="165.5,-56.5 165.5,-75.5 215.5,-75.5 215.5,-56.5 165.5,-56.5"/>
<text text-anchor="middle" x="190.5" y="-63.5" font-family="Helvetica,sans-Serif" font-size="10.00">atomic</text>
</a>
</g>
</g>
<!-- Node4&#45;&gt;Node9 -->
<g id="edge8" class="edge">
<title>Node4&#45;&gt;Node9</title>
<path fill="none" stroke="midnightblue" d="M218.05,-112.08C213.49,-104.61 206.83,-93.72 201.21,-84.52"/>
<polygon fill="midnightblue" stroke="midnightblue" points="204.05,-82.46 195.85,-75.75 198.08,-86.11 204.05,-82.46"/>
</g>
<!-- Node10 -->
<g id="node10" class="node">
<title>Node10</title>
<g id="a_node10"><a xlink:title=" ">
<polygon fill="white" stroke="#bfbfbf" points="234,-56.5 234,-75.5 281,-75.5 281,-56.5 234,-56.5"/>
<text text-anchor="middle" x="257.5" y="-63.5" font-family="Helvetica,sans-Serif" font-size="10.00">cmath</text>
</a>
</g>
</g>
<!-- Node4&#45;&gt;Node10 -->
<g id="edge9" class="edge">
<title>Node4&#45;&gt;Node10</title>
<path fill="none" stroke="midnightblue" d="M229.11,-112.08C233.87,-104.53 240.82,-93.49 246.65,-84.23"/>
<polygon fill="midnightblue" stroke="midnightblue" points="249.62,-86.08 251.99,-75.75 243.7,-82.35 249.62,-86.08"/>
</g>
<!-- Node11 -->
<g id="node11" class="node">
<title>Node11</title>
<g id="a_node11"><a xlink:title=" ">
<polygon fill="white" stroke="#bfbfbf" points="299.5,-56.5 299.5,-75.5 349.5,-75.5 349.5,-56.5 299.5,-56.5"/>
<text text-anchor="middle" x="324.5" y="-63.5" font-family="Helvetica,sans-Serif" font-size="10.00">ranges</text>
</a>
</g>
</g>
<!-- Node4&#45;&gt;Node11 -->
<g id="edge10" class="edge">
<title>Node4&#45;&gt;Node11</title>
<path fill="none" stroke="midnightblue" d="M239.73,-112.32C255.85,-103.7 280.8,-90.36 299.46,-80.39"/>
<polygon fill="midnightblue" stroke="midnightblue" points="301.14,-83.46 308.31,-75.65 297.84,-77.28 301.14,-83.46"/>
</g>
<!-- Node12 -->
<g id="node12" class="node">
<title>Node12</title>
<g id="a_node12"><a xlink:title=" ">
<polygon fill="white" stroke="#bfbfbf" points="368,-56.5 368,-75.5 415,-75.5 415,-56.5 368,-56.5"/>
<text text-anchor="middle" x="391.5" y="-63.5" font-family="Helvetica,sans-Serif" font-size="10.00">vector</text>
</a>
</g>
</g>
<!-- Node4&#45;&gt;Node12 -->
<g id="edge11" class="edge">
<title>Node4&#45;&gt;Node12</title>
<path fill="none" stroke="midnightblue" d="M250.12,-112.44C279.42,-103.02 326.57,-87.87 358.28,-77.68"/>
<polygon fill="midnightblue" stroke="midnightblue" points="359.54,-80.95 367.99,-74.56 357.39,-74.29 359.54,-80.95"/>
</g>
<!-- Node6 -->
<g id="node6" class="node">
<title>Node6</title>
<g id="a_node6"><a xlink:title=" ">
<polygon fill="white" stroke="#bfbfbf" points="0,-0.5 0,-19.5 59,-19.5 59,-0.5 0,-0.5"/>
<text text-anchor="middle" x="29.5" y="-7.5" font-family="Helvetica,sans-Serif" font-size="10.00">complex</text>
</a>
</g>
</g>
<!-- Node5&#45;&gt;Node6 -->
<g id="edge5" class="edge">
<title>Node5&#45;&gt;Node6</title>
<path fill="none" stroke="midnightblue" d="M59.56,-56.08C54.52,-48.53 47.16,-37.49 40.99,-28.23"/>
<polygon fill="midnightblue" stroke="midnightblue" points="43.79,-26.13 35.33,-19.75 37.97,-30.01 43.79,-26.13"/>
</g>
<!-- Node7 -->
<g id="node7" class="node">
<title>Node7</title>
<g id="a_node7"><a xlink:title=" ">
<polygon fill="white" stroke="#bfbfbf" points="77.5,-0.5 77.5,-19.5 127.5,-19.5 127.5,-0.5 77.5,-0.5"/>
<text text-anchor="middle" x="102.5" y="-7.5" font-family="Helvetica,sans-Serif" font-size="10.00">cstdint</text>
</a>
</g>
</g>
<!-- Node5&#45;&gt;Node7 -->
<g id="edge6" class="edge">
<title>Node5&#45;&gt;Node7</title>
<path fill="none" stroke="midnightblue" d="M71.61,-56.08C76.78,-48.53 84.35,-37.49 90.69,-28.23"/>
<polygon fill="midnightblue" stroke="midnightblue" points="93.74,-29.98 96.5,-19.75 87.96,-26.02 93.74,-29.98"/>
</g>
</g>
</svg>
        <g id="navigator" transform="translate(0 0)" fill="#404254">
                <rect fill="#f2f5e9" fill-opacity="0.5" stroke="#606060" stroke-width=".5" x="0" y="0" width="60" height="60"/>
                <use id="zoomplus" xlink:href="#zoomPlus" x="17" y="9" onmousedown="handleZoom(evt,'in')"/>
                <use id="zoomminus" xlink:href="#zoomMin" x="42" y="9" onmousedown="handleZoom(evt,'out')"/>
                <use id="reset" xlink:href="#resetDef" x="30" y="36" onmousedown="handleReset()"/>
                <g id="arrowUp" xlink:href="#dirArrow" transform="translate(30 24)" onmousedown="handlePan(0,-1)">
                  <use xlink:href="#rim" fill="#404040">
                        <set attributeName="fill" to="#808080" begin="arrowUp.mouseover" end="arrowUp.mouseout"/>
                  </use>
                  <path fill="none" stroke="white" stroke-width="1.5" d="M0,-3.0v7 M-2.5,-0.5L0,-3.0L2.5,-0.5"/>
                </g>
                <g id="arrowRight" xlink:href="#dirArrow" transform="rotate(90) translate(36 -43)" onmousedown="handlePan(1,0)">
                  <use xlink:href="#rim" fill="#404040">
                        <set attributeName="fill" to="#808080" begin="arrowRight.mouseover" end="arrowRight.mouseout"/>
                  </use>
                  <path fill="none" stroke="white" stroke-width="1.5" d="M0,-3.0v7 M-2.5,-0.5L0,-3.0L2.5,-0.5"/>
                </g>
                <g id="arrowDown" xlink:href="#dirArrow" transform="rotate(180) translate(-30 -48)" onmousedown="handlePan(0,1)">
                  <use xlink:href="#rim" fill="#404040">
                        <set attributeName="fill" to="#808080" begin="arrowDown.mouseover" end="arrowDown.mouseout"/>
                  </use>
                  <path fill="none" stroke="white" stroke-width="1.5" d="M0,-3.0v7 M-2.5,-0.5L0,-3.0L2.5,-0.5"/>
                </g>
                <g id="arrowLeft" xlink:href="#dirArrow" transform="rotate(270) translate(-36 17)" onmousedown="handlePan(-1,0)">
                  <use xlink:href="#rim" fill="#404040">
                        <set attributeName="fill" to="#808080" begin="arrowLeft.mouseover" end="arrowLeft.mouseout"/>
                  </use>
                  <path fill="none" stroke="white" stroke-width="1.5" d="M0,-3.0v7 M-2.5,-0.5L0,-3.0L2.5,-0.5"/>
                </g>
        </g>
        <svg viewBox="0 0 15 15" width="100%" height="30px" preserveAspectRatio="xMaxYMin meet">
         <g id="arrow_out" transform="scale(0.3 0.3)">
          <a xlink:href="example_8lis_8cpp__incl_org.svg" target="_base">
           <rect id="button" ry="5" rx="5" y="6" x="6" height="38" width="38"
                fill="#f2f5e9" fill-opacity="0.5" stroke="#606060" stroke-width="1.0"/>
           <path id="arrow"
             d="M 11.500037,31.436501 C 11.940474,20.09759 22.043105,11.32322 32.158766,21.979434 L 37.068811,17.246167 C 37.068811,17.246167 37.088388,32 37.088388,32 L 22.160133,31.978069 C 22.160133,31.978069 26.997745,27.140456 26.997745,27.140456 C 18.528582,18.264221 13.291696,25.230495 11.500037,31.436501 z"
             style="fill:#404040;"/>
          </a>
         </g>
        </svg>
</svg>
