<?xml version="1.0" encoding="UTF-8" standalone="no"?>
<!DOCTYPE svg PUBLIC "-//W3C//DTD SVG 1.1//EN"
 "http://www.w3.org/Graphics/SVG/1.1/DTD/svg11.dtd">
<!-- Generated by graphviz version 2.43.0 (0)
 -->
<!-- Title: ezp/pgbsv.hpp Pages: 1 -->
<svg width="344pt" height="84pt"
 viewBox="0.00 0.00 343.50 84.00" xmlns="http://www.w3.org/2000/svg" xmlns:xlink="http://www.w3.org/1999/xlink">
<g id="graph0" class="graph" transform="scale(1 1) rotate(0) translate(4 80)">
<title>ezp/pgbsv.hpp</title>
<polygon fill="white" stroke="transparent" points="-4,4 -4,-80 339.5,-80 339.5,4 -4,4"/>
<!-- Node1 -->
<g id="node1" class="node">
<title>Node1</title>
<g id="a_node1"><a xlink:title=" ">
<polygon fill="#bfbfbf" stroke="black" points="126,-56.5 126,-75.5 212,-75.5 212,-56.5 126,-56.5"/>
<text text-anchor="middle" x="169" y="-63.5" font-family="Helvetica,sans-Serif" font-size="10.00">ezp/pgbsv.hpp</text>
</a>
</g>
</g>
<!-- Node2 -->
<g id="node2" class="node">
<title>Node2</title>
<g id="a_node2"><a xlink:href="../../d5/d86/example_8pgbsv_8cpp.html" target="_top" xlink:title="Example caller to the pgbsv solver.">
<polygon fill="white" stroke="black" points="0,-0.5 0,-19.5 162,-19.5 162,-0.5 0,-0.5"/>
<text text-anchor="middle" x="81" y="-7.5" font-family="Helvetica,sans-Serif" font-size="10.00">examples/example.pgbsv.cpp</text>
</a>
</g>
</g>
<!-- Node1&#45;&gt;Node2 -->
<g id="edge1" class="edge">
<title>Node1&#45;&gt;Node2</title>
<path fill="none" stroke="midnightblue" d="M146.02,-50.9C129.89,-41 108.82,-28.07 95.1,-19.65"/>
<polygon fill="midnightblue" stroke="midnightblue" points="144.51,-54.08 154.86,-56.32 148.17,-48.11 144.51,-54.08"/>
</g>
<!-- Node3 -->
<g id="node3" class="node">
<title>Node3</title>
<g id="a_node3"><a xlink:href="../../dd/d60/solver_8pgbsv_8cpp.html" target="_top" xlink:title="Standalone pgbsv solver.">
<polygon fill="white" stroke="black" points="180.5,-0.5 180.5,-19.5 335.5,-19.5 335.5,-0.5 180.5,-0.5"/>
<text text-anchor="middle" x="258" y="-7.5" font-family="Helvetica,sans-Serif" font-size="10.00">standalone/solver.pgbsv.cpp</text>
</a>
</g>
</g>
<!-- Node1&#45;&gt;Node3 -->
<g id="edge2" class="edge">
<title>Node1&#45;&gt;Node3</title>
<path fill="none" stroke="midnightblue" d="M192.24,-50.9C208.56,-41 229.87,-28.07 243.74,-19.65"/>
<polygon fill="midnightblue" stroke="midnightblue" points="190.03,-48.14 183.3,-56.32 193.66,-54.13 190.03,-48.14"/>
</g>
</g>
</svg>
