<?xml version="1.0" encoding="UTF-8" standalone="no"?>
<!DOCTYPE svg PUBLIC "-//W3C//DTD SVG 1.1//EN"
 "http://www.w3.org/Graphics/SVG/1.1/DTD/svg11.dtd">
<!-- Generated by graphviz version 2.43.0 (0)
 -->
<!-- Title: ezp/mumps.parser.hpp Pages: 1 -->
<svg width="1190pt" height="302pt"
 viewBox="0.00 0.00 1190.00 302.00" xmlns="http://www.w3.org/2000/svg" xmlns:xlink="http://www.w3.org/1999/xlink">
<g id="graph0" class="graph" transform="scale(1 1) rotate(0) translate(4 298)">
<title>ezp/mumps.parser.hpp</title>
<!-- Node1 -->
<g id="Node000001" class="node">
<title>Node1</title>
<g id="a_Node000001"><a xlink:title=" ">
<polygon fill="#999999" stroke="#666666" points="902,-294 774,-294 774,-275 902,-275 902,-294"/>
<text text-anchor="middle" x="838" y="-282" font-family="Helvetica,sans-Serif" font-size="10.00">ezp/mumps.parser.hpp</text>
</a>
</g>
</g>
<!-- Node2 -->
<g id="Node000002" class="node">
<title>Node2</title>
<g id="a_Node000002"><a xlink:href="../../d9/d07/mumps_8hpp.html" target="_top" xlink:title=" ">
<polygon fill="white" stroke="#666666" points="688,-239 614,-239 614,-220 688,-220 688,-239"/>
<text text-anchor="middle" x="651" y="-227" font-family="Helvetica,sans-Serif" font-size="10.00">mumps.hpp</text>
</a>
</g>
</g>
<!-- Node1&#45;&gt;Node2 -->
<g id="edge1_Node000001_Node000002" class="edge">
<title>Node1&#45;&gt;Node2</title>
<g id="a_edge1_Node000001_Node000002"><a xlink:title=" ">
<path fill="none" stroke="#63b8ff" d="M807.96,-274.98C776.29,-266.01 726.23,-251.82 691.19,-241.89"/>
<polygon fill="#63b8ff" stroke="#63b8ff" points="691.86,-238.44 681.28,-239.08 689.95,-245.18 691.86,-238.44"/>
</a>
</g>
</g>
<!-- Node20 -->
<g id="Node000020" class="node">
<title>Node20</title>
<g id="a_Node000020"><a xlink:href="../../d1/d46/parser_8hpp_source.html" target="_top" xlink:title=" ">
<polygon fill="white" stroke="#666666" points="1087,-239 1019,-239 1019,-220 1087,-220 1087,-239"/>
<text text-anchor="middle" x="1053" y="-227" font-family="Helvetica,sans-Serif" font-size="10.00">parser.hpp</text>
</a>
</g>
</g>
<!-- Node1&#45;&gt;Node20 -->
<g id="edge19_Node000001_Node000020" class="edge">
<title>Node1&#45;&gt;Node20</title>
<g id="a_edge19_Node000001_Node000020"><a xlink:title=" ">
<path fill="none" stroke="#63b8ff" d="M872.54,-274.98C909.64,-265.84 968.68,-251.29 1009.06,-241.33"/>
<polygon fill="#63b8ff" stroke="#63b8ff" points="1010.03,-244.7 1018.9,-238.91 1008.35,-237.9 1010.03,-244.7"/>
</a>
</g>
</g>
<!-- Node3 -->
<g id="Node000003" class="node">
<title>Node3</title>
<g id="a_Node000003"><a xlink:title=" ">
<polygon fill="#e0e0e0" stroke="#999999" points="170,-184 0,-184 0,-165 170,-165 170,-184"/>
<text text-anchor="middle" x="85" y="-172" font-family="Helvetica,sans-Serif" font-size="10.00">../external/mumps/cmumps_c.h</text>
</a>
</g>
</g>
<!-- Node2&#45;&gt;Node3 -->
<g id="edge2_Node000002_Node000003" class="edge">
<title>Node2&#45;&gt;Node3</title>
<g id="a_edge2_Node000002_Node000003"><a xlink:title=" ">
<path fill="none" stroke="#63b8ff" d="M613.86,-225.02C526.82,-216.87 307.42,-196.33 180.23,-184.42"/>
<polygon fill="#63b8ff" stroke="#63b8ff" points="180.38,-180.92 170.1,-183.47 179.73,-187.89 180.38,-180.92"/>
</a>
</g>
</g>
<!-- Node4 -->
<g id="Node000004" class="node">
<title>Node4</title>
<g id="a_Node000004"><a xlink:title=" ">
<polygon fill="#e0e0e0" stroke="#999999" points="359.5,-184 188.5,-184 188.5,-165 359.5,-165 359.5,-184"/>
<text text-anchor="middle" x="274" y="-172" font-family="Helvetica,sans-Serif" font-size="10.00">../external/mumps/dmumps_c.h</text>
</a>
</g>
</g>
<!-- Node2&#45;&gt;Node4 -->
<g id="edge3_Node000002_Node000004" class="edge">
<title>Node2&#45;&gt;Node4</title>
<g id="a_edge3_Node000002_Node000004"><a xlink:title=" ">
<path fill="none" stroke="#63b8ff" d="M613.82,-223.27C551.38,-214.5 424.47,-196.65 344.64,-185.43"/>
<polygon fill="#63b8ff" stroke="#63b8ff" points="345.06,-181.96 334.67,-184.03 344.08,-188.89 345.06,-181.96"/>
</a>
</g>
</g>
<!-- Node5 -->
<g id="Node000005" class="node">
<title>Node5</title>
<g id="a_Node000005"><a xlink:title=" ">
<polygon fill="#e0e0e0" stroke="#999999" points="548,-184 378,-184 378,-165 548,-165 548,-184"/>
<text text-anchor="middle" x="463" y="-172" font-family="Helvetica,sans-Serif" font-size="10.00">../external/mumps/smumps_c.h</text>
</a>
</g>
</g>
<!-- Node2&#45;&gt;Node5 -->
<g id="edge4_Node000002_Node000005" class="edge">
<title>Node2&#45;&gt;Node5</title>
<g id="a_edge4_Node000002_Node000005"><a xlink:title=" ">
<path fill="none" stroke="#63b8ff" d="M620.79,-219.98C588.96,-211.01 538.64,-196.82 503.4,-186.89"/>
<polygon fill="#63b8ff" stroke="#63b8ff" points="504.02,-183.43 493.44,-184.08 502.12,-190.16 504.02,-183.43"/>
</a>
</g>
</g>
<!-- Node6 -->
<g id="Node000006" class="node">
<title>Node6</title>
<g id="a_Node000006"><a xlink:title=" ">
<polygon fill="#e0e0e0" stroke="#999999" points="736,-184 566,-184 566,-165 736,-165 736,-184"/>
<text text-anchor="middle" x="651" y="-172" font-family="Helvetica,sans-Serif" font-size="10.00">../external/mumps/zmumps_c.h</text>
</a>
</g>
</g>
<!-- Node2&#45;&gt;Node6 -->
<g id="edge5_Node000002_Node000006" class="edge">
<title>Node2&#45;&gt;Node6</title>
<g id="a_edge5_Node000002_Node000006"><a xlink:title=" ">
<path fill="none" stroke="#63b8ff" d="M651,-219.75C651,-212.8 651,-202.85 651,-194.13"/>
<polygon fill="#63b8ff" stroke="#63b8ff" points="654.5,-194.09 651,-184.09 647.5,-194.09 654.5,-194.09"/>
</a>
</g>
</g>
<!-- Node7 -->
<g id="Node000007" class="node">
<title>Node7</title>
<g id="a_Node000007"><a xlink:href="../../db/d17/sparse__solver_8hpp_source.html" target="_top" xlink:title=" ">
<polygon fill="white" stroke="#666666" points="901.5,-184 754.5,-184 754.5,-165 901.5,-165 901.5,-184"/>
<text text-anchor="middle" x="828" y="-172" font-family="Helvetica,sans-Serif" font-size="10.00">abstract/sparse_solver.hpp</text>
</a>
</g>
</g>
<!-- Node2&#45;&gt;Node7 -->
<g id="edge6_Node000002_Node000007" class="edge">
<title>Node2&#45;&gt;Node7</title>
<g id="a_edge6_Node000002_Node000007"><a xlink:title=" ">
<path fill="none" stroke="#63b8ff" d="M679.44,-219.98C709.28,-211.05 756.38,-196.94 789.53,-187.02"/>
<polygon fill="#63b8ff" stroke="#63b8ff" points="790.76,-190.3 799.34,-184.08 788.76,-183.6 790.76,-190.3"/>
</a>
</g>
</g>
<!-- Node19 -->
<g id="Node000019" class="node">
<title>Node19</title>
<g id="a_Node000019"><a xlink:title=" ">
<polygon fill="#e0e0e0" stroke="#999999" points="998,-184 920,-184 920,-165 998,-165 998,-184"/>
<text text-anchor="middle" x="959" y="-172" font-family="Helvetica,sans-Serif" font-size="10.00">mpl/mpl.hpp</text>
</a>
</g>
</g>
<!-- Node2&#45;&gt;Node19 -->
<g id="edge18_Node000002_Node000019" class="edge">
<title>Node2&#45;&gt;Node19</title>
<g id="a_edge18_Node000002_Node000019"><a xlink:title=" ">
<path fill="none" stroke="#63b8ff" d="M688.32,-222.11C738.65,-213.48 831.1,-197.62 910,-184 910.1,-183.98 910.2,-183.97 910.3,-183.95"/>
<polygon fill="#63b8ff" stroke="#63b8ff" points="910.69,-187.43 919.95,-182.28 909.5,-180.53 910.69,-187.43"/>
</a>
</g>
</g>
<!-- Node8 -->
<g id="Node000008" class="node">
<title>Node8</title>
<g id="a_Node000008"><a xlink:href="../../df/d73/traits_8hpp_source.html" target="_top" xlink:title=" ">
<polygon fill="white" stroke="#666666" points="809.5,-129 746.5,-129 746.5,-110 809.5,-110 809.5,-129"/>
<text text-anchor="middle" x="778" y="-117" font-family="Helvetica,sans-Serif" font-size="10.00">traits.hpp</text>
</a>
</g>
</g>
<!-- Node7&#45;&gt;Node8 -->
<g id="edge7_Node000007_Node000008" class="edge">
<title>Node7&#45;&gt;Node8</title>
<g id="a_edge7_Node000007_Node000008"><a xlink:title=" ">
<path fill="none" stroke="#63b8ff" d="M819.74,-164.75C812.54,-157.11 801.89,-145.82 793.15,-136.56"/>
<polygon fill="#63b8ff" stroke="#63b8ff" points="795.51,-133.96 786.1,-129.09 790.42,-138.76 795.51,-133.96"/>
</a>
</g>
</g>
<!-- Node17 -->
<g id="Node000017" class="node">
<title>Node17</title>
<g id="a_Node000017"><a xlink:title=" ">
<polygon fill="#e0e0e0" stroke="#999999" points="892,-129 828,-129 828,-110 892,-110 892,-129"/>
<text text-anchor="middle" x="860" y="-117" font-family="Helvetica,sans-Serif" font-size="10.00">algorithm</text>
</a>
</g>
</g>
<!-- Node7&#45;&gt;Node17 -->
<g id="edge16_Node000007_Node000017" class="edge">
<title>Node7&#45;&gt;Node17</title>
<g id="a_edge16_Node000007_Node000017"><a xlink:title=" ">
<path fill="none" stroke="#63b8ff" d="M833.28,-164.75C837.71,-157.42 844.16,-146.73 849.62,-137.7"/>
<polygon fill="#63b8ff" stroke="#63b8ff" points="852.64,-139.46 854.81,-129.09 846.65,-135.84 852.64,-139.46"/>
</a>
</g>
</g>
<!-- Node18 -->
<g id="Node000018" class="node">
<title>Node18</title>
<g id="a_Node000018"><a xlink:title=" ">
<polygon fill="#e0e0e0" stroke="#999999" points="966,-129 910,-129 910,-110 966,-110 966,-129"/>
<text text-anchor="middle" x="938" y="-117" font-family="Helvetica,sans-Serif" font-size="10.00">numeric</text>
</a>
</g>
</g>
<!-- Node7&#45;&gt;Node18 -->
<g id="edge17_Node000007_Node000018" class="edge">
<title>Node7&#45;&gt;Node18</title>
<g id="a_edge17_Node000007_Node000018"><a xlink:title=" ">
<path fill="none" stroke="#63b8ff" d="M845.67,-164.98C863.29,-156.5 890.58,-143.35 910.93,-133.54"/>
<polygon fill="#63b8ff" stroke="#63b8ff" points="912.52,-136.66 920.01,-129.17 909.48,-130.36 912.52,-136.66"/>
</a>
</g>
</g>
<!-- Node9 -->
<g id="Node000009" class="node">
<title>Node9</title>
<g id="a_Node000009"><a xlink:href="../../d1/d4c/ezp_8h_source.html" target="_top" xlink:title=" ">
<polygon fill="white" stroke="#666666" points="674.5,-74 631.5,-74 631.5,-55 674.5,-55 674.5,-74"/>
<text text-anchor="middle" x="653" y="-62" font-family="Helvetica,sans-Serif" font-size="10.00">ezp.h</text>
</a>
</g>
</g>
<!-- Node8&#45;&gt;Node9 -->
<g id="edge8_Node000008_Node000009" class="edge">
<title>Node8&#45;&gt;Node9</title>
<g id="a_edge8_Node000008_Node000009"><a xlink:title=" ">
<path fill="none" stroke="#63b8ff" d="M757.92,-109.98C737.63,-101.38 706.04,-87.99 682.83,-78.15"/>
<polygon fill="#63b8ff" stroke="#63b8ff" points="684.02,-74.85 673.45,-74.17 681.29,-81.3 684.02,-74.85"/>
</a>
</g>
</g>
<!-- Node12 -->
<g id="Node000012" class="node">
<title>Node12</title>
<g id="a_Node000012"><a xlink:title=" ">
<polygon fill="#e0e0e0" stroke="#999999" points="735,-74 693,-74 693,-55 735,-55 735,-74"/>
<text text-anchor="middle" x="714" y="-62" font-family="Helvetica,sans-Serif" font-size="10.00">array</text>
</a>
</g>
</g>
<!-- Node8&#45;&gt;Node12 -->
<g id="edge11_Node000008_Node000012" class="edge">
<title>Node8&#45;&gt;Node12</title>
<g id="a_edge11_Node000008_Node000012"><a xlink:title=" ">
<path fill="none" stroke="#63b8ff" d="M767.72,-109.98C758.16,-102.07 743.72,-90.11 732.22,-80.58"/>
<polygon fill="#63b8ff" stroke="#63b8ff" points="734.4,-77.85 724.47,-74.17 729.94,-83.24 734.4,-77.85"/>
</a>
</g>
</g>
<!-- Node13 -->
<g id="Node000013" class="node">
<title>Node13</title>
<g id="a_Node000013"><a xlink:title=" ">
<polygon fill="#e0e0e0" stroke="#999999" points="803,-74 753,-74 753,-55 803,-55 803,-74"/>
<text text-anchor="middle" x="778" y="-62" font-family="Helvetica,sans-Serif" font-size="10.00">atomic</text>
</a>
</g>
</g>
<!-- Node8&#45;&gt;Node13 -->
<g id="edge12_Node000008_Node000013" class="edge">
<title>Node8&#45;&gt;Node13</title>
<g id="a_edge12_Node000008_Node000013"><a xlink:title=" ">
<path fill="none" stroke="#63b8ff" d="M778,-109.75C778,-102.8 778,-92.85 778,-84.13"/>
<polygon fill="#63b8ff" stroke="#63b8ff" points="781.5,-84.09 778,-74.09 774.5,-84.09 781.5,-84.09"/>
</a>
</g>
</g>
<!-- Node14 -->
<g id="Node000014" class="node">
<title>Node14</title>
<g id="a_Node000014"><a xlink:title=" ">
<polygon fill="#e0e0e0" stroke="#999999" points="868.5,-74 821.5,-74 821.5,-55 868.5,-55 868.5,-74"/>
<text text-anchor="middle" x="845" y="-62" font-family="Helvetica,sans-Serif" font-size="10.00">cmath</text>
</a>
</g>
</g>
<!-- Node8&#45;&gt;Node14 -->
<g id="edge13_Node000008_Node000014" class="edge">
<title>Node8&#45;&gt;Node14</title>
<g id="a_edge13_Node000008_Node000014"><a xlink:title=" ">
<path fill="none" stroke="#63b8ff" d="M788.76,-109.98C798.77,-102.07 813.89,-90.11 825.93,-80.58"/>
<polygon fill="#63b8ff" stroke="#63b8ff" points="828.37,-83.12 834.04,-74.17 824.03,-77.63 828.37,-83.12"/>
</a>
</g>
</g>
<!-- Node15 -->
<g id="Node000015" class="node">
<title>Node15</title>
<g id="a_Node000015"><a xlink:title=" ">
<polygon fill="#e0e0e0" stroke="#999999" points="937,-74 887,-74 887,-55 937,-55 937,-74"/>
<text text-anchor="middle" x="912" y="-62" font-family="Helvetica,sans-Serif" font-size="10.00">ranges</text>
</a>
</g>
</g>
<!-- Node8&#45;&gt;Node15 -->
<g id="edge14_Node000008_Node000015" class="edge">
<title>Node8&#45;&gt;Node15</title>
<g id="a_edge14_Node000008_Node000015"><a xlink:title=" ">
<path fill="none" stroke="#63b8ff" d="M799.53,-109.98C821.47,-101.3 855.74,-87.75 880.69,-77.88"/>
<polygon fill="#63b8ff" stroke="#63b8ff" points="882.07,-81.1 890.08,-74.17 879.49,-74.59 882.07,-81.1"/>
</a>
</g>
</g>
<!-- Node16 -->
<g id="Node000016" class="node">
<title>Node16</title>
<g id="a_Node000016"><a xlink:title=" ">
<polygon fill="#e0e0e0" stroke="#999999" points="1026.5,-74 979.5,-74 979.5,-55 1026.5,-55 1026.5,-74"/>
<text text-anchor="middle" x="1003" y="-62" font-family="Helvetica,sans-Serif" font-size="10.00">vector</text>
</a>
</g>
</g>
<!-- Node8&#45;&gt;Node16 -->
<g id="edge15_Node000008_Node000016" class="edge">
<title>Node8&#45;&gt;Node16</title>
<g id="a_edge15_Node000008_Node000016"><a xlink:title=" ">
<path fill="none" stroke="#63b8ff" d="M809.76,-111.02C851.95,-101.08 926.16,-83.6 969.3,-73.44"/>
<polygon fill="#63b8ff" stroke="#63b8ff" points="970.37,-76.78 979.31,-71.08 968.77,-69.97 970.37,-76.78"/>
</a>
</g>
</g>
<!-- Node10 -->
<g id="Node000010" class="node">
<title>Node10</title>
<g id="a_Node000010"><a xlink:title=" ">
<polygon fill="#e0e0e0" stroke="#999999" points="646.5,-19 587.5,-19 587.5,0 646.5,0 646.5,-19"/>
<text text-anchor="middle" x="617" y="-7" font-family="Helvetica,sans-Serif" font-size="10.00">complex</text>
</a>
</g>
</g>
<!-- Node9&#45;&gt;Node10 -->
<g id="edge9_Node000009_Node000010" class="edge">
<title>Node9&#45;&gt;Node10</title>
<g id="a_edge9_Node000009_Node000010"><a xlink:title=" ">
<path fill="none" stroke="#63b8ff" d="M647.06,-54.75C642.02,-47.34 634.66,-36.5 628.49,-27.41"/>
<polygon fill="#63b8ff" stroke="#63b8ff" points="631.35,-25.39 622.83,-19.09 625.56,-29.33 631.35,-25.39"/>
</a>
</g>
</g>
<!-- Node11 -->
<g id="Node000011" class="node">
<title>Node11</title>
<g id="a_Node000011"><a xlink:title=" ">
<polygon fill="#e0e0e0" stroke="#999999" points="715,-19 665,-19 665,0 715,0 715,-19"/>
<text text-anchor="middle" x="690" y="-7" font-family="Helvetica,sans-Serif" font-size="10.00">cstdint</text>
</a>
</g>
</g>
<!-- Node9&#45;&gt;Node11 -->
<g id="edge10_Node000009_Node000011" class="edge">
<title>Node9&#45;&gt;Node11</title>
<g id="a_edge10_Node000009_Node000011"><a xlink:title=" ">
<path fill="none" stroke="#63b8ff" d="M659.11,-54.75C664.28,-47.34 671.85,-36.5 678.19,-27.41"/>
<polygon fill="#63b8ff" stroke="#63b8ff" points="681.15,-29.29 684,-19.09 675.41,-25.29 681.15,-29.29"/>
</a>
</g>
</g>
<!-- Node20&#45;&gt;Node16 -->
<g id="edge22_Node000020_Node000016" class="edge">
<title>Node20&#45;&gt;Node16</title>
<g id="a_edge22_Node000020_Node000016"><a xlink:title=" ">
<path fill="none" stroke="#63b8ff" d="M1050.31,-219.74C1042.48,-194.2 1019.54,-119.43 1008.75,-84.23"/>
<polygon fill="#63b8ff" stroke="#63b8ff" points="1011.98,-82.84 1005.7,-74.31 1005.29,-84.89 1011.98,-82.84"/>
</a>
</g>
</g>
<!-- Node21 -->
<g id="Node000021" class="node">
<title>Node21</title>
<g id="a_Node000021"><a xlink:title=" ">
<polygon fill="#e0e0e0" stroke="#999999" points="1107.5,-184 1054.5,-184 1054.5,-165 1107.5,-165 1107.5,-184"/>
<text text-anchor="middle" x="1081" y="-172" font-family="Helvetica,sans-Serif" font-size="10.00">iterator</text>
</a>
</g>
</g>
<!-- Node20&#45;&gt;Node21 -->
<g id="edge20_Node000020_Node000021" class="edge">
<title>Node20&#45;&gt;Node21</title>
<g id="a_edge20_Node000020_Node000021"><a xlink:title=" ">
<path fill="none" stroke="#63b8ff" d="M1057.62,-219.75C1061.46,-212.49 1067.02,-201.95 1071.76,-192.98"/>
<polygon fill="#63b8ff" stroke="#63b8ff" points="1074.89,-194.57 1076.46,-184.09 1068.7,-191.3 1074.89,-194.57"/>
</a>
</g>
</g>
<!-- Node22 -->
<g id="Node000022" class="node">
<title>Node22</title>
<g id="a_Node000022"><a xlink:title=" ">
<polygon fill="#e0e0e0" stroke="#999999" points="1182,-184 1126,-184 1126,-165 1182,-165 1182,-184"/>
<text text-anchor="middle" x="1154" y="-172" font-family="Helvetica,sans-Serif" font-size="10.00">sstream</text>
</a>
</g>
</g>
<!-- Node20&#45;&gt;Node22 -->
<g id="edge21_Node000020_Node000022" class="edge">
<title>Node20&#45;&gt;Node22</title>
<g id="a_edge21_Node000020_Node000022"><a xlink:title=" ">
<path fill="none" stroke="#63b8ff" d="M1069.23,-219.98C1085.18,-211.61 1109.78,-198.7 1128.38,-188.95"/>
<polygon fill="#63b8ff" stroke="#63b8ff" points="1130.25,-191.92 1137.48,-184.17 1127,-185.72 1130.25,-191.92"/>
</a>
</g>
</g>
</g>
</svg>
