<?xml version="1.0" encoding="UTF-8" standalone="no"?>
<!DOCTYPE svg PUBLIC "-//W3C//DTD SVG 1.1//EN"
 "http://www.w3.org/Graphics/SVG/1.1/DTD/svg11.dtd">
<!-- Generated by graphviz version 2.43.0 (0)
 -->
<!-- Title: ezp/mumps.hpp Pages: 1 -->
<!--zoomable 252 -->
<svg id="main" version="1.1" xmlns="http://www.w3.org/2000/svg" xmlns:xlink="http://www.w3.org/1999/xlink" xml:space="preserve" onload="init(evt)">
<style type="text/css"><![CDATA[
.edge:hover path { stroke: red; }
.edge:hover polygon { stroke: red; fill: red; }
]]></style>
<script type="text/javascript"><![CDATA[
var edges = document.getElementsByTagName('g');
if (edges && edges.length) {
  for (var i=0;i<edges.length;i++) {
    if (edges[i].id.substr(0,4)=='edge') {
      edges[i].setAttribute('class','edge');
    }
  }
}
]]></script>
        <defs>
                <circle id="rim" cx="0" cy="0" r="7"/>
                <circle id="rim2" cx="0" cy="0" r="3.5"/>
                <g id="zoomPlus">
                        <use xlink:href="#rim" fill="#404040">
                                <set attributeName="fill" to="#808080" begin="zoomplus.mouseover" end="zoomplus.mouseout"/>
                        </use>
                        <path d="M-4,0h8M0,-4v8" fill="none" stroke="white" stroke-width="1.5" pointer-events="none"/>
                </g>
                <g id="zoomMin">
                        <use xlink:href="#rim" fill="#404040">
                                <set attributeName="fill" to="#808080" begin="zoomminus.mouseover" end="zoomminus.mouseout"/>
                        </use>
                        <path d="M-4,0h8" fill="none" stroke="white" stroke-width="1.5" pointer-events="none"/>
                </g>
                <g id="dirArrow">
                        <path fill="none" stroke="white" stroke-width="1.5" d="M0,-3.0v7 M-2.5,-0.5L0,-3.0L2.5,-0.5"/>
                </g>
               <g id="resetDef">
                       <use xlink:href="#rim2" fill="#404040">
                               <set attributeName="fill" to="#808080" begin="reset.mouseover" end="reset.mouseout"/>
                       </use>
               </g>
        </defs>

<script type="text/javascript">
var viewWidth = 1006;
var viewHeight = 252;
var sectionId = 'dynsection-0';
</script>
<script xlink:href="../../svgpan.js"/>
<svg id="graph" class="graph">
<g id="viewport">
<title>ezp/mumps.hpp</title>
<polygon fill="white" stroke="transparent" points="-4,4 -4,-248 1002,-248 1002,4 -4,4"/>
<!-- Node1 -->
<g id="node1" class="node">
<title>Node1</title>
<g id="a_node1"><a xlink:title=" ">
<polygon fill="#bfbfbf" stroke="black" points="509.5,-224.5 509.5,-243.5 604.5,-243.5 604.5,-224.5 509.5,-224.5"/>
<text text-anchor="middle" x="557" y="-231.5" font-family="Helvetica,sans-Serif" font-size="10.00">ezp/mumps.hpp</text>
</a>
</g>
</g>
<!-- Node2 -->
<g id="node2" class="node">
<title>Node2</title>
<g id="a_node2"><a xlink:title=" ">
<polygon fill="white" stroke="#bfbfbf" points="0,-168.5 0,-187.5 170,-187.5 170,-168.5 0,-168.5"/>
<text text-anchor="middle" x="85" y="-175.5" font-family="Helvetica,sans-Serif" font-size="10.00">../external/mumps/cmumps_c.h</text>
</a>
</g>
</g>
<!-- Node1&#45;&gt;Node2 -->
<g id="edge1" class="edge">
<title>Node1&#45;&gt;Node2</title>
<path fill="none" stroke="midnightblue" d="M509.14,-227.53C429.5,-218.41 268.73,-200.02 169.61,-188.68"/>
<polygon fill="midnightblue" stroke="midnightblue" points="169.95,-185.2 159.62,-187.54 169.16,-192.15 169.95,-185.2"/>
</g>
<!-- Node3 -->
<g id="node3" class="node">
<title>Node3</title>
<g id="a_node3"><a xlink:title=" ">
<polygon fill="white" stroke="#bfbfbf" points="188.5,-168.5 188.5,-187.5 359.5,-187.5 359.5,-168.5 188.5,-168.5"/>
<text text-anchor="middle" x="274" y="-175.5" font-family="Helvetica,sans-Serif" font-size="10.00">../external/mumps/dmumps_c.h</text>
</a>
</g>
</g>
<!-- Node1&#45;&gt;Node3 -->
<g id="edge2" class="edge">
<title>Node1&#45;&gt;Node3</title>
<path fill="none" stroke="midnightblue" d="M512.16,-224.44C462.38,-214.94 382.02,-199.61 328.61,-189.42"/>
<polygon fill="midnightblue" stroke="midnightblue" points="329.11,-185.95 318.63,-187.52 327.8,-192.83 329.11,-185.95"/>
</g>
<!-- Node4 -->
<g id="node4" class="node">
<title>Node4</title>
<g id="a_node4"><a xlink:title=" ">
<polygon fill="white" stroke="#bfbfbf" points="378,-168.5 378,-187.5 548,-187.5 548,-168.5 378,-168.5"/>
<text text-anchor="middle" x="463" y="-175.5" font-family="Helvetica,sans-Serif" font-size="10.00">../external/mumps/smumps_c.h</text>
</a>
</g>
</g>
<!-- Node1&#45;&gt;Node4 -->
<g id="edge3" class="edge">
<title>Node1&#45;&gt;Node4</title>
<path fill="none" stroke="midnightblue" d="M541.9,-224.32C527.1,-215.82 504.31,-202.73 487.02,-192.8"/>
<polygon fill="midnightblue" stroke="midnightblue" points="488.48,-189.6 478.07,-187.65 484.99,-195.67 488.48,-189.6"/>
</g>
<!-- Node5 -->
<g id="node5" class="node">
<title>Node5</title>
<g id="a_node5"><a xlink:title=" ">
<polygon fill="white" stroke="#bfbfbf" points="566,-168.5 566,-187.5 736,-187.5 736,-168.5 566,-168.5"/>
<text text-anchor="middle" x="651" y="-175.5" font-family="Helvetica,sans-Serif" font-size="10.00">../external/mumps/zmumps_c.h</text>
</a>
</g>
</g>
<!-- Node1&#45;&gt;Node5 -->
<g id="edge4" class="edge">
<title>Node1&#45;&gt;Node5</title>
<path fill="none" stroke="midnightblue" d="M572.1,-224.32C586.9,-215.82 609.69,-202.73 626.98,-192.8"/>
<polygon fill="midnightblue" stroke="midnightblue" points="629.01,-195.67 635.93,-187.65 625.52,-189.6 629.01,-195.67"/>
</g>
<!-- Node6 -->
<g id="node6" class="node">
<title>Node6</title>
<g id="a_node6"><a xlink:href="../../db/d17/sparse__solver_8hpp_source.html" target="_top" xlink:title=" ">
<polygon fill="white" stroke="black" points="754.5,-168.5 754.5,-187.5 901.5,-187.5 901.5,-168.5 754.5,-168.5"/>
<text text-anchor="middle" x="828" y="-175.5" font-family="Helvetica,sans-Serif" font-size="10.00">abstract/sparse_solver.hpp</text>
</a>
</g>
</g>
<!-- Node1&#45;&gt;Node6 -->
<g id="edge5" class="edge">
<title>Node1&#45;&gt;Node6</title>
<path fill="none" stroke="midnightblue" d="M599.94,-224.44C647.51,-214.96 724.24,-199.67 775.39,-189.48"/>
<polygon fill="midnightblue" stroke="midnightblue" points="776.14,-192.9 785.26,-187.52 774.77,-186.04 776.14,-192.9"/>
</g>
<!-- Node18 -->
<g id="node18" class="node">
<title>Node18</title>
<g id="a_node18"><a xlink:title=" ">
<polygon fill="white" stroke="#bfbfbf" points="920,-168.5 920,-187.5 998,-187.5 998,-168.5 920,-168.5"/>
<text text-anchor="middle" x="959" y="-175.5" font-family="Helvetica,sans-Serif" font-size="10.00">mpl/mpl.hpp</text>
</a>
</g>
</g>
<!-- Node1&#45;&gt;Node18 -->
<g id="edge17" class="edge">
<title>Node1&#45;&gt;Node18</title>
<path fill="none" stroke="midnightblue" d="M604.65,-227.85C670.82,-220.49 794.5,-206.02 909.69,-188.13"/>
<polygon fill="midnightblue" stroke="midnightblue" points="910.4,-191.56 919.74,-186.56 909.32,-184.64 910.4,-191.56"/>
</g>
<!-- Node7 -->
<g id="node7" class="node">
<title>Node7</title>
<g id="a_node7"><a xlink:href="../../df/d73/traits_8hpp_source.html" target="_top" xlink:title=" ">
<polygon fill="white" stroke="black" points="714.5,-112.5 714.5,-131.5 777.5,-131.5 777.5,-112.5 714.5,-112.5"/>
<text text-anchor="middle" x="746" y="-119.5" font-family="Helvetica,sans-Serif" font-size="10.00">traits.hpp</text>
</a>
</g>
</g>
<!-- Node6&#45;&gt;Node7 -->
<g id="edge6" class="edge">
<title>Node6&#45;&gt;Node7</title>
<path fill="none" stroke="midnightblue" d="M814.83,-168.32C802.15,-159.98 782.77,-147.21 767.79,-137.35"/>
<polygon fill="midnightblue" stroke="midnightblue" points="769.42,-134.23 759.14,-131.65 765.57,-140.08 769.42,-134.23"/>
</g>
<!-- Node16 -->
<g id="node16" class="node">
<title>Node16</title>
<g id="a_node16"><a xlink:title=" ">
<polygon fill="white" stroke="#bfbfbf" points="796,-112.5 796,-131.5 860,-131.5 860,-112.5 796,-112.5"/>
<text text-anchor="middle" x="828" y="-119.5" font-family="Helvetica,sans-Serif" font-size="10.00">algorithm</text>
</a>
</g>
</g>
<!-- Node6&#45;&gt;Node16 -->
<g id="edge15" class="edge">
<title>Node6&#45;&gt;Node16</title>
<path fill="none" stroke="midnightblue" d="M828,-168.08C828,-161.01 828,-150.86 828,-141.99"/>
<polygon fill="midnightblue" stroke="midnightblue" points="831.5,-141.75 828,-131.75 824.5,-141.75 831.5,-141.75"/>
</g>
<!-- Node17 -->
<g id="node17" class="node">
<title>Node17</title>
<g id="a_node17"><a xlink:title=" ">
<polygon fill="white" stroke="#bfbfbf" points="878,-112.5 878,-131.5 934,-131.5 934,-112.5 878,-112.5"/>
<text text-anchor="middle" x="906" y="-119.5" font-family="Helvetica,sans-Serif" font-size="10.00">numeric</text>
</a>
</g>
</g>
<!-- Node6&#45;&gt;Node17 -->
<g id="edge16" class="edge">
<title>Node6&#45;&gt;Node17</title>
<path fill="none" stroke="midnightblue" d="M840.53,-168.32C852.59,-159.98 871.03,-147.21 885.27,-137.35"/>
<polygon fill="midnightblue" stroke="midnightblue" points="887.27,-140.22 893.5,-131.65 883.28,-134.47 887.27,-140.22"/>
</g>
<!-- Node8 -->
<g id="node8" class="node">
<title>Node8</title>
<g id="a_node8"><a xlink:href="../../d1/d4c/ezp_8h_source.html" target="_top" xlink:title=" ">
<polygon fill="white" stroke="black" points="566.5,-56.5 566.5,-75.5 609.5,-75.5 609.5,-56.5 566.5,-56.5"/>
<text text-anchor="middle" x="588" y="-63.5" font-family="Helvetica,sans-Serif" font-size="10.00">ezp.h</text>
</a>
</g>
</g>
<!-- Node7&#45;&gt;Node8 -->
<g id="edge7" class="edge">
<title>Node7&#45;&gt;Node8</title>
<path fill="none" stroke="midnightblue" d="M720.96,-112.44C693.45,-103.04 649.19,-87.91 619.38,-77.72"/>
<polygon fill="midnightblue" stroke="midnightblue" points="620.46,-74.4 609.87,-74.47 618.2,-81.02 620.46,-74.4"/>
</g>
<!-- Node11 -->
<g id="node11" class="node">
<title>Node11</title>
<g id="a_node11"><a xlink:title=" ">
<polygon fill="white" stroke="#bfbfbf" points="628,-56.5 628,-75.5 670,-75.5 670,-56.5 628,-56.5"/>
<text text-anchor="middle" x="649" y="-63.5" font-family="Helvetica,sans-Serif" font-size="10.00">array</text>
</a>
</g>
</g>
<!-- Node7&#45;&gt;Node11 -->
<g id="edge10" class="edge">
<title>Node7&#45;&gt;Node11</title>
<path fill="none" stroke="midnightblue" d="M730.42,-112.32C715,-103.74 691.19,-90.49 673.29,-80.52"/>
<polygon fill="midnightblue" stroke="midnightblue" points="674.99,-77.46 664.55,-75.65 671.58,-83.58 674.99,-77.46"/>
</g>
<!-- Node12 -->
<g id="node12" class="node">
<title>Node12</title>
<g id="a_node12"><a xlink:title=" ">
<polygon fill="white" stroke="#bfbfbf" points="688,-56.5 688,-75.5 738,-75.5 738,-56.5 688,-56.5"/>
<text text-anchor="middle" x="713" y="-63.5" font-family="Helvetica,sans-Serif" font-size="10.00">atomic</text>
</a>
</g>
</g>
<!-- Node7&#45;&gt;Node12 -->
<g id="edge11" class="edge">
<title>Node7&#45;&gt;Node12</title>
<path fill="none" stroke="midnightblue" d="M740.55,-112.08C735.99,-104.61 729.33,-93.72 723.71,-84.52"/>
<polygon fill="midnightblue" stroke="midnightblue" points="726.55,-82.46 718.35,-75.75 720.58,-86.11 726.55,-82.46"/>
</g>
<!-- Node13 -->
<g id="node13" class="node">
<title>Node13</title>
<g id="a_node13"><a xlink:title=" ">
<polygon fill="white" stroke="#bfbfbf" points="756.5,-56.5 756.5,-75.5 803.5,-75.5 803.5,-56.5 756.5,-56.5"/>
<text text-anchor="middle" x="780" y="-63.5" font-family="Helvetica,sans-Serif" font-size="10.00">cmath</text>
</a>
</g>
</g>
<!-- Node7&#45;&gt;Node13 -->
<g id="edge12" class="edge">
<title>Node7&#45;&gt;Node13</title>
<path fill="none" stroke="midnightblue" d="M751.61,-112.08C756.37,-104.53 763.32,-93.49 769.15,-84.23"/>
<polygon fill="midnightblue" stroke="midnightblue" points="772.12,-86.08 774.49,-75.75 766.2,-82.35 772.12,-86.08"/>
</g>
<!-- Node14 -->
<g id="node14" class="node">
<title>Node14</title>
<g id="a_node14"><a xlink:title=" ">
<polygon fill="white" stroke="#bfbfbf" points="822,-56.5 822,-75.5 872,-75.5 872,-56.5 822,-56.5"/>
<text text-anchor="middle" x="847" y="-63.5" font-family="Helvetica,sans-Serif" font-size="10.00">ranges</text>
</a>
</g>
</g>
<!-- Node7&#45;&gt;Node14 -->
<g id="edge13" class="edge">
<title>Node7&#45;&gt;Node14</title>
<path fill="none" stroke="midnightblue" d="M762.23,-112.32C778.35,-103.7 803.3,-90.36 821.96,-80.39"/>
<polygon fill="midnightblue" stroke="midnightblue" points="823.64,-83.46 830.81,-75.65 820.34,-77.28 823.64,-83.46"/>
</g>
<!-- Node15 -->
<g id="node15" class="node">
<title>Node15</title>
<g id="a_node15"><a xlink:title=" ">
<polygon fill="white" stroke="#bfbfbf" points="890.5,-56.5 890.5,-75.5 937.5,-75.5 937.5,-56.5 890.5,-56.5"/>
<text text-anchor="middle" x="914" y="-63.5" font-family="Helvetica,sans-Serif" font-size="10.00">vector</text>
</a>
</g>
</g>
<!-- Node7&#45;&gt;Node15 -->
<g id="edge14" class="edge">
<title>Node7&#45;&gt;Node15</title>
<path fill="none" stroke="midnightblue" d="M772.62,-112.44C801.92,-103.02 849.07,-87.87 880.78,-77.68"/>
<polygon fill="midnightblue" stroke="midnightblue" points="882.04,-80.95 890.49,-74.56 879.89,-74.29 882.04,-80.95"/>
</g>
<!-- Node9 -->
<g id="node9" class="node">
<title>Node9</title>
<g id="a_node9"><a xlink:title=" ">
<polygon fill="white" stroke="#bfbfbf" points="522.5,-0.5 522.5,-19.5 581.5,-19.5 581.5,-0.5 522.5,-0.5"/>
<text text-anchor="middle" x="552" y="-7.5" font-family="Helvetica,sans-Serif" font-size="10.00">complex</text>
</a>
</g>
</g>
<!-- Node8&#45;&gt;Node9 -->
<g id="edge8" class="edge">
<title>Node8&#45;&gt;Node9</title>
<path fill="none" stroke="midnightblue" d="M582.06,-56.08C577.02,-48.53 569.66,-37.49 563.49,-28.23"/>
<polygon fill="midnightblue" stroke="midnightblue" points="566.29,-26.13 557.83,-19.75 560.47,-30.01 566.29,-26.13"/>
</g>
<!-- Node10 -->
<g id="node10" class="node">
<title>Node10</title>
<g id="a_node10"><a xlink:title=" ">
<polygon fill="white" stroke="#bfbfbf" points="600,-0.5 600,-19.5 650,-19.5 650,-0.5 600,-0.5"/>
<text text-anchor="middle" x="625" y="-7.5" font-family="Helvetica,sans-Serif" font-size="10.00">cstdint</text>
</a>
</g>
</g>
<!-- Node8&#45;&gt;Node10 -->
<g id="edge9" class="edge">
<title>Node8&#45;&gt;Node10</title>
<path fill="none" stroke="midnightblue" d="M594.11,-56.08C599.28,-48.53 606.85,-37.49 613.19,-28.23"/>
<polygon fill="midnightblue" stroke="midnightblue" points="616.24,-29.98 619,-19.75 610.46,-26.02 616.24,-29.98"/>
</g>
</g>
</svg>
        <g id="navigator" transform="translate(0 0)" fill="#404254">
                <rect fill="#f2f5e9" fill-opacity="0.5" stroke="#606060" stroke-width=".5" x="0" y="0" width="60" height="60"/>
                <use id="zoomplus" xlink:href="#zoomPlus" x="17" y="9" onmousedown="handleZoom(evt,'in')"/>
                <use id="zoomminus" xlink:href="#zoomMin" x="42" y="9" onmousedown="handleZoom(evt,'out')"/>
                <use id="reset" xlink:href="#resetDef" x="30" y="36" onmousedown="handleReset()"/>
                <g id="arrowUp" xlink:href="#dirArrow" transform="translate(30 24)" onmousedown="handlePan(0,-1)">
                  <use xlink:href="#rim" fill="#404040">
                        <set attributeName="fill" to="#808080" begin="arrowUp.mouseover" end="arrowUp.mouseout"/>
                  </use>
                  <path fill="none" stroke="white" stroke-width="1.5" d="M0,-3.0v7 M-2.5,-0.5L0,-3.0L2.5,-0.5"/>
                </g>
                <g id="arrowRight" xlink:href="#dirArrow" transform="rotate(90) translate(36 -43)" onmousedown="handlePan(1,0)">
                  <use xlink:href="#rim" fill="#404040">
                        <set attributeName="fill" to="#808080" begin="arrowRight.mouseover" end="arrowRight.mouseout"/>
                  </use>
                  <path fill="none" stroke="white" stroke-width="1.5" d="M0,-3.0v7 M-2.5,-0.5L0,-3.0L2.5,-0.5"/>
                </g>
                <g id="arrowDown" xlink:href="#dirArrow" transform="rotate(180) translate(-30 -48)" onmousedown="handlePan(0,1)">
                  <use xlink:href="#rim" fill="#404040">
                        <set attributeName="fill" to="#808080" begin="arrowDown.mouseover" end="arrowDown.mouseout"/>
                  </use>
                  <path fill="none" stroke="white" stroke-width="1.5" d="M0,-3.0v7 M-2.5,-0.5L0,-3.0L2.5,-0.5"/>
                </g>
                <g id="arrowLeft" xlink:href="#dirArrow" transform="rotate(270) translate(-36 17)" onmousedown="handlePan(-1,0)">
                  <use xlink:href="#rim" fill="#404040">
                        <set attributeName="fill" to="#808080" begin="arrowLeft.mouseover" end="arrowLeft.mouseout"/>
                  </use>
                  <path fill="none" stroke="white" stroke-width="1.5" d="M0,-3.0v7 M-2.5,-0.5L0,-3.0L2.5,-0.5"/>
                </g>
        </g>
        <svg viewBox="0 0 15 15" width="100%" height="30px" preserveAspectRatio="xMaxYMin meet">
         <g id="arrow_out" transform="scale(0.3 0.3)">
          <a xlink:href="mumps_8hpp__incl_org.svg" target="_base">
           <rect id="button" ry="5" rx="5" y="6" x="6" height="38" width="38"
                fill="#f2f5e9" fill-opacity="0.5" stroke="#606060" stroke-width="1.0"/>
           <path id="arrow"
             d="M 11.500037,31.436501 C 11.940474,20.09759 22.043105,11.32322 32.158766,21.979434 L 37.068811,17.246167 C 37.068811,17.246167 37.088388,32 37.088388,32 L 22.160133,31.978069 C 22.160133,31.978069 26.997745,27.140456 26.997745,27.140456 C 18.528582,18.264221 13.291696,25.230495 11.500037,31.436501 z"
             style="fill:#404040;"/>
          </a>
         </g>
        </svg>
</svg>
