<?xml version="1.0" encoding="UTF-8" standalone="no"?>
<!DOCTYPE svg PUBLIC "-//W3C//DTD SVG 1.1//EN"
 "http://www.w3.org/Graphics/SVG/1.1/DTD/svg11.dtd">
<!-- Generated by graphviz version 2.43.0 (0)
 -->
<!-- Title: ezp/mumps.hpp Pages: 1 -->
<svg width="1007pt" height="192pt"
 viewBox="0.00 0.00 1006.50 192.00" xmlns="http://www.w3.org/2000/svg" xmlns:xlink="http://www.w3.org/1999/xlink">
<g id="graph0" class="graph" transform="scale(1 1) rotate(0) translate(4 188)">
<title>ezp/mumps.hpp</title>
<!-- Node1 -->
<g id="Node000001" class="node">
<title>Node1</title>
<g id="a_Node000001"><a xlink:title=" ">
<polygon fill="#999999" stroke="#666666" points="604.5,-184 509.5,-184 509.5,-165 604.5,-165 604.5,-184"/>
<text text-anchor="middle" x="557" y="-172" font-family="Helvetica,sans-Serif" font-size="10.00">ezp/mumps.hpp</text>
</a>
</g>
</g>
<!-- Node2 -->
<g id="Node000002" class="node">
<title>Node2</title>
<g id="a_Node000002"><a xlink:title=" ">
<polygon fill="#e0e0e0" stroke="#999999" points="170,-129 0,-129 0,-110 170,-110 170,-129"/>
<text text-anchor="middle" x="85" y="-117" font-family="Helvetica,sans-Serif" font-size="10.00">../external/mumps/cmumps_c.h</text>
</a>
</g>
</g>
<!-- Node1&#45;&gt;Node2 -->
<g id="edge1_Node000001_Node000002" class="edge">
<title>Node1&#45;&gt;Node2</title>
<g id="a_edge1_Node000001_Node000002"><a xlink:title=" ">
<path fill="none" stroke="#63b8ff" d="M509.14,-168.13C429.84,-159.22 270.1,-141.28 170.88,-130.14"/>
<polygon fill="#63b8ff" stroke="#63b8ff" points="171.21,-126.66 160.88,-129.02 170.43,-133.61 171.21,-126.66"/>
</a>
</g>
</g>
<!-- Node3 -->
<g id="Node000003" class="node">
<title>Node3</title>
<g id="a_Node000003"><a xlink:title=" ">
<polygon fill="#e0e0e0" stroke="#999999" points="359.5,-129 188.5,-129 188.5,-110 359.5,-110 359.5,-129"/>
<text text-anchor="middle" x="274" y="-117" font-family="Helvetica,sans-Serif" font-size="10.00">../external/mumps/dmumps_c.h</text>
</a>
</g>
</g>
<!-- Node1&#45;&gt;Node3 -->
<g id="edge2_Node000001_Node000003" class="edge">
<title>Node1&#45;&gt;Node3</title>
<g id="a_edge2_Node000001_Node000003"><a xlink:title=" ">
<path fill="none" stroke="#63b8ff" d="M511.53,-164.98C462.06,-155.72 382.95,-140.9 329.77,-130.94"/>
<polygon fill="#63b8ff" stroke="#63b8ff" points="330.3,-127.48 319.83,-129.08 329.01,-134.36 330.3,-127.48"/>
</a>
</g>
</g>
<!-- Node4 -->
<g id="Node000004" class="node">
<title>Node4</title>
<g id="a_Node000004"><a xlink:title=" ">
<polygon fill="#e0e0e0" stroke="#999999" points="548,-129 378,-129 378,-110 548,-110 548,-129"/>
<text text-anchor="middle" x="463" y="-117" font-family="Helvetica,sans-Serif" font-size="10.00">../external/mumps/smumps_c.h</text>
</a>
</g>
</g>
<!-- Node1&#45;&gt;Node4 -->
<g id="edge3_Node000001_Node000004" class="edge">
<title>Node1&#45;&gt;Node4</title>
<g id="a_edge3_Node000001_Node000004"><a xlink:title=" ">
<path fill="none" stroke="#63b8ff" d="M541.9,-164.98C527.18,-156.69 504.58,-143.94 487.33,-134.22"/>
<polygon fill="#63b8ff" stroke="#63b8ff" points="488.81,-131.03 478.38,-129.17 485.37,-137.13 488.81,-131.03"/>
</a>
</g>
</g>
<!-- Node5 -->
<g id="Node000005" class="node">
<title>Node5</title>
<g id="a_Node000005"><a xlink:title=" ">
<polygon fill="#e0e0e0" stroke="#999999" points="736,-129 566,-129 566,-110 736,-110 736,-129"/>
<text text-anchor="middle" x="651" y="-117" font-family="Helvetica,sans-Serif" font-size="10.00">../external/mumps/zmumps_c.h</text>
</a>
</g>
</g>
<!-- Node1&#45;&gt;Node5 -->
<g id="edge4_Node000001_Node000005" class="edge">
<title>Node1&#45;&gt;Node5</title>
<g id="a_edge4_Node000001_Node000005"><a xlink:title=" ">
<path fill="none" stroke="#63b8ff" d="M572.1,-164.98C586.82,-156.69 609.42,-143.94 626.67,-134.22"/>
<polygon fill="#63b8ff" stroke="#63b8ff" points="628.63,-137.13 635.62,-129.17 625.19,-131.03 628.63,-137.13"/>
</a>
</g>
</g>
<!-- Node6 -->
<g id="Node000006" class="node">
<title>Node6</title>
<g id="a_Node000006"><a xlink:href="../../df/d73/traits_8hpp_source.html" target="_top" xlink:title=" ">
<polygon fill="white" stroke="#666666" points="860,-129 754,-129 754,-110 860,-110 860,-129"/>
<text text-anchor="middle" x="807" y="-117" font-family="Helvetica,sans-Serif" font-size="10.00">abstract/traits.hpp</text>
</a>
</g>
</g>
<!-- Node1&#45;&gt;Node6 -->
<g id="edge5_Node000001_Node000006" class="edge">
<title>Node1&#45;&gt;Node6</title>
<g id="a_edge5_Node000001_Node000006"><a xlink:title=" ">
<path fill="none" stroke="#63b8ff" d="M597.17,-164.98C640.5,-155.8 709.59,-141.15 756.56,-131.19"/>
<polygon fill="#63b8ff" stroke="#63b8ff" points="757.46,-134.58 766.52,-129.08 756.01,-127.73 757.46,-134.58"/>
</a>
</g>
</g>
<!-- Node15 -->
<g id="Node000015" class="node">
<title>Node15</title>
<g id="a_Node000015"><a xlink:title=" ">
<polygon fill="#e0e0e0" stroke="#999999" points="956,-129 878,-129 878,-110 956,-110 956,-129"/>
<text text-anchor="middle" x="917" y="-117" font-family="Helvetica,sans-Serif" font-size="10.00">mpl/mpl.hpp</text>
</a>
</g>
</g>
<!-- Node1&#45;&gt;Node15 -->
<g id="edge14_Node000001_Node000015" class="edge">
<title>Node1&#45;&gt;Node15</title>
<g id="a_edge14_Node000001_Node000015"><a xlink:title=" ">
<path fill="none" stroke="#63b8ff" d="M604.65,-167.21C663.93,-159.27 768.51,-144.9 868.06,-129.1"/>
<polygon fill="#63b8ff" stroke="#63b8ff" points="868.66,-132.55 877.99,-127.52 867.56,-125.64 868.66,-132.55"/>
</a>
</g>
</g>
<!-- Node7 -->
<g id="Node000007" class="node">
<title>Node7</title>
<g id="a_Node000007"><a xlink:href="../../d1/d4c/ezp_8h_source.html" target="_top" xlink:title=" ">
<polygon fill="white" stroke="#666666" points="670.5,-74 627.5,-74 627.5,-55 670.5,-55 670.5,-74"/>
<text text-anchor="middle" x="649" y="-62" font-family="Helvetica,sans-Serif" font-size="10.00">ezp.h</text>
</a>
</g>
</g>
<!-- Node6&#45;&gt;Node7 -->
<g id="edge6_Node000006_Node000007" class="edge">
<title>Node6&#45;&gt;Node7</title>
<g id="a_edge6_Node000006_Node000007"><a xlink:title=" ">
<path fill="none" stroke="#63b8ff" d="M781.61,-109.98C754.15,-100.77 710.31,-86.07 680.62,-76.11"/>
<polygon fill="#63b8ff" stroke="#63b8ff" points="681.36,-72.66 670.76,-72.8 679.13,-79.3 681.36,-72.66"/>
</a>
</g>
</g>
<!-- Node10 -->
<g id="Node000010" class="node">
<title>Node10</title>
<g id="a_Node000010"><a xlink:title=" ">
<polygon fill="#e0e0e0" stroke="#999999" points="731,-74 689,-74 689,-55 731,-55 731,-74"/>
<text text-anchor="middle" x="710" y="-62" font-family="Helvetica,sans-Serif" font-size="10.00">array</text>
</a>
</g>
</g>
<!-- Node6&#45;&gt;Node10 -->
<g id="edge9_Node000006_Node000010" class="edge">
<title>Node6&#45;&gt;Node10</title>
<g id="a_edge9_Node000006_Node000010"><a xlink:title=" ">
<path fill="none" stroke="#63b8ff" d="M791.42,-109.98C776.23,-101.69 752.9,-88.94 735.1,-79.22"/>
<polygon fill="#63b8ff" stroke="#63b8ff" points="736.32,-75.89 725.87,-74.17 732.97,-82.04 736.32,-75.89"/>
</a>
</g>
</g>
<!-- Node11 -->
<g id="Node000011" class="node">
<title>Node11</title>
<g id="a_Node000011"><a xlink:title=" ">
<polygon fill="#e0e0e0" stroke="#999999" points="799,-74 749,-74 749,-55 799,-55 799,-74"/>
<text text-anchor="middle" x="774" y="-62" font-family="Helvetica,sans-Serif" font-size="10.00">atomic</text>
</a>
</g>
</g>
<!-- Node6&#45;&gt;Node11 -->
<g id="edge10_Node000006_Node000011" class="edge">
<title>Node6&#45;&gt;Node11</title>
<g id="a_edge10_Node000006_Node000011"><a xlink:title=" ">
<path fill="none" stroke="#63b8ff" d="M801.55,-109.75C796.99,-102.42 790.33,-91.73 784.71,-82.7"/>
<polygon fill="#63b8ff" stroke="#63b8ff" points="787.6,-80.73 779.35,-74.09 781.66,-84.43 787.6,-80.73"/>
</a>
</g>
</g>
<!-- Node12 -->
<g id="Node000012" class="node">
<title>Node12</title>
<g id="a_Node000012"><a xlink:title=" ">
<polygon fill="#e0e0e0" stroke="#999999" points="864.5,-74 817.5,-74 817.5,-55 864.5,-55 864.5,-74"/>
<text text-anchor="middle" x="841" y="-62" font-family="Helvetica,sans-Serif" font-size="10.00">cmath</text>
</a>
</g>
</g>
<!-- Node6&#45;&gt;Node12 -->
<g id="edge11_Node000006_Node000012" class="edge">
<title>Node6&#45;&gt;Node12</title>
<g id="a_edge11_Node000006_Node000012"><a xlink:title=" ">
<path fill="none" stroke="#63b8ff" d="M812.61,-109.75C817.32,-102.42 824.17,-91.73 829.97,-82.7"/>
<polygon fill="#63b8ff" stroke="#63b8ff" points="833.04,-84.4 835.49,-74.09 827.14,-80.62 833.04,-84.4"/>
</a>
</g>
</g>
<!-- Node13 -->
<g id="Node000013" class="node">
<title>Node13</title>
<g id="a_Node000013"><a xlink:title=" ">
<polygon fill="#e0e0e0" stroke="#999999" points="933,-74 883,-74 883,-55 933,-55 933,-74"/>
<text text-anchor="middle" x="908" y="-62" font-family="Helvetica,sans-Serif" font-size="10.00">ranges</text>
</a>
</g>
</g>
<!-- Node6&#45;&gt;Node13 -->
<g id="edge12_Node000006_Node000013" class="edge">
<title>Node6&#45;&gt;Node13</title>
<g id="a_edge12_Node000006_Node000013"><a xlink:title=" ">
<path fill="none" stroke="#63b8ff" d="M823.23,-109.98C839.18,-101.61 863.78,-88.7 882.38,-78.95"/>
<polygon fill="#63b8ff" stroke="#63b8ff" points="884.25,-81.92 891.48,-74.17 881,-75.72 884.25,-81.92"/>
</a>
</g>
</g>
<!-- Node14 -->
<g id="Node000014" class="node">
<title>Node14</title>
<g id="a_Node000014"><a xlink:title=" ">
<polygon fill="#e0e0e0" stroke="#999999" points="998.5,-74 951.5,-74 951.5,-55 998.5,-55 998.5,-74"/>
<text text-anchor="middle" x="975" y="-62" font-family="Helvetica,sans-Serif" font-size="10.00">vector</text>
</a>
</g>
</g>
<!-- Node6&#45;&gt;Node14 -->
<g id="edge13_Node000006_Node000014" class="edge">
<title>Node6&#45;&gt;Node14</title>
<g id="a_edge13_Node000006_Node000014"><a xlink:title=" ">
<path fill="none" stroke="#63b8ff" d="M833.99,-109.98C863.29,-100.74 910.09,-85.98 941.66,-76.02"/>
<polygon fill="#63b8ff" stroke="#63b8ff" points="942.85,-79.31 951.33,-72.97 940.74,-72.64 942.85,-79.31"/>
</a>
</g>
</g>
<!-- Node8 -->
<g id="Node000008" class="node">
<title>Node8</title>
<g id="a_Node000008"><a xlink:title=" ">
<polygon fill="#e0e0e0" stroke="#999999" points="642.5,-19 583.5,-19 583.5,0 642.5,0 642.5,-19"/>
<text text-anchor="middle" x="613" y="-7" font-family="Helvetica,sans-Serif" font-size="10.00">complex</text>
</a>
</g>
</g>
<!-- Node7&#45;&gt;Node8 -->
<g id="edge7_Node000007_Node000008" class="edge">
<title>Node7&#45;&gt;Node8</title>
<g id="a_edge7_Node000007_Node000008"><a xlink:title=" ">
<path fill="none" stroke="#63b8ff" d="M643.06,-54.75C638.02,-47.34 630.66,-36.5 624.49,-27.41"/>
<polygon fill="#63b8ff" stroke="#63b8ff" points="627.35,-25.39 618.83,-19.09 621.56,-29.33 627.35,-25.39"/>
</a>
</g>
</g>
<!-- Node9 -->
<g id="Node000009" class="node">
<title>Node9</title>
<g id="a_Node000009"><a xlink:title=" ">
<polygon fill="#e0e0e0" stroke="#999999" points="711,-19 661,-19 661,0 711,0 711,-19"/>
<text text-anchor="middle" x="686" y="-7" font-family="Helvetica,sans-Serif" font-size="10.00">cstdint</text>
</a>
</g>
</g>
<!-- Node7&#45;&gt;Node9 -->
<g id="edge8_Node000007_Node000009" class="edge">
<title>Node7&#45;&gt;Node9</title>
<g id="a_edge8_Node000007_Node000009"><a xlink:title=" ">
<path fill="none" stroke="#63b8ff" d="M655.11,-54.75C660.28,-47.34 667.85,-36.5 674.19,-27.41"/>
<polygon fill="#63b8ff" stroke="#63b8ff" points="677.15,-29.29 680,-19.09 671.41,-25.29 677.15,-29.29"/>
</a>
</g>
</g>
</g>
</svg>
