<?xml version="1.0" encoding="UTF-8" standalone="no"?>
<!DOCTYPE svg PUBLIC "-//W3C//DTD SVG 1.1//EN"
 "http://www.w3.org/Graphics/SVG/1.1/DTD/svg11.dtd">
<!-- Generated by graphviz version 2.43.0 (0)
 -->
<!-- Title: ezp/mumps.hpp Pages: 1 -->
<svg width="981pt" height="192pt"
 viewBox="0.00 0.00 981.00 192.00" xmlns="http://www.w3.org/2000/svg" xmlns:xlink="http://www.w3.org/1999/xlink">
<g id="graph0" class="graph" transform="scale(1 1) rotate(0) translate(4 188)">
<title>ezp/mumps.hpp</title>
<!-- Node1 -->
<g id="Node000001" class="node">
<title>Node1</title>
<g id="a_Node000001"><a xlink:title=" ">
<polygon fill="#999999" stroke="#666666" points="577,-184 482,-184 482,-165 577,-165 577,-184"/>
<text text-anchor="middle" x="529.5" y="-172" font-family="Helvetica,sans-Serif" font-size="10.00">ezp/mumps.hpp</text>
</a>
</g>
</g>
<!-- Node2 -->
<g id="Node000002" class="node">
<title>Node2</title>
<g id="a_Node000002"><a xlink:title=" ">
<polygon fill="#e0e0e0" stroke="#999999" points="161,-129 0,-129 0,-110 161,-110 161,-129"/>
<text text-anchor="middle" x="80.5" y="-117" font-family="Helvetica,sans-Serif" font-size="10.00">external/mumps/cmumps_c.h</text>
</a>
</g>
</g>
<!-- Node1&#45;&gt;Node2 -->
<g id="edge1_Node000001_Node000002" class="edge">
<title>Node1&#45;&gt;Node2</title>
<g id="a_edge1_Node000001_Node000002"><a xlink:title=" ">
<path fill="none" stroke="#63b8ff" d="M481.87,-167.88C405.88,-158.91 256.23,-141.24 162.69,-130.2"/>
<polygon fill="#63b8ff" stroke="#63b8ff" points="163.03,-126.72 152.69,-129.02 162.21,-133.67 163.03,-126.72"/>
</a>
</g>
</g>
<!-- Node3 -->
<g id="Node000003" class="node">
<title>Node3</title>
<g id="a_Node000003"><a xlink:title=" ">
<polygon fill="#e0e0e0" stroke="#999999" points="341.5,-129 179.5,-129 179.5,-110 341.5,-110 341.5,-129"/>
<text text-anchor="middle" x="260.5" y="-117" font-family="Helvetica,sans-Serif" font-size="10.00">external/mumps/dmumps_c.h</text>
</a>
</g>
</g>
<!-- Node1&#45;&gt;Node3 -->
<g id="edge2_Node000001_Node000003" class="edge">
<title>Node1&#45;&gt;Node3</title>
<g id="a_edge2_Node000001_Node000003"><a xlink:title=" ">
<path fill="none" stroke="#63b8ff" d="M486.28,-164.98C439.46,-155.76 364.69,-141.03 314.14,-131.07"/>
<polygon fill="#63b8ff" stroke="#63b8ff" points="314.55,-127.58 304.06,-129.08 313.19,-134.45 314.55,-127.58"/>
</a>
</g>
</g>
<!-- Node4 -->
<g id="Node000004" class="node">
<title>Node4</title>
<g id="a_Node000004"><a xlink:title=" ">
<polygon fill="#e0e0e0" stroke="#999999" points="521,-129 360,-129 360,-110 521,-110 521,-129"/>
<text text-anchor="middle" x="440.5" y="-117" font-family="Helvetica,sans-Serif" font-size="10.00">external/mumps/smumps_c.h</text>
</a>
</g>
</g>
<!-- Node1&#45;&gt;Node4 -->
<g id="edge3_Node000001_Node000004" class="edge">
<title>Node1&#45;&gt;Node4</title>
<g id="a_edge3_Node000001_Node000004"><a xlink:title=" ">
<path fill="none" stroke="#63b8ff" d="M515.2,-164.98C501.4,-156.77 480.26,-144.18 463.99,-134.49"/>
<polygon fill="#63b8ff" stroke="#63b8ff" points="465.44,-131.28 455.06,-129.17 461.86,-137.29 465.44,-131.28"/>
</a>
</g>
</g>
<!-- Node5 -->
<g id="Node000005" class="node">
<title>Node5</title>
<g id="a_Node000005"><a xlink:title=" ">
<polygon fill="#e0e0e0" stroke="#999999" points="700,-129 539,-129 539,-110 700,-110 700,-129"/>
<text text-anchor="middle" x="619.5" y="-117" font-family="Helvetica,sans-Serif" font-size="10.00">external/mumps/zmumps_c.h</text>
</a>
</g>
</g>
<!-- Node1&#45;&gt;Node5 -->
<g id="edge4_Node000001_Node000005" class="edge">
<title>Node1&#45;&gt;Node5</title>
<g id="a_edge4_Node000001_Node000005"><a xlink:title=" ">
<path fill="none" stroke="#63b8ff" d="M543.96,-164.98C557.92,-156.77 579.29,-144.18 595.75,-134.49"/>
<polygon fill="#63b8ff" stroke="#63b8ff" points="597.94,-137.26 604.78,-129.17 594.38,-131.23 597.94,-137.26"/>
</a>
</g>
</g>
<!-- Node6 -->
<g id="Node000006" class="node">
<title>Node6</title>
<g id="a_Node000006"><a xlink:href="../../df/d73/traits_8hpp_source.html" target="_top" xlink:title=" ">
<polygon fill="white" stroke="#666666" points="844.5,-129 718.5,-129 718.5,-110 844.5,-110 844.5,-129"/>
<text text-anchor="middle" x="781.5" y="-117" font-family="Helvetica,sans-Serif" font-size="10.00">ezp/abstract/traits.hpp</text>
</a>
</g>
</g>
<!-- Node1&#45;&gt;Node6 -->
<g id="edge5_Node000001_Node000006" class="edge">
<title>Node1&#45;&gt;Node6</title>
<g id="a_edge5_Node000001_Node000006"><a xlink:title=" ">
<path fill="none" stroke="#63b8ff" d="M569.99,-164.98C613.67,-155.8 683.31,-141.15 730.65,-131.19"/>
<polygon fill="#63b8ff" stroke="#63b8ff" points="731.63,-134.57 740.69,-129.08 730.19,-127.72 731.63,-134.57"/>
</a>
</g>
</g>
<!-- Node15 -->
<g id="Node000015" class="node">
<title>Node15</title>
<g id="a_Node000015"><a xlink:title=" ">
<polygon fill="#e0e0e0" stroke="#999999" points="940.5,-129 862.5,-129 862.5,-110 940.5,-110 940.5,-129"/>
<text text-anchor="middle" x="901.5" y="-117" font-family="Helvetica,sans-Serif" font-size="10.00">mpl/mpl.hpp</text>
</a>
</g>
</g>
<!-- Node1&#45;&gt;Node15 -->
<g id="edge14_Node000001_Node000015" class="edge">
<title>Node1&#45;&gt;Node15</title>
<g id="a_edge14_Node000001_Node000015"><a xlink:title=" ">
<path fill="none" stroke="#63b8ff" d="M577.07,-167.55C638.33,-159.76 748.34,-145.34 852.43,-129.11"/>
<polygon fill="#63b8ff" stroke="#63b8ff" points="853.15,-132.54 862.49,-127.54 852.07,-125.63 853.15,-132.54"/>
</a>
</g>
</g>
<!-- Node7 -->
<g id="Node000007" class="node">
<title>Node7</title>
<g id="a_Node000007"><a xlink:href="../../d1/d4c/ezp_8h_source.html" target="_top" xlink:title=" ">
<polygon fill="white" stroke="#666666" points="645,-74 602,-74 602,-55 645,-55 645,-74"/>
<text text-anchor="middle" x="623.5" y="-62" font-family="Helvetica,sans-Serif" font-size="10.00">ezp.h</text>
</a>
</g>
</g>
<!-- Node6&#45;&gt;Node7 -->
<g id="edge6_Node000006_Node000007" class="edge">
<title>Node6&#45;&gt;Node7</title>
<g id="a_edge6_Node000006_Node000007"><a xlink:title=" ">
<path fill="none" stroke="#63b8ff" d="M756.11,-109.98C728.65,-100.77 684.81,-86.07 655.12,-76.11"/>
<polygon fill="#63b8ff" stroke="#63b8ff" points="655.86,-72.66 645.26,-72.8 653.63,-79.3 655.86,-72.66"/>
</a>
</g>
</g>
<!-- Node10 -->
<g id="Node000010" class="node">
<title>Node10</title>
<g id="a_Node000010"><a xlink:title=" ">
<polygon fill="#e0e0e0" stroke="#999999" points="705.5,-74 663.5,-74 663.5,-55 705.5,-55 705.5,-74"/>
<text text-anchor="middle" x="684.5" y="-62" font-family="Helvetica,sans-Serif" font-size="10.00">array</text>
</a>
</g>
</g>
<!-- Node6&#45;&gt;Node10 -->
<g id="edge9_Node000006_Node000010" class="edge">
<title>Node6&#45;&gt;Node10</title>
<g id="a_edge9_Node000006_Node000010"><a xlink:title=" ">
<path fill="none" stroke="#63b8ff" d="M765.92,-109.98C750.73,-101.69 727.4,-88.94 709.6,-79.22"/>
<polygon fill="#63b8ff" stroke="#63b8ff" points="710.82,-75.89 700.37,-74.17 707.47,-82.04 710.82,-75.89"/>
</a>
</g>
</g>
<!-- Node11 -->
<g id="Node000011" class="node">
<title>Node11</title>
<g id="a_Node000011"><a xlink:title=" ">
<polygon fill="#e0e0e0" stroke="#999999" points="773.5,-74 723.5,-74 723.5,-55 773.5,-55 773.5,-74"/>
<text text-anchor="middle" x="748.5" y="-62" font-family="Helvetica,sans-Serif" font-size="10.00">atomic</text>
</a>
</g>
</g>
<!-- Node6&#45;&gt;Node11 -->
<g id="edge10_Node000006_Node000011" class="edge">
<title>Node6&#45;&gt;Node11</title>
<g id="a_edge10_Node000006_Node000011"><a xlink:title=" ">
<path fill="none" stroke="#63b8ff" d="M776.05,-109.75C771.49,-102.42 764.83,-91.73 759.21,-82.7"/>
<polygon fill="#63b8ff" stroke="#63b8ff" points="762.1,-80.73 753.85,-74.09 756.16,-84.43 762.1,-80.73"/>
</a>
</g>
</g>
<!-- Node12 -->
<g id="Node000012" class="node">
<title>Node12</title>
<g id="a_Node000012"><a xlink:title=" ">
<polygon fill="#e0e0e0" stroke="#999999" points="839,-74 792,-74 792,-55 839,-55 839,-74"/>
<text text-anchor="middle" x="815.5" y="-62" font-family="Helvetica,sans-Serif" font-size="10.00">cmath</text>
</a>
</g>
</g>
<!-- Node6&#45;&gt;Node12 -->
<g id="edge11_Node000006_Node000012" class="edge">
<title>Node6&#45;&gt;Node12</title>
<g id="a_edge11_Node000006_Node000012"><a xlink:title=" ">
<path fill="none" stroke="#63b8ff" d="M787.11,-109.75C791.82,-102.42 798.67,-91.73 804.47,-82.7"/>
<polygon fill="#63b8ff" stroke="#63b8ff" points="807.54,-84.4 809.99,-74.09 801.64,-80.62 807.54,-84.4"/>
</a>
</g>
</g>
<!-- Node13 -->
<g id="Node000013" class="node">
<title>Node13</title>
<g id="a_Node000013"><a xlink:title=" ">
<polygon fill="#e0e0e0" stroke="#999999" points="907.5,-74 857.5,-74 857.5,-55 907.5,-55 907.5,-74"/>
<text text-anchor="middle" x="882.5" y="-62" font-family="Helvetica,sans-Serif" font-size="10.00">ranges</text>
</a>
</g>
</g>
<!-- Node6&#45;&gt;Node13 -->
<g id="edge12_Node000006_Node000013" class="edge">
<title>Node6&#45;&gt;Node13</title>
<g id="a_edge12_Node000006_Node000013"><a xlink:title=" ">
<path fill="none" stroke="#63b8ff" d="M797.73,-109.98C813.68,-101.61 838.28,-88.7 856.88,-78.95"/>
<polygon fill="#63b8ff" stroke="#63b8ff" points="858.75,-81.92 865.98,-74.17 855.5,-75.72 858.75,-81.92"/>
</a>
</g>
</g>
<!-- Node14 -->
<g id="Node000014" class="node">
<title>Node14</title>
<g id="a_Node000014"><a xlink:title=" ">
<polygon fill="#e0e0e0" stroke="#999999" points="973,-74 926,-74 926,-55 973,-55 973,-74"/>
<text text-anchor="middle" x="949.5" y="-62" font-family="Helvetica,sans-Serif" font-size="10.00">vector</text>
</a>
</g>
</g>
<!-- Node6&#45;&gt;Node14 -->
<g id="edge13_Node000006_Node000014" class="edge">
<title>Node6&#45;&gt;Node14</title>
<g id="a_edge13_Node000006_Node000014"><a xlink:title=" ">
<path fill="none" stroke="#63b8ff" d="M808.49,-109.98C837.79,-100.74 884.59,-85.98 916.16,-76.02"/>
<polygon fill="#63b8ff" stroke="#63b8ff" points="917.35,-79.31 925.83,-72.97 915.24,-72.64 917.35,-79.31"/>
</a>
</g>
</g>
<!-- Node8 -->
<g id="Node000008" class="node">
<title>Node8</title>
<g id="a_Node000008"><a xlink:title=" ">
<polygon fill="#e0e0e0" stroke="#999999" points="617,-19 558,-19 558,0 617,0 617,-19"/>
<text text-anchor="middle" x="587.5" y="-7" font-family="Helvetica,sans-Serif" font-size="10.00">complex</text>
</a>
</g>
</g>
<!-- Node7&#45;&gt;Node8 -->
<g id="edge7_Node000007_Node000008" class="edge">
<title>Node7&#45;&gt;Node8</title>
<g id="a_edge7_Node000007_Node000008"><a xlink:title=" ">
<path fill="none" stroke="#63b8ff" d="M617.56,-54.75C612.52,-47.34 605.16,-36.5 598.99,-27.41"/>
<polygon fill="#63b8ff" stroke="#63b8ff" points="601.85,-25.39 593.33,-19.09 596.06,-29.33 601.85,-25.39"/>
</a>
</g>
</g>
<!-- Node9 -->
<g id="Node000009" class="node">
<title>Node9</title>
<g id="a_Node000009"><a xlink:title=" ">
<polygon fill="#e0e0e0" stroke="#999999" points="685.5,-19 635.5,-19 635.5,0 685.5,0 685.5,-19"/>
<text text-anchor="middle" x="660.5" y="-7" font-family="Helvetica,sans-Serif" font-size="10.00">cstdint</text>
</a>
</g>
</g>
<!-- Node7&#45;&gt;Node9 -->
<g id="edge8_Node000007_Node000009" class="edge">
<title>Node7&#45;&gt;Node9</title>
<g id="a_edge8_Node000007_Node000009"><a xlink:title=" ">
<path fill="none" stroke="#63b8ff" d="M629.61,-54.75C634.78,-47.34 642.35,-36.5 648.69,-27.41"/>
<polygon fill="#63b8ff" stroke="#63b8ff" points="651.65,-29.29 654.5,-19.09 645.91,-25.29 651.65,-29.29"/>
</a>
</g>
</g>
</g>
</svg>
