<?xml version="1.0" encoding="UTF-8" standalone="no"?>
<!DOCTYPE svg PUBLIC "-//W3C//DTD SVG 1.1//EN"
 "http://www.w3.org/Graphics/SVG/1.1/DTD/svg11.dtd">
<!-- Generated by graphviz version 2.43.0 (0)
 -->
<!-- Title: ezp::band_mat&lt; DT, IT &gt; Pages: 1 -->
<svg width="218pt" height="165pt"
 viewBox="0.00 0.00 217.50 165.00" xmlns="http://www.w3.org/2000/svg" xmlns:xlink="http://www.w3.org/1999/xlink">
<g id="graph0" class="graph" transform="scale(1 1) rotate(0) translate(4 161)">
<title>ezp::band_mat&lt; DT, IT &gt;</title>
<polygon fill="white" stroke="transparent" points="-4,4 -4,-161 213.5,-161 213.5,4 -4,4"/>
<!-- Node1 -->
<g id="node1" class="node">
<title>Node1</title>
<g id="a_node1"><a xlink:title=" ">
<polygon fill="#bfbfbf" stroke="black" points="0,-0.5 0,-19.5 140,-19.5 140,-0.5 0,-0.5"/>
<text text-anchor="middle" x="70" y="-7.5" font-family="Helvetica,sans-Serif" font-size="10.00">ezp::band_mat&lt; DT, IT &gt;</text>
</a>
</g>
</g>
<!-- Node2 -->
<g id="node2" class="node">
<title>Node2</title>
<g id="a_node2"><a xlink:href="../../d3/d46/structezp_1_1base__mat.html" target="_top" xlink:title=" ">
<polygon fill="white" stroke="black" points="70.5,-58.5 70.5,-77.5 209.5,-77.5 209.5,-58.5 70.5,-58.5"/>
<text text-anchor="middle" x="140" y="-65.5" font-family="Helvetica,sans-Serif" font-size="10.00">ezp::base_mat&lt; DT, IT &gt;</text>
</a>
</g>
</g>
<!-- Node2&#45;&gt;Node1 -->
<g id="edge1" class="edge">
<title>Node2&#45;&gt;Node1</title>
<path fill="none" stroke="midnightblue" d="M121.5,-52.2C108.5,-41.8 91.56,-28.25 80.73,-19.59"/>
<polygon fill="midnightblue" stroke="midnightblue" points="119.37,-54.98 129.37,-58.49 123.75,-49.51 119.37,-54.98"/>
</g>
<!-- Node3 -->
<g id="node3" class="node">
<title>Node3</title>
<g id="a_node3"><a xlink:title=" ">
<polygon fill="white" stroke="#bfbfbf" points="41.5,-137.5 41.5,-156.5 70.5,-156.5 70.5,-137.5 41.5,-137.5"/>
<text text-anchor="middle" x="56" y="-144.5" font-family="Helvetica,sans-Serif" font-size="10.00">IT</text>
</a>
</g>
</g>
<!-- Node3&#45;&gt;Node1 -->
<g id="edge4" class="edge">
<title>Node3&#45;&gt;Node1</title>
<path fill="none" stroke="#9a32cd" stroke-dasharray="5,2" d="M51.01,-127.43C46.91,-109.27 42.57,-80.93 48,-57 51.13,-43.19 58.94,-28.67 64.36,-19.73"/>
<polygon fill="#9a32cd" stroke="#9a32cd" points="47.65,-128.42 53.45,-137.29 54.45,-126.74 47.65,-128.42"/>
<text text-anchor="middle" x="54.5" y="-71" font-family="Helvetica,sans-Serif" font-size="10.00"> kl</text>
<text text-anchor="middle" x="54.5" y="-60" font-family="Helvetica,sans-Serif" font-size="10.00">ku</text>
</g>
<!-- Node3&#45;&gt;Node2 -->
<g id="edge2" class="edge">
<title>Node3&#45;&gt;Node2</title>
<path fill="none" stroke="#9a32cd" stroke-dasharray="5,2" d="M69.82,-129.3C78.35,-119.43 89.77,-106.96 101,-97 108.98,-89.92 118.73,-82.92 126.49,-77.69"/>
<polygon fill="#9a32cd" stroke="#9a32cd" points="66.94,-127.28 63.15,-137.17 72.28,-131.81 66.94,-127.28"/>
<text text-anchor="middle" x="118.5" y="-111" font-family="Helvetica,sans-Serif" font-size="10.00"> n_cols</text>
<text text-anchor="middle" x="118.5" y="-100" font-family="Helvetica,sans-Serif" font-size="10.00">n_rows</text>
</g>
<!-- Node4 -->
<g id="node4" class="node">
<title>Node4</title>
<g id="a_node4"><a xlink:title=" ">
<polygon fill="white" stroke="#bfbfbf" points="125,-137.5 125,-156.5 155,-156.5 155,-137.5 125,-137.5"/>
<text text-anchor="middle" x="140" y="-144.5" font-family="Helvetica,sans-Serif" font-size="10.00">DT</text>
</a>
</g>
</g>
<!-- Node4&#45;&gt;Node2 -->
<g id="edge3" class="edge">
<title>Node4&#45;&gt;Node2</title>
<path fill="none" stroke="#9a32cd" stroke-dasharray="5,2" d="M140,-127.31C140,-111.59 140,-89.81 140,-77.81"/>
<polygon fill="#9a32cd" stroke="#9a32cd" points="136.5,-127.47 140,-137.47 143.5,-127.47 136.5,-127.47"/>
<text text-anchor="middle" x="152.5" y="-105.5" font-family="Helvetica,sans-Serif" font-size="10.00"> data</text>
</g>
</g>
</svg>
