<?xml version="1.0" encoding="UTF-8" standalone="no"?>
<!DOCTYPE svg PUBLIC "-//W3C//DTD SVG 1.1//EN"
 "http://www.w3.org/Graphics/SVG/1.1/DTD/svg11.dtd">
<!-- Generated by graphviz version 2.43.0 (0)
 -->
<!-- Title: ezp::band_mat&lt; DT, IT &gt; Pages: 1 -->
<svg width="218pt" height="163pt"
 viewBox="0.00 0.00 217.50 163.00" xmlns="http://www.w3.org/2000/svg" xmlns:xlink="http://www.w3.org/1999/xlink">
<g id="graph0" class="graph" transform="scale(1 1) rotate(0) translate(4 159)">
<title>ezp::band_mat&lt; DT, IT &gt;</title>
<!-- Node1 -->
<g id="Node000001" class="node">
<title>Node1</title>
<g id="a_Node000001"><a xlink:title=" ">
<polygon fill="#999999" stroke="#666666" points="140,-19 0,-19 0,0 140,0 140,-19"/>
<text text-anchor="middle" x="70" y="-7" font-family="Helvetica,sans-Serif" font-size="10.00">ezp::band_mat&lt; DT, IT &gt;</text>
</a>
</g>
</g>
<!-- Node2 -->
<g id="Node000002" class="node">
<title>Node2</title>
<g id="a_Node000002"><a xlink:href="../../d3/d46/structezp_1_1base__mat.html" target="_top" xlink:title=" ">
<polygon fill="white" stroke="#bfbfbf" points="209.5,-76.5 70.5,-76.5 70.5,-57.5 209.5,-57.5 209.5,-76.5"/>
<text text-anchor="middle" x="140" y="-64.5" font-family="Helvetica,sans-Serif" font-size="10.00">ezp::base_mat&lt; DT, IT &gt;</text>
</a>
</g>
</g>
<!-- Node2&#45;&gt;Node1 -->
<g id="edge1_Node000001_Node000002" class="edge">
<title>Node2&#45;&gt;Node1</title>
<g id="a_edge1_Node000001_Node000002"><a xlink:title=" ">
<path fill="none" stroke="#63b8ff" d="M120.91,-50.86C108.13,-40.73 91.77,-27.76 81.09,-19.29"/>
<polygon fill="#63b8ff" stroke="#63b8ff" points="119.05,-53.86 129.06,-57.33 123.4,-48.37 119.05,-53.86"/>
</a>
</g>
</g>
<!-- Node3 -->
<g id="Node000003" class="node">
<title>Node3</title>
<g id="a_Node000003"><a xlink:title=" ">
<polygon fill="white" stroke="#bfbfbf" points="70.5,-155 41.5,-155 41.5,-136 70.5,-136 70.5,-155"/>
<text text-anchor="middle" x="56" y="-143" font-family="Helvetica,sans-Serif" font-size="10.00">IT</text>
</a>
</g>
</g>
<!-- Node3&#45;&gt;Node1 -->
<g id="edge4_Node000001_Node000003" class="edge">
<title>Node3&#45;&gt;Node1</title>
<g id="a_edge4_Node000001_Node000003"><a xlink:title=" ">
<path fill="none" stroke="#9a32cd" stroke-dasharray="5,2" d="M51,-126.03C46.89,-107.96 42.55,-79.79 48,-56 51.13,-42.32 58.94,-27.96 64.36,-19.12"/>
<polygon fill="#9a32cd" stroke="#9a32cd" points="47.63,-126.98 53.44,-135.84 54.42,-125.29 47.63,-126.98"/>
</a>
</g>
<text text-anchor="middle" x="54.5" y="-70" font-family="Helvetica,sans-Serif" font-size="10.00" fill="grey"> kl</text>
<text text-anchor="middle" x="54.5" y="-59" font-family="Helvetica,sans-Serif" font-size="10.00" fill="grey">ku</text>
</g>
<!-- Node3&#45;&gt;Node2 -->
<g id="edge2_Node000002_Node000003" class="edge">
<title>Node3&#45;&gt;Node2</title>
<g id="a_edge2_Node000002_Node000003"><a xlink:title=" ">
<path fill="none" stroke="#9a32cd" stroke-dasharray="5,2" d="M69.85,-127.98C78.38,-118.22 89.81,-105.87 101,-96 109,-88.94 118.75,-81.94 126.5,-76.71"/>
<polygon fill="#9a32cd" stroke="#9a32cd" points="67.02,-125.9 63.17,-135.77 72.33,-130.46 67.02,-125.9"/>
</a>
</g>
<text text-anchor="middle" x="118.5" y="-110" font-family="Helvetica,sans-Serif" font-size="10.00" fill="grey"> n_cols</text>
<text text-anchor="middle" x="118.5" y="-99" font-family="Helvetica,sans-Serif" font-size="10.00" fill="grey">n_rows</text>
</g>
<!-- Node4 -->
<g id="Node000004" class="node">
<title>Node4</title>
<g id="a_Node000004"><a xlink:title=" ">
<polygon fill="white" stroke="#bfbfbf" points="155,-155 125,-155 125,-136 155,-136 155,-155"/>
<text text-anchor="middle" x="140" y="-143" font-family="Helvetica,sans-Serif" font-size="10.00">DT</text>
</a>
</g>
</g>
<!-- Node4&#45;&gt;Node2 -->
<g id="edge3_Node000002_Node000004" class="edge">
<title>Node4&#45;&gt;Node2</title>
<g id="a_edge3_Node000002_Node000004"><a xlink:title=" ">
<path fill="none" stroke="#9a32cd" stroke-dasharray="5,2" d="M140,-125.6C140,-109.97 140,-88.49 140,-76.67"/>
<polygon fill="#9a32cd" stroke="#9a32cd" points="136.5,-125.72 140,-135.72 143.5,-125.72 136.5,-125.72"/>
</a>
</g>
<text text-anchor="middle" x="152.5" y="-104.5" font-family="Helvetica,sans-Serif" font-size="10.00" fill="grey"> data</text>
</g>
</g>
</svg>
