<?xml version="1.0" encoding="UTF-8" standalone="no"?>
<!DOCTYPE svg PUBLIC "-//W3C//DTD SVG 1.1//EN"
 "http://www.w3.org/Graphics/SVG/1.1/DTD/svg11.dtd">
<!-- Generated by graphviz version 2.43.0 (0)
 -->
<!-- Title: LIS_SOLVER_STRUCT Pages: 1 -->
<svg width="539pt" height="316pt"
 viewBox="0.00 0.00 539.14 316.00" xmlns="http://www.w3.org/2000/svg" xmlns:xlink="http://www.w3.org/1999/xlink">
<g id="graph0" class="graph" transform="scale(1 1) rotate(0) translate(4 312)">
<title>LIS_SOLVER_STRUCT</title>
<!-- Node1 -->
<g id="Node000001" class="node">
<title>Node1</title>
<g id="a_Node000001"><a xlink:title=" ">
<polygon fill="#999999" stroke="#666666" points="242.64,-108.5 124.64,-108.5 124.64,-89.5 242.64,-89.5 242.64,-108.5"/>
<text text-anchor="middle" x="183.64" y="-96.5" font-family="Helvetica,sans-Serif" font-size="10.00">LIS_SOLVER_STRUCT</text>
</a>
</g>
</g>
<!-- Node7 -->
<g id="Node000007" class="node">
<title>Node7</title>
<g id="a_Node000007"><a xlink:href="../../de/db7/structLIS__PRECON__STRUCT.html" target="_top" xlink:title=" ">
<polygon fill="white" stroke="#bfbfbf" points="290.14,-19 169.14,-19 169.14,0 290.14,0 290.14,-19"/>
<text text-anchor="middle" x="229.64" y="-7" font-family="Helvetica,sans-Serif" font-size="10.00">LIS_PRECON_STRUCT</text>
</a>
</g>
</g>
<!-- Node1&#45;&gt;Node7 -->
<g id="edge12_Node000007_Node000001" class="edge">
<title>Node1&#45;&gt;Node7</title>
<g id="a_edge12_Node000007_Node000001"><a xlink:title=" ">
<path fill="none" stroke="#9a32cd" stroke-dasharray="5,2" d="M195.1,-80.44C199.24,-73.82 203.83,-66.17 207.64,-59 214.85,-45.45 221.96,-29.08 226.07,-19.24"/>
<polygon fill="#9a32cd" stroke="#9a32cd" points="191.93,-78.89 189.5,-89.2 197.83,-82.66 191.93,-78.89"/>
</a>
</g>
<text text-anchor="middle" x="235.64" y="-45.5" font-family="Helvetica,sans-Serif" font-size="10.00" fill="grey"> solver</text>
</g>
<!-- Node2 -->
<g id="Node000002" class="node">
<title>Node2</title>
<g id="a_Node000002"><a xlink:href="../../d0/d39/structLIS__MATRIX__STRUCT.html" target="_top" xlink:title=" ">
<polygon fill="white" stroke="#bfbfbf" points="335.64,-231 217.64,-231 217.64,-212 335.64,-212 335.64,-231"/>
<text text-anchor="middle" x="276.64" y="-219" font-family="Helvetica,sans-Serif" font-size="10.00">LIS_MATRIX_STRUCT</text>
</a>
</g>
</g>
<!-- Node2&#45;&gt;Node1 -->
<g id="edge1_Node000001_Node000002" class="edge">
<title>Node2&#45;&gt;Node1</title>
<g id="a_edge1_Node000001_Node000002"><a xlink:title=" ">
<path fill="none" stroke="#9a32cd" stroke-dasharray="5,2" d="M260.96,-204.55C257.79,-201.14 254.54,-197.51 251.64,-194 226.73,-163.9 200.52,-125.44 189.29,-108.57"/>
<polygon fill="#9a32cd" stroke="#9a32cd" points="258.57,-207.11 268.01,-211.93 263.63,-202.28 258.57,-207.11"/>
</a>
</g>
<text text-anchor="middle" x="258.14" y="-169.5" font-family="Helvetica,sans-Serif" font-size="10.00" fill="grey"> A</text>
<text text-anchor="middle" x="258.14" y="-158.5" font-family="Helvetica,sans-Serif" font-size="10.00" fill="grey">Ah</text>
</g>
<!-- Node2&#45;&gt;Node7 -->
<g id="edge8_Node000007_Node000002" class="edge">
<title>Node2&#45;&gt;Node7</title>
<g id="a_edge8_Node000007_Node000002"><a xlink:title=" ">
<path fill="none" stroke="#9a32cd" stroke-dasharray="5,2" d="M278.58,-201.87C281.33,-167.4 283.41,-92.18 256.64,-37 253.26,-30.03 247.26,-23.85 241.77,-19.22"/>
<polygon fill="#9a32cd" stroke="#9a32cd" points="275.09,-201.63 277.66,-211.91 282.06,-202.27 275.09,-201.63"/>
</a>
</g>
<text text-anchor="middle" x="284.14" y="-102" font-family="Helvetica,sans-Serif" font-size="10.00" fill="grey"> A</text>
<text text-anchor="middle" x="284.14" y="-91" font-family="Helvetica,sans-Serif" font-size="10.00" fill="grey">Ah</text>
</g>
<!-- Node3 -->
<g id="Node000003" class="node">
<title>Node3</title>
<g id="a_Node000003"><a xlink:href="../../dc/d56/structLIS__MATRIX__CORE__STRUCT.html" target="_top" xlink:title=" ">
<polygon fill="white" stroke="#bfbfbf" points="330.64,-308 180.64,-308 180.64,-289 330.64,-289 330.64,-308"/>
<text text-anchor="middle" x="255.64" y="-296" font-family="Helvetica,sans-Serif" font-size="10.00">LIS_MATRIX_CORE_STRUCT</text>
</a>
</g>
</g>
<!-- Node3&#45;&gt;Node2 -->
<g id="edge2_Node000002_Node000003" class="edge">
<title>Node3&#45;&gt;Node2</title>
<g id="a_edge2_Node000002_Node000003"><a xlink:title=" ">
<path fill="none" stroke="#9a32cd" stroke-dasharray="5,2" d="M253.94,-278.94C253.71,-269.71 254.36,-258.52 257.64,-249 259.93,-242.36 264.46,-235.94 268.52,-231.08"/>
<polygon fill="#9a32cd" stroke="#9a32cd" points="250.45,-279.22 254.55,-288.99 257.44,-278.8 250.45,-279.22"/>
</a>
</g>
<text text-anchor="middle" x="262.14" y="-263" font-family="Helvetica,sans-Serif" font-size="10.00" fill="grey"> L</text>
<text text-anchor="middle" x="262.14" y="-252" font-family="Helvetica,sans-Serif" font-size="10.00" fill="grey">U</text>
</g>
<!-- Node4 -->
<g id="Node000004" class="node">
<title>Node4</title>
<g id="a_Node000004"><a xlink:href="../../dc/dff/structLIS__MATRIX__DIAG__STRUCT.html" target="_top" xlink:title=" ">
<polygon fill="white" stroke="#bfbfbf" points="162.64,-308 14.64,-308 14.64,-289 162.64,-289 162.64,-308"/>
<text text-anchor="middle" x="88.64" y="-296" font-family="Helvetica,sans-Serif" font-size="10.00">LIS_MATRIX_DIAG_STRUCT</text>
</a>
</g>
</g>
<!-- Node4&#45;&gt;Node1 -->
<g id="edge6_Node000001_Node000004" class="edge">
<title>Node4&#45;&gt;Node1</title>
<g id="a_edge6_Node000001_Node000004"><a xlink:title=" ">
<path fill="none" stroke="#9a32cd" stroke-dasharray="5,2" d="M107,-282.05C120.89,-269.52 139.59,-250.74 151.64,-231 176.65,-190.04 182.13,-130.67 183.31,-108.65"/>
<polygon fill="#9a32cd" stroke="#9a32cd" points="104.66,-279.45 99.45,-288.67 109.28,-284.71 104.66,-279.45"/>
</a>
</g>
<text text-anchor="middle" x="172.14" y="-219" font-family="Helvetica,sans-Serif" font-size="10.00" fill="grey"> WD</text>
</g>
<!-- Node4&#45;&gt;Node2 -->
<g id="edge3_Node000002_Node000004" class="edge">
<title>Node4&#45;&gt;Node2</title>
<g id="a_edge3_Node000002_Node000004"><a xlink:title=" ">
<path fill="none" stroke="#9a32cd" stroke-dasharray="5,2" d="M141.41,-286.56C157.5,-282.49 175.05,-277.3 190.64,-271 197.95,-268.05 239.18,-244.28 261.79,-231.15"/>
<polygon fill="#9a32cd" stroke="#9a32cd" points="140.5,-283.18 131.62,-288.95 142.16,-289.98 140.5,-283.18"/>
</a>
</g>
<text text-anchor="middle" x="239.64" y="-263" font-family="Helvetica,sans-Serif" font-size="10.00" fill="grey"> D</text>
<text text-anchor="middle" x="239.64" y="-252" font-family="Helvetica,sans-Serif" font-size="10.00" fill="grey">WD</text>
</g>
<!-- Node4&#45;&gt;Node7 -->
<g id="edge10_Node000007_Node000004" class="edge">
<title>Node4&#45;&gt;Node7</title>
<g id="a_edge10_Node000007_Node000004"><a xlink:title=" ">
<path fill="none" stroke="#9a32cd" stroke-dasharray="5,2" d="M64.01,-283.55C46.34,-272.02 23.91,-253.84 13.64,-231 -7.8,-183.33 -13.52,-221.5 71.64,-77 83.06,-57.62 83.57,-48.92 102.64,-37 122.31,-24.7 146.72,-18.01 168.86,-14.41"/>
<polygon fill="#9a32cd" stroke="#9a32cd" points="62.38,-286.67 72.72,-288.97 66.08,-280.72 62.38,-286.67"/>
</a>
</g>
<text text-anchor="middle" x="44.14" y="-164" font-family="Helvetica,sans-Serif" font-size="10.00" fill="grey"> WD</text>
</g>
<!-- Node5 -->
<g id="Node000005" class="node">
<title>Node5</title>
<g id="a_Node000005"><a xlink:href="../../d1/d04/structLIS__COMMTABLE__STRUCT.html" target="_top" xlink:title=" ">
<polygon fill="white" stroke="#bfbfbf" points="492.14,-308 349.14,-308 349.14,-289 492.14,-289 492.14,-308"/>
<text text-anchor="middle" x="420.64" y="-296" font-family="Helvetica,sans-Serif" font-size="10.00">LIS_COMMTABLE_STRUCT</text>
</a>
</g>
</g>
<!-- Node5&#45;&gt;Node2 -->
<g id="edge4_Node000002_Node000005" class="edge">
<title>Node5&#45;&gt;Node2</title>
<g id="a_edge4_Node000002_Node000005"><a xlink:title=" ">
<path fill="none" stroke="#9a32cd" stroke-dasharray="5,2" d="M339.07,-287.76C317.73,-283.72 298.49,-278.25 290.64,-271 279.44,-260.66 277,-241.97 276.58,-231.06"/>
<polygon fill="#9a32cd" stroke="#9a32cd" points="338.53,-291.22 348.99,-289.51 339.75,-284.33 338.53,-291.22"/>
</a>
</g>
<text text-anchor="middle" x="320.14" y="-257.5" font-family="Helvetica,sans-Serif" font-size="10.00" fill="grey"> commtable</text>
</g>
<!-- Node5&#45;&gt;Node7 -->
<g id="edge13_Node000007_Node000005" class="edge">
<title>Node5&#45;&gt;Node7</title>
<g id="a_edge13_Node000007_Node000005"><a xlink:title=" ">
<path fill="none" stroke="#9a32cd" stroke-dasharray="5,2" d="M414.32,-279.38C397.69,-233.83 348.84,-112.8 274.64,-37 267.41,-29.61 257.7,-23.55 249.14,-19.1"/>
<polygon fill="#9a32cd" stroke="#9a32cd" points="411.03,-280.58 417.69,-288.82 417.62,-278.22 411.03,-280.58"/>
</a>
</g>
<text text-anchor="middle" x="407.14" y="-164" font-family="Helvetica,sans-Serif" font-size="10.00" fill="grey"> commtable</text>
</g>
<!-- Node6 -->
<g id="Node000006" class="node">
<title>Node6</title>
<g id="a_Node000006"><a xlink:href="../../d0/d77/structLIS__VECTOR__STRUCT.html" target="_top" xlink:title=" ">
<polygon fill="white" stroke="#bfbfbf" points="142.64,-231 22.64,-231 22.64,-212 142.64,-212 142.64,-231"/>
<text text-anchor="middle" x="82.64" y="-219" font-family="Helvetica,sans-Serif" font-size="10.00">LIS_VECTOR_STRUCT</text>
</a>
</g>
</g>
<!-- Node6&#45;&gt;Node1 -->
<g id="edge5_Node000001_Node000006" class="edge">
<title>Node6&#45;&gt;Node1</title>
<g id="a_edge5_Node000001_Node000006"><a xlink:title=" ">
<path fill="none" stroke="#9a32cd" stroke-dasharray="5,2" d="M93.16,-203.04C103.85,-185.91 121.39,-159.47 139.64,-139 149.83,-127.57 163.18,-116.14 172.5,-108.64"/>
<polygon fill="#9a32cd" stroke="#9a32cd" points="89.95,-201.57 87.7,-211.93 95.92,-205.23 89.95,-201.57"/>
</a>
</g>
<text text-anchor="middle" x="152.14" y="-186" font-family="Helvetica,sans-Serif" font-size="10.00" fill="grey"> b</text>
<text text-anchor="middle" x="152.14" y="-175" font-family="Helvetica,sans-Serif" font-size="10.00" fill="grey">d</text>
<text text-anchor="middle" x="152.14" y="-164" font-family="Helvetica,sans-Serif" font-size="10.00" fill="grey">work</text>
<text text-anchor="middle" x="152.14" y="-153" font-family="Helvetica,sans-Serif" font-size="10.00" fill="grey">x</text>
<text text-anchor="middle" x="152.14" y="-142" font-family="Helvetica,sans-Serif" font-size="10.00" fill="grey">xx</text>
</g>
<!-- Node6&#45;&gt;Node7 -->
<g id="edge11_Node000007_Node000006" class="edge">
<title>Node6&#45;&gt;Node7</title>
<g id="a_edge11_Node000007_Node000006"><a xlink:title=" ">
<path fill="none" stroke="#9a32cd" stroke-dasharray="5,2" d="M78.18,-201.89C72.3,-172.78 65.35,-115.83 89.64,-77 109.91,-44.61 150.77,-27.69 183.14,-19.05"/>
<polygon fill="#9a32cd" stroke="#9a32cd" points="74.81,-202.88 80.38,-211.9 81.65,-201.38 74.81,-202.88"/>
</a>
</g>
<text text-anchor="middle" x="102.64" y="-113" font-family="Helvetica,sans-Serif" font-size="10.00" fill="grey"> D</text>
<text text-anchor="middle" x="102.64" y="-102" font-family="Helvetica,sans-Serif" font-size="10.00" fill="grey">Pb</text>
<text text-anchor="middle" x="102.64" y="-91" font-family="Helvetica,sans-Serif" font-size="10.00" fill="grey">temp</text>
<text text-anchor="middle" x="102.64" y="-80" font-family="Helvetica,sans-Serif" font-size="10.00" fill="grey">work</text>
</g>
<!-- Node7&#45;&gt;Node1 -->
<g id="edge7_Node000001_Node000007" class="edge">
<title>Node7&#45;&gt;Node1</title>
<g id="a_edge7_Node000001_Node000007"><a xlink:title=" ">
<path fill="none" stroke="#9a32cd" stroke-dasharray="5,2" d="M184.63,-23.77C179.1,-27.22 174.16,-31.56 170.64,-37 160.05,-53.36 170.78,-76.87 178.08,-89.39"/>
<polygon fill="#9a32cd" stroke="#9a32cd" points="186.45,-26.77 193.7,-19.04 183.21,-20.56 186.45,-26.77"/>
</a>
</g>
<text text-anchor="middle" x="189.14" y="-45.5" font-family="Helvetica,sans-Serif" font-size="10.00" fill="grey"> precon</text>
</g>
<!-- Node8 -->
<g id="Node000008" class="node">
<title>Node8</title>
<g id="a_Node000008"><a xlink:href="../../de/dbe/structLIS__MATRIX__ILU__STRUCT.html" target="_top" xlink:title=" ">
<polygon fill="white" stroke="#bfbfbf" points="531.14,-108.5 392.14,-108.5 392.14,-89.5 531.14,-89.5 531.14,-108.5"/>
<text text-anchor="middle" x="461.64" y="-96.5" font-family="Helvetica,sans-Serif" font-size="10.00">LIS_MATRIX_ILU_STRUCT</text>
</a>
</g>
</g>
<!-- Node8&#45;&gt;Node7 -->
<g id="edge9_Node000007_Node000008" class="edge">
<title>Node8&#45;&gt;Node7</title>
<g id="a_edge9_Node000007_Node000008"><a xlink:title=" ">
<path fill="none" stroke="#9a32cd" stroke-dasharray="5,2" d="M445.25,-82.58C429.27,-68.44 403.62,-48.07 377.64,-37 350.26,-25.34 317.92,-18.81 290.46,-15.15"/>
<polygon fill="#9a32cd" stroke="#9a32cd" points="442.93,-85.19 452.69,-89.32 447.63,-80.01 442.93,-85.19"/>
</a>
</g>
<text text-anchor="middle" x="418.14" y="-51" font-family="Helvetica,sans-Serif" font-size="10.00" fill="grey"> L</text>
<text text-anchor="middle" x="418.14" y="-40" font-family="Helvetica,sans-Serif" font-size="10.00" fill="grey">U</text>
</g>
</g>
</svg>
