<?xml version="1.0" encoding="UTF-8" standalone="no"?>
<!DOCTYPE svg PUBLIC "-//W3C//DTD SVG 1.1//EN"
 "http://www.w3.org/Graphics/SVG/1.1/DTD/svg11.dtd">
<!-- Generated by graphviz version 2.43.0 (0)
 -->
<!-- Title: LIS_SOLVER_STRUCT Pages: 1 -->
<svg width="664pt" height="319pt"
 viewBox="0.00 0.00 664.00 319.00" xmlns="http://www.w3.org/2000/svg" xmlns:xlink="http://www.w3.org/1999/xlink">
<g id="graph0" class="graph" transform="scale(1 1) rotate(0) translate(4 315)">
<title>LIS_SOLVER_STRUCT</title>
<polygon fill="white" stroke="transparent" points="-4,4 -4,-315 660,-315 660,4 -4,4"/>
<!-- Node1 -->
<g id="node1" class="node">
<title>Node1</title>
<g id="a_node1"><a xlink:title=" ">
<polygon fill="#bfbfbf" stroke="black" points="242.5,-90.5 242.5,-109.5 360.5,-109.5 360.5,-90.5 242.5,-90.5"/>
<text text-anchor="middle" x="301.5" y="-97.5" font-family="Helvetica,sans-Serif" font-size="10.00">LIS_SOLVER_STRUCT</text>
</a>
</g>
</g>
<!-- Node2 -->
<g id="node2" class="node">
<title>Node2</title>
<g id="a_node2"><a xlink:href="../../de/db7/structLIS__PRECON__STRUCT.html" target="_top" xlink:title=" ">
<polygon fill="white" stroke="black" points="291,-0.5 291,-19.5 412,-19.5 412,-0.5 291,-0.5"/>
<text text-anchor="middle" x="351.5" y="-7.5" font-family="Helvetica,sans-Serif" font-size="10.00">LIS_PRECON_STRUCT</text>
</a>
</g>
</g>
<!-- Node1&#45;&gt;Node2 -->
<g id="edge2" class="edge">
<title>Node1&#45;&gt;Node2</title>
<path fill="none" stroke="#9a32cd" stroke-dasharray="5,2" d="M314.75,-82.12C319.69,-75.43 325.15,-67.55 329.5,-60 337.32,-46.42 344.35,-29.56 348.26,-19.58"/>
<polygon fill="#9a32cd" stroke="#9a32cd" points="311.75,-80.28 308.48,-90.36 317.32,-84.52 311.75,-80.28"/>
<text text-anchor="middle" x="357.5" y="-46.5" font-family="Helvetica,sans-Serif" font-size="10.00"> solver</text>
</g>
<!-- Node2&#45;&gt;Node1 -->
<g id="edge1" class="edge">
<title>Node2&#45;&gt;Node1</title>
<path fill="none" stroke="#9a32cd" stroke-dasharray="5,2" d="M307.26,-24.16C301.41,-27.74 296.18,-32.27 292.5,-38 282.09,-54.21 290.77,-77.78 296.84,-90.35"/>
<polygon fill="#9a32cd" stroke="#9a32cd" points="308.87,-27.27 316.16,-19.57 305.67,-21.05 308.87,-27.27"/>
<text text-anchor="middle" x="311" y="-46.5" font-family="Helvetica,sans-Serif" font-size="10.00"> precon</text>
</g>
<!-- Node3 -->
<g id="node3" class="node">
<title>Node3</title>
<g id="a_node3"><a xlink:href="../../d1/d04/structLIS__COMMTABLE__STRUCT.html" target="_top" xlink:title=" ">
<polygon fill="white" stroke="black" points="0,-291.5 0,-310.5 143,-310.5 143,-291.5 0,-291.5"/>
<text text-anchor="middle" x="71.5" y="-298.5" font-family="Helvetica,sans-Serif" font-size="10.00">LIS_COMMTABLE_STRUCT</text>
</a>
</g>
</g>
<!-- Node3&#45;&gt;Node2 -->
<g id="edge3" class="edge">
<title>Node3&#45;&gt;Node2</title>
<path fill="none" stroke="#9a32cd" stroke-dasharray="5,2" d="M76.26,-281.53C90.27,-231.53 136.49,-93.57 232.5,-38 250.1,-27.81 271.24,-21.47 290.78,-17.52"/>
<polygon fill="#9a32cd" stroke="#9a32cd" points="72.86,-280.73 73.63,-291.29 79.62,-282.55 72.86,-280.73"/>
<text text-anchor="middle" x="165" y="-165" font-family="Helvetica,sans-Serif" font-size="10.00"> commtable</text>
</g>
<!-- Node6 -->
<g id="node6" class="node">
<title>Node6</title>
<g id="a_node6"><a xlink:href="../../d0/d39/structLIS__MATRIX__STRUCT.html" target="_top" xlink:title=" ">
<polygon fill="white" stroke="black" points="147.5,-213.5 147.5,-232.5 265.5,-232.5 265.5,-213.5 147.5,-213.5"/>
<text text-anchor="middle" x="206.5" y="-220.5" font-family="Helvetica,sans-Serif" font-size="10.00">LIS_MATRIX_STRUCT</text>
</a>
</g>
</g>
<!-- Node3&#45;&gt;Node6 -->
<g id="edge7" class="edge">
<title>Node3&#45;&gt;Node6</title>
<path fill="none" stroke="#9a32cd" stroke-dasharray="5,2" d="M94.26,-286.38C111.08,-276.4 134.58,-262.63 155.5,-251 166.88,-244.67 179.86,-237.81 189.87,-232.58"/>
<polygon fill="#9a32cd" stroke="#9a32cd" points="92.47,-283.38 85.67,-291.5 96.05,-289.39 92.47,-283.38"/>
<text text-anchor="middle" x="185" y="-259.5" font-family="Helvetica,sans-Serif" font-size="10.00"> commtable</text>
</g>
<!-- Node4 -->
<g id="node4" class="node">
<title>Node4</title>
<g id="a_node4"><a xlink:href="../../d0/d77/structLIS__VECTOR__STRUCT.html" target="_top" xlink:title=" ">
<polygon fill="white" stroke="black" points="340.5,-213.5 340.5,-232.5 460.5,-232.5 460.5,-213.5 340.5,-213.5"/>
<text text-anchor="middle" x="400.5" y="-220.5" font-family="Helvetica,sans-Serif" font-size="10.00">LIS_VECTOR_STRUCT</text>
</a>
</g>
</g>
<!-- Node4&#45;&gt;Node1 -->
<g id="edge12" class="edge">
<title>Node4&#45;&gt;Node1</title>
<path fill="none" stroke="#9a32cd" stroke-dasharray="5,2" d="M376.65,-207.72C371.34,-203.96 365.97,-199.64 361.5,-195 335.17,-167.67 313.99,-127.09 305.5,-109.57"/>
<polygon fill="#9a32cd" stroke="#9a32cd" points="375.09,-210.89 385.36,-213.5 378.96,-205.06 375.09,-210.89"/>
<text text-anchor="middle" x="374" y="-187" font-family="Helvetica,sans-Serif" font-size="10.00"> b</text>
<text text-anchor="middle" x="374" y="-176" font-family="Helvetica,sans-Serif" font-size="10.00">d</text>
<text text-anchor="middle" x="374" y="-165" font-family="Helvetica,sans-Serif" font-size="10.00">work</text>
<text text-anchor="middle" x="374" y="-154" font-family="Helvetica,sans-Serif" font-size="10.00">x</text>
<text text-anchor="middle" x="374" y="-143" font-family="Helvetica,sans-Serif" font-size="10.00">xx</text>
</g>
<!-- Node4&#45;&gt;Node2 -->
<g id="edge4" class="edge">
<title>Node4&#45;&gt;Node2</title>
<path fill="none" stroke="#9a32cd" stroke-dasharray="5,2" d="M402.15,-203.33C404.38,-168.78 405.4,-93.38 378.5,-38 375.02,-30.84 368.87,-24.46 363.32,-19.71"/>
<polygon fill="#9a32cd" stroke="#9a32cd" points="398.65,-203.15 401.38,-213.39 405.63,-203.68 398.65,-203.15"/>
<text text-anchor="middle" x="413.5" y="-114" font-family="Helvetica,sans-Serif" font-size="10.00"> D</text>
<text text-anchor="middle" x="413.5" y="-103" font-family="Helvetica,sans-Serif" font-size="10.00">Pb</text>
<text text-anchor="middle" x="413.5" y="-92" font-family="Helvetica,sans-Serif" font-size="10.00">temp</text>
<text text-anchor="middle" x="413.5" y="-81" font-family="Helvetica,sans-Serif" font-size="10.00">work</text>
</g>
<!-- Node5 -->
<g id="node5" class="node">
<title>Node5</title>
<g id="a_node5"><a xlink:href="../../dc/dff/structLIS__MATRIX__DIAG__STRUCT.html" target="_top" xlink:title=" ">
<polygon fill="white" stroke="black" points="329.5,-291.5 329.5,-310.5 477.5,-310.5 477.5,-291.5 329.5,-291.5"/>
<text text-anchor="middle" x="403.5" y="-298.5" font-family="Helvetica,sans-Serif" font-size="10.00">LIS_MATRIX_DIAG_STRUCT</text>
</a>
</g>
</g>
<!-- Node5&#45;&gt;Node1 -->
<g id="edge11" class="edge">
<title>Node5&#45;&gt;Node1</title>
<path fill="none" stroke="#9a32cd" stroke-dasharray="5,2" d="M373.55,-287.07C352,-276.05 324.39,-258 310.5,-233 287.62,-191.84 295.61,-131.96 299.71,-109.73"/>
<polygon fill="#9a32cd" stroke="#9a32cd" points="372.12,-290.27 382.65,-291.5 375.19,-283.98 372.12,-290.27"/>
<text text-anchor="middle" x="321" y="-220.5" font-family="Helvetica,sans-Serif" font-size="10.00"> WD</text>
</g>
<!-- Node5&#45;&gt;Node2 -->
<g id="edge5" class="edge">
<title>Node5&#45;&gt;Node2</title>
<path fill="none" stroke="#9a32cd" stroke-dasharray="5,2" d="M424.86,-285.52C440.51,-273.52 460.51,-254.93 469.5,-233 472.87,-224.78 470.75,-221.8 469.5,-213 460.75,-151.16 460.05,-133.02 430.5,-78 419.46,-57.44 414.29,-53.09 396.5,-38 388.02,-30.81 377.41,-24.34 368.61,-19.54"/>
<polygon fill="#9a32cd" stroke="#9a32cd" points="422.71,-282.75 416.71,-291.49 426.85,-288.4 422.71,-282.75"/>
<text text-anchor="middle" x="477" y="-165" font-family="Helvetica,sans-Serif" font-size="10.00"> WD</text>
</g>
<!-- Node5&#45;&gt;Node6 -->
<g id="edge8" class="edge">
<title>Node5&#45;&gt;Node6</title>
<path fill="none" stroke="#9a32cd" stroke-dasharray="5,2" d="M319.92,-289.36C302.78,-285.48 285.19,-280.19 269.5,-273 263.67,-270.33 233.37,-245.93 217.01,-232.6"/>
<polygon fill="#9a32cd" stroke="#9a32cd" points="319.44,-292.84 329.95,-291.49 320.89,-285.99 319.44,-292.84"/>
<text text-anchor="middle" x="278.5" y="-265" font-family="Helvetica,sans-Serif" font-size="10.00"> D</text>
<text text-anchor="middle" x="278.5" y="-254" font-family="Helvetica,sans-Serif" font-size="10.00">WD</text>
</g>
<!-- Node6&#45;&gt;Node1 -->
<g id="edge13" class="edge">
<title>Node6&#45;&gt;Node1</title>
<path fill="none" stroke="#9a32cd" stroke-dasharray="5,2" d="M219.77,-205.09C240.33,-178.91 279.11,-129.52 294.73,-109.62"/>
<polygon fill="#9a32cd" stroke="#9a32cd" points="216.75,-203.27 213.33,-213.3 222.26,-207.59 216.75,-203.27"/>
<text text-anchor="middle" x="278" y="-170.5" font-family="Helvetica,sans-Serif" font-size="10.00"> A</text>
<text text-anchor="middle" x="278" y="-159.5" font-family="Helvetica,sans-Serif" font-size="10.00">Ah</text>
</g>
<!-- Node6&#45;&gt;Node2 -->
<g id="edge6" class="edge">
<title>Node6&#45;&gt;Node2</title>
<path fill="none" stroke="#9a32cd" stroke-dasharray="5,2" d="M203.4,-203.38C199.56,-174.26 196.21,-117.21 220.5,-78 240.41,-45.86 281.08,-28.49 311.86,-19.55"/>
<polygon fill="#9a32cd" stroke="#9a32cd" points="199.96,-204.02 204.89,-213.4 206.88,-202.99 199.96,-204.02"/>
<text text-anchor="middle" x="227" y="-103" font-family="Helvetica,sans-Serif" font-size="10.00"> A</text>
<text text-anchor="middle" x="227" y="-92" font-family="Helvetica,sans-Serif" font-size="10.00">Ah</text>
</g>
<!-- Node7 -->
<g id="node7" class="node">
<title>Node7</title>
<g id="a_node7"><a xlink:href="../../dc/d56/structLIS__MATRIX__CORE__STRUCT.html" target="_top" xlink:title=" ">
<polygon fill="white" stroke="black" points="161.5,-291.5 161.5,-310.5 311.5,-310.5 311.5,-291.5 161.5,-291.5"/>
<text text-anchor="middle" x="236.5" y="-298.5" font-family="Helvetica,sans-Serif" font-size="10.00">LIS_MATRIX_CORE_STRUCT</text>
</a>
</g>
</g>
<!-- Node7&#45;&gt;Node6 -->
<g id="edge9" class="edge">
<title>Node7&#45;&gt;Node6</title>
<path fill="none" stroke="#9a32cd" stroke-dasharray="5,2" d="M229.27,-281.67C223.12,-266.11 214.58,-244.47 209.9,-232.62"/>
<polygon fill="#9a32cd" stroke="#9a32cd" points="226.13,-283.27 233.06,-291.28 232.64,-280.7 226.13,-283.27"/>
<text text-anchor="middle" x="230" y="-265" font-family="Helvetica,sans-Serif" font-size="10.00"> L</text>
<text text-anchor="middle" x="230" y="-254" font-family="Helvetica,sans-Serif" font-size="10.00">U</text>
</g>
<!-- Node8 -->
<g id="node8" class="node">
<title>Node8</title>
<g id="a_node8"><a xlink:href="../../de/dbe/structLIS__MATRIX__ILU__STRUCT.html" target="_top" xlink:title=" ">
<polygon fill="white" stroke="black" points="517,-90.5 517,-109.5 656,-109.5 656,-90.5 517,-90.5"/>
<text text-anchor="middle" x="586.5" y="-97.5" font-family="Helvetica,sans-Serif" font-size="10.00">LIS_MATRIX_ILU_STRUCT</text>
</a>
</g>
</g>
<!-- Node8&#45;&gt;Node2 -->
<g id="edge10" class="edge">
<title>Node8&#45;&gt;Node2</title>
<path fill="none" stroke="#9a32cd" stroke-dasharray="5,2" d="M570.11,-83.58C554.13,-69.43 528.48,-49.06 502.5,-38 474.08,-25.9 440.41,-19.22 412.08,-15.54"/>
<polygon fill="#9a32cd" stroke="#9a32cd" points="567.79,-86.19 577.54,-90.32 572.49,-81.01 567.79,-86.19"/>
<text text-anchor="middle" x="543" y="-52" font-family="Helvetica,sans-Serif" font-size="10.00"> L</text>
<text text-anchor="middle" x="543" y="-41" font-family="Helvetica,sans-Serif" font-size="10.00">U</text>
</g>
</g>
</svg>
