<?xml version="1.0" encoding="UTF-8" standalone="no"?>
<!DOCTYPE svg PUBLIC "-//W3C//DTD SVG 1.1//EN"
 "http://www.w3.org/Graphics/SVG/1.1/DTD/svg11.dtd">
<!-- Generated by graphviz version 2.43.0 (0)
 -->
<!-- Title: examples/example.pgesv.cpp Pages: 1 -->
<svg width="391pt" height="302pt"
 viewBox="0.00 0.00 390.50 302.00" xmlns="http://www.w3.org/2000/svg" xmlns:xlink="http://www.w3.org/1999/xlink">
<g id="graph0" class="graph" transform="scale(1 1) rotate(0) translate(4 298)">
<title>examples/example.pgesv.cpp</title>
<!-- Node1 -->
<g id="Node000001" class="node">
<title>Node1</title>
<g id="a_Node000001"><a xlink:title="Example caller to the pgesv solver.">
<polygon fill="#999999" stroke="#666666" points="357.5,-294 195.5,-294 195.5,-275 357.5,-275 357.5,-294"/>
<text text-anchor="middle" x="276.5" y="-282" font-family="Helvetica,sans-Serif" font-size="10.00">examples/example.pgesv.cpp</text>
</a>
</g>
</g>
<!-- Node2 -->
<g id="Node000002" class="node">
<title>Node2</title>
<g id="a_Node000002"><a xlink:href="../../df/d21/pgesv_8hpp.html" target="_top" xlink:title=" ">
<polygon fill="white" stroke="#666666" points="230.5,-239 144.5,-239 144.5,-220 230.5,-220 230.5,-239"/>
<text text-anchor="middle" x="187.5" y="-227" font-family="Helvetica,sans-Serif" font-size="10.00">ezp/pgesv.hpp</text>
</a>
</g>
</g>
<!-- Node1&#45;&gt;Node2 -->
<g id="edge1_Node000001_Node000002" class="edge">
<title>Node1&#45;&gt;Node2</title>
<g id="a_edge1_Node000001_Node000002"><a xlink:title=" ">
<path fill="none" stroke="#63b8ff" d="M262.2,-274.98C248.4,-266.77 227.26,-254.18 210.99,-244.49"/>
<polygon fill="#63b8ff" stroke="#63b8ff" points="212.44,-241.28 202.06,-239.17 208.86,-247.29 212.44,-241.28"/>
</a>
</g>
</g>
<!-- Node12 -->
<g id="Node000012" class="node">
<title>Node12</title>
<g id="a_Node000012"><a xlink:title=" ">
<polygon fill="#e0e0e0" stroke="#999999" points="304.5,-239 248.5,-239 248.5,-220 304.5,-220 304.5,-239"/>
<text text-anchor="middle" x="276.5" y="-227" font-family="Helvetica,sans-Serif" font-size="10.00">iomanip</text>
</a>
</g>
</g>
<!-- Node1&#45;&gt;Node12 -->
<g id="edge11_Node000001_Node000012" class="edge">
<title>Node1&#45;&gt;Node12</title>
<g id="a_edge11_Node000001_Node000012"><a xlink:title=" ">
<path fill="none" stroke="#63b8ff" d="M276.5,-274.75C276.5,-267.8 276.5,-257.85 276.5,-249.13"/>
<polygon fill="#63b8ff" stroke="#63b8ff" points="280,-249.09 276.5,-239.09 273,-249.09 280,-249.09"/>
</a>
</g>
</g>
<!-- Node13 -->
<g id="Node000013" class="node">
<title>Node13</title>
<g id="a_Node000013"><a xlink:title=" ">
<polygon fill="#e0e0e0" stroke="#999999" points="382.5,-239 322.5,-239 322.5,-220 382.5,-220 382.5,-239"/>
<text text-anchor="middle" x="352.5" y="-227" font-family="Helvetica,sans-Serif" font-size="10.00">iostream</text>
</a>
</g>
</g>
<!-- Node1&#45;&gt;Node13 -->
<g id="edge12_Node000001_Node000013" class="edge">
<title>Node1&#45;&gt;Node13</title>
<g id="a_edge12_Node000001_Node000013"><a xlink:title=" ">
<path fill="none" stroke="#63b8ff" d="M288.71,-274.98C300.28,-266.92 317.88,-254.65 331.66,-245.03"/>
<polygon fill="#63b8ff" stroke="#63b8ff" points="333.87,-247.76 340.07,-239.17 329.86,-242.02 333.87,-247.76"/>
</a>
</g>
</g>
<!-- Node3 -->
<g id="Node000003" class="node">
<title>Node3</title>
<g id="a_Node000003"><a xlink:href="../../d0/dec/full__solver_8hpp_source.html" target="_top" xlink:title=" ">
<polygon fill="white" stroke="#666666" points="253,-184 122,-184 122,-165 253,-165 253,-184"/>
<text text-anchor="middle" x="187.5" y="-172" font-family="Helvetica,sans-Serif" font-size="10.00">abstract/full_solver.hpp</text>
</a>
</g>
</g>
<!-- Node2&#45;&gt;Node3 -->
<g id="edge2_Node000002_Node000003" class="edge">
<title>Node2&#45;&gt;Node3</title>
<g id="a_edge2_Node000002_Node000003"><a xlink:title=" ">
<path fill="none" stroke="#63b8ff" d="M187.5,-219.75C187.5,-212.8 187.5,-202.85 187.5,-194.13"/>
<polygon fill="#63b8ff" stroke="#63b8ff" points="191,-194.09 187.5,-184.09 184,-194.09 191,-194.09"/>
</a>
</g>
</g>
<!-- Node4 -->
<g id="Node000004" class="node">
<title>Node4</title>
<g id="a_Node000004"><a xlink:href="../../dc/ddc/abstract__solver_8hpp_source.html" target="_top" xlink:title=" ">
<polygon fill="white" stroke="#666666" points="243.5,-129 131.5,-129 131.5,-110 243.5,-110 243.5,-129"/>
<text text-anchor="middle" x="187.5" y="-117" font-family="Helvetica,sans-Serif" font-size="10.00">abstract_solver.hpp</text>
</a>
</g>
</g>
<!-- Node3&#45;&gt;Node4 -->
<g id="edge3_Node000003_Node000004" class="edge">
<title>Node3&#45;&gt;Node4</title>
<g id="a_edge3_Node000003_Node000004"><a xlink:title=" ">
<path fill="none" stroke="#63b8ff" d="M187.5,-164.75C187.5,-157.8 187.5,-147.85 187.5,-139.13"/>
<polygon fill="#63b8ff" stroke="#63b8ff" points="191,-139.09 187.5,-129.09 184,-139.09 191,-139.09"/>
</a>
</g>
</g>
<!-- Node5 -->
<g id="Node000005" class="node">
<title>Node5</title>
<g id="a_Node000005"><a xlink:href="../../d1/d4c/ezp_8h_source.html" target="_top" xlink:title=" ">
<polygon fill="white" stroke="#666666" points="51,-74 8,-74 8,-55 51,-55 51,-74"/>
<text text-anchor="middle" x="29.5" y="-62" font-family="Helvetica,sans-Serif" font-size="10.00">ezp.h</text>
</a>
</g>
</g>
<!-- Node4&#45;&gt;Node5 -->
<g id="edge4_Node000004_Node000005" class="edge">
<title>Node4&#45;&gt;Node5</title>
<g id="a_edge4_Node000004_Node000005"><a xlink:title=" ">
<path fill="none" stroke="#63b8ff" d="M162.11,-109.98C134.65,-100.77 90.81,-86.07 61.12,-76.11"/>
<polygon fill="#63b8ff" stroke="#63b8ff" points="61.86,-72.66 51.26,-72.8 59.63,-79.3 61.86,-72.66"/>
</a>
</g>
</g>
<!-- Node7 -->
<g id="Node000007" class="node">
<title>Node7</title>
<g id="a_Node000007"><a xlink:title=" ">
<polygon fill="#e0e0e0" stroke="#999999" points="111.5,-74 69.5,-74 69.5,-55 111.5,-55 111.5,-74"/>
<text text-anchor="middle" x="90.5" y="-62" font-family="Helvetica,sans-Serif" font-size="10.00">array</text>
</a>
</g>
</g>
<!-- Node4&#45;&gt;Node7 -->
<g id="edge6_Node000004_Node000007" class="edge">
<title>Node4&#45;&gt;Node7</title>
<g id="a_edge6_Node000004_Node000007"><a xlink:title=" ">
<path fill="none" stroke="#63b8ff" d="M171.92,-109.98C156.73,-101.69 133.4,-88.94 115.6,-79.22"/>
<polygon fill="#63b8ff" stroke="#63b8ff" points="116.82,-75.89 106.37,-74.17 113.47,-82.04 116.82,-75.89"/>
</a>
</g>
</g>
<!-- Node8 -->
<g id="Node000008" class="node">
<title>Node8</title>
<g id="a_Node000008"><a xlink:title=" ">
<polygon fill="#e0e0e0" stroke="#999999" points="179.5,-74 129.5,-74 129.5,-55 179.5,-55 179.5,-74"/>
<text text-anchor="middle" x="154.5" y="-62" font-family="Helvetica,sans-Serif" font-size="10.00">atomic</text>
</a>
</g>
</g>
<!-- Node4&#45;&gt;Node8 -->
<g id="edge7_Node000004_Node000008" class="edge">
<title>Node4&#45;&gt;Node8</title>
<g id="a_edge7_Node000004_Node000008"><a xlink:title=" ">
<path fill="none" stroke="#63b8ff" d="M182.05,-109.75C177.49,-102.42 170.83,-91.73 165.21,-82.7"/>
<polygon fill="#63b8ff" stroke="#63b8ff" points="168.1,-80.73 159.85,-74.09 162.16,-84.43 168.1,-80.73"/>
</a>
</g>
</g>
<!-- Node9 -->
<g id="Node000009" class="node">
<title>Node9</title>
<g id="a_Node000009"><a xlink:title=" ">
<polygon fill="#e0e0e0" stroke="#999999" points="245,-74 198,-74 198,-55 245,-55 245,-74"/>
<text text-anchor="middle" x="221.5" y="-62" font-family="Helvetica,sans-Serif" font-size="10.00">cmath</text>
</a>
</g>
</g>
<!-- Node4&#45;&gt;Node9 -->
<g id="edge8_Node000004_Node000009" class="edge">
<title>Node4&#45;&gt;Node9</title>
<g id="a_edge8_Node000004_Node000009"><a xlink:title=" ">
<path fill="none" stroke="#63b8ff" d="M193.11,-109.75C197.82,-102.42 204.67,-91.73 210.47,-82.7"/>
<polygon fill="#63b8ff" stroke="#63b8ff" points="213.54,-84.4 215.99,-74.09 207.64,-80.62 213.54,-84.4"/>
</a>
</g>
</g>
<!-- Node10 -->
<g id="Node000010" class="node">
<title>Node10</title>
<g id="a_Node000010"><a xlink:title=" ">
<polygon fill="#e0e0e0" stroke="#999999" points="313.5,-74 263.5,-74 263.5,-55 313.5,-55 313.5,-74"/>
<text text-anchor="middle" x="288.5" y="-62" font-family="Helvetica,sans-Serif" font-size="10.00">ranges</text>
</a>
</g>
</g>
<!-- Node4&#45;&gt;Node10 -->
<g id="edge9_Node000004_Node000010" class="edge">
<title>Node4&#45;&gt;Node10</title>
<g id="a_edge9_Node000004_Node000010"><a xlink:title=" ">
<path fill="none" stroke="#63b8ff" d="M203.73,-109.98C219.68,-101.61 244.28,-88.7 262.88,-78.95"/>
<polygon fill="#63b8ff" stroke="#63b8ff" points="264.75,-81.92 271.98,-74.17 261.5,-75.72 264.75,-81.92"/>
</a>
</g>
</g>
<!-- Node11 -->
<g id="Node000011" class="node">
<title>Node11</title>
<g id="a_Node000011"><a xlink:title=" ">
<polygon fill="#e0e0e0" stroke="#999999" points="379,-74 332,-74 332,-55 379,-55 379,-74"/>
<text text-anchor="middle" x="355.5" y="-62" font-family="Helvetica,sans-Serif" font-size="10.00">vector</text>
</a>
</g>
</g>
<!-- Node4&#45;&gt;Node11 -->
<g id="edge10_Node000004_Node000011" class="edge">
<title>Node4&#45;&gt;Node11</title>
<g id="a_edge10_Node000004_Node000011"><a xlink:title=" ">
<path fill="none" stroke="#63b8ff" d="M214.49,-109.98C243.79,-100.74 290.59,-85.98 322.16,-76.02"/>
<polygon fill="#63b8ff" stroke="#63b8ff" points="323.35,-79.31 331.83,-72.97 321.24,-72.64 323.35,-79.31"/>
</a>
</g>
</g>
<!-- Node6 -->
<g id="Node000006" class="node">
<title>Node6</title>
<g id="a_Node000006"><a xlink:title=" ">
<polygon fill="#e0e0e0" stroke="#999999" points="59,-19 0,-19 0,0 59,0 59,-19"/>
<text text-anchor="middle" x="29.5" y="-7" font-family="Helvetica,sans-Serif" font-size="10.00">complex</text>
</a>
</g>
</g>
<!-- Node5&#45;&gt;Node6 -->
<g id="edge5_Node000005_Node000006" class="edge">
<title>Node5&#45;&gt;Node6</title>
<g id="a_edge5_Node000005_Node000006"><a xlink:title=" ">
<path fill="none" stroke="#63b8ff" d="M29.5,-54.75C29.5,-47.8 29.5,-37.85 29.5,-29.13"/>
<polygon fill="#63b8ff" stroke="#63b8ff" points="33,-29.09 29.5,-19.09 26,-29.09 33,-29.09"/>
</a>
</g>
</g>
</g>
</svg>
