<?xml version="1.0" encoding="UTF-8" standalone="no"?>
<!DOCTYPE svg PUBLIC "-//W3C//DTD SVG 1.1//EN"
 "http://www.w3.org/Graphics/SVG/1.1/DTD/svg11.dtd">
<!-- Generated by graphviz version 2.43.0 (0)
 -->
<!-- Title: examples/example.pposvx.cpp Pages: 1 -->
<svg width="487pt" height="364pt"
 viewBox="0.00 0.00 486.50 364.00" xmlns="http://www.w3.org/2000/svg" xmlns:xlink="http://www.w3.org/1999/xlink">
<g id="graph0" class="graph" transform="scale(1 1) rotate(0) translate(4 360)">
<title>examples/example.pposvx.cpp</title>
<polygon fill="white" stroke="transparent" points="-4,4 -4,-360 482.5,-360 482.5,4 -4,4"/>
<!-- Node1 -->
<g id="node1" class="node">
<title>Node1</title>
<g id="a_node1"><a xlink:title="Example caller to the pposvx solver.">
<polygon fill="#bfbfbf" stroke="black" points="288,-336.5 288,-355.5 457,-355.5 457,-336.5 288,-336.5"/>
<text text-anchor="middle" x="372.5" y="-343.5" font-family="Helvetica,sans-Serif" font-size="10.00">examples/example.pposvx.cpp</text>
</a>
</g>
</g>
<!-- Node2 -->
<g id="node2" class="node">
<title>Node2</title>
<g id="a_node2"><a xlink:href="../../d5/d33/pposvx_8hpp.html" target="_top" xlink:title=" ">
<polygon fill="white" stroke="black" points="233,-280.5 233,-299.5 326,-299.5 326,-280.5 233,-280.5"/>
<text text-anchor="middle" x="279.5" y="-287.5" font-family="Helvetica,sans-Serif" font-size="10.00">ezp/pposvx.hpp</text>
</a>
</g>
</g>
<!-- Node1&#45;&gt;Node2 -->
<g id="edge1" class="edge">
<title>Node1&#45;&gt;Node2</title>
<path fill="none" stroke="midnightblue" d="M357.56,-336.32C342.91,-327.82 320.37,-314.73 303.26,-304.8"/>
<polygon fill="midnightblue" stroke="midnightblue" points="304.81,-301.65 294.4,-299.65 301.3,-307.7 304.81,-301.65"/>
</g>
<!-- Node15 -->
<g id="node15" class="node">
<title>Node15</title>
<g id="a_node15"><a xlink:title=" ">
<polygon fill="white" stroke="#bfbfbf" points="344.5,-280.5 344.5,-299.5 400.5,-299.5 400.5,-280.5 344.5,-280.5"/>
<text text-anchor="middle" x="372.5" y="-287.5" font-family="Helvetica,sans-Serif" font-size="10.00">iomanip</text>
</a>
</g>
</g>
<!-- Node1&#45;&gt;Node15 -->
<g id="edge14" class="edge">
<title>Node1&#45;&gt;Node15</title>
<path fill="none" stroke="midnightblue" d="M372.5,-336.08C372.5,-329.01 372.5,-318.86 372.5,-309.99"/>
<polygon fill="midnightblue" stroke="midnightblue" points="376,-309.75 372.5,-299.75 369,-309.75 376,-309.75"/>
</g>
<!-- Node16 -->
<g id="node16" class="node">
<title>Node16</title>
<g id="a_node16"><a xlink:title=" ">
<polygon fill="white" stroke="#bfbfbf" points="418.5,-280.5 418.5,-299.5 478.5,-299.5 478.5,-280.5 418.5,-280.5"/>
<text text-anchor="middle" x="448.5" y="-287.5" font-family="Helvetica,sans-Serif" font-size="10.00">iostream</text>
</a>
</g>
</g>
<!-- Node1&#45;&gt;Node16 -->
<g id="edge15" class="edge">
<title>Node1&#45;&gt;Node16</title>
<path fill="none" stroke="midnightblue" d="M384.71,-336.32C396.28,-328.11 413.88,-315.6 427.66,-305.81"/>
<polygon fill="midnightblue" stroke="midnightblue" points="429.94,-308.48 436.07,-299.83 425.89,-302.77 429.94,-308.48"/>
</g>
<!-- Node3 -->
<g id="node3" class="node">
<title>Node3</title>
<g id="a_node3"><a xlink:href="../../d0/dec/full__solver_8hpp_source.html" target="_top" xlink:title=" ">
<polygon fill="white" stroke="black" points="158,-224.5 158,-243.5 289,-243.5 289,-224.5 158,-224.5"/>
<text text-anchor="middle" x="223.5" y="-231.5" font-family="Helvetica,sans-Serif" font-size="10.00">abstract/full_solver.hpp</text>
</a>
</g>
</g>
<!-- Node2&#45;&gt;Node3 -->
<g id="edge2" class="edge">
<title>Node2&#45;&gt;Node3</title>
<path fill="none" stroke="midnightblue" d="M270.5,-280.32C262.31,-272.42 249.99,-260.55 240.03,-250.94"/>
<polygon fill="midnightblue" stroke="midnightblue" points="242.29,-248.26 232.66,-243.83 237.43,-253.29 242.29,-248.26"/>
</g>
<!-- Node14 -->
<g id="node14" class="node">
<title>Node14</title>
<g id="a_node14"><a xlink:title=" ">
<polygon fill="white" stroke="#bfbfbf" points="307.5,-224.5 307.5,-243.5 363.5,-243.5 363.5,-224.5 307.5,-224.5"/>
<text text-anchor="middle" x="335.5" y="-231.5" font-family="Helvetica,sans-Serif" font-size="10.00">numeric</text>
</a>
</g>
</g>
<!-- Node2&#45;&gt;Node14 -->
<g id="edge13" class="edge">
<title>Node2&#45;&gt;Node14</title>
<path fill="none" stroke="midnightblue" d="M288.5,-280.32C296.69,-272.42 309.01,-260.55 318.97,-250.94"/>
<polygon fill="midnightblue" stroke="midnightblue" points="321.57,-253.29 326.34,-243.83 316.71,-248.26 321.57,-253.29"/>
</g>
<!-- Node4 -->
<g id="node4" class="node">
<title>Node4</title>
<g id="a_node4"><a xlink:href="../../dc/ddc/abstract__solver_8hpp_source.html" target="_top" xlink:title=" ">
<polygon fill="white" stroke="black" points="167.5,-168.5 167.5,-187.5 279.5,-187.5 279.5,-168.5 167.5,-168.5"/>
<text text-anchor="middle" x="223.5" y="-175.5" font-family="Helvetica,sans-Serif" font-size="10.00">abstract_solver.hpp</text>
</a>
</g>
</g>
<!-- Node3&#45;&gt;Node4 -->
<g id="edge3" class="edge">
<title>Node3&#45;&gt;Node4</title>
<path fill="none" stroke="midnightblue" d="M223.5,-224.08C223.5,-217.01 223.5,-206.86 223.5,-197.99"/>
<polygon fill="midnightblue" stroke="midnightblue" points="227,-197.75 223.5,-187.75 220,-197.75 227,-197.75"/>
</g>
<!-- Node5 -->
<g id="node5" class="node">
<title>Node5</title>
<g id="a_node5"><a xlink:href="../../df/d73/traits_8hpp_source.html" target="_top" xlink:title=" ">
<polygon fill="white" stroke="black" points="192,-112.5 192,-131.5 255,-131.5 255,-112.5 192,-112.5"/>
<text text-anchor="middle" x="223.5" y="-119.5" font-family="Helvetica,sans-Serif" font-size="10.00">traits.hpp</text>
</a>
</g>
</g>
<!-- Node4&#45;&gt;Node5 -->
<g id="edge4" class="edge">
<title>Node4&#45;&gt;Node5</title>
<path fill="none" stroke="midnightblue" d="M223.5,-168.08C223.5,-161.01 223.5,-150.86 223.5,-141.99"/>
<polygon fill="midnightblue" stroke="midnightblue" points="227,-141.75 223.5,-131.75 220,-141.75 227,-141.75"/>
</g>
<!-- Node6 -->
<g id="node6" class="node">
<title>Node6</title>
<g id="a_node6"><a xlink:href="../../d1/d4c/ezp_8h_source.html" target="_top" xlink:title=" ">
<polygon fill="white" stroke="black" points="44,-56.5 44,-75.5 87,-75.5 87,-56.5 44,-56.5"/>
<text text-anchor="middle" x="65.5" y="-63.5" font-family="Helvetica,sans-Serif" font-size="10.00">ezp.h</text>
</a>
</g>
</g>
<!-- Node5&#45;&gt;Node6 -->
<g id="edge5" class="edge">
<title>Node5&#45;&gt;Node6</title>
<path fill="none" stroke="midnightblue" d="M198.46,-112.44C170.95,-103.04 126.69,-87.91 96.88,-77.72"/>
<polygon fill="midnightblue" stroke="midnightblue" points="97.96,-74.4 87.37,-74.47 95.7,-81.02 97.96,-74.4"/>
</g>
<!-- Node9 -->
<g id="node9" class="node">
<title>Node9</title>
<g id="a_node9"><a xlink:title=" ">
<polygon fill="white" stroke="#bfbfbf" points="105.5,-56.5 105.5,-75.5 147.5,-75.5 147.5,-56.5 105.5,-56.5"/>
<text text-anchor="middle" x="126.5" y="-63.5" font-family="Helvetica,sans-Serif" font-size="10.00">array</text>
</a>
</g>
</g>
<!-- Node5&#45;&gt;Node9 -->
<g id="edge8" class="edge">
<title>Node5&#45;&gt;Node9</title>
<path fill="none" stroke="midnightblue" d="M207.92,-112.32C192.5,-103.74 168.69,-90.49 150.79,-80.52"/>
<polygon fill="midnightblue" stroke="midnightblue" points="152.49,-77.46 142.05,-75.65 149.08,-83.58 152.49,-77.46"/>
</g>
<!-- Node10 -->
<g id="node10" class="node">
<title>Node10</title>
<g id="a_node10"><a xlink:title=" ">
<polygon fill="white" stroke="#bfbfbf" points="165.5,-56.5 165.5,-75.5 215.5,-75.5 215.5,-56.5 165.5,-56.5"/>
<text text-anchor="middle" x="190.5" y="-63.5" font-family="Helvetica,sans-Serif" font-size="10.00">atomic</text>
</a>
</g>
</g>
<!-- Node5&#45;&gt;Node10 -->
<g id="edge9" class="edge">
<title>Node5&#45;&gt;Node10</title>
<path fill="none" stroke="midnightblue" d="M218.05,-112.08C213.49,-104.61 206.83,-93.72 201.21,-84.52"/>
<polygon fill="midnightblue" stroke="midnightblue" points="204.05,-82.46 195.85,-75.75 198.08,-86.11 204.05,-82.46"/>
</g>
<!-- Node11 -->
<g id="node11" class="node">
<title>Node11</title>
<g id="a_node11"><a xlink:title=" ">
<polygon fill="white" stroke="#bfbfbf" points="234,-56.5 234,-75.5 281,-75.5 281,-56.5 234,-56.5"/>
<text text-anchor="middle" x="257.5" y="-63.5" font-family="Helvetica,sans-Serif" font-size="10.00">cmath</text>
</a>
</g>
</g>
<!-- Node5&#45;&gt;Node11 -->
<g id="edge10" class="edge">
<title>Node5&#45;&gt;Node11</title>
<path fill="none" stroke="midnightblue" d="M229.11,-112.08C233.87,-104.53 240.82,-93.49 246.65,-84.23"/>
<polygon fill="midnightblue" stroke="midnightblue" points="249.62,-86.08 251.99,-75.75 243.7,-82.35 249.62,-86.08"/>
</g>
<!-- Node12 -->
<g id="node12" class="node">
<title>Node12</title>
<g id="a_node12"><a xlink:title=" ">
<polygon fill="white" stroke="#bfbfbf" points="299.5,-56.5 299.5,-75.5 349.5,-75.5 349.5,-56.5 299.5,-56.5"/>
<text text-anchor="middle" x="324.5" y="-63.5" font-family="Helvetica,sans-Serif" font-size="10.00">ranges</text>
</a>
</g>
</g>
<!-- Node5&#45;&gt;Node12 -->
<g id="edge11" class="edge">
<title>Node5&#45;&gt;Node12</title>
<path fill="none" stroke="midnightblue" d="M239.73,-112.32C255.85,-103.7 280.8,-90.36 299.46,-80.39"/>
<polygon fill="midnightblue" stroke="midnightblue" points="301.14,-83.46 308.31,-75.65 297.84,-77.28 301.14,-83.46"/>
</g>
<!-- Node13 -->
<g id="node13" class="node">
<title>Node13</title>
<g id="a_node13"><a xlink:title=" ">
<polygon fill="white" stroke="#bfbfbf" points="368,-56.5 368,-75.5 415,-75.5 415,-56.5 368,-56.5"/>
<text text-anchor="middle" x="391.5" y="-63.5" font-family="Helvetica,sans-Serif" font-size="10.00">vector</text>
</a>
</g>
</g>
<!-- Node5&#45;&gt;Node13 -->
<g id="edge12" class="edge">
<title>Node5&#45;&gt;Node13</title>
<path fill="none" stroke="midnightblue" d="M250.12,-112.44C279.42,-103.02 326.57,-87.87 358.28,-77.68"/>
<polygon fill="midnightblue" stroke="midnightblue" points="359.54,-80.95 367.99,-74.56 357.39,-74.29 359.54,-80.95"/>
</g>
<!-- Node7 -->
<g id="node7" class="node">
<title>Node7</title>
<g id="a_node7"><a xlink:title=" ">
<polygon fill="white" stroke="#bfbfbf" points="0,-0.5 0,-19.5 59,-19.5 59,-0.5 0,-0.5"/>
<text text-anchor="middle" x="29.5" y="-7.5" font-family="Helvetica,sans-Serif" font-size="10.00">complex</text>
</a>
</g>
</g>
<!-- Node6&#45;&gt;Node7 -->
<g id="edge6" class="edge">
<title>Node6&#45;&gt;Node7</title>
<path fill="none" stroke="midnightblue" d="M59.56,-56.08C54.52,-48.53 47.16,-37.49 40.99,-28.23"/>
<polygon fill="midnightblue" stroke="midnightblue" points="43.79,-26.13 35.33,-19.75 37.97,-30.01 43.79,-26.13"/>
</g>
<!-- Node8 -->
<g id="node8" class="node">
<title>Node8</title>
<g id="a_node8"><a xlink:title=" ">
<polygon fill="white" stroke="#bfbfbf" points="77.5,-0.5 77.5,-19.5 127.5,-19.5 127.5,-0.5 77.5,-0.5"/>
<text text-anchor="middle" x="102.5" y="-7.5" font-family="Helvetica,sans-Serif" font-size="10.00">cstdint</text>
</a>
</g>
</g>
<!-- Node6&#45;&gt;Node8 -->
<g id="edge7" class="edge">
<title>Node6&#45;&gt;Node8</title>
<path fill="none" stroke="midnightblue" d="M71.61,-56.08C76.78,-48.53 84.35,-37.49 90.69,-28.23"/>
<polygon fill="midnightblue" stroke="midnightblue" points="93.74,-29.98 96.5,-19.75 87.96,-26.02 93.74,-29.98"/>
</g>
</g>
</svg>
