<?xml version="1.0" encoding="UTF-8" standalone="no"?>
<!DOCTYPE svg PUBLIC "-//W3C//DTD SVG 1.1//EN"
 "http://www.w3.org/Graphics/SVG/1.1/DTD/svg11.dtd">
<!-- Generated by graphviz version 2.43.0 (0)
 -->
<!-- Title: ezp::detail::non_copyable Pages: 1 -->
<svg width="262pt" height="93pt"
 viewBox="0.00 0.00 261.50 93.00" xmlns="http://www.w3.org/2000/svg" xmlns:xlink="http://www.w3.org/1999/xlink">
<g id="graph0" class="graph" transform="scale(1 1) rotate(0) translate(4 89)">
<title>ezp::detail::non_copyable</title>
<!-- Node1 -->
<g id="Node000001" class="node">
<title>Node1</title>
<g id="a_Node000001"><a xlink:title=" ">
<polygon fill="#999999" stroke="#666666" points="198,-85 57,-85 57,-66 198,-66 198,-85"/>
<text text-anchor="middle" x="127.5" y="-73" font-family="Helvetica,sans-Serif" font-size="10.00">ezp::detail::non_copyable</text>
</a>
</g>
</g>
<!-- Node2 -->
<g id="Node000002" class="node">
<title>Node2</title>
<g id="a_Node000002"><a xlink:href="../../d4/d16/structezp_1_1sparse__coo__mat.html" target="_top" xlink:title=" ">
<polygon fill="white" stroke="#bfbfbf" points="119,-30 0,-30 0,0 119,0 119,-30"/>
<text text-anchor="start" x="8" y="-18" font-family="Helvetica,sans-Serif" font-size="10.00">ezp::sparse_coo_mat</text>
<text text-anchor="middle" x="59.5" y="-7" font-family="Helvetica,sans-Serif" font-size="10.00">&lt; DT, IT &gt;</text>
</a>
</g>
</g>
<!-- Node1&#45;&gt;Node2 -->
<g id="edge1_Node000001_Node000002" class="edge">
<title>Node1&#45;&gt;Node2</title>
<g id="a_edge1_Node000001_Node000002"><a xlink:title=" ">
<path fill="none" stroke="#63b8ff" d="M109.76,-59.23C99.29,-50.23 86.13,-38.91 75.91,-30.11"/>
<polygon fill="#63b8ff" stroke="#63b8ff" points="107.6,-62 117.47,-65.87 112.17,-56.69 107.6,-62"/>
</a>
</g>
</g>
<!-- Node3 -->
<g id="Node000003" class="node">
<title>Node3</title>
<g id="a_Node000003"><a xlink:href="../../d6/d5b/structezp_1_1sparse__csr__mat.html" target="_top" xlink:title=" ">
<polygon fill="white" stroke="#bfbfbf" points="253.5,-30 137.5,-30 137.5,0 253.5,0 253.5,-30"/>
<text text-anchor="start" x="145.5" y="-18" font-family="Helvetica,sans-Serif" font-size="10.00">ezp::sparse_csr_mat</text>
<text text-anchor="middle" x="195.5" y="-7" font-family="Helvetica,sans-Serif" font-size="10.00">&lt; DT, IT &gt;</text>
</a>
</g>
</g>
<!-- Node1&#45;&gt;Node3 -->
<g id="edge2_Node000001_Node000003" class="edge">
<title>Node1&#45;&gt;Node3</title>
<g id="a_edge2_Node000001_Node000003"><a xlink:title=" ">
<path fill="none" stroke="#63b8ff" d="M145.24,-59.23C155.71,-50.23 168.87,-38.91 179.09,-30.11"/>
<polygon fill="#63b8ff" stroke="#63b8ff" points="142.83,-56.69 137.53,-65.87 147.4,-62 142.83,-56.69"/>
</a>
</g>
</g>
</g>
</svg>
