<?xml version="1.0" encoding="UTF-8" standalone="no"?>
<!DOCTYPE svg PUBLIC "-//W3C//DTD SVG 1.1//EN"
 "http://www.w3.org/Graphics/SVG/1.1/DTD/svg11.dtd">
<!-- Generated by graphviz version 2.43.0 (0)
 -->
<!-- Title: ezp::pgesv&lt; DT, IT, ODER &gt; Pages: 1 -->
<svg width="133pt" height="184pt"
 viewBox="0.00 0.00 133.00 184.00" xmlns="http://www.w3.org/2000/svg" xmlns:xlink="http://www.w3.org/1999/xlink">
<g id="graph0" class="graph" transform="scale(1 1) rotate(0) translate(4 180)">
<title>ezp::pgesv&lt; DT, IT, ODER &gt;</title>
<polygon fill="white" stroke="transparent" points="-4,4 -4,-180 129,-180 129,4 -4,4"/>
<!-- Node1 -->
<g id="node1" class="node">
<title>Node1</title>
<g id="a_node1"><a xlink:title=" ">
<polygon fill="#bfbfbf" stroke="black" points="6.5,-0.5 6.5,-30.5 118.5,-30.5 118.5,-0.5 6.5,-0.5"/>
<text text-anchor="start" x="14.5" y="-18.5" font-family="Helvetica,sans-Serif" font-size="10.00">ezp::pgesv&lt; DT, IT,</text>
<text text-anchor="middle" x="62.5" y="-7.5" font-family="Helvetica,sans-Serif" font-size="10.00"> ODER &gt;</text>
</a>
</g>
</g>
<!-- Node2 -->
<g id="node2" class="node">
<title>Node2</title>
<g id="a_node2"><a xlink:href="../../df/df0/classezp_1_1detail_1_1full__solver.html" target="_top" xlink:title=" ">
<polygon fill="white" stroke="black" points="0,-67.5 0,-97.5 125,-97.5 125,-67.5 0,-67.5"/>
<text text-anchor="start" x="8" y="-85.5" font-family="Helvetica,sans-Serif" font-size="10.00">ezp::detail::full_solver</text>
<text text-anchor="middle" x="62.5" y="-74.5" font-family="Helvetica,sans-Serif" font-size="10.00">&lt; DT, IT, &#39;R&#39; &gt;</text>
</a>
</g>
</g>
<!-- Node2&#45;&gt;Node1 -->
<g id="edge1" class="edge">
<title>Node2&#45;&gt;Node1</title>
<path fill="none" stroke="midnightblue" d="M62.5,-57.11C62.5,-48.15 62.5,-38.32 62.5,-30.58"/>
<polygon fill="midnightblue" stroke="midnightblue" points="59,-57.4 62.5,-67.4 66,-57.4 59,-57.4"/>
</g>
<!-- Node3 -->
<g id="node3" class="node">
<title>Node3</title>
<g id="a_node3"><a xlink:href="../../d0/df0/classezp_1_1detail_1_1abstract__solver.html" target="_top" xlink:title=" ">
<polygon fill="white" stroke="black" points="6,-134.5 6,-175.5 119,-175.5 119,-134.5 6,-134.5"/>
<text text-anchor="start" x="14" y="-163.5" font-family="Helvetica,sans-Serif" font-size="10.00">ezp::detail::abstract</text>
<text text-anchor="start" x="14" y="-152.5" font-family="Helvetica,sans-Serif" font-size="10.00">_solver&lt; DT, IT, full</text>
<text text-anchor="middle" x="62.5" y="-141.5" font-family="Helvetica,sans-Serif" font-size="10.00">_mat&lt; DT, IT &gt; &gt;</text>
</a>
</g>
</g>
<!-- Node3&#45;&gt;Node2 -->
<g id="edge2" class="edge">
<title>Node3&#45;&gt;Node2</title>
<path fill="none" stroke="midnightblue" d="M62.5,-124.08C62.5,-115.01 62.5,-105.45 62.5,-97.89"/>
<polygon fill="midnightblue" stroke="midnightblue" points="59,-124.36 62.5,-134.36 66,-124.36 59,-124.36"/>
</g>
</g>
</svg>
