<?xml version="1.0" encoding="UTF-8" standalone="no"?>
<!DOCTYPE svg PUBLIC "-//W3C//DTD SVG 1.1//EN"
 "http://www.w3.org/Graphics/SVG/1.1/DTD/svg11.dtd">
<!-- Generated by graphviz version 2.43.0 (0)
 -->
<!-- Title: Graphical Class Hierarchy Pages: 1 -->
<svg width="472pt" height="175pt"
 viewBox="0.00 0.00 472.00 174.50" xmlns="http://www.w3.org/2000/svg" xmlns:xlink="http://www.w3.org/1999/xlink">
<g id="graph0" class="graph" transform="scale(1 1) rotate(0) translate(4 170.5)">
<title>Graphical Class Hierarchy</title>
<!-- Node0 -->
<g id="Node000000" class="node">
<title>Node0</title>
<g id="a_Node000000"><a xlink:href="d0/df0/classezp_1_1detail_1_1abstract__solver.html" target="_top" xlink:title=" ">
<polygon fill="white" stroke="#666666" points="125,-84 0,-84 0,-54 125,-54 125,-84"/>
<text text-anchor="start" x="8" y="-72" font-family="Helvetica,sans-Serif" font-size="10.00">ezp::detail::abstract</text>
<text text-anchor="middle" x="62.5" y="-61" font-family="Helvetica,sans-Serif" font-size="10.00">_solver&lt; DT, IT, WT &gt;</text>
</a>
</g>
</g>
<!-- Node1 -->
<g id="Node000001" class="node">
<title>Node1</title>
<g id="a_Node000001"><a xlink:href="d0/db0/classezp_1_1detail_1_1band__solver.html" target="_top" xlink:title=" ">
<polygon fill="white" stroke="#666666" points="304,-148.5 165,-148.5 165,-107.5 304,-107.5 304,-148.5"/>
<text text-anchor="start" x="173" y="-136.5" font-family="Helvetica,sans-Serif" font-size="10.00">ezp::detail::band_solver</text>
<text text-anchor="start" x="173" y="-125.5" font-family="Helvetica,sans-Serif" font-size="10.00">&lt; DT, IT, band_mat&lt; DT,</text>
<text text-anchor="middle" x="234.5" y="-114.5" font-family="Helvetica,sans-Serif" font-size="10.00"> IT &gt; &gt;</text>
</a>
</g>
</g>
<!-- Node0&#45;&gt;Node1 -->
<g id="edge10_Node000000_Node000001" class="edge">
<title>Node0&#45;&gt;Node1</title>
<g id="a_edge10_Node000000_Node000001"><a xlink:title=" ">
<path fill="none" stroke="#63b8ff" d="M116.46,-87.38C134.78,-93.74 155.42,-100.9 174.21,-107.42"/>
<polygon fill="#63b8ff" stroke="#63b8ff" points="117.43,-84.01 106.84,-84.04 115.14,-90.63 117.43,-84.01"/>
</a>
</g>
</g>
<!-- Node4 -->
<g id="Node000004" class="node">
<title>Node4</title>
<g id="a_Node000004"><a xlink:href="d0/db0/classezp_1_1detail_1_1band__solver.html" target="_top" xlink:title=" ">
<polygon fill="white" stroke="#666666" points="308,-89.5 161,-89.5 161,-48.5 308,-48.5 308,-89.5"/>
<text text-anchor="start" x="169" y="-77.5" font-family="Helvetica,sans-Serif" font-size="10.00">ezp::detail::band_solver</text>
<text text-anchor="start" x="169" y="-66.5" font-family="Helvetica,sans-Serif" font-size="10.00">&lt; DT, IT, band_symm_mat</text>
<text text-anchor="middle" x="234.5" y="-55.5" font-family="Helvetica,sans-Serif" font-size="10.00">&lt; DT, IT &gt; &gt;</text>
</a>
</g>
</g>
<!-- Node0&#45;&gt;Node4 -->
<g id="edge13_Node000000_Node000004" class="edge">
<title>Node0&#45;&gt;Node4</title>
<g id="a_edge13_Node000000_Node000004"><a xlink:title=" ">
<path fill="none" stroke="#63b8ff" d="M135.45,-69C143.81,-69 152.34,-69 160.72,-69"/>
<polygon fill="#63b8ff" stroke="#63b8ff" points="135.35,-65.5 125.35,-69 135.35,-72.5 135.35,-65.5"/>
</a>
</g>
</g>
<!-- Node6 -->
<g id="Node000006" class="node">
<title>Node6</title>
<g id="a_Node000006"><a xlink:href="d0/db0/classezp_1_1detail_1_1band__solver.html" target="_top" xlink:title=" ">
<polygon fill="white" stroke="#666666" points="301,-30 168,-30 168,0 301,0 301,-30"/>
<text text-anchor="start" x="176" y="-18" font-family="Helvetica,sans-Serif" font-size="10.00">ezp::detail::band_solver</text>
<text text-anchor="middle" x="234.5" y="-7" font-family="Helvetica,sans-Serif" font-size="10.00">&lt; DT, IT, WT &gt;</text>
</a>
</g>
</g>
<!-- Node0&#45;&gt;Node6 -->
<g id="edge15_Node000000_Node000006" class="edge">
<title>Node0&#45;&gt;Node6</title>
<g id="a_edge15_Node000000_Node000006"><a xlink:title=" ">
<path fill="none" stroke="#63b8ff" d="M120.44,-50.91C141.76,-44.14 165.74,-36.52 186.1,-30.05"/>
<polygon fill="#63b8ff" stroke="#63b8ff" points="119.33,-47.59 110.85,-53.96 121.44,-54.27 119.33,-47.59"/>
</a>
</g>
</g>
<!-- Node2 -->
<g id="Node000002" class="node">
<title>Node2</title>
<g id="a_Node000002"><a xlink:href="de/d4c/classezp_1_1pdbsv.html" target="_top" xlink:title=" ">
<polygon fill="white" stroke="#666666" points="464,-166.5 344,-166.5 344,-147.5 464,-147.5 464,-166.5"/>
<text text-anchor="middle" x="404" y="-154.5" font-family="Helvetica,sans-Serif" font-size="10.00">ezp::pdbsv&lt; DT, IT &gt;</text>
</a>
</g>
</g>
<!-- Node1&#45;&gt;Node2 -->
<g id="edge11_Node000001_Node000002" class="edge">
<title>Node1&#45;&gt;Node2</title>
<g id="a_edge11_Node000001_Node000002"><a xlink:title=" ">
<path fill="none" stroke="#63b8ff" d="M314.14,-141.61C325.61,-143.6 337.2,-145.61 348.07,-147.49"/>
<polygon fill="#63b8ff" stroke="#63b8ff" points="314.56,-138.14 304.11,-139.88 313.37,-145.03 314.56,-138.14"/>
</a>
</g>
</g>
<!-- Node3 -->
<g id="Node000003" class="node">
<title>Node3</title>
<g id="a_Node000003"><a xlink:href="d1/d7e/classezp_1_1pgbsv.html" target="_top" xlink:title=" ">
<polygon fill="white" stroke="#666666" points="464,-129.5 344,-129.5 344,-110.5 464,-110.5 464,-129.5"/>
<text text-anchor="middle" x="404" y="-117.5" font-family="Helvetica,sans-Serif" font-size="10.00">ezp::pgbsv&lt; DT, IT &gt;</text>
</a>
</g>
</g>
<!-- Node1&#45;&gt;Node3 -->
<g id="edge12_Node000001_Node000003" class="edge">
<title>Node1&#45;&gt;Node3</title>
<g id="a_edge12_Node000001_Node000003"><a xlink:title=" ">
<path fill="none" stroke="#63b8ff" d="M314.39,-124.23C324.31,-123.76 334.33,-123.28 343.87,-122.82"/>
<polygon fill="#63b8ff" stroke="#63b8ff" points="313.93,-120.75 304.11,-124.72 314.27,-127.74 313.93,-120.75"/>
</a>
</g>
</g>
<!-- Node5 -->
<g id="Node000005" class="node">
<title>Node5</title>
<g id="a_Node000005"><a xlink:href="d3/df1/classezp_1_1ppbsv.html" target="_top" xlink:title=" ">
<polygon fill="white" stroke="#666666" points="460,-84 348,-84 348,-54 460,-54 460,-84"/>
<text text-anchor="start" x="356" y="-72" font-family="Helvetica,sans-Serif" font-size="10.00">ezp::ppbsv&lt; DT, IT,</text>
<text text-anchor="middle" x="404" y="-61" font-family="Helvetica,sans-Serif" font-size="10.00"> UL &gt;</text>
</a>
</g>
</g>
<!-- Node4&#45;&gt;Node5 -->
<g id="edge14_Node000004_Node000005" class="edge">
<title>Node4&#45;&gt;Node5</title>
<g id="a_edge14_Node000004_Node000005"><a xlink:title=" ">
<path fill="none" stroke="#63b8ff" d="M318.76,-69C328.65,-69 338.54,-69 347.9,-69"/>
<polygon fill="#63b8ff" stroke="#63b8ff" points="318.48,-65.5 308.48,-69 318.48,-72.5 318.48,-65.5"/>
</a>
</g>
</g>
</g>
</svg>
