<?xml version="1.0" encoding="UTF-8" standalone="no"?>
<!DOCTYPE svg PUBLIC "-//W3C//DTD SVG 1.1//EN"
 "http://www.w3.org/Graphics/SVG/1.1/DTD/svg11.dtd">
<!-- Generated by graphviz version 2.43.0 (0)
 -->
<!-- Title: Graphical Class Hierarchy Pages: 1 -->
<svg width="436pt" height="186pt"
 viewBox="0.00 0.00 436.00 186.00" xmlns="http://www.w3.org/2000/svg" xmlns:xlink="http://www.w3.org/1999/xlink">
<g id="graph0" class="graph" transform="scale(1 1) rotate(0) translate(4 182)">
<title>Graphical Class Hierarchy</title>
<polygon fill="white" stroke="transparent" points="-4,4 -4,-182 432,-182 432,4 -4,4"/>
<!-- Node0 -->
<g id="node1" class="node">
<title>Node0</title>
<g id="a_node1"><a xlink:href="d0/df0/classezp_1_1detail_1_1abstract__solver.html" target="_top" xlink:title=" ">
<polygon fill="white" stroke="black" points="0,-43 0,-84 113,-84 113,-43 0,-43"/>
<text text-anchor="start" x="8" y="-72" font-family="Helvetica,sans-Serif" font-size="10.00">ezp::detail::abstract</text>
<text text-anchor="start" x="8" y="-61" font-family="Helvetica,sans-Serif" font-size="10.00">_solver&lt; DT, IT, full</text>
<text text-anchor="middle" x="56.5" y="-50" font-family="Helvetica,sans-Serif" font-size="10.00">_mat&lt; DT, IT &gt; &gt;</text>
</a>
</g>
</g>
<!-- Node1 -->
<g id="node2" class="node">
<title>Node1</title>
<g id="a_node2"><a xlink:href="df/df0/classezp_1_1detail_1_1full__solver.html" target="_top" xlink:title=" ">
<polygon fill="white" stroke="black" points="149,-73.5 149,-103.5 274,-103.5 274,-73.5 149,-73.5"/>
<text text-anchor="start" x="157" y="-91.5" font-family="Helvetica,sans-Serif" font-size="10.00">ezp::detail::full_solver</text>
<text text-anchor="middle" x="211.5" y="-80.5" font-family="Helvetica,sans-Serif" font-size="10.00">&lt; DT, IT, &#39;R&#39; &gt;</text>
</a>
</g>
</g>
<!-- Node0&#45;&gt;Node1 -->
<g id="edge1" class="edge">
<title>Node0&#45;&gt;Node1</title>
<path fill="none" stroke="midnightblue" d="M123.11,-74.22C131.68,-75.62 140.43,-77.05 148.92,-78.44"/>
<polygon fill="midnightblue" stroke="midnightblue" points="123.6,-70.75 113.17,-72.6 122.47,-77.66 123.6,-70.75"/>
</g>
<!-- Node6 -->
<g id="node7" class="node">
<title>Node6</title>
<g id="a_node7"><a xlink:href="df/df0/classezp_1_1detail_1_1full__solver.html" target="_top" xlink:title=" ">
<polygon fill="white" stroke="black" points="149,-24.5 149,-54.5 274,-54.5 274,-24.5 149,-24.5"/>
<text text-anchor="start" x="157" y="-42.5" font-family="Helvetica,sans-Serif" font-size="10.00">ezp::detail::full_solver</text>
<text text-anchor="middle" x="211.5" y="-31.5" font-family="Helvetica,sans-Serif" font-size="10.00">&lt; DT, IT, ODER &gt;</text>
</a>
</g>
</g>
<!-- Node0&#45;&gt;Node6 -->
<g id="edge6" class="edge">
<title>Node0&#45;&gt;Node6</title>
<path fill="none" stroke="midnightblue" d="M123.11,-53.21C131.68,-51.86 140.43,-50.49 148.92,-49.16"/>
<polygon fill="midnightblue" stroke="midnightblue" points="122.51,-49.76 113.17,-54.77 123.59,-56.68 122.51,-49.76"/>
</g>
<!-- Node2 -->
<g id="node3" class="node">
<title>Node2</title>
<g id="a_node3"><a xlink:href="d5/d48/classezp_1_1pgesv.html" target="_top" xlink:title=" ">
<polygon fill="white" stroke="black" points="313,-147.5 313,-177.5 425,-177.5 425,-147.5 313,-147.5"/>
<text text-anchor="start" x="321" y="-165.5" font-family="Helvetica,sans-Serif" font-size="10.00">ezp::pgesv&lt; DT, IT,</text>
<text text-anchor="middle" x="369" y="-154.5" font-family="Helvetica,sans-Serif" font-size="10.00"> ODER &gt;</text>
</a>
</g>
</g>
<!-- Node1&#45;&gt;Node2 -->
<g id="edge2" class="edge">
<title>Node1&#45;&gt;Node2</title>
<path fill="none" stroke="midnightblue" d="M249.41,-108.33C267.5,-117.81 289.71,-129.12 310,-138.5 316.53,-141.52 323.55,-144.58 330.37,-147.45"/>
<polygon fill="midnightblue" stroke="midnightblue" points="250.84,-105.12 240.36,-103.55 247.57,-111.32 250.84,-105.12"/>
</g>
<!-- Node3 -->
<g id="node4" class="node">
<title>Node3</title>
<g id="a_node4"><a xlink:href="d5/d6a/classezp_1_1pgesvx.html" target="_top" xlink:title=" ">
<polygon fill="white" stroke="black" points="310,-98.5 310,-128.5 428,-128.5 428,-98.5 310,-98.5"/>
<text text-anchor="start" x="318" y="-116.5" font-family="Helvetica,sans-Serif" font-size="10.00">ezp::pgesvx&lt; DT, IT,</text>
<text text-anchor="middle" x="369" y="-105.5" font-family="Helvetica,sans-Serif" font-size="10.00"> FCT, ODER &gt;</text>
</a>
</g>
</g>
<!-- Node1&#45;&gt;Node3 -->
<g id="edge3" class="edge">
<title>Node1&#45;&gt;Node3</title>
<path fill="none" stroke="midnightblue" d="M284.36,-100.05C292.9,-101.43 301.53,-102.81 309.85,-104.15"/>
<polygon fill="midnightblue" stroke="midnightblue" points="284.83,-96.58 274.4,-98.45 283.72,-103.5 284.83,-96.58"/>
</g>
<!-- Node4 -->
<g id="node5" class="node">
<title>Node4</title>
<g id="a_node5"><a xlink:href="de/d12/classezp_1_1pposv.html" target="_top" xlink:title=" ">
<polygon fill="white" stroke="black" points="313,-49.5 313,-79.5 425,-79.5 425,-49.5 313,-49.5"/>
<text text-anchor="start" x="321" y="-67.5" font-family="Helvetica,sans-Serif" font-size="10.00">ezp::pposv&lt; DT, IT,</text>
<text text-anchor="middle" x="369" y="-56.5" font-family="Helvetica,sans-Serif" font-size="10.00"> UL, ODER &gt;</text>
</a>
</g>
</g>
<!-- Node1&#45;&gt;Node4 -->
<g id="edge4" class="edge">
<title>Node1&#45;&gt;Node4</title>
<path fill="none" stroke="midnightblue" d="M284.32,-77.41C293.91,-75.94 303.61,-74.44 312.85,-73.01"/>
<polygon fill="midnightblue" stroke="midnightblue" points="283.75,-73.96 274.4,-78.95 284.82,-80.88 283.75,-73.96"/>
</g>
<!-- Node5 -->
<g id="node6" class="node">
<title>Node5</title>
<g id="a_node6"><a xlink:href="d0/d05/classezp_1_1pposvx.html" target="_top" xlink:title=" ">
<polygon fill="white" stroke="black" points="310,-0.5 310,-30.5 428,-30.5 428,-0.5 310,-0.5"/>
<text text-anchor="start" x="318" y="-18.5" font-family="Helvetica,sans-Serif" font-size="10.00">ezp::pposvx&lt; DT, IT,</text>
<text text-anchor="middle" x="369" y="-7.5" font-family="Helvetica,sans-Serif" font-size="10.00"> UL, ODER &gt;</text>
</a>
</g>
</g>
<!-- Node1&#45;&gt;Node5 -->
<g id="edge5" class="edge">
<title>Node1&#45;&gt;Node5</title>
<path fill="none" stroke="midnightblue" d="M263.93,-69.4C267.37,-67.83 270.76,-66.19 274,-64.5 291.06,-55.62 293.1,-49.68 310,-40.5 316.46,-36.99 323.51,-33.61 330.4,-30.53"/>
<polygon fill="midnightblue" stroke="midnightblue" points="262.49,-66.21 254.72,-73.42 265.29,-72.63 262.49,-66.21"/>
</g>
</g>
</svg>
