<?xml version="1.0" encoding="UTF-8" standalone="no"?>
<!DOCTYPE svg PUBLIC "-//W3C//DTD SVG 1.1//EN"
 "http://www.w3.org/Graphics/SVG/1.1/DTD/svg11.dtd">
<!-- Generated by graphviz version 2.43.0 (0)
 -->
<!-- Title: Graphical Class Hierarchy Pages: 1 -->
<svg width="323pt" height="113pt"
 viewBox="0.00 0.00 323.00 113.00" xmlns="http://www.w3.org/2000/svg" xmlns:xlink="http://www.w3.org/1999/xlink">
<g id="graph0" class="graph" transform="scale(1 1) rotate(0) translate(4 109)">
<title>Graphical Class Hierarchy</title>
<!-- Node0 -->
<g id="Node000000" class="node">
<title>Node0</title>
<g id="a_Node000000"><a xlink:href="d3/d46/structezp_1_1base__mat.html" target="_top" xlink:title=" ">
<polygon fill="white" stroke="#666666" points="139,-62 0,-62 0,-43 139,-43 139,-62"/>
<text text-anchor="middle" x="69.5" y="-50" font-family="Helvetica,sans-Serif" font-size="10.00">ezp::base_mat&lt; DT, IT &gt;</text>
</a>
</g>
</g>
<!-- Node1 -->
<g id="Node000001" class="node">
<title>Node1</title>
<g id="a_Node000001"><a xlink:href="d9/d24/structezp_1_1band__mat.html" target="_top" xlink:title=" ">
<polygon fill="white" stroke="#666666" points="315,-105 175,-105 175,-86 315,-86 315,-105"/>
<text text-anchor="middle" x="245" y="-93" font-family="Helvetica,sans-Serif" font-size="10.00">ezp::band_mat&lt; DT, IT &gt;</text>
</a>
</g>
</g>
<!-- Node0&#45;&gt;Node1 -->
<g id="edge1_Node000000_Node000001" class="edge">
<title>Node0&#45;&gt;Node1</title>
<g id="a_edge1_Node000000_Node000001"><a xlink:title=" ">
<path fill="none" stroke="#63b8ff" d="M118.78,-64.47C146.19,-71.26 180.02,-79.64 205.6,-85.98"/>
<polygon fill="#63b8ff" stroke="#63b8ff" points="119.55,-61.05 109.01,-62.04 117.87,-67.85 119.55,-61.05"/>
</a>
</g>
</g>
<!-- Node2 -->
<g id="Node000002" class="node">
<title>Node2</title>
<g id="a_Node000002"><a xlink:href="d8/d3f/structezp_1_1band__symm__mat.html" target="_top" xlink:title=" ">
<polygon fill="white" stroke="#666666" points="307.5,-67.5 182.5,-67.5 182.5,-37.5 307.5,-37.5 307.5,-67.5"/>
<text text-anchor="start" x="190.5" y="-55.5" font-family="Helvetica,sans-Serif" font-size="10.00">ezp::band_symm_mat</text>
<text text-anchor="middle" x="245" y="-44.5" font-family="Helvetica,sans-Serif" font-size="10.00">&lt; DT, IT &gt;</text>
</a>
</g>
</g>
<!-- Node0&#45;&gt;Node2 -->
<g id="edge2_Node000000_Node000002" class="edge">
<title>Node0&#45;&gt;Node2</title>
<g id="a_edge2_Node000000_Node000002"><a xlink:title=" ">
<path fill="none" stroke="#63b8ff" d="M149.22,-52.5C160.35,-52.5 171.66,-52.5 182.4,-52.5"/>
<polygon fill="#63b8ff" stroke="#63b8ff" points="149.07,-49 139.07,-52.5 149.07,-56 149.07,-49"/>
</a>
</g>
</g>
<!-- Node3 -->
<g id="Node000003" class="node">
<title>Node3</title>
<g id="a_Node000003"><a xlink:href="d0/d58/structezp_1_1full__mat.html" target="_top" xlink:title=" ">
<polygon fill="white" stroke="#666666" points="310.5,-19 179.5,-19 179.5,0 310.5,0 310.5,-19"/>
<text text-anchor="middle" x="245" y="-7" font-family="Helvetica,sans-Serif" font-size="10.00">ezp::full_mat&lt; DT, IT &gt;</text>
</a>
</g>
</g>
<!-- Node0&#45;&gt;Node3 -->
<g id="edge3_Node000000_Node000003" class="edge">
<title>Node0&#45;&gt;Node3</title>
<g id="a_edge3_Node000000_Node000003"><a xlink:title=" ">
<path fill="none" stroke="#63b8ff" d="M118.78,-40.53C146.19,-33.74 180.02,-25.36 205.6,-19.02"/>
<polygon fill="#63b8ff" stroke="#63b8ff" points="117.87,-37.15 109.01,-42.96 119.55,-43.95 117.87,-37.15"/>
</a>
</g>
</g>
</g>
</svg>
