<?xml version="1.0" encoding="UTF-8" standalone="no"?>
<!DOCTYPE svg PUBLIC "-//W3C//DTD SVG 1.1//EN"
 "http://www.w3.org/Graphics/SVG/1.1/DTD/svg11.dtd">
<!-- Generated by graphviz version 2.43.0 (0)
 -->
<!-- Title: Graphical Class Hierarchy Pages: 1 -->
<svg width="436pt" height="182pt"
 viewBox="0.00 0.00 436.00 182.00" xmlns="http://www.w3.org/2000/svg" xmlns:xlink="http://www.w3.org/1999/xlink">
<g id="graph0" class="graph" transform="scale(1 1) rotate(0) translate(4 178)">
<title>Graphical Class Hierarchy</title>
<!-- Node0 -->
<g id="Node000000" class="node">
<title>Node0</title>
<g id="a_Node000000"><a xlink:href="d0/df0/classezp_1_1detail_1_1abstract__solver.html" target="_top" xlink:title=" ">
<polygon fill="white" stroke="#666666" points="113,-131.5 0,-131.5 0,-90.5 113,-90.5 113,-131.5"/>
<text text-anchor="start" x="8" y="-119.5" font-family="Helvetica,sans-Serif" font-size="10.00">ezp::detail::abstract</text>
<text text-anchor="start" x="8" y="-108.5" font-family="Helvetica,sans-Serif" font-size="10.00">_solver&lt; DT, IT, full</text>
<text text-anchor="middle" x="56.5" y="-97.5" font-family="Helvetica,sans-Serif" font-size="10.00">_mat&lt; DT, IT &gt; &gt;</text>
</a>
</g>
</g>
<!-- Node1 -->
<g id="Node000001" class="node">
<title>Node1</title>
<g id="a_Node000001"><a xlink:href="df/df0/classezp_1_1detail_1_1full__solver.html" target="_top" xlink:title=" ">
<polygon fill="white" stroke="#666666" points="274,-150 149,-150 149,-120 274,-120 274,-150"/>
<text text-anchor="start" x="157" y="-138" font-family="Helvetica,sans-Serif" font-size="10.00">ezp::detail::full_solver</text>
<text text-anchor="middle" x="211.5" y="-127" font-family="Helvetica,sans-Serif" font-size="10.00">&lt; DT, IT, &#39;R&#39; &gt;</text>
</a>
</g>
</g>
<!-- Node0&#45;&gt;Node1 -->
<g id="edge5_Node000000_Node000001" class="edge">
<title>Node0&#45;&gt;Node1</title>
<g id="a_edge5_Node000000_Node000001"><a xlink:title=" ">
<path fill="none" stroke="#63b8ff" d="M123.11,-121.29C131.68,-122.64 140.43,-124.01 148.92,-125.34"/>
<polygon fill="#63b8ff" stroke="#63b8ff" points="123.59,-117.82 113.17,-119.73 122.51,-124.74 123.59,-117.82"/>
</a>
</g>
</g>
<!-- Node2 -->
<g id="Node000002" class="node">
<title>Node2</title>
<g id="a_Node000002"><a xlink:href="df/df0/classezp_1_1detail_1_1full__solver.html" target="_top" xlink:title=" ">
<polygon fill="white" stroke="#666666" points="274,-102 149,-102 149,-72 274,-72 274,-102"/>
<text text-anchor="start" x="157" y="-90" font-family="Helvetica,sans-Serif" font-size="10.00">ezp::detail::full_solver</text>
<text text-anchor="middle" x="211.5" y="-79" font-family="Helvetica,sans-Serif" font-size="10.00">&lt; DT, IT, ODER &gt;</text>
</a>
</g>
</g>
<!-- Node0&#45;&gt;Node2 -->
<g id="edge6_Node000000_Node000002" class="edge">
<title>Node0&#45;&gt;Node2</title>
<g id="a_edge6_Node000000_Node000002"><a xlink:title=" ">
<path fill="none" stroke="#63b8ff" d="M123.11,-100.71C131.68,-99.36 140.43,-97.99 148.92,-96.66"/>
<polygon fill="#63b8ff" stroke="#63b8ff" points="122.51,-97.26 113.17,-102.27 123.59,-104.18 122.51,-97.26"/>
</a>
</g>
</g>
<!-- Node3 -->
<g id="Node000003" class="node">
<title>Node3</title>
<g id="a_Node000003"><a xlink:href="d5/d48/classezp_1_1pgesv.html" target="_top" xlink:title=" ">
<polygon fill="white" stroke="#666666" points="425,-174 313,-174 313,-144 425,-144 425,-174"/>
<text text-anchor="start" x="321" y="-162" font-family="Helvetica,sans-Serif" font-size="10.00">ezp::pgesv&lt; DT, IT,</text>
<text text-anchor="middle" x="369" y="-151" font-family="Helvetica,sans-Serif" font-size="10.00"> ODER &gt;</text>
</a>
</g>
</g>
<!-- Node2&#45;&gt;Node3 -->
<g id="edge7_Node000002_Node000003" class="edge">
<title>Node2&#45;&gt;Node3</title>
<g id="a_edge7_Node000002_Node000003"><a xlink:title=" ">
<path fill="none" stroke="#63b8ff" d="M263.93,-106.1C267.37,-107.67 270.76,-109.31 274,-111 291.06,-119.88 293.03,-125.95 310,-135 315.86,-138.13 322.23,-141.13 328.52,-143.89"/>
<polygon fill="#63b8ff" stroke="#63b8ff" points="265.29,-102.87 254.72,-102.08 262.49,-109.29 265.29,-102.87"/>
</a>
</g>
</g>
<!-- Node4 -->
<g id="Node000004" class="node">
<title>Node4</title>
<g id="a_Node000004"><a xlink:href="d5/d6a/classezp_1_1pgesvx.html" target="_top" xlink:title=" ">
<polygon fill="white" stroke="#666666" points="428,-126 310,-126 310,-96 428,-96 428,-126"/>
<text text-anchor="start" x="318" y="-114" font-family="Helvetica,sans-Serif" font-size="10.00">ezp::pgesvx&lt; DT, IT,</text>
<text text-anchor="middle" x="369" y="-103" font-family="Helvetica,sans-Serif" font-size="10.00"> ODER &gt;</text>
</a>
</g>
</g>
<!-- Node2&#45;&gt;Node4 -->
<g id="edge8_Node000002_Node000004" class="edge">
<title>Node2&#45;&gt;Node4</title>
<g id="a_edge8_Node000002_Node000004"><a xlink:title=" ">
<path fill="none" stroke="#63b8ff" d="M284.36,-98.09C292.9,-99.41 301.53,-100.74 309.85,-102.02"/>
<polygon fill="#63b8ff" stroke="#63b8ff" points="284.82,-94.62 274.4,-96.55 283.75,-101.54 284.82,-94.62"/>
</a>
</g>
</g>
<!-- Node5 -->
<g id="Node000005" class="node">
<title>Node5</title>
<g id="a_Node000005"><a xlink:href="de/d12/classezp_1_1pposv.html" target="_top" xlink:title=" ">
<polygon fill="white" stroke="#666666" points="425,-78 313,-78 313,-48 425,-48 425,-78"/>
<text text-anchor="start" x="321" y="-66" font-family="Helvetica,sans-Serif" font-size="10.00">ezp::pposv&lt; DT, IT,</text>
<text text-anchor="middle" x="369" y="-55" font-family="Helvetica,sans-Serif" font-size="10.00"> UL, ODER &gt;</text>
</a>
</g>
</g>
<!-- Node2&#45;&gt;Node5 -->
<g id="edge9_Node000002_Node000005" class="edge">
<title>Node2&#45;&gt;Node5</title>
<g id="a_edge9_Node000002_Node000005"><a xlink:title=" ">
<path fill="none" stroke="#63b8ff" d="M284.32,-75.91C293.91,-74.44 303.61,-72.94 312.85,-71.51"/>
<polygon fill="#63b8ff" stroke="#63b8ff" points="283.75,-72.46 274.4,-77.45 284.82,-79.38 283.75,-72.46"/>
</a>
</g>
</g>
<!-- Node6 -->
<g id="Node000006" class="node">
<title>Node6</title>
<g id="a_Node000006"><a xlink:href="d0/d05/classezp_1_1pposvx.html" target="_top" xlink:title=" ">
<polygon fill="white" stroke="#666666" points="428,-30 310,-30 310,0 428,0 428,-30"/>
<text text-anchor="start" x="318" y="-18" font-family="Helvetica,sans-Serif" font-size="10.00">ezp::pposvx&lt; DT, IT,</text>
<text text-anchor="middle" x="369" y="-7" font-family="Helvetica,sans-Serif" font-size="10.00"> UL, ODER &gt;</text>
</a>
</g>
</g>
<!-- Node2&#45;&gt;Node6 -->
<g id="edge10_Node000002_Node000006" class="edge">
<title>Node2&#45;&gt;Node6</title>
<g id="a_edge10_Node000002_Node000006"><a xlink:title=" ">
<path fill="none" stroke="#63b8ff" d="M251.08,-67.29C268.88,-58.38 290.39,-47.88 310,-39 316.65,-35.99 323.79,-32.91 330.72,-30.01"/>
<polygon fill="#63b8ff" stroke="#63b8ff" points="249.49,-64.17 242.13,-71.79 252.64,-70.42 249.49,-64.17"/>
</a>
</g>
</g>
</g>
</svg>
