<?xml version="1.0" encoding="UTF-8" standalone="no"?>
<!DOCTYPE svg PUBLIC "-//W3C//DTD SVG 1.1//EN"
 "http://www.w3.org/Graphics/SVG/1.1/DTD/svg11.dtd">
<!-- Generated by graphviz version 2.43.0 (0)
 -->
<!-- Title: Graphical Class Hierarchy Pages: 1 -->
<svg width="323pt" height="116pt"
 viewBox="0.00 0.00 323.00 116.00" xmlns="http://www.w3.org/2000/svg" xmlns:xlink="http://www.w3.org/1999/xlink">
<g id="graph0" class="graph" transform="scale(1 1) rotate(0) translate(4 112)">
<title>Graphical Class Hierarchy</title>
<polygon fill="white" stroke="transparent" points="-4,4 -4,-112 319,-112 319,4 -4,4"/>
<!-- Node0 -->
<g id="node1" class="node">
<title>Node0</title>
<g id="a_node1"><a xlink:href="d3/d46/structezp_1_1base__mat.html" target="_top" xlink:title=" ">
<polygon fill="white" stroke="black" points="0,-44.5 0,-63.5 139,-63.5 139,-44.5 0,-44.5"/>
<text text-anchor="middle" x="69.5" y="-51.5" font-family="Helvetica,sans-Serif" font-size="10.00">ezp::base_mat&lt; DT, IT &gt;</text>
</a>
</g>
</g>
<!-- Node1 -->
<g id="node2" class="node">
<title>Node1</title>
<g id="a_node2"><a xlink:href="d9/d24/structezp_1_1band__mat.html" target="_top" xlink:title=" ">
<polygon fill="white" stroke="black" points="175,-88.5 175,-107.5 315,-107.5 315,-88.5 175,-88.5"/>
<text text-anchor="middle" x="245" y="-95.5" font-family="Helvetica,sans-Serif" font-size="10.00">ezp::band_mat&lt; DT, IT &gt;</text>
</a>
</g>
</g>
<!-- Node0&#45;&gt;Node1 -->
<g id="edge1" class="edge">
<title>Node0&#45;&gt;Node1</title>
<path fill="none" stroke="midnightblue" d="M118.06,-66.06C145.89,-73.12 180.52,-81.9 206.43,-88.47"/>
<polygon fill="midnightblue" stroke="midnightblue" points="118.7,-62.61 108.15,-63.55 116.98,-69.4 118.7,-62.61"/>
</g>
<!-- Node2 -->
<g id="node3" class="node">
<title>Node2</title>
<g id="a_node3"><a xlink:href="d8/d3f/structezp_1_1band__symm__mat.html" target="_top" xlink:title=" ">
<polygon fill="white" stroke="black" points="182.5,-39 182.5,-69 307.5,-69 307.5,-39 182.5,-39"/>
<text text-anchor="start" x="190.5" y="-57" font-family="Helvetica,sans-Serif" font-size="10.00">ezp::band_symm_mat</text>
<text text-anchor="middle" x="245" y="-46" font-family="Helvetica,sans-Serif" font-size="10.00">&lt; DT, IT &gt;</text>
</a>
</g>
</g>
<!-- Node0&#45;&gt;Node2 -->
<g id="edge2" class="edge">
<title>Node0&#45;&gt;Node2</title>
<path fill="none" stroke="midnightblue" d="M149.22,-54C160.35,-54 171.66,-54 182.4,-54"/>
<polygon fill="midnightblue" stroke="midnightblue" points="149.07,-50.5 139.07,-54 149.07,-57.5 149.07,-50.5"/>
</g>
<!-- Node3 -->
<g id="node4" class="node">
<title>Node3</title>
<g id="a_node4"><a xlink:href="d0/d58/structezp_1_1full__mat.html" target="_top" xlink:title=" ">
<polygon fill="white" stroke="black" points="179.5,-0.5 179.5,-19.5 310.5,-19.5 310.5,-0.5 179.5,-0.5"/>
<text text-anchor="middle" x="245" y="-7.5" font-family="Helvetica,sans-Serif" font-size="10.00">ezp::full_mat&lt; DT, IT &gt;</text>
</a>
</g>
</g>
<!-- Node0&#45;&gt;Node3 -->
<g id="edge3" class="edge">
<title>Node0&#45;&gt;Node3</title>
<path fill="none" stroke="midnightblue" d="M118.06,-41.94C145.89,-34.88 180.52,-26.1 206.43,-19.53"/>
<polygon fill="midnightblue" stroke="midnightblue" points="116.98,-38.6 108.15,-44.45 118.7,-45.39 116.98,-38.6"/>
</g>
</g>
</svg>
