<?xml version="1.0" encoding="UTF-8" standalone="no"?>
<!DOCTYPE svg PUBLIC "-//W3C//DTD SVG 1.1//EN"
 "http://www.w3.org/Graphics/SVG/1.1/DTD/svg11.dtd">
<!-- Generated by graphviz version 2.43.0 (0)
 -->
<!-- Title: Graphical Class Hierarchy Pages: 1 -->
<svg width="304pt" height="86pt"
 viewBox="0.00 0.00 304.00 86.00" xmlns="http://www.w3.org/2000/svg" xmlns:xlink="http://www.w3.org/1999/xlink">
<g id="graph0" class="graph" transform="scale(1 1) rotate(0) translate(4 82)">
<title>Graphical Class Hierarchy</title>
<!-- Node0 -->
<g id="Node000000" class="node">
<title>Node0</title>
<g id="a_Node000000"><a xlink:href="d7/d04/structezp_1_1detail_1_1non__copyable.html" target="_top" xlink:title=" ">
<polygon fill="white" stroke="#666666" points="141,-48.5 0,-48.5 0,-29.5 141,-29.5 141,-48.5"/>
<text text-anchor="middle" x="70.5" y="-36.5" font-family="Helvetica,sans-Serif" font-size="10.00">ezp::detail::non_copyable</text>
</a>
</g>
</g>
<!-- Node1 -->
<g id="Node000001" class="node">
<title>Node1</title>
<g id="a_Node000001"><a xlink:href="d4/d16/structezp_1_1sparse__coo__mat.html" target="_top" xlink:title=" ">
<polygon fill="white" stroke="#666666" points="296,-78 177,-78 177,-48 296,-48 296,-78"/>
<text text-anchor="start" x="185" y="-66" font-family="Helvetica,sans-Serif" font-size="10.00">ezp::sparse_coo_mat</text>
<text text-anchor="middle" x="236.5" y="-55" font-family="Helvetica,sans-Serif" font-size="10.00">&lt; DT, IT &gt;</text>
</a>
</g>
</g>
<!-- Node0&#45;&gt;Node1 -->
<g id="edge18_Node000000_Node000001" class="edge">
<title>Node0&#45;&gt;Node1</title>
<g id="a_edge18_Node000000_Node000001"><a xlink:title=" ">
<path fill="none" stroke="#63b8ff" d="M146.79,-50.02C156.87,-51.49 167.08,-52.99 176.81,-54.41"/>
<polygon fill="#63b8ff" stroke="#63b8ff" points="147.19,-46.54 136.79,-48.55 146.18,-53.47 147.19,-46.54"/>
</a>
</g>
</g>
<!-- Node2 -->
<g id="Node000002" class="node">
<title>Node2</title>
<g id="a_Node000002"><a xlink:href="d6/d5b/structezp_1_1sparse__csr__mat.html" target="_top" xlink:title=" ">
<polygon fill="white" stroke="#666666" points="294.5,-30 178.5,-30 178.5,0 294.5,0 294.5,-30"/>
<text text-anchor="start" x="186.5" y="-18" font-family="Helvetica,sans-Serif" font-size="10.00">ezp::sparse_csr_mat</text>
<text text-anchor="middle" x="236.5" y="-7" font-family="Helvetica,sans-Serif" font-size="10.00">&lt; DT, IT &gt;</text>
</a>
</g>
</g>
<!-- Node0&#45;&gt;Node2 -->
<g id="edge19_Node000000_Node000002" class="edge">
<title>Node0&#45;&gt;Node2</title>
<g id="a_edge19_Node000000_Node000002"><a xlink:title=" ">
<path fill="none" stroke="#63b8ff" d="M146.88,-27.97C157.47,-26.42 168.21,-24.85 178.38,-23.36"/>
<polygon fill="#63b8ff" stroke="#63b8ff" points="146.18,-24.53 136.79,-29.45 147.19,-31.46 146.18,-24.53"/>
</a>
</g>
</g>
</g>
</svg>
