<?xml version="1.0" encoding="UTF-8" standalone="no"?>
<!DOCTYPE svg PUBLIC "-//W3C//DTD SVG 1.1//EN"
 "http://www.w3.org/Graphics/SVG/1.1/DTD/svg11.dtd">
<!-- Generated by graphviz version 2.43.0 (0)
 -->
<!-- Title: ezp::detail::full_solver&lt; DT, IT, ODER &gt; Pages: 1 -->
<svg width="446pt" height="101pt"
 viewBox="0.00 0.00 446.00 100.50" xmlns="http://www.w3.org/2000/svg" xmlns:xlink="http://www.w3.org/1999/xlink">

<svg id="main" version="1.1" xmlns="http://www.w3.org/2000/svg" xmlns:xlink="http://www.w3.org/1999/xlink" xml:space="preserve" onload="init(evt)">
<style type="text/css"><![CDATA[
.node, .edge {opacity: 0.7;}
.node.selected, .edge.selected {opacity: 1;}
.edge:hover path { stroke: red; }
.edge:hover polygon { stroke: red; fill: red; }
]]></style>
<script type="application/ecmascript" xlink:href="../../svg.min.js"/>
<svg id="graph" class="graph">
<g id="graph0" class="graph" transform="scale(1 1) rotate(0) translate(4 96.5)">
<title>ezp::detail::full_solver&lt; DT, IT, ODER &gt;</title>
<!-- Node1 -->
<g id="Node000001" class="node">
<title>Node1</title>
<g id="a_Node000001"><a xlink:title=" ">
<polygon fill="#999999" stroke="#666666" points="438,-61 313,-61 313,-31 438,-31 438,-61"/>
<text text-anchor="start" x="321" y="-49" font-family="Helvetica,sans-Serif" font-size="10.00">ezp::detail::full_solver</text>
<text text-anchor="middle" x="375.5" y="-38" font-family="Helvetica,sans-Serif" font-size="10.00">&lt; DT, IT, ODER &gt;</text>
</a>
</g>
</g>
<!-- Node2 -->
<g id="Node000002" class="node">
<title>Node2</title>
<g id="a_Node000002"><a xlink:href="../../d0/df0/classezp_1_1detail_1_1abstract__solver.html" target="_top" xlink:title=" ">
<polygon fill="white" stroke="#bfbfbf" points="233.5,-92.5 120.5,-92.5 120.5,-51.5 233.5,-51.5 233.5,-92.5"/>
<text text-anchor="start" x="128.5" y="-80.5" font-family="Helvetica,sans-Serif" font-size="10.00">ezp::detail::abstract</text>
<text text-anchor="start" x="128.5" y="-69.5" font-family="Helvetica,sans-Serif" font-size="10.00">_solver&lt; DT, IT, full</text>
<text text-anchor="middle" x="177" y="-58.5" font-family="Helvetica,sans-Serif" font-size="10.00">_mat&lt; DT, IT &gt; &gt;</text>
</a>
</g>
</g>
<!-- Node2&#45;&gt;Node1 -->
<g id="edge1_Node000001_Node000002" class="edge">
<title>Node2&#45;&gt;Node1</title>
<g id="a_edge1_Node000001_Node000002"><a xlink:title=" ">
<path fill="none" stroke="#63b8ff" d="M243.6,-63.32C265.96,-60.36 290.87,-57.07 312.9,-54.15"/>
<polygon fill="#63b8ff" stroke="#63b8ff" points="242.98,-59.87 233.52,-64.65 243.89,-66.81 242.98,-59.87"/>
</a>
</g>
</g>
<!-- Node3 -->
<g id="Node000003" class="node">
<title>Node3</title>
<g id="a_Node000003"><a xlink:title=" ">
<polygon fill="white" stroke="#bfbfbf" points="29,-51.5 0,-51.5 0,-32.5 29,-32.5 29,-51.5"/>
<text text-anchor="middle" x="14.5" y="-39.5" font-family="Helvetica,sans-Serif" font-size="10.00">IT</text>
</a>
</g>
</g>
<!-- Node3&#45;&gt;Node2 -->
<g id="edge2_Node000002_Node000003" class="edge">
<title>Node3&#45;&gt;Node2</title>
<g id="a_edge2_Node000002_Node000003"><a xlink:title=" ">
<path fill="none" stroke="#9a32cd" stroke-dasharray="5,2" d="M38.7,-51.51C41.47,-52.44 44.28,-53.3 47,-54 70.65,-60.07 97.31,-64.23 120.22,-67"/>
<polygon fill="#9a32cd" stroke="#9a32cd" points="39.68,-48.14 29.08,-47.94 37.24,-54.7 39.68,-48.14"/>
</a>
</g>
<text text-anchor="middle" x="62" y="-75" font-family="Helvetica,sans-Serif" font-size="10.00" fill="grey"> ONE</text>
<text text-anchor="middle" x="62" y="-64" font-family="Helvetica,sans-Serif" font-size="10.00" fill="grey">ZERO</text>
</g>
<!-- Node4 -->
<g id="Node000004" class="node">
<title>Node4</title>
<g id="a_Node000004"><a xlink:title=" ">
<polygon fill="white" stroke="#bfbfbf" points="259,-30 95,-30 95,0 259,0 259,-30"/>
<text text-anchor="start" x="103" y="-18" font-family="Helvetica,sans-Serif" font-size="10.00">ezp::detail::full_solver</text>
<text text-anchor="middle" x="177" y="-7" font-family="Helvetica,sans-Serif" font-size="10.00">&lt; DT, IT, ODER &gt;::full_system</text>
</a>
</g>
</g>
<!-- Node3&#45;&gt;Node4 -->
<g id="edge4_Node000004_Node000003" class="edge">
<title>Node3&#45;&gt;Node4</title>
<g id="a_edge4_Node000004_Node000003"><a xlink:title=" ">
<path fill="none" stroke="#9a32cd" stroke-dasharray="5,2" d="M28.21,-24.32C33.33,-18.64 39.75,-13.04 47,-10 61.88,-3.77 78.6,-1.43 94.94,-1.3"/>
<polygon fill="#9a32cd" stroke="#9a32cd" points="25.24,-22.43 21.68,-32.41 30.68,-26.82 25.24,-22.43"/>
</a>
</g>
<text text-anchor="middle" x="62" y="-46" font-family="Helvetica,sans-Serif" font-size="10.00" fill="grey"> block</text>
<text text-anchor="middle" x="62" y="-35" font-family="Helvetica,sans-Serif" font-size="10.00" fill="grey">cols</text>
<text text-anchor="middle" x="62" y="-24" font-family="Helvetica,sans-Serif" font-size="10.00" fill="grey">n</text>
<text text-anchor="middle" x="62" y="-13" font-family="Helvetica,sans-Serif" font-size="10.00" fill="grey">rows</text>
</g>
<!-- Node4&#45;&gt;Node1 -->
<g id="edge3_Node000001_Node000004" class="edge">
<title>Node4&#45;&gt;Node1</title>
<g id="a_edge3_Node000001_Node000004"><a xlink:title=" ">
<path fill="none" stroke="#9a32cd" stroke-dasharray="5,2" d="M269.23,-29.39C284.01,-31.72 298.99,-34.09 312.84,-36.27"/>
<polygon fill="#9a32cd" stroke="#9a32cd" points="269.48,-25.89 259.06,-27.79 268.39,-32.8 269.48,-25.89"/>
</a>
</g>
<text text-anchor="middle" x="286" y="-37" font-family="Helvetica,sans-Serif" font-size="10.00" fill="grey"> loc</text>
</g>
</g>
</svg>
</svg>

<style type='text/css'>
<![CDATA[
[data-mouse-over-selected='false'] { opacity: 0.7; }
[data-mouse-over-selected='true']  { opacity: 1.0; }
]]>
</style>
<script type="application/ecmascript"><![CDATA[
document.addEventListener('DOMContentLoaded', (event) => {
  highlightEdges();
  highlightAdjacentNodes();
});
]]></script>
</svg>
