<?xml version="1.0" encoding="UTF-8" standalone="no"?>
<!DOCTYPE svg PUBLIC "-//W3C//DTD SVG 1.1//EN"
 "http://www.w3.org/Graphics/SVG/1.1/DTD/svg11.dtd">
<!-- Generated by graphviz version 2.43.0 (0)
 -->
<!-- Title: ezp::detail::band_solver&lt; IT &gt; Pages: 1 -->
<svg width="396pt" height="170pt"
 viewBox="0.00 0.00 396.00 170.00" xmlns="http://www.w3.org/2000/svg" xmlns:xlink="http://www.w3.org/1999/xlink">
<g id="graph0" class="graph" transform="scale(1 1) rotate(0) translate(4 166)">
<title>ezp::detail::band_solver&lt; IT &gt;</title>
<!-- Node1 -->
<g id="Node000001" class="node">
<title>Node1</title>
<g id="a_Node000001"><a xlink:title=" ">
<polygon fill="#999999" stroke="#666666" points="264.5,-96 131.5,-96 131.5,-66 264.5,-66 264.5,-96"/>
<text text-anchor="start" x="139.5" y="-84" font-family="Helvetica,sans-Serif" font-size="10.00">ezp::detail::band_solver</text>
<text text-anchor="middle" x="198" y="-73" font-family="Helvetica,sans-Serif" font-size="10.00">&lt; IT &gt;</text>
</a>
</g>
</g>
<!-- Node3 -->
<g id="Node000003" class="node">
<title>Node3</title>
<g id="a_Node000003"><a xlink:href="../../de/d4c/classezp_1_1pdbsv.html" target="_top" xlink:title=" ">
<polygon fill="white" stroke="#bfbfbf" points="120,-24.5 0,-24.5 0,-5.5 120,-5.5 120,-24.5"/>
<text text-anchor="middle" x="60" y="-12.5" font-family="Helvetica,sans-Serif" font-size="10.00">ezp::pdbsv&lt; DT, IT &gt;</text>
</a>
</g>
</g>
<!-- Node1&#45;&gt;Node3 -->
<g id="edge2_Node000001_Node000003" class="edge">
<title>Node1&#45;&gt;Node3</title>
<g id="a_edge2_Node000001_Node000003"><a xlink:title=" ">
<path fill="none" stroke="#63b8ff" d="M158.37,-61.62C132.03,-49.41 98.68,-33.94 78.37,-24.52"/>
<polygon fill="#63b8ff" stroke="#63b8ff" points="157.17,-64.92 167.72,-65.95 160.12,-58.57 157.17,-64.92"/>
</a>
</g>
</g>
<!-- Node4 -->
<g id="Node000004" class="node">
<title>Node4</title>
<g id="a_Node000004"><a xlink:href="../../d1/d7e/classezp_1_1pgbsv.html" target="_top" xlink:title=" ">
<polygon fill="white" stroke="#bfbfbf" points="258,-24.5 138,-24.5 138,-5.5 258,-5.5 258,-24.5"/>
<text text-anchor="middle" x="198" y="-12.5" font-family="Helvetica,sans-Serif" font-size="10.00">ezp::pgbsv&lt; DT, IT &gt;</text>
</a>
</g>
</g>
<!-- Node1&#45;&gt;Node4 -->
<g id="edge3_Node000001_Node000004" class="edge">
<title>Node1&#45;&gt;Node4</title>
<g id="a_edge3_Node000001_Node000004"><a xlink:title=" ">
<path fill="none" stroke="#63b8ff" d="M198,-55.6C198,-44.8 198,-32.78 198,-24.84"/>
<polygon fill="#63b8ff" stroke="#63b8ff" points="194.5,-55.8 198,-65.8 201.5,-55.8 194.5,-55.8"/>
</a>
</g>
</g>
<!-- Node5 -->
<g id="Node000005" class="node">
<title>Node5</title>
<g id="a_Node000005"><a xlink:href="../../d3/df1/classezp_1_1ppbsv.html" target="_top" xlink:title=" ">
<polygon fill="white" stroke="#bfbfbf" points="388,-30 276,-30 276,0 388,0 388,-30"/>
<text text-anchor="start" x="284" y="-18" font-family="Helvetica,sans-Serif" font-size="10.00">ezp::ppbsv&lt; DT, IT,</text>
<text text-anchor="middle" x="332" y="-7" font-family="Helvetica,sans-Serif" font-size="10.00"> UL &gt;</text>
</a>
</g>
</g>
<!-- Node1&#45;&gt;Node5 -->
<g id="edge4_Node000001_Node000005" class="edge">
<title>Node1&#45;&gt;Node5</title>
<g id="a_edge4_Node000001_Node000005"><a xlink:title=" ">
<path fill="none" stroke="#63b8ff" d="M236.71,-61.51C257.73,-51.47 283.3,-39.26 302.66,-30.01"/>
<polygon fill="#63b8ff" stroke="#63b8ff" points="234.92,-58.49 227.41,-65.95 237.94,-64.8 234.92,-58.49"/>
</a>
</g>
</g>
<!-- Node2 -->
<g id="Node000002" class="node">
<title>Node2</title>
<g id="a_Node000002"><a xlink:href="../../d0/df0/classezp_1_1detail_1_1abstract__solver.html" target="_top" xlink:title=" ">
<polygon fill="white" stroke="#bfbfbf" points="254.5,-162 141.5,-162 141.5,-132 254.5,-132 254.5,-162"/>
<text text-anchor="start" x="149.5" y="-150" font-family="Helvetica,sans-Serif" font-size="10.00">ezp::detail::abstract</text>
<text text-anchor="middle" x="198" y="-139" font-family="Helvetica,sans-Serif" font-size="10.00">_solver&lt; IT &gt;</text>
</a>
</g>
</g>
<!-- Node2&#45;&gt;Node1 -->
<g id="edge1_Node000001_Node000002" class="edge">
<title>Node2&#45;&gt;Node1</title>
<g id="a_edge1_Node000001_Node000002"><a xlink:title=" ">
<path fill="none" stroke="#63b8ff" d="M198,-121.54C198,-112.96 198,-103.61 198,-96.16"/>
<polygon fill="#63b8ff" stroke="#63b8ff" points="194.5,-121.8 198,-131.8 201.5,-121.8 194.5,-121.8"/>
</a>
</g>
</g>
</g>
</svg>
