<?xml version="1.0" encoding="UTF-8" standalone="no"?>
<!DOCTYPE svg PUBLIC "-//W3C//DTD SVG 1.1//EN"
 "http://www.w3.org/Graphics/SVG/1.1/DTD/svg11.dtd">
<!-- Generated by graphviz version 2.43.0 (0)
 -->
<!-- Title: ezp::pposv&lt; DT, IT, UL, ODER &gt; Pages: 1 -->
<svg width="595pt" height="98pt"
 viewBox="0.00 0.00 595.00 97.50" xmlns="http://www.w3.org/2000/svg" xmlns:xlink="http://www.w3.org/1999/xlink">
<g id="graph0" class="graph" transform="scale(1 1) rotate(0) translate(4 93.5)">
<title>ezp::pposv&lt; DT, IT, UL, ODER &gt;</title>
<!-- Node1 -->
<g id="Node000001" class="node">
<title>Node1</title>
<g id="a_Node000001"><a xlink:title=" ">
<polygon fill="#999999" stroke="#666666" points="587,-60 475,-60 475,-30 587,-30 587,-60"/>
<text text-anchor="start" x="483" y="-48" font-family="Helvetica,sans-Serif" font-size="10.00">ezp::pposv&lt; DT, IT,</text>
<text text-anchor="middle" x="531" y="-37" font-family="Helvetica,sans-Serif" font-size="10.00"> UL, ODER &gt;</text>
</a>
</g>
</g>
<!-- Node2 -->
<g id="Node000002" class="node">
<title>Node2</title>
<g id="a_Node000002"><a xlink:href="../../df/df0/classezp_1_1detail_1_1full__solver.html" target="_top" xlink:title=" ">
<polygon fill="white" stroke="#bfbfbf" points="438,-60 313,-60 313,-30 438,-30 438,-60"/>
<text text-anchor="start" x="321" y="-48" font-family="Helvetica,sans-Serif" font-size="10.00">ezp::detail::full_solver</text>
<text text-anchor="middle" x="375.5" y="-37" font-family="Helvetica,sans-Serif" font-size="10.00">&lt; DT, IT, ODER &gt;</text>
</a>
</g>
</g>
<!-- Node2&#45;&gt;Node1 -->
<g id="edge1_Node000001_Node000002" class="edge">
<title>Node2&#45;&gt;Node1</title>
<g id="a_edge1_Node000001_Node000002"><a xlink:title=" ">
<path fill="none" stroke="#63b8ff" d="M448.13,-45C457.12,-45 466.2,-45 474.88,-45"/>
<polygon fill="#63b8ff" stroke="#63b8ff" points="448.05,-41.5 438.05,-45 448.05,-48.5 448.05,-41.5"/>
</a>
</g>
</g>
<!-- Node3 -->
<g id="Node000003" class="node">
<title>Node3</title>
<g id="a_Node000003"><a xlink:href="../../d0/df0/classezp_1_1detail_1_1abstract__solver.html" target="_top" xlink:title=" ">
<polygon fill="white" stroke="#bfbfbf" points="233.5,-89.5 120.5,-89.5 120.5,-48.5 233.5,-48.5 233.5,-89.5"/>
<text text-anchor="start" x="128.5" y="-77.5" font-family="Helvetica,sans-Serif" font-size="10.00">ezp::detail::abstract</text>
<text text-anchor="start" x="128.5" y="-66.5" font-family="Helvetica,sans-Serif" font-size="10.00">_solver&lt; DT, IT, full</text>
<text text-anchor="middle" x="177" y="-55.5" font-family="Helvetica,sans-Serif" font-size="10.00">_mat&lt; DT, IT &gt; &gt;</text>
</a>
</g>
</g>
<!-- Node3&#45;&gt;Node2 -->
<g id="edge2_Node000002_Node000003" class="edge">
<title>Node3&#45;&gt;Node2</title>
<g id="a_edge2_Node000002_Node000003"><a xlink:title=" ">
<path fill="none" stroke="#63b8ff" d="M243.6,-60.99C265.96,-58.26 290.87,-55.21 312.9,-52.52"/>
<polygon fill="#63b8ff" stroke="#63b8ff" points="243.02,-57.53 233.52,-62.22 243.87,-64.48 243.02,-57.53"/>
</a>
</g>
</g>
<!-- Node4 -->
<g id="Node000004" class="node">
<title>Node4</title>
<g id="a_Node000004"><a xlink:title=" ">
<polygon fill="white" stroke="#bfbfbf" points="29,-51.5 0,-51.5 0,-32.5 29,-32.5 29,-51.5"/>
<text text-anchor="middle" x="14.5" y="-39.5" font-family="Helvetica,sans-Serif" font-size="10.00">IT</text>
</a>
</g>
</g>
<!-- Node4&#45;&gt;Node3 -->
<g id="edge3_Node000003_Node000004" class="edge">
<title>Node4&#45;&gt;Node3</title>
<g id="a_edge3_Node000003_Node000004"><a xlink:title=" ">
<path fill="none" stroke="#9a32cd" stroke-dasharray="5,2" d="M39.16,-46.58C41.8,-47.07 44.46,-47.55 47,-48 71.02,-52.24 97.61,-56.62 120.39,-60.28"/>
<polygon fill="#9a32cd" stroke="#9a32cd" points="39.76,-43.13 29.29,-44.71 38.46,-50.01 39.76,-43.13"/>
</a>
</g>
<text text-anchor="middle" x="62" y="-67" font-family="Helvetica,sans-Serif" font-size="10.00" fill="grey"> ONE</text>
<text text-anchor="middle" x="62" y="-56" font-family="Helvetica,sans-Serif" font-size="10.00" fill="grey">ZERO</text>
</g>
<!-- Node5 -->
<g id="Node000005" class="node">
<title>Node5</title>
<g id="a_Node000005"><a xlink:title=" ">
<polygon fill="white" stroke="#bfbfbf" points="259,-30 95,-30 95,0 259,0 259,-30"/>
<text text-anchor="start" x="103" y="-18" font-family="Helvetica,sans-Serif" font-size="10.00">ezp::detail::full_solver</text>
<text text-anchor="middle" x="177" y="-7" font-family="Helvetica,sans-Serif" font-size="10.00">&lt; DT, IT, ODER &gt;::full_system</text>
</a>
</g>
</g>
<!-- Node4&#45;&gt;Node5 -->
<g id="edge5_Node000005_Node000004" class="edge">
<title>Node4&#45;&gt;Node5</title>
<g id="a_edge5_Node000005_Node000004"><a xlink:title=" ">
<path fill="none" stroke="#9a32cd" stroke-dasharray="5,2" d="M28.51,-24.64C33.61,-19.21 39.94,-13.89 47,-11 61.83,-4.93 78.43,-2.56 94.67,-2.3"/>
<polygon fill="#9a32cd" stroke="#9a32cd" points="25.74,-22.5 21.98,-32.4 31.1,-27.01 25.74,-22.5"/>
</a>
</g>
<text text-anchor="middle" x="62" y="-36" font-family="Helvetica,sans-Serif" font-size="10.00" fill="grey"> block</text>
<text text-anchor="middle" x="62" y="-25" font-family="Helvetica,sans-Serif" font-size="10.00" fill="grey">n</text>
<text text-anchor="middle" x="62" y="-14" font-family="Helvetica,sans-Serif" font-size="10.00" fill="grey">rows</text>
</g>
<!-- Node5&#45;&gt;Node2 -->
<g id="edge4_Node000002_Node000005" class="edge">
<title>Node5&#45;&gt;Node2</title>
<g id="a_edge4_Node000002_Node000005"><a xlink:title=" ">
<path fill="none" stroke="#9a32cd" stroke-dasharray="5,2" d="M269.23,-28.93C284.01,-31.18 298.99,-33.47 312.84,-35.59"/>
<polygon fill="#9a32cd" stroke="#9a32cd" points="269.47,-25.42 259.06,-27.38 268.42,-32.34 269.47,-25.42"/>
</a>
</g>
<text text-anchor="middle" x="286" y="-36" font-family="Helvetica,sans-Serif" font-size="10.00" fill="grey"> loc</text>
</g>
</g>
</svg>
