<?xml version="1.0" encoding="UTF-8" standalone="no"?>
<!DOCTYPE svg PUBLIC "-//W3C//DTD SVG 1.1//EN"
 "http://www.w3.org/Graphics/SVG/1.1/DTD/svg11.dtd">
<!-- Generated by graphviz version 2.43.0 (0)
 -->
<!-- Title: ezp::pposv&lt; DT, IT, UL, ODER &gt; Pages: 1 -->
<!--zoomable 88 -->

<svg id="main" version="1.1" xmlns="http://www.w3.org/2000/svg" xmlns:xlink="http://www.w3.org/1999/xlink" xml:space="preserve" onload="init(evt)">
<style type="text/css"><![CDATA[
.node, .edge {opacity: 0.7;}
.node.selected, .edge.selected {opacity: 1;}
.edge:hover path { stroke: red; }
.edge:hover polygon { stroke: red; fill: red; }
]]></style>

<defs>
  <circle id="rim" cx="0" cy="0" r="7"/>
  <circle id="rim2" cx="0" cy="0" r="3.5"/>
  <g id="zoomPlus">
    <use xlink:href="#rim" fill="#404040"><set attributeName="fill" to="#808080" begin="zoomplus.mouseover" end="zoomplus.mouseout"/></use>
    <path d="M-4,0h8M0,-4v8" fill="none" stroke="white" stroke-width="1.5" pointer-events="none"/>
  </g>
  <g id="zoomMin">
    <use xlink:href="#rim" fill="#404040"><set attributeName="fill" to="#808080" begin="zoomminus.mouseover" end="zoomminus.mouseout"/></use>
    <path d="M-4,0h8" fill="none" stroke="white" stroke-width="1.5" pointer-events="none"/>
  </g>
  <g id="arrowUp" transform="translate(30 24)">
    <use xlink:href="#rim"/>
    <path pointer-events="none" fill="none" stroke="white" stroke-width="1.5" d="M0,-3.0v7 M-2.5,-0.5L0,-3.0L2.5,-0.5"/>
  </g>
  <g id="arrowRight" transform="rotate(90) translate(36 -43)">
    <use xlink:href="#rim"/>
    <path pointer-events="none" fill="none" stroke="white" stroke-width="1.5" d="M0,-3.0v7 M-2.5,-0.5L0,-3.0L2.5,-0.5"/>
  </g>
  <g id="arrowDown" transform="rotate(180) translate(-30 -48)">
    <use xlink:href="#rim"/>
    <path pointer-events="none" fill="none" stroke="white" stroke-width="1.5" d="M0,-3.0v7 M-2.5,-0.5L0,-3.0L2.5,-0.5"/>
  </g>
  <g id="arrowLeft" transform="rotate(270) translate(-36 17)">
    <use xlink:href="#rim"/>
    <path pointer-events="none" fill="none" stroke="white" stroke-width="1.5" d="M0,-3.0v7 M-2.5,-0.5L0,-3.0L2.5,-0.5"/>
  </g>
  <g id="resetDef">
    <use xlink:href="#rim2" fill="#404040"><set attributeName="fill" to="#808080" begin="reset.mouseover" end="reset.mouseout"/></use>
  </g>
</defs>
<script type="application/ecmascript">
var viewWidth = 595;
var viewHeight = 88;
var sectionId = 'dynsection-1';
</script>
<script type="application/ecmascript" xlink:href="../../svg.min.js"/>
<svg id="graph" class="graph">
<g id="viewport">
<title>ezp::pposv&lt; DT, IT, UL, ODER &gt;</title>
<!-- Node1 -->
<g id="Node000001" class="node">
<title>Node1</title>
<g id="a_Node000001"><a xlink:title=" ">
<polygon fill="#999999" stroke="#666666" points="587,-57 475,-57 475,-27 587,-27 587,-57"/>
<text text-anchor="start" x="483" y="-45" font-family="Helvetica,sans-Serif" font-size="10.00">ezp::pposv&lt; DT, IT,</text>
<text text-anchor="middle" x="531" y="-34" font-family="Helvetica,sans-Serif" font-size="10.00"> UL, ODER &gt;</text>
</a>
</g>
</g>
<!-- Node2 -->
<g id="Node000002" class="node">
<title>Node2</title>
<g id="a_Node000002"><a xlink:href="../../df/df0/classezp_1_1detail_1_1full__solver.html" target="_top" xlink:title=" ">
<polygon fill="white" stroke="#bfbfbf" points="438,-57 313,-57 313,-27 438,-27 438,-57"/>
<text text-anchor="start" x="321" y="-45" font-family="Helvetica,sans-Serif" font-size="10.00">ezp::detail::full_solver</text>
<text text-anchor="middle" x="375.5" y="-34" font-family="Helvetica,sans-Serif" font-size="10.00">&lt; DT, IT, ODER &gt;</text>
</a>
</g>
</g>
<!-- Node2&#45;&gt;Node1 -->
<g id="edge1_Node000001_Node000002" class="edge">
<title>Node2&#45;&gt;Node1</title>
<g id="a_edge1_Node000001_Node000002"><a xlink:title=" ">
<path fill="none" stroke="#63b8ff" d="M448.13,-42C457.12,-42 466.2,-42 474.88,-42"/>
<polygon fill="#63b8ff" stroke="#63b8ff" points="448.05,-38.5 438.05,-42 448.05,-45.5 448.05,-38.5"/>
</a>
</g>
</g>
<!-- Node3 -->
<g id="Node000003" class="node">
<title>Node3</title>
<g id="a_Node000003"><a xlink:href="../../d0/df0/classezp_1_1detail_1_1abstract__solver.html" target="_top" xlink:title=" ">
<polygon fill="white" stroke="#bfbfbf" points="233.5,-80 120.5,-80 120.5,-50 233.5,-50 233.5,-80"/>
<text text-anchor="start" x="128.5" y="-68" font-family="Helvetica,sans-Serif" font-size="10.00">ezp::detail::abstract</text>
<text text-anchor="middle" x="177" y="-57" font-family="Helvetica,sans-Serif" font-size="10.00">_solver&lt; IT &gt;</text>
</a>
</g>
</g>
<!-- Node3&#45;&gt;Node2 -->
<g id="edge2_Node000002_Node000003" class="edge">
<title>Node3&#45;&gt;Node2</title>
<g id="a_edge2_Node000002_Node000003"><a xlink:title=" ">
<path fill="none" stroke="#63b8ff" d="M243.6,-57.32C265.96,-54.7 290.87,-51.79 312.9,-49.21"/>
<polygon fill="#63b8ff" stroke="#63b8ff" points="243.05,-53.86 233.52,-58.5 243.86,-60.81 243.05,-53.86"/>
</a>
</g>
</g>
<!-- Node4 -->
<g id="Node000004" class="node">
<title>Node4</title>
<g id="a_Node000004"><a xlink:title=" ">
<polygon fill="white" stroke="#bfbfbf" points="29,-48.5 0,-48.5 0,-29.5 29,-29.5 29,-48.5"/>
<text text-anchor="middle" x="14.5" y="-36.5" font-family="Helvetica,sans-Serif" font-size="10.00">IT</text>
</a>
</g>
</g>
<!-- Node4&#45;&gt;Node3 -->
<g id="edge3_Node000003_Node000004" class="edge">
<title>Node4&#45;&gt;Node3</title>
<g id="a_edge3_Node000003_Node000004"><a xlink:title=" ">
<path fill="none" stroke="#9a32cd" stroke-dasharray="5,2" d="M39.16,-43.6C41.8,-44.08 44.46,-44.56 47,-45 71.01,-49.15 97.6,-53.34 120.37,-56.8"/>
<polygon fill="#9a32cd" stroke="#9a32cd" points="39.76,-40.15 29.28,-41.73 38.46,-47.03 39.76,-40.15"/>
</a>
</g>
<text text-anchor="middle" x="62" y="-63" font-family="Helvetica,sans-Serif" font-size="10.00" fill="grey"> ONE</text>
<text text-anchor="middle" x="62" y="-52" font-family="Helvetica,sans-Serif" font-size="10.00" fill="grey">ZERO</text>
</g>
<!-- Node5 -->
<g id="Node000005" class="node">
<title>Node5</title>
<g id="a_Node000005"><a xlink:title=" ">
<polygon fill="white" stroke="#bfbfbf" points="259,-30 95,-30 95,0 259,0 259,-30"/>
<text text-anchor="start" x="103" y="-18" font-family="Helvetica,sans-Serif" font-size="10.00">ezp::detail::full_solver</text>
<text text-anchor="middle" x="177" y="-7" font-family="Helvetica,sans-Serif" font-size="10.00">&lt; DT, IT, ODER &gt;::full_system</text>
</a>
</g>
</g>
<!-- Node4&#45;&gt;Node5 -->
<g id="edge5_Node000005_Node000004" class="edge">
<title>Node4&#45;&gt;Node5</title>
<g id="a_edge5_Node000005_Node000004"><a xlink:title=" ">
<path fill="none" stroke="#9a32cd" stroke-dasharray="5,2" d="M30.65,-22.28C35.42,-18.11 41.03,-14.21 47,-12 62.02,-6.44 78.72,-4.22 94.98,-3.91"/>
<polygon fill="#9a32cd" stroke="#9a32cd" points="28.18,-19.79 23.47,-29.28 33.07,-24.8 28.18,-19.79"/>
</a>
</g>
<text text-anchor="middle" x="62" y="-37" font-family="Helvetica,sans-Serif" font-size="10.00" fill="grey"> block</text>
<text text-anchor="middle" x="62" y="-26" font-family="Helvetica,sans-Serif" font-size="10.00" fill="grey">n</text>
<text text-anchor="middle" x="62" y="-15" font-family="Helvetica,sans-Serif" font-size="10.00" fill="grey">rows</text>
</g>
<!-- Node5&#45;&gt;Node2 -->
<g id="edge4_Node000002_Node000005" class="edge">
<title>Node5&#45;&gt;Node2</title>
<g id="a_edge4_Node000002_Node000005"><a xlink:title=" ">
<path fill="none" stroke="#9a32cd" stroke-dasharray="5,2" d="M269.23,-27.54C284.01,-29.57 298.99,-31.62 312.84,-33.53"/>
<polygon fill="#9a32cd" stroke="#9a32cd" points="269.44,-24.03 259.06,-26.14 268.49,-30.97 269.44,-24.03"/>
</a>
</g>
<text text-anchor="middle" x="286" y="-33" font-family="Helvetica,sans-Serif" font-size="10.00" fill="grey"> loc</text>
</g>
</g>
</svg>

<g id="navigator" transform="translate(0 0)" fill="#404254">
  <rect fill="#f2f5e9" fill-opacity="0.5" stroke="#606060" stroke-width=".5" x="0" y="0" width="60" height="60"/>
  <use id="zoomplus" xlink:href="#zoomPlus" x="17" y="9" onmousedown="handleZoom(evt,'in')"/>
  <use id="zoomminus" xlink:href="#zoomMin" x="42" y="9" onmousedown="handleZoom(evt,'out')"/>
  <use id="reset" xlink:href="#resetDef" x="30" y="36" onmousedown="handleReset()"/>
   <use id="arrowup" xlink:href="#arrowUp" x="0" y="0" onmousedown="handlePan(0,-1)"/>
  <use id="arrowright" xlink:href="#arrowRight" x="0" y="0" onmousedown="handlePan(1,0)"/>
  <use id="arrowdown" xlink:href="#arrowDown" x="0" y="0" onmousedown="handlePan(0,1)"/>
  <use id="arrowleft" xlink:href="#arrowLeft" x="0" y="0" onmousedown="handlePan(-1,0)"/>
</g>
<svg viewBox="0 0 15 15" width="100%" height="30px" preserveAspectRatio="xMaxYMin meet">
 <g id="arrow_out" transform="scale(0.3 0.3)">
  <a xlink:href="classezp_1_1pposv__coll__graph_org.svg" target="_base">
   <rect id="button" ry="5" rx="5" y="6" x="6" height="38" width="38"
        fill="#f2f5e9" fill-opacity="0.5" stroke="#606060" stroke-width="1.0"/>
   <path id="arrow"
     d="M 11.500037,31.436501 C 11.940474,20.09759 22.043105,11.32322 32.158766,21.979434 L 37.068811,17.246167 C 37.068811,17.246167 37.088388,32 37.088388,32 L 22.160133,31.978069 C 22.160133,31.978069 26.997745,27.140456 26.997745,27.140456 C 18.528582,18.264221 13.291696,25.230495 11.500037,31.436501 z"
     style="fill:#404040;"/>
  </a>
 </g>
</svg>

<style type='text/css'>
<![CDATA[
[data-mouse-over-selected='false'] { opacity: 0.7; }
[data-mouse-over-selected='true']  { opacity: 1.0; }
]]>
</style>
<script type="application/ecmascript"><![CDATA[
document.addEventListener('DOMContentLoaded', (event) => {
  highlightEdges();
  highlightAdjacentNodes();
});
]]></script>
</svg>
