<?xml version="1.0" encoding="UTF-8" standalone="no"?>
<!DOCTYPE svg PUBLIC "-//W3C//DTD SVG 1.1//EN"
 "http://www.w3.org/Graphics/SVG/1.1/DTD/svg11.dtd">
<!-- Generated by graphviz version 2.43.0 (0)
 -->
<!-- Title: ezp::pgbsv&lt; DT, IT &gt; Pages: 1 -->
<svg width="147pt" height="253pt"
 viewBox="0.00 0.00 147.00 253.00" xmlns="http://www.w3.org/2000/svg" xmlns:xlink="http://www.w3.org/1999/xlink">
<g id="graph0" class="graph" transform="scale(1 1) rotate(0) translate(4 249)">
<title>ezp::pgbsv&lt; DT, IT &gt;</title>
<polygon fill="white" stroke="transparent" points="-4,4 -4,-249 143,-249 143,4 -4,4"/>
<!-- Node1 -->
<g id="node1" class="node">
<title>Node1</title>
<g id="a_node1"><a xlink:title=" ">
<polygon fill="#bfbfbf" stroke="black" points="9.5,-0.5 9.5,-19.5 129.5,-19.5 129.5,-0.5 9.5,-0.5"/>
<text text-anchor="middle" x="69.5" y="-7.5" font-family="Helvetica,sans-Serif" font-size="10.00">ezp::pgbsv&lt; DT, IT &gt;</text>
</a>
</g>
</g>
<!-- Node2 -->
<g id="node2" class="node">
<title>Node2</title>
<g id="a_node2"><a xlink:href="../../d0/db0/classezp_1_1detail_1_1band__solver.html" target="_top" xlink:title=" ">
<polygon fill="white" stroke="black" points="0,-57.5 0,-98.5 139,-98.5 139,-57.5 0,-57.5"/>
<text text-anchor="start" x="8" y="-86.5" font-family="Helvetica,sans-Serif" font-size="10.00">ezp::detail::band_solver</text>
<text text-anchor="start" x="8" y="-75.5" font-family="Helvetica,sans-Serif" font-size="10.00">&lt; DT, IT, band_mat&lt; DT,</text>
<text text-anchor="middle" x="69.5" y="-64.5" font-family="Helvetica,sans-Serif" font-size="10.00"> IT &gt; &gt;</text>
</a>
</g>
</g>
<!-- Node2&#45;&gt;Node1 -->
<g id="edge1" class="edge">
<title>Node2&#45;&gt;Node1</title>
<path fill="none" stroke="midnightblue" d="M69.5,-47.12C69.5,-37.17 69.5,-26.84 69.5,-19.79"/>
<polygon fill="midnightblue" stroke="midnightblue" points="66,-47.2 69.5,-57.2 73,-47.2 66,-47.2"/>
</g>
<!-- Node3 -->
<g id="node3" class="node">
<title>Node3</title>
<g id="a_node3"><a xlink:href="../../d0/df0/classezp_1_1detail_1_1abstract__solver.html" target="_top" xlink:title=" ">
<polygon fill="white" stroke="black" points="7,-136.5 7,-166.5 132,-166.5 132,-136.5 7,-136.5"/>
<text text-anchor="start" x="15" y="-154.5" font-family="Helvetica,sans-Serif" font-size="10.00">ezp::detail::abstract</text>
<text text-anchor="middle" x="69.5" y="-143.5" font-family="Helvetica,sans-Serif" font-size="10.00">_solver&lt; DT, IT, WT &gt;</text>
</a>
</g>
</g>
<!-- Node3&#45;&gt;Node2 -->
<g id="edge2" class="edge">
<title>Node3&#45;&gt;Node2</title>
<path fill="none" stroke="midnightblue" d="M69.5,-126.1C69.5,-117.1 69.5,-107.02 69.5,-98.51"/>
<polygon fill="midnightblue" stroke="midnightblue" points="66,-126.37 69.5,-136.37 73,-126.37 66,-126.37"/>
</g>
<!-- Node4 -->
<g id="node4" class="node">
<title>Node4</title>
<g id="a_node4"><a xlink:title=" ">
<polygon fill="white" stroke="#bfbfbf" points="55,-225.5 55,-244.5 84,-244.5 84,-225.5 55,-225.5"/>
<text text-anchor="middle" x="69.5" y="-232.5" font-family="Helvetica,sans-Serif" font-size="10.00">IT</text>
</a>
</g>
</g>
<!-- Node4&#45;&gt;Node3 -->
<g id="edge3" class="edge">
<title>Node4&#45;&gt;Node3</title>
<path fill="none" stroke="#9a32cd" stroke-dasharray="5,2" d="M69.5,-215.23C69.5,-200.41 69.5,-180.05 69.5,-166.6"/>
<polygon fill="#9a32cd" stroke="#9a32cd" points="66,-215.28 69.5,-225.28 73,-215.28 66,-215.28"/>
<text text-anchor="middle" x="83.5" y="-199" font-family="Helvetica,sans-Serif" font-size="10.00"> ONE</text>
<text text-anchor="middle" x="83.5" y="-188" font-family="Helvetica,sans-Serif" font-size="10.00">ZERO</text>
</g>
</g>
</svg>
