<?xml version="1.0" encoding="UTF-8" standalone="no"?>
<!DOCTYPE svg PUBLIC "-//W3C//DTD SVG 1.1//EN"
 "http://www.w3.org/Graphics/SVG/1.1/DTD/svg11.dtd">
<!-- Generated by graphviz version 2.43.0 (0)
 -->
<!-- Title: ezp/mumps.hpp Pages: 1 -->
<svg width="342pt" height="140pt"
 viewBox="0.00 0.00 341.50 140.00" xmlns="http://www.w3.org/2000/svg" xmlns:xlink="http://www.w3.org/1999/xlink">
<g id="graph0" class="graph" transform="scale(1 1) rotate(0) translate(4 136)">
<title>ezp/mumps.hpp</title>
<polygon fill="white" stroke="transparent" points="-4,4 -4,-136 337.5,-136 337.5,4 -4,4"/>
<!-- Node1 -->
<g id="node1" class="node">
<title>Node1</title>
<g id="a_node1"><a xlink:title=" ">
<polygon fill="#bfbfbf" stroke="black" points="120.5,-112.5 120.5,-131.5 215.5,-131.5 215.5,-112.5 120.5,-112.5"/>
<text text-anchor="middle" x="168" y="-119.5" font-family="Helvetica,sans-Serif" font-size="10.00">ezp/mumps.hpp</text>
</a>
</g>
</g>
<!-- Node2 -->
<g id="node2" class="node">
<title>Node2</title>
<g id="a_node2"><a xlink:href="../../d6/da5/example_8mumps_8cpp.html" target="_top" xlink:title="Example caller to the mumps solver.">
<polygon fill="white" stroke="black" points="0,-56.5 0,-75.5 170,-75.5 170,-56.5 0,-56.5"/>
<text text-anchor="middle" x="85" y="-63.5" font-family="Helvetica,sans-Serif" font-size="10.00">examples/example.mumps.cpp</text>
</a>
</g>
</g>
<!-- Node1&#45;&gt;Node2 -->
<g id="edge1" class="edge">
<title>Node1&#45;&gt;Node2</title>
<path fill="none" stroke="midnightblue" d="M145.9,-106.62C130.74,-96.76 111.12,-83.99 98.3,-75.65"/>
<polygon fill="midnightblue" stroke="midnightblue" points="144.37,-109.8 154.66,-112.32 148.19,-103.94 144.37,-109.8"/>
</g>
<!-- Node3 -->
<g id="node3" class="node">
<title>Node3</title>
<g id="a_node3"><a xlink:href="../../d7/db7/mumps_8parser_8hpp.html" target="_top" xlink:title=" ">
<polygon fill="white" stroke="black" points="188,-56.5 188,-75.5 316,-75.5 316,-56.5 188,-56.5"/>
<text text-anchor="middle" x="252" y="-63.5" font-family="Helvetica,sans-Serif" font-size="10.00">ezp/mumps.parser.hpp</text>
</a>
</g>
</g>
<!-- Node1&#45;&gt;Node3 -->
<g id="edge2" class="edge">
<title>Node1&#45;&gt;Node3</title>
<path fill="none" stroke="midnightblue" d="M189.93,-106.9C205.34,-97 225.45,-84.07 238.54,-75.65"/>
<polygon fill="midnightblue" stroke="midnightblue" points="188.02,-103.97 181.5,-112.32 191.8,-109.86 188.02,-103.97"/>
</g>
<!-- Node4 -->
<g id="node4" class="node">
<title>Node4</title>
<g id="a_node4"><a xlink:href="../../dc/dff/solver_8mumps_8cpp.html" target="_top" xlink:title="Standalone mumps solver.">
<polygon fill="white" stroke="black" points="170.5,-0.5 170.5,-19.5 333.5,-19.5 333.5,-0.5 170.5,-0.5"/>
<text text-anchor="middle" x="252" y="-7.5" font-family="Helvetica,sans-Serif" font-size="10.00">standalone/solver.mumps.cpp</text>
</a>
</g>
</g>
<!-- Node3&#45;&gt;Node4 -->
<g id="edge3" class="edge">
<title>Node3&#45;&gt;Node4</title>
<path fill="none" stroke="midnightblue" d="M252,-45.8C252,-36.91 252,-26.78 252,-19.75"/>
<polygon fill="midnightblue" stroke="midnightblue" points="248.5,-46.08 252,-56.08 255.5,-46.08 248.5,-46.08"/>
</g>
</g>
</svg>
