<?xml version="1.0" encoding="UTF-8" standalone="no"?>
<!DOCTYPE svg PUBLIC "-//W3C//DTD SVG 1.1//EN"
 "http://www.w3.org/Graphics/SVG/1.1/DTD/svg11.dtd">
<!-- Generated by graphviz version 2.43.0 (0)
 -->
<!-- Title: ezp/mumps.hpp Pages: 1 -->
<svg width="506pt" height="82pt"
 viewBox="0.00 0.00 505.50 82.00" xmlns="http://www.w3.org/2000/svg" xmlns:xlink="http://www.w3.org/1999/xlink">
<g id="graph0" class="graph" transform="scale(1 1) rotate(0) translate(4 78)">
<title>ezp/mumps.hpp</title>
<!-- Node1 -->
<g id="Node000001" class="node">
<title>Node1</title>
<g id="a_Node000001"><a xlink:title=" ">
<polygon fill="#999999" stroke="#666666" points="299.5,-74 204.5,-74 204.5,-55 299.5,-55 299.5,-74"/>
<text text-anchor="middle" x="252" y="-62" font-family="Helvetica,sans-Serif" font-size="10.00">ezp/mumps.hpp</text>
</a>
</g>
</g>
<!-- Node2 -->
<g id="Node000002" class="node">
<title>Node2</title>
<g id="a_Node000002"><a xlink:href="../../d6/da5/example_8mumps_8cpp.html" target="_top" xlink:title="Example caller to the mumps solver.">
<polygon fill="white" stroke="#666666" points="170,-19 0,-19 0,0 170,0 170,-19"/>
<text text-anchor="middle" x="85" y="-7" font-family="Helvetica,sans-Serif" font-size="10.00">examples/example.mumps.cpp</text>
</a>
</g>
</g>
<!-- Node1&#45;&gt;Node2 -->
<g id="edge1_Node000001_Node000002" class="edge">
<title>Node1&#45;&gt;Node2</title>
<g id="a_edge1_Node000001_Node000002"><a xlink:title=" ">
<path fill="none" stroke="#63b8ff" d="M215.54,-51.93C184.34,-42.03 140.16,-28.01 112.04,-19.08"/>
<polygon fill="#63b8ff" stroke="#63b8ff" points="214.58,-55.3 225.17,-54.98 216.7,-48.62 214.58,-55.3"/>
</a>
</g>
</g>
<!-- Node3 -->
<g id="Node000003" class="node">
<title>Node3</title>
<g id="a_Node000003"><a xlink:href="../../d7/db7/mumps_8parser_8hpp.html" target="_top" xlink:title=" ">
<polygon fill="white" stroke="#666666" points="316,-19 188,-19 188,0 316,0 316,-19"/>
<text text-anchor="middle" x="252" y="-7" font-family="Helvetica,sans-Serif" font-size="10.00">ezp/mumps.parser.hpp</text>
</a>
</g>
</g>
<!-- Node1&#45;&gt;Node3 -->
<g id="edge2_Node000001_Node000003" class="edge">
<title>Node1&#45;&gt;Node3</title>
<g id="a_edge2_Node000001_Node000003"><a xlink:title=" ">
<path fill="none" stroke="#63b8ff" d="M252,-44.66C252,-35.93 252,-25.99 252,-19.09"/>
<polygon fill="#63b8ff" stroke="#63b8ff" points="248.5,-44.75 252,-54.75 255.5,-44.75 248.5,-44.75"/>
</a>
</g>
</g>
<!-- Node4 -->
<g id="Node000004" class="node">
<title>Node4</title>
<g id="a_Node000004"><a xlink:href="../../dc/dff/solver_8mumps_8cpp.html" target="_top" xlink:title="Standalone mumps solver.">
<polygon fill="white" stroke="#666666" points="497.5,-19 334.5,-19 334.5,0 497.5,0 497.5,-19"/>
<text text-anchor="middle" x="416" y="-7" font-family="Helvetica,sans-Serif" font-size="10.00">standalone/solver.mumps.cpp</text>
</a>
</g>
</g>
<!-- Node1&#45;&gt;Node4 -->
<g id="edge3_Node000001_Node000004" class="edge">
<title>Node1&#45;&gt;Node4</title>
<g id="a_edge3_Node000001_Node000004"><a xlink:title=" ">
<path fill="none" stroke="#63b8ff" d="M288.21,-51.8C318.82,-41.91 361.95,-27.97 389.44,-19.08"/>
<polygon fill="#63b8ff" stroke="#63b8ff" points="286.79,-48.58 278.35,-54.98 288.94,-55.24 286.79,-48.58"/>
</a>
</g>
</g>
</g>
</svg>
