<?xml version="1.0" encoding="UTF-8" standalone="no"?>
<!DOCTYPE svg PUBLIC "-//W3C//DTD SVG 1.1//EN"
 "http://www.w3.org/Graphics/SVG/1.1/DTD/svg11.dtd">
<!-- Generated by graphviz version 2.43.0 (0)
 -->
<!-- Title: ezp/lis.hpp Pages: 1 -->
<svg width="308pt" height="82pt"
 viewBox="0.00 0.00 308.00 82.00" xmlns="http://www.w3.org/2000/svg" xmlns:xlink="http://www.w3.org/1999/xlink">
<g id="graph0" class="graph" transform="scale(1 1) rotate(0) translate(4 78)">
<title>ezp/lis.hpp</title>
<!-- Node1 -->
<g id="Node000001" class="node">
<title>Node1</title>
<g id="a_Node000001"><a xlink:title=" ">
<polygon fill="#999999" stroke="#666666" points="186,-74 117,-74 117,-55 186,-55 186,-74"/>
<text text-anchor="middle" x="151.5" y="-62" font-family="Helvetica,sans-Serif" font-size="10.00">ezp/lis.hpp</text>
</a>
</g>
</g>
<!-- Node2 -->
<g id="Node000002" class="node">
<title>Node2</title>
<g id="a_Node000002"><a xlink:href="../../da/d16/example_8lis_8cpp.html" target="_top" xlink:title="Example caller to the lis solver.">
<polygon fill="white" stroke="#666666" points="145,-19 0,-19 0,0 145,0 145,-19"/>
<text text-anchor="middle" x="72.5" y="-7" font-family="Helvetica,sans-Serif" font-size="10.00">examples/example.lis.cpp</text>
</a>
</g>
</g>
<!-- Node1&#45;&gt;Node2 -->
<g id="edge1_Node000001_Node000002" class="edge">
<title>Node1&#45;&gt;Node2</title>
<g id="a_edge1_Node000001_Node000002"><a xlink:title=" ">
<path fill="none" stroke="#63b8ff" d="M130.11,-49.15C115.83,-39.57 97.53,-27.29 85.42,-19.17"/>
<polygon fill="#63b8ff" stroke="#63b8ff" points="128.55,-52.32 138.81,-54.98 132.45,-46.51 128.55,-52.32"/>
</a>
</g>
</g>
<!-- Node3 -->
<g id="Node000003" class="node">
<title>Node3</title>
<g id="a_Node000003"><a xlink:href="../../dd/da7/solver_8lis_8cpp.html" target="_top" xlink:title="Standalone lis solver.">
<polygon fill="white" stroke="#666666" points="300,-19 163,-19 163,0 300,0 300,-19"/>
<text text-anchor="middle" x="231.5" y="-7" font-family="Helvetica,sans-Serif" font-size="10.00">standalone/solver.lis.cpp</text>
</a>
</g>
</g>
<!-- Node1&#45;&gt;Node3 -->
<g id="edge2_Node000001_Node000003" class="edge">
<title>Node1&#45;&gt;Node3</title>
<g id="a_edge2_Node000001_Node000003"><a xlink:title=" ">
<path fill="none" stroke="#63b8ff" d="M172.75,-49.42C187.26,-39.81 206.04,-27.37 218.41,-19.17"/>
<polygon fill="#63b8ff" stroke="#63b8ff" points="170.76,-46.54 164.35,-54.98 174.62,-52.38 170.76,-46.54"/>
</a>
</g>
</g>
</g>
</svg>
