<?xml version="1.0" encoding="UTF-8" standalone="no"?>
<!DOCTYPE svg PUBLIC "-//W3C//DTD SVG 1.1//EN"
 "http://www.w3.org/Graphics/SVG/1.1/DTD/svg11.dtd">
<!-- Generated by graphviz version 2.43.0 (0)
 -->
<!-- Title: standalone/runner.cpp Pages: 1 -->
<svg width="164pt" height="84pt"
 viewBox="0.00 0.00 164.00 84.00" xmlns="http://www.w3.org/2000/svg" xmlns:xlink="http://www.w3.org/1999/xlink">
<g id="graph0" class="graph" transform="scale(1 1) rotate(0) translate(4 80)">
<title>standalone/runner.cpp</title>
<polygon fill="white" stroke="transparent" points="-4,4 -4,-80 160,-80 160,4 -4,4"/>
<!-- Node1 -->
<g id="node1" class="node">
<title>Node1</title>
<g id="a_node1"><a xlink:title="Example caller to the standalone solvers.">
<polygon fill="#bfbfbf" stroke="black" points="10.5,-56.5 10.5,-75.5 135.5,-75.5 135.5,-56.5 10.5,-56.5"/>
<text text-anchor="middle" x="73" y="-63.5" font-family="Helvetica,sans-Serif" font-size="10.00">standalone/runner.cpp</text>
</a>
</g>
</g>
<!-- Node2 -->
<g id="node2" class="node">
<title>Node2</title>
<g id="a_node2"><a xlink:title=" ">
<polygon fill="white" stroke="#bfbfbf" points="0,-0.5 0,-19.5 60,-19.5 60,-0.5 0,-0.5"/>
<text text-anchor="middle" x="30" y="-7.5" font-family="Helvetica,sans-Serif" font-size="10.00">iostream</text>
</a>
</g>
</g>
<!-- Node1&#45;&gt;Node2 -->
<g id="edge1" class="edge">
<title>Node1&#45;&gt;Node2</title>
<path fill="none" stroke="midnightblue" d="M65.9,-56.08C59.76,-48.38 50.73,-37.03 43.26,-27.65"/>
<polygon fill="midnightblue" stroke="midnightblue" points="45.94,-25.39 36.97,-19.75 40.46,-29.75 45.94,-25.39"/>
</g>
<!-- Node3 -->
<g id="node3" class="node">
<title>Node3</title>
<g id="a_node3"><a xlink:title=" ">
<polygon fill="white" stroke="#bfbfbf" points="78,-0.5 78,-19.5 156,-19.5 156,-0.5 78,-0.5"/>
<text text-anchor="middle" x="117" y="-7.5" font-family="Helvetica,sans-Serif" font-size="10.00">mpl/mpl.hpp</text>
</a>
</g>
</g>
<!-- Node1&#45;&gt;Node3 -->
<g id="edge2" class="edge">
<title>Node1&#45;&gt;Node3</title>
<path fill="none" stroke="midnightblue" d="M80.27,-56.08C86.54,-48.38 95.79,-37.03 103.43,-27.65"/>
<polygon fill="midnightblue" stroke="midnightblue" points="106.27,-29.71 109.87,-19.75 100.84,-25.29 106.27,-29.71"/>
</g>
</g>
</svg>
