<?xml version="1.0" encoding="UTF-8" standalone="no"?>
<!DOCTYPE svg PUBLIC "-//W3C//DTD SVG 1.1//EN"
 "http://www.w3.org/Graphics/SVG/1.1/DTD/svg11.dtd">
<!-- Generated by graphviz version 2.43.0 (0)
 -->
<!-- Title: LIS_MATRIX_STRUCT Pages: 1 -->
<svg width="486pt" height="106pt"
 viewBox="0.00 0.00 485.50 106.00" xmlns="http://www.w3.org/2000/svg" xmlns:xlink="http://www.w3.org/1999/xlink">
<g id="graph0" class="graph" transform="scale(1 1) rotate(0) translate(4 102)">
<title>LIS_MATRIX_STRUCT</title>
<polygon fill="white" stroke="transparent" points="-4,4 -4,-102 481.5,-102 481.5,4 -4,4"/>
<!-- Node1 -->
<g id="node1" class="node">
<title>Node1</title>
<g id="a_node1"><a xlink:title=" ">
<polygon fill="#bfbfbf" stroke="black" points="176.5,-0.5 176.5,-19.5 294.5,-19.5 294.5,-0.5 176.5,-0.5"/>
<text text-anchor="middle" x="235.5" y="-7.5" font-family="Helvetica,sans-Serif" font-size="10.00">LIS_MATRIX_STRUCT</text>
</a>
</g>
</g>
<!-- Node2 -->
<g id="node2" class="node">
<title>Node2</title>
<g id="a_node2"><a xlink:href="../../d1/d04/structLIS__COMMTABLE__STRUCT.html" target="_top" xlink:title=" ">
<polygon fill="white" stroke="black" points="0,-78.5 0,-97.5 143,-97.5 143,-78.5 0,-78.5"/>
<text text-anchor="middle" x="71.5" y="-85.5" font-family="Helvetica,sans-Serif" font-size="10.00">LIS_COMMTABLE_STRUCT</text>
</a>
</g>
</g>
<!-- Node2&#45;&gt;Node1 -->
<g id="edge1" class="edge">
<title>Node2&#45;&gt;Node1</title>
<path fill="none" stroke="#9a32cd" stroke-dasharray="5,2" d="M97.76,-73.84C118.05,-63.78 146.9,-49.69 172.5,-38 186.57,-31.58 202.6,-24.71 214.97,-19.51"/>
<polygon fill="#9a32cd" stroke="#9a32cd" points="95.93,-70.84 88.54,-78.43 99.05,-77.11 95.93,-70.84"/>
<text text-anchor="middle" x="202" y="-46.5" font-family="Helvetica,sans-Serif" font-size="10.00"> commtable</text>
</g>
<!-- Node3 -->
<g id="node3" class="node">
<title>Node3</title>
<g id="a_node3"><a xlink:href="../../dc/dff/structLIS__MATRIX__DIAG__STRUCT.html" target="_top" xlink:title=" ">
<polygon fill="white" stroke="black" points="161.5,-78.5 161.5,-97.5 309.5,-97.5 309.5,-78.5 161.5,-78.5"/>
<text text-anchor="middle" x="235.5" y="-85.5" font-family="Helvetica,sans-Serif" font-size="10.00">LIS_MATRIX_DIAG_STRUCT</text>
</a>
</g>
</g>
<!-- Node3&#45;&gt;Node1 -->
<g id="edge2" class="edge">
<title>Node3&#45;&gt;Node1</title>
<path fill="none" stroke="#9a32cd" stroke-dasharray="5,2" d="M235.5,-68.22C235.5,-52.7 235.5,-31.36 235.5,-19.62"/>
<polygon fill="#9a32cd" stroke="#9a32cd" points="232,-68.28 235.5,-78.28 239,-68.28 232,-68.28"/>
<text text-anchor="middle" x="244.5" y="-52" font-family="Helvetica,sans-Serif" font-size="10.00"> D</text>
<text text-anchor="middle" x="244.5" y="-41" font-family="Helvetica,sans-Serif" font-size="10.00">WD</text>
</g>
<!-- Node4 -->
<g id="node4" class="node">
<title>Node4</title>
<g id="a_node4"><a xlink:href="../../dc/d56/structLIS__MATRIX__CORE__STRUCT.html" target="_top" xlink:title=" ">
<polygon fill="white" stroke="black" points="327.5,-78.5 327.5,-97.5 477.5,-97.5 477.5,-78.5 327.5,-78.5"/>
<text text-anchor="middle" x="402.5" y="-85.5" font-family="Helvetica,sans-Serif" font-size="10.00">LIS_MATRIX_CORE_STRUCT</text>
</a>
</g>
</g>
<!-- Node4&#45;&gt;Node1 -->
<g id="edge3" class="edge">
<title>Node4&#45;&gt;Node1</title>
<path fill="none" stroke="#9a32cd" stroke-dasharray="5,2" d="M374.25,-74.14C340.07,-58.59 283.49,-32.84 254.26,-19.54"/>
<polygon fill="#9a32cd" stroke="#9a32cd" points="373.12,-77.47 383.67,-78.43 376.02,-71.1 373.12,-77.47"/>
<text text-anchor="middle" x="343" y="-52" font-family="Helvetica,sans-Serif" font-size="10.00"> L</text>
<text text-anchor="middle" x="343" y="-41" font-family="Helvetica,sans-Serif" font-size="10.00">U</text>
</g>
</g>
</svg>
