<?xml version="1.0" encoding="UTF-8" standalone="no"?>
<!DOCTYPE svg PUBLIC "-//W3C//DTD SVG 1.1//EN"
 "http://www.w3.org/Graphics/SVG/1.1/DTD/svg11.dtd">
<!-- Generated by graphviz version 2.43.0 (0)
 -->
<!-- Title: LIS_MATRIX_STRUCT Pages: 1 -->
<svg width="486pt" height="104pt"
 viewBox="0.00 0.00 485.50 104.00" xmlns="http://www.w3.org/2000/svg" xmlns:xlink="http://www.w3.org/1999/xlink">
<g id="graph0" class="graph" transform="scale(1 1) rotate(0) translate(4 100)">
<title>LIS_MATRIX_STRUCT</title>
<!-- Node1 -->
<g id="Node000001" class="node">
<title>Node1</title>
<g id="a_Node000001"><a xlink:title=" ">
<polygon fill="#999999" stroke="#666666" points="301,-19 183,-19 183,0 301,0 301,-19"/>
<text text-anchor="middle" x="242" y="-7" font-family="Helvetica,sans-Serif" font-size="10.00">LIS_MATRIX_STRUCT</text>
</a>
</g>
</g>
<!-- Node2 -->
<g id="Node000002" class="node">
<title>Node2</title>
<g id="a_Node000002"><a xlink:href="../../dc/d56/structLIS__MATRIX__CORE__STRUCT.html" target="_top" xlink:title=" ">
<polygon fill="white" stroke="#bfbfbf" points="150,-96 0,-96 0,-77 150,-77 150,-96"/>
<text text-anchor="middle" x="75" y="-84" font-family="Helvetica,sans-Serif" font-size="10.00">LIS_MATRIX_CORE_STRUCT</text>
</a>
</g>
</g>
<!-- Node2&#45;&gt;Node1 -->
<g id="edge1_Node000001_Node000002" class="edge">
<title>Node2&#45;&gt;Node1</title>
<g id="a_edge1_Node000001_Node000002"><a xlink:title=" ">
<path fill="none" stroke="#9a32cd" stroke-dasharray="5,2" d="M103.58,-72.67C137.72,-57.33 193.88,-32.11 223.07,-19"/>
<polygon fill="#9a32cd" stroke="#9a32cd" points="101.85,-69.61 94.16,-76.9 104.71,-75.99 101.85,-69.61"/>
</a>
</g>
<text text-anchor="middle" x="183.5" y="-51" font-family="Helvetica,sans-Serif" font-size="10.00" fill="grey"> L</text>
<text text-anchor="middle" x="183.5" y="-40" font-family="Helvetica,sans-Serif" font-size="10.00" fill="grey">U</text>
</g>
<!-- Node3 -->
<g id="Node000003" class="node">
<title>Node3</title>
<g id="a_Node000003"><a xlink:href="../../dc/dff/structLIS__MATRIX__DIAG__STRUCT.html" target="_top" xlink:title=" ">
<polygon fill="white" stroke="#bfbfbf" points="316,-96 168,-96 168,-77 316,-77 316,-96"/>
<text text-anchor="middle" x="242" y="-84" font-family="Helvetica,sans-Serif" font-size="10.00">LIS_MATRIX_DIAG_STRUCT</text>
</a>
</g>
</g>
<!-- Node3&#45;&gt;Node1 -->
<g id="edge2_Node000001_Node000003" class="edge">
<title>Node3&#45;&gt;Node1</title>
<g id="a_edge2_Node000001_Node000003"><a xlink:title=" ">
<path fill="none" stroke="#9a32cd" stroke-dasharray="5,2" d="M242,-66.52C242,-51.24 242,-30.48 242,-19"/>
<polygon fill="#9a32cd" stroke="#9a32cd" points="238.5,-66.9 242,-76.9 245.5,-66.9 238.5,-66.9"/>
</a>
</g>
<text text-anchor="middle" x="251" y="-51" font-family="Helvetica,sans-Serif" font-size="10.00" fill="grey"> D</text>
<text text-anchor="middle" x="251" y="-40" font-family="Helvetica,sans-Serif" font-size="10.00" fill="grey">WD</text>
</g>
<!-- Node4 -->
<g id="Node000004" class="node">
<title>Node4</title>
<g id="a_Node000004"><a xlink:href="../../d1/d04/structLIS__COMMTABLE__STRUCT.html" target="_top" xlink:title=" ">
<polygon fill="white" stroke="#bfbfbf" points="477.5,-96 334.5,-96 334.5,-77 477.5,-77 477.5,-96"/>
<text text-anchor="middle" x="406" y="-84" font-family="Helvetica,sans-Serif" font-size="10.00">LIS_COMMTABLE_STRUCT</text>
</a>
</g>
</g>
<!-- Node4&#45;&gt;Node1 -->
<g id="edge3_Node000001_Node000004" class="edge">
<title>Node4&#45;&gt;Node1</title>
<g id="a_edge3_Node000001_Node000004"><a xlink:title=" ">
<path fill="none" stroke="#9a32cd" stroke-dasharray="5,2" d="M377.94,-72.67C344.41,-57.33 289.25,-32.11 260.59,-19"/>
<polygon fill="#9a32cd" stroke="#9a32cd" points="376.64,-75.92 387.19,-76.9 379.55,-69.55 376.64,-75.92"/>
</a>
</g>
<text text-anchor="middle" x="372.5" y="-45.5" font-family="Helvetica,sans-Serif" font-size="10.00" fill="grey"> commtable</text>
</g>
</g>
</svg>
