<?xml version="1.0" encoding="UTF-8" standalone="no"?>
<!DOCTYPE svg PUBLIC "-//W3C//DTD SVG 1.1//EN"
 "http://www.w3.org/Graphics/SVG/1.1/DTD/svg11.dtd">
<!-- Generated by graphviz version 2.43.0 (0)
 -->
<!-- Title: ezp/pgesvx.hpp Pages: 1 -->
<svg width="694pt" height="137pt"
 viewBox="0.00 0.00 694.00 137.00" xmlns="http://www.w3.org/2000/svg" xmlns:xlink="http://www.w3.org/1999/xlink">
<g id="graph0" class="graph" transform="scale(1 1) rotate(0) translate(4 133)">
<title>ezp/pgesvx.hpp</title>
<!-- Node1 -->
<g id="Node000001" class="node">
<title>Node1</title>
<g id="a_Node000001"><a xlink:title=" ">
<polygon fill="#999999" stroke="#666666" points="301,-129 208,-129 208,-110 301,-110 301,-129"/>
<text text-anchor="middle" x="254.5" y="-117" font-family="Helvetica,sans-Serif" font-size="10.00">ezp/pgesvx.hpp</text>
</a>
</g>
</g>
<!-- Node2 -->
<g id="Node000002" class="node">
<title>Node2</title>
<g id="a_Node000002"><a xlink:href="../../da/d0f/example_8pgesvx_8cpp.html" target="_top" xlink:title="Example caller to the pgesvx solver.">
<polygon fill="white" stroke="#666666" points="252,-74 83,-74 83,-55 252,-55 252,-74"/>
<text text-anchor="middle" x="167.5" y="-62" font-family="Helvetica,sans-Serif" font-size="10.00">examples/example.pgesvx.cpp</text>
</a>
</g>
</g>
<!-- Node1&#45;&gt;Node2 -->
<g id="edge1_Node000001_Node000002" class="edge">
<title>Node1&#45;&gt;Node2</title>
<g id="a_edge1_Node000001_Node000002"><a xlink:title=" ">
<path fill="none" stroke="#63b8ff" d="M231.84,-104.7C215.99,-95.04 195.31,-82.44 181.73,-74.17"/>
<polygon fill="#63b8ff" stroke="#63b8ff" points="230.16,-107.77 240.52,-109.98 233.8,-101.79 230.16,-107.77"/>
</a>
</g>
</g>
<!-- Node3 -->
<g id="Node000003" class="node">
<title>Node3</title>
<g id="a_Node000003"><a xlink:href="../../d3/d6d/solver_8full_8hpp_source.html" target="_top" xlink:title=" ">
<polygon fill="white" stroke="#666666" points="413,-74 270,-74 270,-55 413,-55 413,-74"/>
<text text-anchor="middle" x="341.5" y="-62" font-family="Helvetica,sans-Serif" font-size="10.00">standalone/solver.full.hpp</text>
</a>
</g>
</g>
<!-- Node1&#45;&gt;Node3 -->
<g id="edge2_Node000001_Node000003" class="edge">
<title>Node1&#45;&gt;Node3</title>
<g id="a_edge2_Node000001_Node000003"><a xlink:title=" ">
<path fill="none" stroke="#63b8ff" d="M277.16,-104.7C293.01,-95.04 313.69,-82.44 327.27,-74.17"/>
<polygon fill="#63b8ff" stroke="#63b8ff" points="275.2,-101.79 268.48,-109.98 278.84,-107.77 275.2,-101.79"/>
</a>
</g>
</g>
<!-- Node4 -->
<g id="Node000004" class="node">
<title>Node4</title>
<g id="a_Node000004"><a xlink:href="../../d3/db5/solver_8pgesv_8cpp.html" target="_top" xlink:title="Standalone pgesv solver.">
<polygon fill="white" stroke="#666666" points="155,-19 0,-19 0,0 155,0 155,-19"/>
<text text-anchor="middle" x="77.5" y="-7" font-family="Helvetica,sans-Serif" font-size="10.00">standalone/solver.pgesv.cpp</text>
</a>
</g>
</g>
<!-- Node3&#45;&gt;Node4 -->
<g id="edge3_Node000003_Node000004" class="edge">
<title>Node3&#45;&gt;Node4</title>
<g id="a_edge3_Node000003_Node000004"><a xlink:title=" ">
<path fill="none" stroke="#63b8ff" d="M289.21,-53C239.72,-43.07 166.33,-28.33 120.25,-19.08"/>
<polygon fill="#63b8ff" stroke="#63b8ff" points="288.59,-56.45 299.08,-54.98 289.97,-49.58 288.59,-56.45"/>
</a>
</g>
</g>
<!-- Node5 -->
<g id="Node000005" class="node">
<title>Node5</title>
<g id="a_Node000005"><a xlink:href="../../d6/d84/solver_8pgesvx_8cpp.html" target="_top" xlink:title="Standalone pgesvx solver.">
<polygon fill="white" stroke="#666666" points="334,-19 173,-19 173,0 334,0 334,-19"/>
<text text-anchor="middle" x="253.5" y="-7" font-family="Helvetica,sans-Serif" font-size="10.00">standalone/solver.pgesvx.cpp</text>
</a>
</g>
</g>
<!-- Node3&#45;&gt;Node5 -->
<g id="edge4_Node000003_Node000005" class="edge">
<title>Node3&#45;&gt;Node5</title>
<g id="a_edge4_Node000003_Node000005"><a xlink:title=" ">
<path fill="none" stroke="#63b8ff" d="M318.58,-49.7C302.55,-40.04 281.63,-27.44 267.9,-19.17"/>
<polygon fill="#63b8ff" stroke="#63b8ff" points="316.99,-52.82 327.36,-54.98 320.6,-46.83 316.99,-52.82"/>
</a>
</g>
</g>
<!-- Node6 -->
<g id="Node000006" class="node">
<title>Node6</title>
<g id="a_Node000006"><a xlink:href="../../d2/d91/solver_8pposv_8cpp.html" target="_top" xlink:title="Standalone pposv solver.">
<polygon fill="white" stroke="#666666" points="507,-19 352,-19 352,0 507,0 507,-19"/>
<text text-anchor="middle" x="429.5" y="-7" font-family="Helvetica,sans-Serif" font-size="10.00">standalone/solver.pposv.cpp</text>
</a>
</g>
</g>
<!-- Node3&#45;&gt;Node6 -->
<g id="edge5_Node000003_Node000006" class="edge">
<title>Node3&#45;&gt;Node6</title>
<g id="a_edge5_Node000003_Node000006"><a xlink:title=" ">
<path fill="none" stroke="#63b8ff" d="M364.42,-49.7C380.45,-40.04 401.37,-27.44 415.1,-19.17"/>
<polygon fill="#63b8ff" stroke="#63b8ff" points="362.4,-46.83 355.64,-54.98 366.01,-52.82 362.4,-46.83"/>
</a>
</g>
</g>
<!-- Node7 -->
<g id="Node000007" class="node">
<title>Node7</title>
<g id="a_Node000007"><a xlink:href="../../d9/d45/solver_8pposvx_8cpp.html" target="_top" xlink:title="Standalone pposvx solver.">
<polygon fill="white" stroke="#666666" points="686,-19 525,-19 525,0 686,0 686,-19"/>
<text text-anchor="middle" x="605.5" y="-7" font-family="Helvetica,sans-Serif" font-size="10.00">standalone/solver.pposvx.cpp</text>
</a>
</g>
</g>
<!-- Node3&#45;&gt;Node7 -->
<g id="edge6_Node000003_Node000007" class="edge">
<title>Node3&#45;&gt;Node7</title>
<g id="a_edge6_Node000003_Node000007"><a xlink:title=" ">
<path fill="none" stroke="#63b8ff" d="M393.79,-53C443.28,-43.07 516.67,-28.33 562.75,-19.08"/>
<polygon fill="#63b8ff" stroke="#63b8ff" points="393.03,-49.58 383.92,-54.98 394.41,-56.45 393.03,-49.58"/>
</a>
</g>
</g>
</g>
</svg>
