<?xml version="1.0" encoding="UTF-8" standalone="no"?>
<!DOCTYPE svg PUBLIC "-//W3C//DTD SVG 1.1//EN"
 "http://www.w3.org/Graphics/SVG/1.1/DTD/svg11.dtd">
<!-- Generated by graphviz version 2.43.0 (0)
 -->
<!-- Title: ezp/pgesvx.hpp Pages: 1 -->
<svg width="515pt" height="137pt"
 viewBox="0.00 0.00 515.00 137.00" xmlns="http://www.w3.org/2000/svg" xmlns:xlink="http://www.w3.org/1999/xlink">
<g id="graph0" class="graph" transform="scale(1 1) rotate(0) translate(4 133)">
<title>ezp/pgesvx.hpp</title>
<!-- Node1 -->
<g id="Node000001" class="node">
<title>Node1</title>
<g id="a_Node000001"><a xlink:title=" ">
<polygon fill="#999999" stroke="#666666" points="297,-129 204,-129 204,-110 297,-110 297,-129"/>
<text text-anchor="middle" x="250.5" y="-117" font-family="Helvetica,sans-Serif" font-size="10.00">ezp/pgesvx.hpp</text>
</a>
</g>
</g>
<!-- Node2 -->
<g id="Node000002" class="node">
<title>Node2</title>
<g id="a_Node000002"><a xlink:href="../../d3/d6d/solver_8full_8hpp_source.html" target="_top" xlink:title=" ">
<polygon fill="white" stroke="#666666" points="322,-74 179,-74 179,-55 322,-55 322,-74"/>
<text text-anchor="middle" x="250.5" y="-62" font-family="Helvetica,sans-Serif" font-size="10.00">standalone/solver.full.hpp</text>
</a>
</g>
</g>
<!-- Node1&#45;&gt;Node2 -->
<g id="edge1_Node000001_Node000002" class="edge">
<title>Node1&#45;&gt;Node2</title>
<g id="a_edge1_Node000001_Node000002"><a xlink:title=" ">
<path fill="none" stroke="#63b8ff" d="M250.5,-99.66C250.5,-90.93 250.5,-80.99 250.5,-74.09"/>
<polygon fill="#63b8ff" stroke="#63b8ff" points="247,-99.75 250.5,-109.75 254,-99.75 247,-99.75"/>
</a>
</g>
</g>
<!-- Node3 -->
<g id="Node000003" class="node">
<title>Node3</title>
<g id="a_Node000003"><a xlink:href="../../d3/db5/solver_8pgesv_8cpp.html" target="_top" xlink:title="Standalone pgesv solver.">
<polygon fill="white" stroke="#666666" points="155,-19 0,-19 0,0 155,0 155,-19"/>
<text text-anchor="middle" x="77.5" y="-7" font-family="Helvetica,sans-Serif" font-size="10.00">standalone/solver.pgesv.cpp</text>
</a>
</g>
</g>
<!-- Node2&#45;&gt;Node3 -->
<g id="edge2_Node000002_Node000003" class="edge">
<title>Node2&#45;&gt;Node3</title>
<g id="a_edge2_Node000002_Node000003"><a xlink:title=" ">
<path fill="none" stroke="#63b8ff" d="M212.73,-51.93C180.41,-42.03 134.64,-28.01 105.51,-19.08"/>
<polygon fill="#63b8ff" stroke="#63b8ff" points="212.12,-55.4 222.7,-54.98 214.17,-48.71 212.12,-55.4"/>
</a>
</g>
</g>
<!-- Node4 -->
<g id="Node000004" class="node">
<title>Node4</title>
<g id="a_Node000004"><a xlink:href="../../d2/d91/solver_8pposv_8cpp.html" target="_top" xlink:title="Standalone pposv solver.">
<polygon fill="white" stroke="#666666" points="328,-19 173,-19 173,0 328,0 328,-19"/>
<text text-anchor="middle" x="250.5" y="-7" font-family="Helvetica,sans-Serif" font-size="10.00">standalone/solver.pposv.cpp</text>
</a>
</g>
</g>
<!-- Node2&#45;&gt;Node4 -->
<g id="edge3_Node000002_Node000004" class="edge">
<title>Node2&#45;&gt;Node4</title>
<g id="a_edge3_Node000002_Node000004"><a xlink:title=" ">
<path fill="none" stroke="#63b8ff" d="M250.5,-44.66C250.5,-35.93 250.5,-25.99 250.5,-19.09"/>
<polygon fill="#63b8ff" stroke="#63b8ff" points="247,-44.75 250.5,-54.75 254,-44.75 247,-44.75"/>
</a>
</g>
</g>
<!-- Node5 -->
<g id="Node000005" class="node">
<title>Node5</title>
<g id="a_Node000005"><a xlink:href="../../d9/d45/solver_8pposvx_8cpp.html" target="_top" xlink:title="Standalone pposvx solver.">
<polygon fill="white" stroke="#666666" points="507,-19 346,-19 346,0 507,0 507,-19"/>
<text text-anchor="middle" x="426.5" y="-7" font-family="Helvetica,sans-Serif" font-size="10.00">standalone/solver.pposvx.cpp</text>
</a>
</g>
</g>
<!-- Node2&#45;&gt;Node5 -->
<g id="edge4_Node000002_Node000005" class="edge">
<title>Node2&#45;&gt;Node5</title>
<g id="a_edge4_Node000002_Node000005"><a xlink:title=" ">
<path fill="none" stroke="#63b8ff" d="M288.5,-52.06C321.4,-42.15 368.24,-28.04 398,-19.08"/>
<polygon fill="#63b8ff" stroke="#63b8ff" points="287.34,-48.75 278.78,-54.98 289.36,-55.45 287.34,-48.75"/>
</a>
</g>
</g>
</g>
</svg>
