<?xml version="1.0" encoding="UTF-8" standalone="no"?>
<!DOCTYPE svg PUBLIC "-//W3C//DTD SVG 1.1//EN"
 "http://www.w3.org/Graphics/SVG/1.1/DTD/svg11.dtd">
<!-- Generated by graphviz version 2.43.0 (0)
 -->
<!-- Title: ezp::pgesv&lt; DT, IT, ODER &gt; Pages: 1 -->
<svg width="595pt" height="100pt"
 viewBox="0.00 0.00 595.00 99.50" xmlns="http://www.w3.org/2000/svg" xmlns:xlink="http://www.w3.org/1999/xlink">
<g id="graph0" class="graph" transform="scale(1 1) rotate(0) translate(4 95.5)">
<title>ezp::pgesv&lt; DT, IT, ODER &gt;</title>
<polygon fill="white" stroke="transparent" points="-4,4 -4,-95.5 591,-95.5 591,4 -4,4"/>
<!-- Node1 -->
<g id="node1" class="node">
<title>Node1</title>
<g id="a_node1"><a xlink:title=" ">
<polygon fill="#bfbfbf" stroke="black" points="475,-28.5 475,-58.5 587,-58.5 587,-28.5 475,-28.5"/>
<text text-anchor="start" x="483" y="-46.5" font-family="Helvetica,sans-Serif" font-size="10.00">ezp::pgesv&lt; DT, IT,</text>
<text text-anchor="middle" x="531" y="-35.5" font-family="Helvetica,sans-Serif" font-size="10.00"> ODER &gt;</text>
</a>
</g>
</g>
<!-- Node2 -->
<g id="node2" class="node">
<title>Node2</title>
<g id="a_node2"><a xlink:href="../../df/df0/classezp_1_1detail_1_1full__solver.html" target="_top" xlink:title=" ">
<polygon fill="white" stroke="black" points="313,-28.5 313,-58.5 438,-58.5 438,-28.5 313,-28.5"/>
<text text-anchor="start" x="321" y="-46.5" font-family="Helvetica,sans-Serif" font-size="10.00">ezp::detail::full_solver</text>
<text text-anchor="middle" x="375.5" y="-35.5" font-family="Helvetica,sans-Serif" font-size="10.00">&lt; DT, IT, &#39;R&#39; &gt;</text>
</a>
</g>
</g>
<!-- Node2&#45;&gt;Node1 -->
<g id="edge1" class="edge">
<title>Node2&#45;&gt;Node1</title>
<path fill="none" stroke="midnightblue" d="M448.13,-43.5C457.12,-43.5 466.2,-43.5 474.88,-43.5"/>
<polygon fill="midnightblue" stroke="midnightblue" points="448.05,-40 438.05,-43.5 448.05,-47 448.05,-40"/>
</g>
<!-- Node3 -->
<g id="node3" class="node">
<title>Node3</title>
<g id="a_node3"><a xlink:href="../../d0/df0/classezp_1_1detail_1_1abstract__solver.html" target="_top" xlink:title=" ">
<polygon fill="white" stroke="black" points="120.5,-50 120.5,-91 233.5,-91 233.5,-50 120.5,-50"/>
<text text-anchor="start" x="128.5" y="-79" font-family="Helvetica,sans-Serif" font-size="10.00">ezp::detail::abstract</text>
<text text-anchor="start" x="128.5" y="-68" font-family="Helvetica,sans-Serif" font-size="10.00">_solver&lt; DT, IT, full</text>
<text text-anchor="middle" x="177" y="-57" font-family="Helvetica,sans-Serif" font-size="10.00">_mat&lt; DT, IT &gt; &gt;</text>
</a>
</g>
</g>
<!-- Node3&#45;&gt;Node2 -->
<g id="edge2" class="edge">
<title>Node3&#45;&gt;Node2</title>
<path fill="none" stroke="midnightblue" d="M243.6,-61.49C265.96,-58.41 290.87,-54.99 312.9,-51.96"/>
<polygon fill="midnightblue" stroke="midnightblue" points="242.95,-58.04 233.52,-62.87 243.9,-64.98 242.95,-58.04"/>
</g>
<!-- Node4 -->
<g id="node4" class="node">
<title>Node4</title>
<g id="a_node4"><a xlink:title=" ">
<polygon fill="white" stroke="#bfbfbf" points="95,-0.5 95,-30.5 259,-30.5 259,-0.5 95,-0.5"/>
<text text-anchor="start" x="103" y="-18.5" font-family="Helvetica,sans-Serif" font-size="10.00">ezp::detail::full_solver</text>
<text text-anchor="middle" x="177" y="-7.5" font-family="Helvetica,sans-Serif" font-size="10.00">&lt; DT, IT, ODER &gt;::full_system</text>
</a>
</g>
</g>
<!-- Node4&#45;&gt;Node2 -->
<g id="edge3" class="edge">
<title>Node4&#45;&gt;Node2</title>
<path fill="none" stroke="#9a32cd" stroke-dasharray="5,2" d="M269.23,-28.5C284.01,-30.61 298.99,-32.74 312.84,-34.71"/>
<polygon fill="#9a32cd" stroke="#9a32cd" points="269.45,-25 259.06,-27.05 268.46,-31.93 269.45,-25"/>
<text text-anchor="middle" x="286" y="-35.5" font-family="Helvetica,sans-Serif" font-size="10.00"> loc</text>
</g>
<!-- Node5 -->
<g id="node5" class="node">
<title>Node5</title>
<g id="a_node5"><a xlink:title=" ">
<polygon fill="white" stroke="#bfbfbf" points="0,-6 0,-25 29,-25 29,-6 0,-6"/>
<text text-anchor="middle" x="14.5" y="-13" font-family="Helvetica,sans-Serif" font-size="10.00">IT</text>
</a>
</g>
</g>
<!-- Node5&#45;&gt;Node4 -->
<g id="edge4" class="edge">
<title>Node5&#45;&gt;Node4</title>
<path fill="none" stroke="#9a32cd" stroke-dasharray="5,2" d="M39.47,-15.5C54.35,-15.5 74.44,-15.5 94.62,-15.5"/>
<polygon fill="#9a32cd" stroke="#9a32cd" points="39.18,-12 29.18,-15.5 39.18,-19 39.18,-12"/>
<text text-anchor="middle" x="62" y="-51.5" font-family="Helvetica,sans-Serif" font-size="10.00"> block</text>
<text text-anchor="middle" x="62" y="-40.5" font-family="Helvetica,sans-Serif" font-size="10.00">cols</text>
<text text-anchor="middle" x="62" y="-29.5" font-family="Helvetica,sans-Serif" font-size="10.00">n</text>
<text text-anchor="middle" x="62" y="-18.5" font-family="Helvetica,sans-Serif" font-size="10.00">rows</text>
</g>
</g>
</svg>
