<?xml version="1.0" encoding="UTF-8" standalone="no"?>
<!DOCTYPE svg PUBLIC "-//W3C//DTD SVG 1.1//EN"
 "http://www.w3.org/Graphics/SVG/1.1/DTD/svg11.dtd">
<!-- Generated by graphviz version 2.43.0 (0)
 -->
<!-- Title: ezp::base_mat&lt; DT, IT &gt; Pages: 1 -->
<svg width="147pt" height="106pt"
 viewBox="0.00 0.00 147.00 106.00" xmlns="http://www.w3.org/2000/svg" xmlns:xlink="http://www.w3.org/1999/xlink">
<g id="graph0" class="graph" transform="scale(1 1) rotate(0) translate(4 102)">
<title>ezp::base_mat&lt; DT, IT &gt;</title>
<polygon fill="white" stroke="transparent" points="-4,4 -4,-102 143,-102 143,4 -4,4"/>
<!-- Node1 -->
<g id="node1" class="node">
<title>Node1</title>
<g id="a_node1"><a xlink:title=" ">
<polygon fill="#bfbfbf" stroke="black" points="0,-0.5 0,-19.5 139,-19.5 139,-0.5 0,-0.5"/>
<text text-anchor="middle" x="69.5" y="-7.5" font-family="Helvetica,sans-Serif" font-size="10.00">ezp::base_mat&lt; DT, IT &gt;</text>
</a>
</g>
</g>
<!-- Node2 -->
<g id="node2" class="node">
<title>Node2</title>
<g id="a_node2"><a xlink:title=" ">
<polygon fill="white" stroke="#bfbfbf" points="26,-78.5 26,-97.5 55,-97.5 55,-78.5 26,-78.5"/>
<text text-anchor="middle" x="40.5" y="-85.5" font-family="Helvetica,sans-Serif" font-size="10.00">IT</text>
</a>
</g>
</g>
<!-- Node2&#45;&gt;Node1 -->
<g id="edge1" class="edge">
<title>Node2&#45;&gt;Node1</title>
<path fill="none" stroke="#9a32cd" stroke-dasharray="5,2" d="M37.6,-68.3C36.93,-58.85 37.39,-47.41 41.5,-38 44.69,-30.7 50.89,-24.39 56.64,-19.71"/>
<polygon fill="#9a32cd" stroke="#9a32cd" points="34.12,-68.72 38.74,-78.25 41.08,-67.92 34.12,-68.72"/>
<text text-anchor="middle" x="59" y="-52" font-family="Helvetica,sans-Serif" font-size="10.00"> n_cols</text>
<text text-anchor="middle" x="59" y="-41" font-family="Helvetica,sans-Serif" font-size="10.00">n_rows</text>
</g>
<!-- Node3 -->
<g id="node3" class="node">
<title>Node3</title>
<g id="a_node3"><a xlink:title=" ">
<polygon fill="white" stroke="#bfbfbf" points="83.5,-78.5 83.5,-97.5 113.5,-97.5 113.5,-78.5 83.5,-78.5"/>
<text text-anchor="middle" x="98.5" y="-85.5" font-family="Helvetica,sans-Serif" font-size="10.00">DT</text>
</a>
</g>
</g>
<!-- Node3&#45;&gt;Node1 -->
<g id="edge2" class="edge">
<title>Node3&#45;&gt;Node1</title>
<path fill="none" stroke="#9a32cd" stroke-dasharray="5,2" d="M91.51,-68.67C85.57,-53.11 77.31,-31.47 72.79,-19.62"/>
<polygon fill="#9a32cd" stroke="#9a32cd" points="88.34,-70.19 95.17,-78.28 94.88,-67.69 88.34,-70.19"/>
<text text-anchor="middle" x="99" y="-46.5" font-family="Helvetica,sans-Serif" font-size="10.00"> data</text>
</g>
</g>
</svg>
