<?xml version="1.0" encoding="UTF-8" standalone="no"?>
<!DOCTYPE svg PUBLIC "-//W3C//DTD SVG 1.1//EN"
 "http://www.w3.org/Graphics/SVG/1.1/DTD/svg11.dtd">
<!-- Generated by graphviz version 2.43.0 (0)
 -->
<!-- Title: ezp::detail::abstract_solver&lt; IT &gt; Pages: 1 -->
<svg width="446pt" height="209pt"
 viewBox="0.00 0.00 446.00 208.50" xmlns="http://www.w3.org/2000/svg" xmlns:xlink="http://www.w3.org/1999/xlink">
<g id="graph0" class="graph" transform="scale(1 1) rotate(0) translate(4 204.5)">
<title>ezp::detail::abstract_solver&lt; IT &gt;</title>
<!-- Node1 -->
<g id="Node000001" class="node">
<title>Node1</title>
<g id="a_Node000001"><a xlink:title=" ">
<polygon fill="#999999" stroke="#666666" points="113,-147 0,-147 0,-117 113,-117 113,-147"/>
<text text-anchor="start" x="8" y="-135" font-family="Helvetica,sans-Serif" font-size="10.00">ezp::detail::abstract</text>
<text text-anchor="middle" x="56.5" y="-124" font-family="Helvetica,sans-Serif" font-size="10.00">_solver&lt; IT &gt;</text>
</a>
</g>
</g>
<!-- Node2 -->
<g id="Node000002" class="node">
<title>Node2</title>
<g id="a_Node000002"><a xlink:href="../../df/df0/classezp_1_1detail_1_1full__solver.html" target="_top" xlink:title=" ">
<polygon fill="white" stroke="#bfbfbf" points="278,-195 153,-195 153,-165 278,-165 278,-195"/>
<text text-anchor="start" x="161" y="-183" font-family="Helvetica,sans-Serif" font-size="10.00">ezp::detail::full_solver</text>
<text text-anchor="middle" x="215.5" y="-172" font-family="Helvetica,sans-Serif" font-size="10.00">&lt; DT, IT, &#39;R&#39; &gt;</text>
</a>
</g>
</g>
<!-- Node1&#45;&gt;Node2 -->
<g id="edge1_Node000001_Node000002" class="edge">
<title>Node1&#45;&gt;Node2</title>
<g id="a_edge1_Node000001_Node000002"><a xlink:title=" ">
<path fill="none" stroke="#63b8ff" d="M116.59,-150.07C132.69,-154.99 149.95,-160.27 165.43,-165"/>
<polygon fill="#63b8ff" stroke="#63b8ff" points="117.33,-146.63 106.75,-147.06 115.28,-153.33 117.33,-146.63"/>
</a>
</g>
</g>
<!-- Node3 -->
<g id="Node000003" class="node">
<title>Node3</title>
<g id="a_Node000003"><a xlink:href="../../d0/db0/classezp_1_1detail_1_1band__solver.html" target="_top" xlink:title=" ">
<polygon fill="white" stroke="#bfbfbf" points="282,-147 149,-147 149,-117 282,-117 282,-147"/>
<text text-anchor="start" x="157" y="-135" font-family="Helvetica,sans-Serif" font-size="10.00">ezp::detail::band_solver</text>
<text text-anchor="middle" x="215.5" y="-124" font-family="Helvetica,sans-Serif" font-size="10.00">&lt; IT &gt;</text>
</a>
</g>
</g>
<!-- Node1&#45;&gt;Node3 -->
<g id="edge2_Node000001_Node000003" class="edge">
<title>Node1&#45;&gt;Node3</title>
<g id="a_edge2_Node000001_Node000003"><a xlink:title=" ">
<path fill="none" stroke="#63b8ff" d="M123.46,-132C131.9,-132 140.53,-132 148.96,-132"/>
<polygon fill="#63b8ff" stroke="#63b8ff" points="123.29,-128.5 113.29,-132 123.29,-135.5 123.29,-128.5"/>
</a>
</g>
</g>
<!-- Node7 -->
<g id="Node000007" class="node">
<title>Node7</title>
<g id="a_Node000007"><a xlink:href="../../df/df0/classezp_1_1detail_1_1full__solver.html" target="_top" xlink:title=" ">
<polygon fill="white" stroke="#bfbfbf" points="278,-78 153,-78 153,-48 278,-48 278,-78"/>
<text text-anchor="start" x="161" y="-66" font-family="Helvetica,sans-Serif" font-size="10.00">ezp::detail::full_solver</text>
<text text-anchor="middle" x="215.5" y="-55" font-family="Helvetica,sans-Serif" font-size="10.00">&lt; DT, IT, ODER &gt;</text>
</a>
</g>
</g>
<!-- Node1&#45;&gt;Node7 -->
<g id="edge6_Node000001_Node000007" class="edge">
<title>Node1&#45;&gt;Node7</title>
<g id="a_edge6_Node000001_Node000007"><a xlink:title=" ">
<path fill="none" stroke="#63b8ff" d="M101.19,-112.8C126.13,-101.84 156.93,-88.3 180.13,-78.11"/>
<polygon fill="#63b8ff" stroke="#63b8ff" points="99.7,-109.63 91.95,-116.86 102.52,-116.04 99.7,-109.63"/>
</a>
</g>
</g>
<!-- Node4 -->
<g id="Node000004" class="node">
<title>Node4</title>
<g id="a_Node000004"><a xlink:href="../../de/d4c/classezp_1_1pdbsv.html" target="_top" xlink:title=" ">
<polygon fill="white" stroke="#bfbfbf" points="438,-200.5 318,-200.5 318,-181.5 438,-181.5 438,-200.5"/>
<text text-anchor="middle" x="378" y="-188.5" font-family="Helvetica,sans-Serif" font-size="10.00">ezp::pdbsv&lt; DT, IT &gt;</text>
</a>
</g>
</g>
<!-- Node3&#45;&gt;Node4 -->
<g id="edge3_Node000003_Node000004" class="edge">
<title>Node3&#45;&gt;Node4</title>
<g id="a_edge3_Node000003_Node000004"><a xlink:title=" ">
<path fill="none" stroke="#63b8ff" d="M269.01,-150.76C273.42,-152.49 277.8,-154.24 282,-156 298.32,-162.83 301.49,-166.62 318,-173 325.89,-176.05 334.53,-178.93 342.71,-181.46"/>
<polygon fill="#63b8ff" stroke="#63b8ff" points="269.94,-147.37 259.35,-147.07 267.44,-153.91 269.94,-147.37"/>
</a>
</g>
</g>
<!-- Node5 -->
<g id="Node000005" class="node">
<title>Node5</title>
<g id="a_Node000005"><a xlink:href="../../d1/d7e/classezp_1_1pgbsv.html" target="_top" xlink:title=" ">
<polygon fill="white" stroke="#bfbfbf" points="438,-163.5 318,-163.5 318,-144.5 438,-144.5 438,-163.5"/>
<text text-anchor="middle" x="378" y="-151.5" font-family="Helvetica,sans-Serif" font-size="10.00">ezp::pgbsv&lt; DT, IT &gt;</text>
</a>
</g>
</g>
<!-- Node3&#45;&gt;Node5 -->
<g id="edge4_Node000003_Node000005" class="edge">
<title>Node3&#45;&gt;Node5</title>
<g id="a_edge4_Node000003_Node000005"><a xlink:title=" ">
<path fill="none" stroke="#63b8ff" d="M292.26,-142.38C300.83,-143.56 309.48,-144.74 317.8,-145.89"/>
<polygon fill="#63b8ff" stroke="#63b8ff" points="292.63,-138.9 282.24,-141.01 291.68,-145.84 292.63,-138.9"/>
</a>
</g>
</g>
<!-- Node6 -->
<g id="Node000006" class="node">
<title>Node6</title>
<g id="a_Node000006"><a xlink:href="../../d3/df1/classezp_1_1ppbsv.html" target="_top" xlink:title=" ">
<polygon fill="white" stroke="#bfbfbf" points="434,-126 322,-126 322,-96 434,-96 434,-126"/>
<text text-anchor="start" x="330" y="-114" font-family="Helvetica,sans-Serif" font-size="10.00">ezp::ppbsv&lt; DT, IT,</text>
<text text-anchor="middle" x="378" y="-103" font-family="Helvetica,sans-Serif" font-size="10.00"> UL &gt;</text>
</a>
</g>
</g>
<!-- Node3&#45;&gt;Node6 -->
<g id="edge5_Node000003_Node000006" class="edge">
<title>Node3&#45;&gt;Node6</title>
<g id="a_edge5_Node000003_Node000006"><a xlink:title=" ">
<path fill="none" stroke="#63b8ff" d="M292.19,-122.1C302.19,-120.79 312.29,-119.47 321.86,-118.22"/>
<polygon fill="#63b8ff" stroke="#63b8ff" points="291.71,-118.63 282.24,-123.4 292.61,-125.57 291.71,-118.63"/>
</a>
</g>
</g>
<!-- Node8 -->
<g id="Node000008" class="node">
<title>Node8</title>
<g id="a_Node000008"><a xlink:href="../../d5/d48/classezp_1_1pgesv.html" target="_top" xlink:title=" ">
<polygon fill="white" stroke="#bfbfbf" points="434,-78 322,-78 322,-48 434,-48 434,-78"/>
<text text-anchor="start" x="330" y="-66" font-family="Helvetica,sans-Serif" font-size="10.00">ezp::pgesv&lt; DT, IT,</text>
<text text-anchor="middle" x="378" y="-55" font-family="Helvetica,sans-Serif" font-size="10.00"> ODER &gt;</text>
</a>
</g>
</g>
<!-- Node7&#45;&gt;Node8 -->
<g id="edge7_Node000007_Node000008" class="edge">
<title>Node7&#45;&gt;Node8</title>
<g id="a_edge7_Node000007_Node000008"><a xlink:title=" ">
<path fill="none" stroke="#63b8ff" d="M288.34,-63C299.59,-63 311.07,-63 321.87,-63"/>
<polygon fill="#63b8ff" stroke="#63b8ff" points="288.09,-59.5 278.09,-63 288.09,-66.5 288.09,-59.5"/>
</a>
</g>
</g>
<!-- Node9 -->
<g id="Node000009" class="node">
<title>Node9</title>
<g id="a_Node000009"><a xlink:href="../../de/d12/classezp_1_1pposv.html" target="_top" xlink:title=" ">
<polygon fill="white" stroke="#bfbfbf" points="434,-30 322,-30 322,0 434,0 434,-30"/>
<text text-anchor="start" x="330" y="-18" font-family="Helvetica,sans-Serif" font-size="10.00">ezp::pposv&lt; DT, IT,</text>
<text text-anchor="middle" x="378" y="-7" font-family="Helvetica,sans-Serif" font-size="10.00"> UL, ODER &gt;</text>
</a>
</g>
</g>
<!-- Node7&#45;&gt;Node9 -->
<g id="edge8_Node000007_Node000009" class="edge">
<title>Node7&#45;&gt;Node9</title>
<g id="a_edge8_Node000007_Node000009"><a xlink:title=" ">
<path fill="none" stroke="#63b8ff" d="M276.44,-45.07C293.04,-40.11 310.86,-34.78 326.84,-30"/>
<polygon fill="#63b8ff" stroke="#63b8ff" points="275.42,-41.73 266.84,-47.94 277.43,-48.43 275.42,-41.73"/>
</a>
</g>
</g>
</g>
</svg>
