<?xml version="1.0" encoding="UTF-8" standalone="no"?>
<!DOCTYPE svg PUBLIC "-//W3C//DTD SVG 1.1//EN"
 "http://www.w3.org/Graphics/SVG/1.1/DTD/svg11.dtd">
<!-- Generated by graphviz version 2.43.0 (0)
 -->
<!-- Title: ezp::detail::abstract_solver&lt; DT, IT, WT &gt; Pages: 1 -->
<svg width="472pt" height="179pt"
 viewBox="0.00 0.00 472.00 178.50" xmlns="http://www.w3.org/2000/svg" xmlns:xlink="http://www.w3.org/1999/xlink">

<svg id="main" version="1.1" xmlns="http://www.w3.org/2000/svg" xmlns:xlink="http://www.w3.org/1999/xlink" xml:space="preserve" onload="init(evt)">
<style type="text/css"><![CDATA[
.node, .edge {opacity: 0.7;}
.node.selected, .edge.selected {opacity: 1;}
.edge:hover path { stroke: red; }
.edge:hover polygon { stroke: red; fill: red; }
]]></style>
<script type="application/ecmascript" xlink:href="../../svg.min.js"/>
<svg id="graph" class="graph">
<g id="graph0" class="graph" transform="scale(1 1) rotate(0) translate(4 174.5)">
<title>ezp::detail::abstract_solver&lt; DT, IT, WT &gt;</title>
<!-- Node1 -->
<g id="Node000001" class="node">
<title>Node1</title>
<g id="a_Node000001"><a xlink:title=" ">
<polygon fill="#999999" stroke="#666666" points="125,-84 0,-84 0,-54 125,-54 125,-84"/>
<text text-anchor="start" x="8" y="-72" font-family="Helvetica,sans-Serif" font-size="10.00">ezp::detail::abstract</text>
<text text-anchor="middle" x="62.5" y="-61" font-family="Helvetica,sans-Serif" font-size="10.00">_solver&lt; DT, IT, WT &gt;</text>
</a>
</g>
</g>
<!-- Node2 -->
<g id="Node000002" class="node">
<title>Node2</title>
<g id="a_Node000002"><a xlink:href="../../d0/db0/classezp_1_1detail_1_1band__solver.html" target="_top" xlink:title=" ">
<polygon fill="white" stroke="#bfbfbf" points="304,-148.5 165,-148.5 165,-107.5 304,-107.5 304,-148.5"/>
<text text-anchor="start" x="173" y="-136.5" font-family="Helvetica,sans-Serif" font-size="10.00">ezp::detail::band_solver</text>
<text text-anchor="start" x="173" y="-125.5" font-family="Helvetica,sans-Serif" font-size="10.00">&lt; DT, IT, band_mat&lt; DT,</text>
<text text-anchor="middle" x="234.5" y="-114.5" font-family="Helvetica,sans-Serif" font-size="10.00"> IT &gt; &gt;</text>
</a>
</g>
</g>
<!-- Node1&#45;&gt;Node2 -->
<g id="edge1_Node000001_Node000002" class="edge">
<title>Node1&#45;&gt;Node2</title>
<g id="a_edge1_Node000001_Node000002"><a xlink:title=" ">
<path fill="none" stroke="#63b8ff" d="M116.46,-87.38C134.78,-93.74 155.42,-100.9 174.21,-107.42"/>
<polygon fill="#63b8ff" stroke="#63b8ff" points="117.43,-84.01 106.84,-84.04 115.14,-90.63 117.43,-84.01"/>
</a>
</g>
</g>
<!-- Node5 -->
<g id="Node000005" class="node">
<title>Node5</title>
<g id="a_Node000005"><a xlink:href="../../d0/db0/classezp_1_1detail_1_1band__solver.html" target="_top" xlink:title=" ">
<polygon fill="white" stroke="#bfbfbf" points="308,-89.5 161,-89.5 161,-48.5 308,-48.5 308,-89.5"/>
<text text-anchor="start" x="169" y="-77.5" font-family="Helvetica,sans-Serif" font-size="10.00">ezp::detail::band_solver</text>
<text text-anchor="start" x="169" y="-66.5" font-family="Helvetica,sans-Serif" font-size="10.00">&lt; DT, IT, band_symm_mat</text>
<text text-anchor="middle" x="234.5" y="-55.5" font-family="Helvetica,sans-Serif" font-size="10.00">&lt; DT, IT &gt; &gt;</text>
</a>
</g>
</g>
<!-- Node1&#45;&gt;Node5 -->
<g id="edge4_Node000001_Node000005" class="edge">
<title>Node1&#45;&gt;Node5</title>
<g id="a_edge4_Node000001_Node000005"><a xlink:title=" ">
<path fill="none" stroke="#63b8ff" d="M135.45,-69C143.81,-69 152.34,-69 160.72,-69"/>
<polygon fill="#63b8ff" stroke="#63b8ff" points="135.35,-65.5 125.35,-69 135.35,-72.5 135.35,-65.5"/>
</a>
</g>
</g>
<!-- Node8 -->
<g id="Node000008" class="node">
<title>Node8</title>
<g id="a_Node000008"><a xlink:href="../../d0/db0/classezp_1_1detail_1_1band__solver.html" target="_top" xlink:title=" ">
<polygon fill="white" stroke="#bfbfbf" points="301,-30 168,-30 168,0 301,0 301,-30"/>
<text text-anchor="start" x="176" y="-18" font-family="Helvetica,sans-Serif" font-size="10.00">ezp::detail::band_solver</text>
<text text-anchor="middle" x="234.5" y="-7" font-family="Helvetica,sans-Serif" font-size="10.00">&lt; DT, IT, WT &gt;</text>
</a>
</g>
</g>
<!-- Node1&#45;&gt;Node8 -->
<g id="edge7_Node000001_Node000008" class="edge">
<title>Node1&#45;&gt;Node8</title>
<g id="a_edge7_Node000001_Node000008"><a xlink:title=" ">
<path fill="none" stroke="#63b8ff" d="M120.44,-50.91C141.76,-44.14 165.74,-36.52 186.1,-30.05"/>
<polygon fill="#63b8ff" stroke="#63b8ff" points="119.33,-47.59 110.85,-53.96 121.44,-54.27 119.33,-47.59"/>
</a>
</g>
</g>
<!-- Node3 -->
<g id="Node000003" class="node">
<title>Node3</title>
<g id="a_Node000003"><a xlink:href="../../de/d4c/classezp_1_1pdbsv.html" target="_top" xlink:title=" ">
<polygon fill="white" stroke="#bfbfbf" points="464,-170.5 344,-170.5 344,-151.5 464,-151.5 464,-170.5"/>
<text text-anchor="middle" x="404" y="-158.5" font-family="Helvetica,sans-Serif" font-size="10.00">ezp::pdbsv&lt; DT, IT &gt;</text>
</a>
</g>
</g>
<!-- Node2&#45;&gt;Node3 -->
<g id="edge2_Node000002_Node000003" class="edge">
<title>Node2&#45;&gt;Node3</title>
<g id="a_edge2_Node000002_Node000003"><a xlink:title=" ">
<path fill="none" stroke="#63b8ff" d="M314.14,-143.49C327.99,-146.22 342.02,-148.99 354.72,-151.49"/>
<polygon fill="#63b8ff" stroke="#63b8ff" points="314.6,-140.02 304.11,-141.52 313.25,-146.88 314.6,-140.02"/>
</a>
</g>
</g>
<!-- Node4 -->
<g id="Node000004" class="node">
<title>Node4</title>
<g id="a_Node000004"><a xlink:href="../../d1/d7e/classezp_1_1pgbsv.html" target="_top" xlink:title=" ">
<polygon fill="white" stroke="#bfbfbf" points="464,-133.5 344,-133.5 344,-114.5 464,-114.5 464,-133.5"/>
<text text-anchor="middle" x="404" y="-121.5" font-family="Helvetica,sans-Serif" font-size="10.00">ezp::pgbsv&lt; DT, IT &gt;</text>
</a>
</g>
</g>
<!-- Node2&#45;&gt;Node4 -->
<g id="edge3_Node000002_Node000004" class="edge">
<title>Node2&#45;&gt;Node4</title>
<g id="a_edge3_Node000002_Node000004"><a xlink:title=" ">
<path fill="none" stroke="#63b8ff" d="M314.39,-126.12C324.31,-125.88 334.33,-125.64 343.87,-125.41"/>
<polygon fill="#63b8ff" stroke="#63b8ff" points="314.03,-122.62 304.11,-126.36 314.19,-129.62 314.03,-122.62"/>
</a>
</g>
</g>
<!-- Node6 -->
<g id="Node000006" class="node">
<title>Node6</title>
<g id="a_Node000006"><a xlink:href="../../d3/df1/classezp_1_1ppbsv.html" target="_top" xlink:title=" ">
<polygon fill="white" stroke="#bfbfbf" points="462,-88 346,-88 346,-58 462,-58 462,-88"/>
<text text-anchor="start" x="354" y="-76" font-family="Helvetica,sans-Serif" font-size="10.00">ezp::ppbsv&lt; double,</text>
<text text-anchor="middle" x="404" y="-65" font-family="Helvetica,sans-Serif" font-size="10.00"> int_t &gt;</text>
</a>
</g>
</g>
<!-- Node5&#45;&gt;Node6 -->
<g id="edge5_Node000005_Node000006" class="edge">
<title>Node5&#45;&gt;Node6</title>
<g id="a_edge5_Node000005_Node000006"><a xlink:title=" ">
<path fill="none" stroke="#63b8ff" d="M318.5,-70.98C327.77,-71.2 337.04,-71.42 345.87,-71.64"/>
<polygon fill="#63b8ff" stroke="#63b8ff" points="318.56,-67.48 308.48,-70.74 318.39,-74.48 318.56,-67.48"/>
</a>
</g>
</g>
<!-- Node7 -->
<g id="Node000007" class="node">
<title>Node7</title>
<g id="a_Node000007"><a xlink:href="../../d3/df1/classezp_1_1ppbsv.html" target="_top" xlink:title=" ">
<polygon fill="white" stroke="#bfbfbf" points="460,-40 348,-40 348,-10 460,-10 460,-40"/>
<text text-anchor="start" x="356" y="-28" font-family="Helvetica,sans-Serif" font-size="10.00">ezp::ppbsv&lt; DT, IT,</text>
<text text-anchor="middle" x="404" y="-17" font-family="Helvetica,sans-Serif" font-size="10.00"> UL &gt;</text>
</a>
</g>
</g>
<!-- Node5&#45;&gt;Node7 -->
<g id="edge6_Node000005_Node000007" class="edge">
<title>Node5&#45;&gt;Node7</title>
<g id="a_edge6_Node000005_Node000007"><a xlink:title=" ">
<path fill="none" stroke="#63b8ff" d="M318.45,-47.21C328.44,-44.59 338.44,-41.96 347.9,-39.47"/>
<polygon fill="#63b8ff" stroke="#63b8ff" points="317.26,-43.9 308.48,-49.83 319.04,-50.67 317.26,-43.9"/>
</a>
</g>
</g>
</g>
</svg>
</svg>

<style type='text/css'>
<![CDATA[
[data-mouse-over-selected='false'] { opacity: 0.7; }
[data-mouse-over-selected='true']  { opacity: 1.0; }
]]>
</style>
<script type="application/ecmascript"><![CDATA[
document.addEventListener('DOMContentLoaded', (event) => {
  highlightEdges();
  highlightAdjacentNodes();
});
]]></script>
</svg>
