<?xml version="1.0" encoding="UTF-8" standalone="no"?>
<!DOCTYPE svg PUBLIC "-//W3C//DTD SVG 1.1//EN"
 "http://www.w3.org/Graphics/SVG/1.1/DTD/svg11.dtd">
<!-- Generated by graphviz version 2.43.0 (0)
 -->
<!-- Title: ezp::detail::abstract_solver&lt; IT &gt; Pages: 1 -->
<svg width="446pt" height="247pt"
 viewBox="0.00 0.00 446.00 246.50" xmlns="http://www.w3.org/2000/svg" xmlns:xlink="http://www.w3.org/1999/xlink">
<g id="graph0" class="graph" transform="scale(1 1) rotate(0) translate(4 242.5)">
<title>ezp::detail::abstract_solver&lt; IT &gt;</title>
<!-- Node1 -->
<g id="Node000001" class="node">
<title>Node1</title>
<g id="a_Node000001"><a xlink:title=" ">
<polygon fill="#999999" stroke="#666666" points="113,-176 0,-176 0,-146 113,-146 113,-176"/>
<text text-anchor="start" x="8" y="-164" font-family="Helvetica,sans-Serif" font-size="10.00">ezp::detail::abstract</text>
<text text-anchor="middle" x="56.5" y="-153" font-family="Helvetica,sans-Serif" font-size="10.00">_solver&lt; IT &gt;</text>
</a>
</g>
</g>
<!-- Node2 -->
<g id="Node000002" class="node">
<title>Node2</title>
<g id="a_Node000002"><a xlink:href="../../df/df0/classezp_1_1detail_1_1full__solver.html" target="_top" xlink:title=" ">
<polygon fill="white" stroke="#bfbfbf" points="278,-224 153,-224 153,-194 278,-194 278,-224"/>
<text text-anchor="start" x="161" y="-212" font-family="Helvetica,sans-Serif" font-size="10.00">ezp::detail::full_solver</text>
<text text-anchor="middle" x="215.5" y="-201" font-family="Helvetica,sans-Serif" font-size="10.00">&lt; DT, IT, &#39;R&#39; &gt;</text>
</a>
</g>
</g>
<!-- Node1&#45;&gt;Node2 -->
<g id="edge1_Node000001_Node000002" class="edge">
<title>Node1&#45;&gt;Node2</title>
<g id="a_edge1_Node000001_Node000002"><a xlink:title=" ">
<path fill="none" stroke="#63b8ff" d="M116.59,-179.07C132.69,-183.99 149.95,-189.27 165.43,-194"/>
<polygon fill="#63b8ff" stroke="#63b8ff" points="117.33,-175.63 106.75,-176.06 115.28,-182.33 117.33,-175.63"/>
</a>
</g>
</g>
<!-- Node3 -->
<g id="Node000003" class="node">
<title>Node3</title>
<g id="a_Node000003"><a xlink:href="../../d0/db0/classezp_1_1detail_1_1band__solver.html" target="_top" xlink:title=" ">
<polygon fill="white" stroke="#bfbfbf" points="282,-176 149,-176 149,-146 282,-146 282,-176"/>
<text text-anchor="start" x="157" y="-164" font-family="Helvetica,sans-Serif" font-size="10.00">ezp::detail::band_solver</text>
<text text-anchor="middle" x="215.5" y="-153" font-family="Helvetica,sans-Serif" font-size="10.00">&lt; IT &gt;</text>
</a>
</g>
</g>
<!-- Node1&#45;&gt;Node3 -->
<g id="edge2_Node000001_Node000003" class="edge">
<title>Node1&#45;&gt;Node3</title>
<g id="a_edge2_Node000001_Node000003"><a xlink:title=" ">
<path fill="none" stroke="#63b8ff" d="M123.46,-161C131.9,-161 140.53,-161 148.96,-161"/>
<polygon fill="#63b8ff" stroke="#63b8ff" points="123.29,-157.5 113.29,-161 123.29,-164.5 123.29,-157.5"/>
</a>
</g>
</g>
<!-- Node7 -->
<g id="Node000007" class="node">
<title>Node7</title>
<g id="a_Node000007"><a xlink:href="../../df/df0/classezp_1_1detail_1_1full__solver.html" target="_top" xlink:title=" ">
<polygon fill="white" stroke="#bfbfbf" points="278,-109 153,-109 153,-79 278,-79 278,-109"/>
<text text-anchor="start" x="161" y="-97" font-family="Helvetica,sans-Serif" font-size="10.00">ezp::detail::full_solver</text>
<text text-anchor="middle" x="215.5" y="-86" font-family="Helvetica,sans-Serif" font-size="10.00">&lt; DT, IT, ODER &gt;</text>
</a>
</g>
</g>
<!-- Node1&#45;&gt;Node7 -->
<g id="edge6_Node000001_Node000007" class="edge">
<title>Node1&#45;&gt;Node7</title>
<g id="a_edge6_Node000001_Node000007"><a xlink:title=" ">
<path fill="none" stroke="#63b8ff" d="M102.14,-141.95C126.54,-131.54 156.33,-118.82 179.11,-109.1"/>
<polygon fill="#63b8ff" stroke="#63b8ff" points="100.56,-138.82 92.73,-145.96 103.31,-145.26 100.56,-138.82"/>
</a>
</g>
</g>
<!-- Node4 -->
<g id="Node000004" class="node">
<title>Node4</title>
<g id="a_Node000004"><a xlink:href="../../de/d4c/classezp_1_1pdbsv.html" target="_top" xlink:title=" ">
<polygon fill="white" stroke="#bfbfbf" points="438,-238.5 318,-238.5 318,-219.5 438,-219.5 438,-238.5"/>
<text text-anchor="middle" x="378" y="-226.5" font-family="Helvetica,sans-Serif" font-size="10.00">ezp::pdbsv&lt; DT, IT &gt;</text>
</a>
</g>
</g>
<!-- Node3&#45;&gt;Node4 -->
<g id="edge3_Node000003_Node000004" class="edge">
<title>Node3&#45;&gt;Node4</title>
<g id="a_edge3_Node000003_Node000004"><a xlink:title=" ">
<path fill="none" stroke="#63b8ff" d="M271.91,-180.06C275.37,-181.63 278.76,-183.28 282,-185 299.43,-194.26 300.32,-202.22 318,-211 324.62,-214.29 331.96,-217.11 339.14,-219.48"/>
<polygon fill="#63b8ff" stroke="#63b8ff" points="273.22,-176.81 262.65,-176.09 270.47,-183.25 273.22,-176.81"/>
</a>
</g>
</g>
<!-- Node5 -->
<g id="Node000005" class="node">
<title>Node5</title>
<g id="a_Node000005"><a xlink:href="../../d1/d7e/classezp_1_1pgbsv.html" target="_top" xlink:title=" ">
<polygon fill="white" stroke="#bfbfbf" points="438,-201.5 318,-201.5 318,-182.5 438,-182.5 438,-201.5"/>
<text text-anchor="middle" x="378" y="-189.5" font-family="Helvetica,sans-Serif" font-size="10.00">ezp::pgbsv&lt; DT, IT &gt;</text>
</a>
</g>
</g>
<!-- Node3&#45;&gt;Node5 -->
<g id="edge4_Node000003_Node000005" class="edge">
<title>Node3&#45;&gt;Node5</title>
<g id="a_edge4_Node000003_Node000005"><a xlink:title=" ">
<path fill="none" stroke="#63b8ff" d="M292.21,-175.62C304.13,-177.93 316.19,-180.26 327.33,-182.41"/>
<polygon fill="#63b8ff" stroke="#63b8ff" points="292.73,-172.16 282.24,-173.7 291.4,-179.03 292.73,-172.16"/>
</a>
</g>
</g>
<!-- Node6 -->
<g id="Node000006" class="node">
<title>Node6</title>
<g id="a_Node000006"><a xlink:href="../../d3/df1/classezp_1_1ppbsv.html" target="_top" xlink:title=" ">
<polygon fill="white" stroke="#bfbfbf" points="434,-164 322,-164 322,-134 434,-134 434,-164"/>
<text text-anchor="start" x="330" y="-152" font-family="Helvetica,sans-Serif" font-size="10.00">ezp::ppbsv&lt; DT, IT,</text>
<text text-anchor="middle" x="378" y="-141" font-family="Helvetica,sans-Serif" font-size="10.00"> UL &gt;</text>
</a>
</g>
</g>
<!-- Node3&#45;&gt;Node6 -->
<g id="edge5_Node000003_Node000006" class="edge">
<title>Node3&#45;&gt;Node6</title>
<g id="a_edge5_Node000003_Node000006"><a xlink:title=" ">
<path fill="none" stroke="#63b8ff" d="M292.5,-155.32C302.4,-154.58 312.39,-153.83 321.86,-153.12"/>
<polygon fill="#63b8ff" stroke="#63b8ff" points="291.96,-151.85 282.24,-156.08 292.48,-158.83 291.96,-151.85"/>
</a>
</g>
</g>
<!-- Node8 -->
<g id="Node000008" class="node">
<title>Node8</title>
<g id="a_Node000008"><a xlink:href="../../de/d12/classezp_1_1pposv.html" target="_top" xlink:title=" ">
<polygon fill="white" stroke="#bfbfbf" points="434.5,-115.5 321.5,-115.5 321.5,-96.5 434.5,-96.5 434.5,-115.5"/>
<text text-anchor="middle" x="378" y="-103.5" font-family="Helvetica,sans-Serif" font-size="10.00">ezp::pposv&lt; int_t &gt;</text>
</a>
</g>
</g>
<!-- Node7&#45;&gt;Node8 -->
<g id="edge7_Node000007_Node000008" class="edge">
<title>Node7&#45;&gt;Node8</title>
<g id="a_edge7_Node000007_Node000008"><a xlink:title=" ">
<path fill="none" stroke="#63b8ff" d="M288.21,-99.36C299.33,-100.19 310.66,-101.04 321.35,-101.84"/>
<polygon fill="#63b8ff" stroke="#63b8ff" points="288.33,-95.86 278.09,-98.61 287.81,-102.84 288.33,-95.86"/>
</a>
</g>
</g>
<!-- Node9 -->
<g id="Node000009" class="node">
<title>Node9</title>
<g id="a_Node000009"><a xlink:href="../../d5/d48/classezp_1_1pgesv.html" target="_top" xlink:title=" ">
<polygon fill="white" stroke="#bfbfbf" points="434,-78 322,-78 322,-48 434,-48 434,-78"/>
<text text-anchor="start" x="330" y="-66" font-family="Helvetica,sans-Serif" font-size="10.00">ezp::pgesv&lt; DT, IT,</text>
<text text-anchor="middle" x="378" y="-55" font-family="Helvetica,sans-Serif" font-size="10.00"> ODER &gt;</text>
</a>
</g>
</g>
<!-- Node7&#45;&gt;Node9 -->
<g id="edge8_Node000007_Node000009" class="edge">
<title>Node7&#45;&gt;Node9</title>
<g id="a_edge8_Node000007_Node000009"><a xlink:title=" ">
<path fill="none" stroke="#63b8ff" d="M288,-80.19C299.36,-78 310.96,-75.76 321.87,-73.65"/>
<polygon fill="#63b8ff" stroke="#63b8ff" points="287.25,-76.77 278.09,-82.1 288.58,-83.64 287.25,-76.77"/>
</a>
</g>
</g>
<!-- Node10 -->
<g id="Node000010" class="node">
<title>Node10</title>
<g id="a_Node000010"><a xlink:href="../../de/d12/classezp_1_1pposv.html" target="_top" xlink:title=" ">
<polygon fill="white" stroke="#bfbfbf" points="434,-30 322,-30 322,0 434,0 434,-30"/>
<text text-anchor="start" x="330" y="-18" font-family="Helvetica,sans-Serif" font-size="10.00">ezp::pposv&lt; DT, IT,</text>
<text text-anchor="middle" x="378" y="-7" font-family="Helvetica,sans-Serif" font-size="10.00"> UL, ODER &gt;</text>
</a>
</g>
</g>
<!-- Node7&#45;&gt;Node10 -->
<g id="edge9_Node000007_Node000010" class="edge">
<title>Node7&#45;&gt;Node10</title>
<g id="a_edge9_Node000007_Node000010"><a xlink:title=" ">
<path fill="none" stroke="#63b8ff" d="M251.16,-73.99C270.55,-63.11 295.32,-49.72 318,-39 324.5,-35.93 331.5,-32.87 338.33,-30.02"/>
<polygon fill="#63b8ff" stroke="#63b8ff" points="249.36,-70.98 242.38,-78.95 252.81,-77.08 249.36,-70.98"/>
</a>
</g>
</g>
</g>
</svg>
