<?xml version="1.0" encoding="UTF-8" standalone="no"?>
<!DOCTYPE svg PUBLIC "-//W3C//DTD SVG 1.1//EN"
 "http://www.w3.org/Graphics/SVG/1.1/DTD/svg11.dtd">
<!-- Generated by graphviz version 2.43.0 (0)
 -->
<!-- Title: ezp::detail::abstract_solver&lt; DT, IT, WT &gt; Pages: 1 -->
<svg width="472pt" height="183pt"
 viewBox="0.00 0.00 472.00 182.50" xmlns="http://www.w3.org/2000/svg" xmlns:xlink="http://www.w3.org/1999/xlink">
<g id="graph0" class="graph" transform="scale(1 1) rotate(0) translate(4 178.5)">
<title>ezp::detail::abstract_solver&lt; DT, IT, WT &gt;</title>
<polygon fill="white" stroke="transparent" points="-4,4 -4,-178.5 468,-178.5 468,4 -4,4"/>
<!-- Node1 -->
<g id="node1" class="node">
<title>Node1</title>
<g id="a_node1"><a xlink:title=" ">
<polygon fill="#bfbfbf" stroke="black" points="0,-55.5 0,-85.5 125,-85.5 125,-55.5 0,-55.5"/>
<text text-anchor="start" x="8" y="-73.5" font-family="Helvetica,sans-Serif" font-size="10.00">ezp::detail::abstract</text>
<text text-anchor="middle" x="62.5" y="-62.5" font-family="Helvetica,sans-Serif" font-size="10.00">_solver&lt; DT, IT, WT &gt;</text>
</a>
</g>
</g>
<!-- Node2 -->
<g id="node2" class="node">
<title>Node2</title>
<g id="a_node2"><a xlink:href="../../d0/db0/classezp_1_1detail_1_1band__solver.html" target="_top" xlink:title=" ">
<polygon fill="white" stroke="black" points="165,-110 165,-151 304,-151 304,-110 165,-110"/>
<text text-anchor="start" x="173" y="-139" font-family="Helvetica,sans-Serif" font-size="10.00">ezp::detail::band_solver</text>
<text text-anchor="start" x="173" y="-128" font-family="Helvetica,sans-Serif" font-size="10.00">&lt; DT, IT, band_mat&lt; DT,</text>
<text text-anchor="middle" x="234.5" y="-117" font-family="Helvetica,sans-Serif" font-size="10.00"> IT &gt; &gt;</text>
</a>
</g>
</g>
<!-- Node1&#45;&gt;Node2 -->
<g id="edge1" class="edge">
<title>Node1&#45;&gt;Node2</title>
<path fill="none" stroke="midnightblue" d="M115.96,-89.01C134.72,-95.64 155.98,-103.14 175.2,-109.92"/>
<polygon fill="midnightblue" stroke="midnightblue" points="116.99,-85.67 106.4,-85.64 114.66,-92.27 116.99,-85.67"/>
</g>
<!-- Node5 -->
<g id="node5" class="node">
<title>Node5</title>
<g id="a_node5"><a xlink:href="../../d0/db0/classezp_1_1detail_1_1band__solver.html" target="_top" xlink:title=" ">
<polygon fill="white" stroke="black" points="161,-50 161,-91 308,-91 308,-50 161,-50"/>
<text text-anchor="start" x="169" y="-79" font-family="Helvetica,sans-Serif" font-size="10.00">ezp::detail::band_solver</text>
<text text-anchor="start" x="169" y="-68" font-family="Helvetica,sans-Serif" font-size="10.00">&lt; DT, IT, band_symm_mat</text>
<text text-anchor="middle" x="234.5" y="-57" font-family="Helvetica,sans-Serif" font-size="10.00">&lt; DT, IT &gt; &gt;</text>
</a>
</g>
</g>
<!-- Node1&#45;&gt;Node5 -->
<g id="edge4" class="edge">
<title>Node1&#45;&gt;Node5</title>
<path fill="none" stroke="midnightblue" d="M135.45,-70.5C143.81,-70.5 152.34,-70.5 160.72,-70.5"/>
<polygon fill="midnightblue" stroke="midnightblue" points="135.35,-67 125.35,-70.5 135.35,-74 135.35,-67"/>
</g>
<!-- Node8 -->
<g id="node8" class="node">
<title>Node8</title>
<g id="a_node8"><a xlink:href="../../d0/db0/classezp_1_1detail_1_1band__solver.html" target="_top" xlink:title=" ">
<polygon fill="white" stroke="black" points="168,-0.5 168,-30.5 301,-30.5 301,-0.5 168,-0.5"/>
<text text-anchor="start" x="176" y="-18.5" font-family="Helvetica,sans-Serif" font-size="10.00">ezp::detail::band_solver</text>
<text text-anchor="middle" x="234.5" y="-7.5" font-family="Helvetica,sans-Serif" font-size="10.00">&lt; DT, IT, WT &gt;</text>
</a>
</g>
</g>
<!-- Node1&#45;&gt;Node8 -->
<g id="edge7" class="edge">
<title>Node1&#45;&gt;Node8</title>
<path fill="none" stroke="midnightblue" d="M119.76,-52.3C141.6,-45.23 166.31,-37.24 187.1,-30.51"/>
<polygon fill="midnightblue" stroke="midnightblue" points="118.39,-49.06 109.95,-55.47 120.55,-55.72 118.39,-49.06"/>
</g>
<!-- Node3 -->
<g id="node3" class="node">
<title>Node3</title>
<g id="a_node3"><a xlink:href="../../de/d4c/classezp_1_1pdbsv.html" target="_top" xlink:title=" ">
<polygon fill="white" stroke="black" points="344,-155 344,-174 464,-174 464,-155 344,-155"/>
<text text-anchor="middle" x="404" y="-162" font-family="Helvetica,sans-Serif" font-size="10.00">ezp::pdbsv&lt; DT, IT &gt;</text>
</a>
</g>
</g>
<!-- Node2&#45;&gt;Node3 -->
<g id="edge2" class="edge">
<title>Node2&#45;&gt;Node3</title>
<path fill="none" stroke="midnightblue" d="M313.94,-146.42C328.22,-149.32 342.71,-152.26 355.73,-154.9"/>
<polygon fill="midnightblue" stroke="midnightblue" points="314.61,-142.99 304.11,-144.43 313.22,-149.85 314.61,-142.99"/>
</g>
<!-- Node4 -->
<g id="node4" class="node">
<title>Node4</title>
<g id="a_node4"><a xlink:href="../../d1/d7e/classezp_1_1pgbsv.html" target="_top" xlink:title=" ">
<polygon fill="white" stroke="black" points="344,-117 344,-136 464,-136 464,-117 344,-117"/>
<text text-anchor="middle" x="404" y="-124" font-family="Helvetica,sans-Serif" font-size="10.00">ezp::pgbsv&lt; DT, IT &gt;</text>
</a>
</g>
</g>
<!-- Node2&#45;&gt;Node4 -->
<g id="edge3" class="edge">
<title>Node2&#45;&gt;Node4</title>
<path fill="none" stroke="midnightblue" d="M314.39,-128.62C324.31,-128.38 334.33,-128.14 343.87,-127.91"/>
<polygon fill="midnightblue" stroke="midnightblue" points="314.03,-125.12 304.11,-128.86 314.19,-132.12 314.03,-125.12"/>
</g>
<!-- Node6 -->
<g id="node6" class="node">
<title>Node6</title>
<g id="a_node6"><a xlink:href="../../d3/df1/classezp_1_1ppbsv.html" target="_top" xlink:title=" ">
<polygon fill="white" stroke="black" points="346,-59.5 346,-89.5 462,-89.5 462,-59.5 346,-59.5"/>
<text text-anchor="start" x="354" y="-77.5" font-family="Helvetica,sans-Serif" font-size="10.00">ezp::ppbsv&lt; double,</text>
<text text-anchor="middle" x="404" y="-66.5" font-family="Helvetica,sans-Serif" font-size="10.00"> int_t &gt;</text>
</a>
</g>
</g>
<!-- Node5&#45;&gt;Node6 -->
<g id="edge5" class="edge">
<title>Node5&#45;&gt;Node6</title>
<path fill="none" stroke="midnightblue" d="M318.5,-72.48C327.77,-72.7 337.04,-72.92 345.87,-73.14"/>
<polygon fill="midnightblue" stroke="midnightblue" points="318.56,-68.98 308.48,-72.24 318.39,-75.98 318.56,-68.98"/>
</g>
<!-- Node7 -->
<g id="node7" class="node">
<title>Node7</title>
<g id="a_node7"><a xlink:href="../../d3/df1/classezp_1_1ppbsv.html" target="_top" xlink:title=" ">
<polygon fill="white" stroke="black" points="348,-10.5 348,-40.5 460,-40.5 460,-10.5 348,-10.5"/>
<text text-anchor="start" x="356" y="-28.5" font-family="Helvetica,sans-Serif" font-size="10.00">ezp::ppbsv&lt; DT, IT,</text>
<text text-anchor="middle" x="404" y="-17.5" font-family="Helvetica,sans-Serif" font-size="10.00"> UL &gt;</text>
</a>
</g>
</g>
<!-- Node5&#45;&gt;Node7 -->
<g id="edge6" class="edge">
<title>Node5&#45;&gt;Node7</title>
<path fill="none" stroke="midnightblue" d="M318.45,-48.22C328.44,-45.53 338.44,-42.84 347.9,-40.3"/>
<polygon fill="midnightblue" stroke="midnightblue" points="317.23,-44.92 308.48,-50.89 319.05,-51.68 317.23,-44.92"/>
</g>
</g>
</svg>
